G04 #@! TF.FileFunction,Legend,Top*
%FSLAX46Y46*%
G04 Gerber Fmt 4.6, Leading zero omitted, Abs format (unit mm)*
G04 Created by KiCad (PCBNEW no-vcs-found-undefined) date Mon Oct 24 18:16:08 2016*
%MOMM*%
%LPD*%
G01*
G04 APERTURE LIST*
%ADD10C,0.100000*%
%ADD11C,0.300000*%
%ADD12C,0.150000*%
%ADD13C,0.125000*%
G04 APERTURE END LIST*
D10*
D11*
X158030000Y-150585714D02*
X158201428Y-150642857D01*
X158487142Y-150642857D01*
X158601428Y-150585714D01*
X158658571Y-150528571D01*
X158715714Y-150414285D01*
X158715714Y-150300000D01*
X158658571Y-150185714D01*
X158601428Y-150128571D01*
X158487142Y-150071428D01*
X158258571Y-150014285D01*
X158144285Y-149957142D01*
X158087142Y-149900000D01*
X158030000Y-149785714D01*
X158030000Y-149671428D01*
X158087142Y-149557142D01*
X158144285Y-149500000D01*
X158258571Y-149442857D01*
X158544285Y-149442857D01*
X158715714Y-149500000D01*
X159230000Y-150642857D02*
X159230000Y-149442857D01*
X159915714Y-150642857D02*
X159401428Y-149957142D01*
X159915714Y-149442857D02*
X159230000Y-150128571D01*
X160430000Y-150642857D02*
X160430000Y-149442857D01*
X161001428Y-150642857D02*
X161001428Y-149442857D01*
X161687142Y-150642857D01*
X161687142Y-149442857D01*
X162201428Y-149557142D02*
X162258571Y-149500000D01*
X162372857Y-149442857D01*
X162658571Y-149442857D01*
X162772857Y-149500000D01*
X162830000Y-149557142D01*
X162887142Y-149671428D01*
X162887142Y-149785714D01*
X162830000Y-149957142D01*
X162144285Y-150642857D01*
X162887142Y-150642857D01*
X163630000Y-149442857D02*
X163744285Y-149442857D01*
X163858571Y-149500000D01*
X163915714Y-149557142D01*
X163972857Y-149671428D01*
X164030000Y-149900000D01*
X164030000Y-150185714D01*
X163972857Y-150414285D01*
X163915714Y-150528571D01*
X163858571Y-150585714D01*
X163744285Y-150642857D01*
X163630000Y-150642857D01*
X163515714Y-150585714D01*
X163458571Y-150528571D01*
X163401428Y-150414285D01*
X163344285Y-150185714D01*
X163344285Y-149900000D01*
X163401428Y-149671428D01*
X163458571Y-149557142D01*
X163515714Y-149500000D01*
X163630000Y-149442857D01*
X165172857Y-150642857D02*
X164487142Y-150642857D01*
X164830000Y-150642857D02*
X164830000Y-149442857D01*
X164715714Y-149614285D01*
X164601428Y-149728571D01*
X164487142Y-149785714D01*
X166201428Y-149442857D02*
X165972857Y-149442857D01*
X165858571Y-149500000D01*
X165801428Y-149557142D01*
X165687142Y-149728571D01*
X165630000Y-149957142D01*
X165630000Y-150414285D01*
X165687142Y-150528571D01*
X165744285Y-150585714D01*
X165858571Y-150642857D01*
X166087142Y-150642857D01*
X166201428Y-150585714D01*
X166258571Y-150528571D01*
X166315714Y-150414285D01*
X166315714Y-150128571D01*
X166258571Y-150014285D01*
X166201428Y-149957142D01*
X166087142Y-149900000D01*
X165858571Y-149900000D01*
X165744285Y-149957142D01*
X165687142Y-150014285D01*
X165630000Y-150128571D01*
X160401428Y-152857142D02*
X160287142Y-152800000D01*
X160172857Y-152685714D01*
X160001428Y-152514285D01*
X159887142Y-152457142D01*
X159772857Y-152457142D01*
X159830000Y-152742857D02*
X159715714Y-152685714D01*
X159601428Y-152571428D01*
X159544285Y-152342857D01*
X159544285Y-151942857D01*
X159601428Y-151714285D01*
X159715714Y-151600000D01*
X159830000Y-151542857D01*
X160058571Y-151542857D01*
X160172857Y-151600000D01*
X160287142Y-151714285D01*
X160344285Y-151942857D01*
X160344285Y-152342857D01*
X160287142Y-152571428D01*
X160172857Y-152685714D01*
X160058571Y-152742857D01*
X159830000Y-152742857D01*
X161258571Y-152114285D02*
X160858571Y-152114285D01*
X160858571Y-152742857D02*
X160858571Y-151542857D01*
X161430000Y-151542857D01*
X161887142Y-152742857D02*
X161887142Y-151542857D01*
X162572857Y-152742857D01*
X162572857Y-151542857D01*
X163887142Y-151542857D02*
X164287142Y-152742857D01*
X164687142Y-151542857D01*
X165715714Y-152742857D02*
X165030000Y-152742857D01*
X165372857Y-152742857D02*
X165372857Y-151542857D01*
X165258571Y-151714285D01*
X165144285Y-151828571D01*
X165030000Y-151885714D01*
X160287142Y-154842857D02*
X159887142Y-154271428D01*
X159601428Y-154842857D02*
X159601428Y-153642857D01*
X160058571Y-153642857D01*
X160172857Y-153700000D01*
X160230000Y-153757142D01*
X160287142Y-153871428D01*
X160287142Y-154042857D01*
X160230000Y-154157142D01*
X160172857Y-154214285D01*
X160058571Y-154271428D01*
X159601428Y-154271428D01*
X161944285Y-153642857D02*
X162172857Y-153642857D01*
X162287142Y-153700000D01*
X162401428Y-153814285D01*
X162458571Y-154042857D01*
X162458571Y-154442857D01*
X162401428Y-154671428D01*
X162287142Y-154785714D01*
X162172857Y-154842857D01*
X161944285Y-154842857D01*
X161830000Y-154785714D01*
X161715714Y-154671428D01*
X161658571Y-154442857D01*
X161658571Y-154042857D01*
X161715714Y-153814285D01*
X161830000Y-153700000D01*
X161944285Y-153642857D01*
X162972857Y-154842857D02*
X162972857Y-153642857D01*
X163658571Y-154842857D01*
X163658571Y-153642857D01*
X164230000Y-154214285D02*
X164630000Y-154214285D01*
X164801428Y-154842857D02*
X164230000Y-154842857D01*
X164230000Y-153642857D01*
X164801428Y-153642857D01*
X165144285Y-153642857D02*
X165830000Y-153642857D01*
X165487142Y-154842857D02*
X165487142Y-153642857D01*
D12*
X153057000Y-139631000D02*
X152532000Y-139631000D01*
X153057000Y-146881000D02*
X152532000Y-146881000D01*
X145807000Y-146881000D02*
X146332000Y-146881000D01*
X145807000Y-139631000D02*
X146332000Y-139631000D01*
X153057000Y-146881000D02*
X153057000Y-146356000D01*
X145807000Y-146881000D02*
X145807000Y-146356000D01*
X153057000Y-139631000D02*
X153057000Y-140156000D01*
X152505000Y-150650000D02*
X152505000Y-150150000D01*
X151555000Y-150150000D02*
X151555000Y-150650000D01*
X155905000Y-150650000D02*
X155905000Y-150150000D01*
X154955000Y-150150000D02*
X154955000Y-150650000D01*
X156280000Y-145575000D02*
X156780000Y-145575000D01*
X156780000Y-144625000D02*
X156280000Y-144625000D01*
X156280000Y-144175000D02*
X156780000Y-144175000D01*
X156780000Y-143225000D02*
X156280000Y-143225000D01*
X156280000Y-142775000D02*
X156780000Y-142775000D01*
X156780000Y-141825000D02*
X156280000Y-141825000D01*
X156280000Y-141375000D02*
X156780000Y-141375000D01*
X156780000Y-140425000D02*
X156280000Y-140425000D01*
X153380000Y-137425000D02*
X152880000Y-137425000D01*
X152880000Y-138375000D02*
X153380000Y-138375000D01*
X159480000Y-144625000D02*
X158980000Y-144625000D01*
X158980000Y-145575000D02*
X159480000Y-145575000D01*
X159480000Y-143225000D02*
X158980000Y-143225000D01*
X158980000Y-144175000D02*
X159480000Y-144175000D01*
X159480000Y-141825000D02*
X158980000Y-141825000D01*
X158980000Y-142775000D02*
X159480000Y-142775000D01*
X159480000Y-140425000D02*
X158980000Y-140425000D01*
X158980000Y-141375000D02*
X159480000Y-141375000D01*
X167898000Y-121823500D02*
X168398000Y-121823500D01*
X168398000Y-120873500D02*
X167898000Y-120873500D01*
X164879000Y-124146500D02*
X164879000Y-124646500D01*
X165829000Y-124646500D02*
X165829000Y-124146500D01*
X137888000Y-119770000D02*
X137888000Y-123370000D01*
X139988000Y-119770000D02*
X139988000Y-123370000D01*
X139238000Y-121820000D02*
X138638000Y-121820000D01*
X138638000Y-121820000D02*
X138938000Y-121520000D01*
X138938000Y-121520000D02*
X139138000Y-121720000D01*
X139138000Y-121720000D02*
X138888000Y-121720000D01*
X138888000Y-121720000D02*
X138938000Y-121670000D01*
X139438000Y-121420000D02*
X138438000Y-121420000D01*
X138938000Y-121920000D02*
X138938000Y-122420000D01*
X138938000Y-121420000D02*
X139438000Y-121920000D01*
X139438000Y-121920000D02*
X138438000Y-121920000D01*
X138438000Y-121920000D02*
X138938000Y-121420000D01*
X142550000Y-148450000D02*
X142550000Y-150000000D01*
X139450000Y-150000000D02*
X139450000Y-148450000D01*
X139450000Y-148450000D02*
X142550000Y-148450000D01*
X139730000Y-151270000D02*
X142270000Y-151270000D01*
X168630000Y-145770000D02*
X170180000Y-145770000D01*
X170180000Y-148870000D02*
X168630000Y-148870000D01*
X168630000Y-148870000D02*
X168630000Y-145770000D01*
X171450000Y-148590000D02*
X171450000Y-146050000D01*
X168630000Y-135640000D02*
X170180000Y-135640000D01*
X170180000Y-138740000D02*
X168630000Y-138740000D01*
X168630000Y-138740000D02*
X168630000Y-135640000D01*
X171450000Y-138460000D02*
X171450000Y-135920000D01*
X155550000Y-157700000D02*
X154000000Y-157700000D01*
X155550000Y-159000000D02*
X155550000Y-157700000D01*
X154127000Y-163191000D02*
X154127000Y-169033000D01*
X154127000Y-169033000D02*
X153873000Y-169033000D01*
X153873000Y-169033000D02*
X153873000Y-163191000D01*
X153873000Y-163191000D02*
X154000000Y-163191000D01*
X154000000Y-163191000D02*
X154000000Y-169033000D01*
X154254000Y-160524000D02*
X154254000Y-160143000D01*
X153746000Y-160524000D02*
X153746000Y-160143000D01*
X151714000Y-160524000D02*
X151714000Y-160143000D01*
X151206000Y-160524000D02*
X151206000Y-160143000D01*
X149174000Y-160524000D02*
X149174000Y-160143000D01*
X148666000Y-160524000D02*
X148666000Y-160143000D01*
X146126000Y-160524000D02*
X146126000Y-160143000D01*
X146634000Y-160524000D02*
X146634000Y-160143000D01*
X155270000Y-160524000D02*
X155270000Y-163064000D01*
X152730000Y-160524000D02*
X152730000Y-163064000D01*
X152730000Y-160524000D02*
X150190000Y-160524000D01*
X150190000Y-160524000D02*
X150190000Y-163064000D01*
X151714000Y-163064000D02*
X151714000Y-169160000D01*
X151714000Y-169160000D02*
X151206000Y-169160000D01*
X151206000Y-169160000D02*
X151206000Y-163064000D01*
X150190000Y-163064000D02*
X152730000Y-163064000D01*
X152730000Y-163064000D02*
X155270000Y-163064000D01*
X153746000Y-169160000D02*
X153746000Y-163064000D01*
X154254000Y-169160000D02*
X153746000Y-169160000D01*
X154254000Y-163064000D02*
X154254000Y-169160000D01*
X152730000Y-160524000D02*
X152730000Y-163064000D01*
X155270000Y-160524000D02*
X152730000Y-160524000D01*
X147650000Y-160524000D02*
X147650000Y-163064000D01*
X147650000Y-160524000D02*
X145110000Y-160524000D01*
X145110000Y-160524000D02*
X145110000Y-163064000D01*
X146634000Y-163064000D02*
X146634000Y-169160000D01*
X146634000Y-169160000D02*
X146126000Y-169160000D01*
X146126000Y-169160000D02*
X146126000Y-163064000D01*
X145110000Y-163064000D02*
X147650000Y-163064000D01*
X147650000Y-163064000D02*
X150190000Y-163064000D01*
X148666000Y-169160000D02*
X148666000Y-163064000D01*
X149174000Y-169160000D02*
X148666000Y-169160000D01*
X149174000Y-163064000D02*
X149174000Y-169160000D01*
X147650000Y-160524000D02*
X147650000Y-163064000D01*
X150190000Y-160524000D02*
X147650000Y-160524000D01*
X150190000Y-160524000D02*
X150190000Y-163064000D01*
X152985000Y-128690000D02*
X151435000Y-128690000D01*
X151435000Y-127140000D02*
X151435000Y-128690000D01*
X154255000Y-128410000D02*
X154255000Y-125870000D01*
X154255000Y-125870000D02*
X151715000Y-125870000D01*
X151715000Y-125870000D02*
X151715000Y-123330000D01*
X151715000Y-123330000D02*
X156795000Y-123330000D01*
X156795000Y-123330000D02*
X156795000Y-128410000D01*
X156795000Y-128410000D02*
X154255000Y-128410000D01*
X168630000Y-138150000D02*
X170180000Y-138150000D01*
X170180000Y-141250000D02*
X168630000Y-141250000D01*
X168630000Y-141250000D02*
X168630000Y-138150000D01*
X171450000Y-140970000D02*
X171450000Y-138430000D01*
X168630000Y-140690000D02*
X170180000Y-140690000D01*
X170180000Y-143790000D02*
X168630000Y-143790000D01*
X168630000Y-143790000D02*
X168630000Y-140690000D01*
X171450000Y-143510000D02*
X171450000Y-140970000D01*
X168630000Y-143230000D02*
X170180000Y-143230000D01*
X170180000Y-146330000D02*
X168630000Y-146330000D01*
X168630000Y-146330000D02*
X168630000Y-143230000D01*
X171450000Y-146050000D02*
X171450000Y-143510000D01*
X166624000Y-119824500D02*
X164084000Y-119824500D01*
X169444000Y-120104500D02*
X167894000Y-120104500D01*
X166624000Y-119824500D02*
X166624000Y-117284500D01*
X167894000Y-117004500D02*
X169444000Y-117004500D01*
X169444000Y-117004500D02*
X169444000Y-120104500D01*
X166624000Y-117284500D02*
X164084000Y-117284500D01*
X164084000Y-117284500D02*
X164084000Y-119824500D01*
X137668000Y-127762000D02*
X137668000Y-125222000D01*
X137388000Y-130582000D02*
X137388000Y-129032000D01*
X137668000Y-127762000D02*
X140208000Y-127762000D01*
X140488000Y-129032000D02*
X140488000Y-130582000D01*
X140488000Y-130582000D02*
X137388000Y-130582000D01*
X140208000Y-127762000D02*
X140208000Y-125222000D01*
X140208000Y-125222000D02*
X137668000Y-125222000D01*
X167132000Y-129730500D02*
X164592000Y-129730500D01*
X169952000Y-130010500D02*
X168402000Y-130010500D01*
X167132000Y-129730500D02*
X167132000Y-127190500D01*
X168402000Y-126910500D02*
X169952000Y-126910500D01*
X169952000Y-126910500D02*
X169952000Y-130010500D01*
X167132000Y-127190500D02*
X164592000Y-127190500D01*
X164592000Y-127190500D02*
X164592000Y-129730500D01*
X146450000Y-112800000D02*
X148000000Y-112800000D01*
X146450000Y-111500000D02*
X146450000Y-112800000D01*
X147873000Y-107309000D02*
X147873000Y-101467000D01*
X147873000Y-101467000D02*
X148127000Y-101467000D01*
X148127000Y-101467000D02*
X148127000Y-107309000D01*
X148127000Y-107309000D02*
X148000000Y-107309000D01*
X148000000Y-107309000D02*
X148000000Y-101467000D01*
X147746000Y-109976000D02*
X147746000Y-110357000D01*
X148254000Y-109976000D02*
X148254000Y-110357000D01*
X150286000Y-109976000D02*
X150286000Y-110357000D01*
X150794000Y-109976000D02*
X150794000Y-110357000D01*
X152826000Y-109976000D02*
X152826000Y-110357000D01*
X153334000Y-109976000D02*
X153334000Y-110357000D01*
X160954000Y-109976000D02*
X160954000Y-110357000D01*
X160446000Y-109976000D02*
X160446000Y-110357000D01*
X158414000Y-109976000D02*
X158414000Y-110357000D01*
X157906000Y-109976000D02*
X157906000Y-110357000D01*
X155874000Y-109976000D02*
X155874000Y-110357000D01*
X155366000Y-109976000D02*
X155366000Y-110357000D01*
X146730000Y-109976000D02*
X146730000Y-107436000D01*
X149270000Y-109976000D02*
X149270000Y-107436000D01*
X149270000Y-109976000D02*
X151810000Y-109976000D01*
X151810000Y-109976000D02*
X151810000Y-107436000D01*
X150286000Y-107436000D02*
X150286000Y-101340000D01*
X150286000Y-101340000D02*
X150794000Y-101340000D01*
X150794000Y-101340000D02*
X150794000Y-107436000D01*
X151810000Y-107436000D02*
X149270000Y-107436000D01*
X149270000Y-107436000D02*
X146730000Y-107436000D01*
X148254000Y-101340000D02*
X148254000Y-107436000D01*
X147746000Y-101340000D02*
X148254000Y-101340000D01*
X147746000Y-107436000D02*
X147746000Y-101340000D01*
X149270000Y-109976000D02*
X149270000Y-107436000D01*
X146730000Y-109976000D02*
X149270000Y-109976000D01*
X156890000Y-109976000D02*
X156890000Y-107436000D01*
X156890000Y-109976000D02*
X159430000Y-109976000D01*
X159430000Y-109976000D02*
X159430000Y-107436000D01*
X157906000Y-107436000D02*
X157906000Y-101340000D01*
X157906000Y-101340000D02*
X158414000Y-101340000D01*
X158414000Y-101340000D02*
X158414000Y-107436000D01*
X159430000Y-107436000D02*
X156890000Y-107436000D01*
X161970000Y-107436000D02*
X159430000Y-107436000D01*
X160954000Y-101340000D02*
X160954000Y-107436000D01*
X160446000Y-101340000D02*
X160954000Y-101340000D01*
X160446000Y-107436000D02*
X160446000Y-101340000D01*
X161970000Y-109976000D02*
X161970000Y-107436000D01*
X159430000Y-109976000D02*
X161970000Y-109976000D01*
X159430000Y-109976000D02*
X159430000Y-107436000D01*
X154350000Y-109976000D02*
X154350000Y-107436000D01*
X154350000Y-109976000D02*
X156890000Y-109976000D01*
X156890000Y-109976000D02*
X156890000Y-107436000D01*
X155366000Y-107436000D02*
X155366000Y-101340000D01*
X155366000Y-101340000D02*
X155874000Y-101340000D01*
X155874000Y-101340000D02*
X155874000Y-107436000D01*
X156890000Y-107436000D02*
X154350000Y-107436000D01*
X154350000Y-107436000D02*
X151810000Y-107436000D01*
X153334000Y-101340000D02*
X153334000Y-107436000D01*
X152826000Y-101340000D02*
X153334000Y-101340000D01*
X152826000Y-107436000D02*
X152826000Y-101340000D01*
X154350000Y-109976000D02*
X154350000Y-107436000D01*
X151810000Y-109976000D02*
X154350000Y-109976000D01*
X151810000Y-109976000D02*
X151810000Y-107436000D01*
X150855000Y-137150000D02*
X150855000Y-136650000D01*
X149805000Y-136650000D02*
X149805000Y-137150000D01*
X153100000Y-121175000D02*
X152600000Y-121175000D01*
X152600000Y-122225000D02*
X153100000Y-122225000D01*
X155600000Y-121175000D02*
X155100000Y-121175000D01*
X155100000Y-122225000D02*
X155600000Y-122225000D01*
X159516000Y-139463000D02*
X160016000Y-139463000D01*
X160016000Y-138413000D02*
X159516000Y-138413000D01*
X160016000Y-137143000D02*
X159516000Y-137143000D01*
X159516000Y-138193000D02*
X160016000Y-138193000D01*
X140803000Y-121912000D02*
X140803000Y-120912000D01*
X142153000Y-120912000D02*
X142153000Y-121912000D01*
X168923240Y-125634136D02*
X168923240Y-125585876D01*
X168222200Y-122835156D02*
X168923240Y-122835156D01*
X168923240Y-122835156D02*
X168923240Y-123084076D01*
X168923240Y-125634136D02*
X168923240Y-125834796D01*
X168923240Y-125834796D02*
X168222200Y-125834796D01*
X142355000Y-143350000D02*
X142355000Y-143850000D01*
X143305000Y-143850000D02*
X143305000Y-143350000D01*
X149955000Y-150150000D02*
X149955000Y-150650000D01*
X150905000Y-150650000D02*
X150905000Y-150150000D01*
X153255000Y-150150000D02*
X153255000Y-150650000D01*
X154205000Y-150650000D02*
X154205000Y-150150000D01*
X145368095Y-147552380D02*
X145368095Y-148361904D01*
X145415714Y-148457142D01*
X145463333Y-148504761D01*
X145558571Y-148552380D01*
X145749047Y-148552380D01*
X145844285Y-148504761D01*
X145891904Y-148457142D01*
X145939523Y-148361904D01*
X145939523Y-147552380D01*
X146939523Y-148552380D02*
X146368095Y-148552380D01*
X146653809Y-148552380D02*
X146653809Y-147552380D01*
X146558571Y-147695238D01*
X146463333Y-147790476D01*
X146368095Y-147838095D01*
X152280000Y-152516666D02*
X152313333Y-152550000D01*
X152346666Y-152650000D01*
X152346666Y-152716666D01*
X152313333Y-152816666D01*
X152246666Y-152883333D01*
X152180000Y-152916666D01*
X152046666Y-152950000D01*
X151946666Y-152950000D01*
X151813333Y-152916666D01*
X151746666Y-152883333D01*
X151680000Y-152816666D01*
X151646666Y-152716666D01*
X151646666Y-152650000D01*
X151680000Y-152550000D01*
X151713333Y-152516666D01*
X152346666Y-151850000D02*
X152346666Y-152250000D01*
X152346666Y-152050000D02*
X151646666Y-152050000D01*
X151746666Y-152116666D01*
X151813333Y-152183333D01*
X151846666Y-152250000D01*
D13*
X155780000Y-152516666D02*
X155813333Y-152550000D01*
X155846666Y-152650000D01*
X155846666Y-152716666D01*
X155813333Y-152816666D01*
X155746666Y-152883333D01*
X155680000Y-152916666D01*
X155546666Y-152950000D01*
X155446666Y-152950000D01*
X155313333Y-152916666D01*
X155246666Y-152883333D01*
X155180000Y-152816666D01*
X155146666Y-152716666D01*
X155146666Y-152650000D01*
X155180000Y-152550000D01*
X155213333Y-152516666D01*
X155146666Y-152283333D02*
X155146666Y-151850000D01*
X155413333Y-152083333D01*
X155413333Y-151983333D01*
X155446666Y-151916666D01*
X155480000Y-151883333D01*
X155546666Y-151850000D01*
X155713333Y-151850000D01*
X155780000Y-151883333D01*
X155813333Y-151916666D01*
X155846666Y-151983333D01*
X155846666Y-152183333D01*
X155813333Y-152250000D01*
X155780000Y-152283333D01*
D12*
X154513333Y-145350000D02*
X154480000Y-145383333D01*
X154380000Y-145416666D01*
X154313333Y-145416666D01*
X154213333Y-145383333D01*
X154146666Y-145316666D01*
X154113333Y-145250000D01*
X154080000Y-145116666D01*
X154080000Y-145016666D01*
X154113333Y-144883333D01*
X154146666Y-144816666D01*
X154213333Y-144750000D01*
X154313333Y-144716666D01*
X154380000Y-144716666D01*
X154480000Y-144750000D01*
X154513333Y-144783333D01*
X155146666Y-144716666D02*
X154813333Y-144716666D01*
X154780000Y-145050000D01*
X154813333Y-145016666D01*
X154880000Y-144983333D01*
X155046666Y-144983333D01*
X155113333Y-145016666D01*
X155146666Y-145050000D01*
X155180000Y-145116666D01*
X155180000Y-145283333D01*
X155146666Y-145350000D01*
X155113333Y-145383333D01*
X155046666Y-145416666D01*
X154880000Y-145416666D01*
X154813333Y-145383333D01*
X154780000Y-145350000D01*
D13*
X154513333Y-143950000D02*
X154480000Y-143983333D01*
X154380000Y-144016666D01*
X154313333Y-144016666D01*
X154213333Y-143983333D01*
X154146666Y-143916666D01*
X154113333Y-143850000D01*
X154080000Y-143716666D01*
X154080000Y-143616666D01*
X154113333Y-143483333D01*
X154146666Y-143416666D01*
X154213333Y-143350000D01*
X154313333Y-143316666D01*
X154380000Y-143316666D01*
X154480000Y-143350000D01*
X154513333Y-143383333D01*
X155113333Y-143316666D02*
X154980000Y-143316666D01*
X154913333Y-143350000D01*
X154880000Y-143383333D01*
X154813333Y-143483333D01*
X154780000Y-143616666D01*
X154780000Y-143883333D01*
X154813333Y-143950000D01*
X154846666Y-143983333D01*
X154913333Y-144016666D01*
X155046666Y-144016666D01*
X155113333Y-143983333D01*
X155146666Y-143950000D01*
X155180000Y-143883333D01*
X155180000Y-143716666D01*
X155146666Y-143650000D01*
X155113333Y-143616666D01*
X155046666Y-143583333D01*
X154913333Y-143583333D01*
X154846666Y-143616666D01*
X154813333Y-143650000D01*
X154780000Y-143716666D01*
D12*
X154513333Y-142550000D02*
X154480000Y-142583333D01*
X154380000Y-142616666D01*
X154313333Y-142616666D01*
X154213333Y-142583333D01*
X154146666Y-142516666D01*
X154113333Y-142450000D01*
X154080000Y-142316666D01*
X154080000Y-142216666D01*
X154113333Y-142083333D01*
X154146666Y-142016666D01*
X154213333Y-141950000D01*
X154313333Y-141916666D01*
X154380000Y-141916666D01*
X154480000Y-141950000D01*
X154513333Y-141983333D01*
X154746666Y-141916666D02*
X155213333Y-141916666D01*
X154913333Y-142616666D01*
D13*
X154413333Y-141250000D02*
X154380000Y-141283333D01*
X154280000Y-141316666D01*
X154213333Y-141316666D01*
X154113333Y-141283333D01*
X154046666Y-141216666D01*
X154013333Y-141150000D01*
X153980000Y-141016666D01*
X153980000Y-140916666D01*
X154013333Y-140783333D01*
X154046666Y-140716666D01*
X154113333Y-140650000D01*
X154213333Y-140616666D01*
X154280000Y-140616666D01*
X154380000Y-140650000D01*
X154413333Y-140683333D01*
X154813333Y-140916666D02*
X154746666Y-140883333D01*
X154713333Y-140850000D01*
X154680000Y-140783333D01*
X154680000Y-140750000D01*
X154713333Y-140683333D01*
X154746666Y-140650000D01*
X154813333Y-140616666D01*
X154946666Y-140616666D01*
X155013333Y-140650000D01*
X155046666Y-140683333D01*
X155080000Y-140750000D01*
X155080000Y-140783333D01*
X155046666Y-140850000D01*
X155013333Y-140883333D01*
X154946666Y-140916666D01*
X154813333Y-140916666D01*
X154746666Y-140950000D01*
X154713333Y-140983333D01*
X154680000Y-141050000D01*
X154680000Y-141183333D01*
X154713333Y-141250000D01*
X154746666Y-141283333D01*
X154813333Y-141316666D01*
X154946666Y-141316666D01*
X155013333Y-141283333D01*
X155046666Y-141250000D01*
X155080000Y-141183333D01*
X155080000Y-141050000D01*
X155046666Y-140983333D01*
X155013333Y-140950000D01*
X154946666Y-140916666D01*
D12*
X153563333Y-137057142D02*
X153515714Y-137104761D01*
X153372857Y-137152380D01*
X153277619Y-137152380D01*
X153134761Y-137104761D01*
X153039523Y-137009523D01*
X152991904Y-136914285D01*
X152944285Y-136723809D01*
X152944285Y-136580952D01*
X152991904Y-136390476D01*
X153039523Y-136295238D01*
X153134761Y-136200000D01*
X153277619Y-136152380D01*
X153372857Y-136152380D01*
X153515714Y-136200000D01*
X153563333Y-136247619D01*
X154039523Y-137152380D02*
X154230000Y-137152380D01*
X154325238Y-137104761D01*
X154372857Y-137057142D01*
X154468095Y-136914285D01*
X154515714Y-136723809D01*
X154515714Y-136342857D01*
X154468095Y-136247619D01*
X154420476Y-136200000D01*
X154325238Y-136152380D01*
X154134761Y-136152380D01*
X154039523Y-136200000D01*
X153991904Y-136247619D01*
X153944285Y-136342857D01*
X153944285Y-136580952D01*
X153991904Y-136676190D01*
X154039523Y-136723809D01*
X154134761Y-136771428D01*
X154325238Y-136771428D01*
X154420476Y-136723809D01*
X154468095Y-136676190D01*
X154515714Y-136580952D01*
D13*
X160980000Y-145450000D02*
X160946666Y-145483333D01*
X160846666Y-145516666D01*
X160780000Y-145516666D01*
X160680000Y-145483333D01*
X160613333Y-145416666D01*
X160580000Y-145350000D01*
X160546666Y-145216666D01*
X160546666Y-145116666D01*
X160580000Y-144983333D01*
X160613333Y-144916666D01*
X160680000Y-144850000D01*
X160780000Y-144816666D01*
X160846666Y-144816666D01*
X160946666Y-144850000D01*
X160980000Y-144883333D01*
X161646666Y-145516666D02*
X161246666Y-145516666D01*
X161446666Y-145516666D02*
X161446666Y-144816666D01*
X161380000Y-144916666D01*
X161313333Y-144983333D01*
X161246666Y-145016666D01*
X162080000Y-144816666D02*
X162146666Y-144816666D01*
X162213333Y-144850000D01*
X162246666Y-144883333D01*
X162280000Y-144950000D01*
X162313333Y-145083333D01*
X162313333Y-145250000D01*
X162280000Y-145383333D01*
X162246666Y-145450000D01*
X162213333Y-145483333D01*
X162146666Y-145516666D01*
X162080000Y-145516666D01*
X162013333Y-145483333D01*
X161980000Y-145450000D01*
X161946666Y-145383333D01*
X161913333Y-145250000D01*
X161913333Y-145083333D01*
X161946666Y-144950000D01*
X161980000Y-144883333D01*
X162013333Y-144850000D01*
X162080000Y-144816666D01*
X160980000Y-143950000D02*
X160946666Y-143983333D01*
X160846666Y-144016666D01*
X160780000Y-144016666D01*
X160680000Y-143983333D01*
X160613333Y-143916666D01*
X160580000Y-143850000D01*
X160546666Y-143716666D01*
X160546666Y-143616666D01*
X160580000Y-143483333D01*
X160613333Y-143416666D01*
X160680000Y-143350000D01*
X160780000Y-143316666D01*
X160846666Y-143316666D01*
X160946666Y-143350000D01*
X160980000Y-143383333D01*
X161646666Y-144016666D02*
X161246666Y-144016666D01*
X161446666Y-144016666D02*
X161446666Y-143316666D01*
X161380000Y-143416666D01*
X161313333Y-143483333D01*
X161246666Y-143516666D01*
X162313333Y-144016666D02*
X161913333Y-144016666D01*
X162113333Y-144016666D02*
X162113333Y-143316666D01*
X162046666Y-143416666D01*
X161980000Y-143483333D01*
X161913333Y-143516666D01*
X160980000Y-142550000D02*
X160946666Y-142583333D01*
X160846666Y-142616666D01*
X160780000Y-142616666D01*
X160680000Y-142583333D01*
X160613333Y-142516666D01*
X160580000Y-142450000D01*
X160546666Y-142316666D01*
X160546666Y-142216666D01*
X160580000Y-142083333D01*
X160613333Y-142016666D01*
X160680000Y-141950000D01*
X160780000Y-141916666D01*
X160846666Y-141916666D01*
X160946666Y-141950000D01*
X160980000Y-141983333D01*
X161646666Y-142616666D02*
X161246666Y-142616666D01*
X161446666Y-142616666D02*
X161446666Y-141916666D01*
X161380000Y-142016666D01*
X161313333Y-142083333D01*
X161246666Y-142116666D01*
X161913333Y-141983333D02*
X161946666Y-141950000D01*
X162013333Y-141916666D01*
X162180000Y-141916666D01*
X162246666Y-141950000D01*
X162280000Y-141983333D01*
X162313333Y-142050000D01*
X162313333Y-142116666D01*
X162280000Y-142216666D01*
X161880000Y-142616666D01*
X162313333Y-142616666D01*
X160980000Y-141150000D02*
X160946666Y-141183333D01*
X160846666Y-141216666D01*
X160780000Y-141216666D01*
X160680000Y-141183333D01*
X160613333Y-141116666D01*
X160580000Y-141050000D01*
X160546666Y-140916666D01*
X160546666Y-140816666D01*
X160580000Y-140683333D01*
X160613333Y-140616666D01*
X160680000Y-140550000D01*
X160780000Y-140516666D01*
X160846666Y-140516666D01*
X160946666Y-140550000D01*
X160980000Y-140583333D01*
X161646666Y-141216666D02*
X161246666Y-141216666D01*
X161446666Y-141216666D02*
X161446666Y-140516666D01*
X161380000Y-140616666D01*
X161313333Y-140683333D01*
X161246666Y-140716666D01*
X161880000Y-140516666D02*
X162313333Y-140516666D01*
X162080000Y-140783333D01*
X162180000Y-140783333D01*
X162246666Y-140816666D01*
X162280000Y-140850000D01*
X162313333Y-140916666D01*
X162313333Y-141083333D01*
X162280000Y-141150000D01*
X162246666Y-141183333D01*
X162180000Y-141216666D01*
X161980000Y-141216666D01*
X161913333Y-141183333D01*
X161880000Y-141150000D01*
D12*
X170299142Y-121705642D02*
X170251523Y-121753261D01*
X170108666Y-121800880D01*
X170013428Y-121800880D01*
X169870571Y-121753261D01*
X169775333Y-121658023D01*
X169727714Y-121562785D01*
X169680095Y-121372309D01*
X169680095Y-121229452D01*
X169727714Y-121038976D01*
X169775333Y-120943738D01*
X169870571Y-120848500D01*
X170013428Y-120800880D01*
X170108666Y-120800880D01*
X170251523Y-120848500D01*
X170299142Y-120896119D01*
X171251523Y-121800880D02*
X170680095Y-121800880D01*
X170965809Y-121800880D02*
X170965809Y-120800880D01*
X170870571Y-120943738D01*
X170775333Y-121038976D01*
X170680095Y-121086595D01*
X172108666Y-121134214D02*
X172108666Y-121800880D01*
X171870571Y-120753261D02*
X171632476Y-121467547D01*
X172251523Y-121467547D01*
X164011142Y-125039357D02*
X164058761Y-125086976D01*
X164106380Y-125229833D01*
X164106380Y-125325071D01*
X164058761Y-125467928D01*
X163963523Y-125563166D01*
X163868285Y-125610785D01*
X163677809Y-125658404D01*
X163534952Y-125658404D01*
X163344476Y-125610785D01*
X163249238Y-125563166D01*
X163154000Y-125467928D01*
X163106380Y-125325071D01*
X163106380Y-125229833D01*
X163154000Y-125086976D01*
X163201619Y-125039357D01*
X164106380Y-124086976D02*
X164106380Y-124658404D01*
X164106380Y-124372690D02*
X163106380Y-124372690D01*
X163249238Y-124467928D01*
X163344476Y-124563166D01*
X163392095Y-124658404D01*
X163106380Y-123182214D02*
X163106380Y-123658404D01*
X163582571Y-123706023D01*
X163534952Y-123658404D01*
X163487333Y-123563166D01*
X163487333Y-123325071D01*
X163534952Y-123229833D01*
X163582571Y-123182214D01*
X163677809Y-123134595D01*
X163915904Y-123134595D01*
X164011142Y-123182214D01*
X164058761Y-123229833D01*
X164106380Y-123325071D01*
X164106380Y-123563166D01*
X164058761Y-123658404D01*
X164011142Y-123706023D01*
X139582380Y-119038095D02*
X138582380Y-119038095D01*
X138582380Y-118800000D01*
X138630000Y-118657142D01*
X138725238Y-118561904D01*
X138820476Y-118514285D01*
X139010952Y-118466666D01*
X139153809Y-118466666D01*
X139344285Y-118514285D01*
X139439523Y-118561904D01*
X139534761Y-118657142D01*
X139582380Y-118800000D01*
X139582380Y-119038095D01*
X139582380Y-117514285D02*
X139582380Y-118085714D01*
X139582380Y-117800000D02*
X138582380Y-117800000D01*
X138725238Y-117895238D01*
X138820476Y-117990476D01*
X138868095Y-118085714D01*
X139991904Y-153052380D02*
X139991904Y-152052380D01*
X140372857Y-152052380D01*
X140468095Y-152100000D01*
X140515714Y-152147619D01*
X140563333Y-152242857D01*
X140563333Y-152385714D01*
X140515714Y-152480952D01*
X140468095Y-152528571D01*
X140372857Y-152576190D01*
X139991904Y-152576190D01*
X141468095Y-152052380D02*
X140991904Y-152052380D01*
X140944285Y-152528571D01*
X140991904Y-152480952D01*
X141087142Y-152433333D01*
X141325238Y-152433333D01*
X141420476Y-152480952D01*
X141468095Y-152528571D01*
X141515714Y-152623809D01*
X141515714Y-152861904D01*
X141468095Y-152957142D01*
X141420476Y-153004761D01*
X141325238Y-153052380D01*
X141087142Y-153052380D01*
X140991904Y-153004761D01*
X140944285Y-152957142D01*
X166191904Y-148052380D02*
X166191904Y-147052380D01*
X166572857Y-147052380D01*
X166668095Y-147100000D01*
X166715714Y-147147619D01*
X166763333Y-147242857D01*
X166763333Y-147385714D01*
X166715714Y-147480952D01*
X166668095Y-147528571D01*
X166572857Y-147576190D01*
X166191904Y-147576190D01*
X167620476Y-147052380D02*
X167430000Y-147052380D01*
X167334761Y-147100000D01*
X167287142Y-147147619D01*
X167191904Y-147290476D01*
X167144285Y-147480952D01*
X167144285Y-147861904D01*
X167191904Y-147957142D01*
X167239523Y-148004761D01*
X167334761Y-148052380D01*
X167525238Y-148052380D01*
X167620476Y-148004761D01*
X167668095Y-147957142D01*
X167715714Y-147861904D01*
X167715714Y-147623809D01*
X167668095Y-147528571D01*
X167620476Y-147480952D01*
X167525238Y-147433333D01*
X167334761Y-147433333D01*
X167239523Y-147480952D01*
X167191904Y-147528571D01*
X167144285Y-147623809D01*
X165540714Y-137572380D02*
X165540714Y-136572380D01*
X165921666Y-136572380D01*
X166016904Y-136620000D01*
X166064523Y-136667619D01*
X166112142Y-136762857D01*
X166112142Y-136905714D01*
X166064523Y-137000952D01*
X166016904Y-137048571D01*
X165921666Y-137096190D01*
X165540714Y-137096190D01*
X167064523Y-137572380D02*
X166493095Y-137572380D01*
X166778809Y-137572380D02*
X166778809Y-136572380D01*
X166683571Y-136715238D01*
X166588333Y-136810476D01*
X166493095Y-136858095D01*
X167683571Y-136572380D02*
X167778809Y-136572380D01*
X167874047Y-136620000D01*
X167921666Y-136667619D01*
X167969285Y-136762857D01*
X168016904Y-136953333D01*
X168016904Y-137191428D01*
X167969285Y-137381904D01*
X167921666Y-137477142D01*
X167874047Y-137524761D01*
X167778809Y-137572380D01*
X167683571Y-137572380D01*
X167588333Y-137524761D01*
X167540714Y-137477142D01*
X167493095Y-137381904D01*
X167445476Y-137191428D01*
X167445476Y-136953333D01*
X167493095Y-136762857D01*
X167540714Y-136667619D01*
X167588333Y-136620000D01*
X167683571Y-136572380D01*
X156415714Y-159552380D02*
X156415714Y-158552380D01*
X156796666Y-158552380D01*
X156891904Y-158600000D01*
X156939523Y-158647619D01*
X156987142Y-158742857D01*
X156987142Y-158885714D01*
X156939523Y-158980952D01*
X156891904Y-159028571D01*
X156796666Y-159076190D01*
X156415714Y-159076190D01*
X157939523Y-159552380D02*
X157368095Y-159552380D01*
X157653809Y-159552380D02*
X157653809Y-158552380D01*
X157558571Y-158695238D01*
X157463333Y-158790476D01*
X157368095Y-158838095D01*
X158891904Y-159552380D02*
X158320476Y-159552380D01*
X158606190Y-159552380D02*
X158606190Y-158552380D01*
X158510952Y-158695238D01*
X158415714Y-158790476D01*
X158320476Y-158838095D01*
X148337380Y-128354285D02*
X147337380Y-128354285D01*
X147337380Y-127973333D01*
X147385000Y-127878095D01*
X147432619Y-127830476D01*
X147527857Y-127782857D01*
X147670714Y-127782857D01*
X147765952Y-127830476D01*
X147813571Y-127878095D01*
X147861190Y-127973333D01*
X147861190Y-128354285D01*
X148337380Y-126830476D02*
X148337380Y-127401904D01*
X148337380Y-127116190D02*
X147337380Y-127116190D01*
X147480238Y-127211428D01*
X147575476Y-127306666D01*
X147623095Y-127401904D01*
X147432619Y-126449523D02*
X147385000Y-126401904D01*
X147337380Y-126306666D01*
X147337380Y-126068571D01*
X147385000Y-125973333D01*
X147432619Y-125925714D01*
X147527857Y-125878095D01*
X147623095Y-125878095D01*
X147765952Y-125925714D01*
X148337380Y-126497142D01*
X148337380Y-125878095D01*
X165665714Y-140227380D02*
X165665714Y-139227380D01*
X166046666Y-139227380D01*
X166141904Y-139275000D01*
X166189523Y-139322619D01*
X166237142Y-139417857D01*
X166237142Y-139560714D01*
X166189523Y-139655952D01*
X166141904Y-139703571D01*
X166046666Y-139751190D01*
X165665714Y-139751190D01*
X167189523Y-140227380D02*
X166618095Y-140227380D01*
X166903809Y-140227380D02*
X166903809Y-139227380D01*
X166808571Y-139370238D01*
X166713333Y-139465476D01*
X166618095Y-139513095D01*
X167522857Y-139227380D02*
X168141904Y-139227380D01*
X167808571Y-139608333D01*
X167951428Y-139608333D01*
X168046666Y-139655952D01*
X168094285Y-139703571D01*
X168141904Y-139798809D01*
X168141904Y-140036904D01*
X168094285Y-140132142D01*
X168046666Y-140179761D01*
X167951428Y-140227380D01*
X167665714Y-140227380D01*
X167570476Y-140179761D01*
X167522857Y-140132142D01*
X165715714Y-142952380D02*
X165715714Y-141952380D01*
X166096666Y-141952380D01*
X166191904Y-142000000D01*
X166239523Y-142047619D01*
X166287142Y-142142857D01*
X166287142Y-142285714D01*
X166239523Y-142380952D01*
X166191904Y-142428571D01*
X166096666Y-142476190D01*
X165715714Y-142476190D01*
X167239523Y-142952380D02*
X166668095Y-142952380D01*
X166953809Y-142952380D02*
X166953809Y-141952380D01*
X166858571Y-142095238D01*
X166763333Y-142190476D01*
X166668095Y-142238095D01*
X168096666Y-142285714D02*
X168096666Y-142952380D01*
X167858571Y-141904761D02*
X167620476Y-142619047D01*
X168239523Y-142619047D01*
X165465714Y-145277380D02*
X165465714Y-144277380D01*
X165846666Y-144277380D01*
X165941904Y-144325000D01*
X165989523Y-144372619D01*
X166037142Y-144467857D01*
X166037142Y-144610714D01*
X165989523Y-144705952D01*
X165941904Y-144753571D01*
X165846666Y-144801190D01*
X165465714Y-144801190D01*
X166989523Y-145277380D02*
X166418095Y-145277380D01*
X166703809Y-145277380D02*
X166703809Y-144277380D01*
X166608571Y-144420238D01*
X166513333Y-144515476D01*
X166418095Y-144563095D01*
X167894285Y-144277380D02*
X167418095Y-144277380D01*
X167370476Y-144753571D01*
X167418095Y-144705952D01*
X167513333Y-144658333D01*
X167751428Y-144658333D01*
X167846666Y-144705952D01*
X167894285Y-144753571D01*
X167941904Y-144848809D01*
X167941904Y-145086904D01*
X167894285Y-145182142D01*
X167846666Y-145229761D01*
X167751428Y-145277380D01*
X167513333Y-145277380D01*
X167418095Y-145229761D01*
X167370476Y-145182142D01*
X171182380Y-119614285D02*
X170182380Y-119614285D01*
X170182380Y-119233333D01*
X170230000Y-119138095D01*
X170277619Y-119090476D01*
X170372857Y-119042857D01*
X170515714Y-119042857D01*
X170610952Y-119090476D01*
X170658571Y-119138095D01*
X170706190Y-119233333D01*
X170706190Y-119614285D01*
X171182380Y-118090476D02*
X171182380Y-118661904D01*
X171182380Y-118376190D02*
X170182380Y-118376190D01*
X170325238Y-118471428D01*
X170420476Y-118566666D01*
X170468095Y-118661904D01*
X170182380Y-117233333D02*
X170182380Y-117423809D01*
X170230000Y-117519047D01*
X170277619Y-117566666D01*
X170420476Y-117661904D01*
X170610952Y-117709523D01*
X170991904Y-117709523D01*
X171087142Y-117661904D01*
X171134761Y-117614285D01*
X171182380Y-117519047D01*
X171182380Y-117328571D01*
X171134761Y-117233333D01*
X171087142Y-117185714D01*
X170991904Y-117138095D01*
X170753809Y-117138095D01*
X170658571Y-117185714D01*
X170610952Y-117233333D01*
X170563333Y-117328571D01*
X170563333Y-117519047D01*
X170610952Y-117614285D01*
X170658571Y-117661904D01*
X170753809Y-117709523D01*
X137723714Y-132024380D02*
X137723714Y-131024380D01*
X138104666Y-131024380D01*
X138199904Y-131072000D01*
X138247523Y-131119619D01*
X138295142Y-131214857D01*
X138295142Y-131357714D01*
X138247523Y-131452952D01*
X138199904Y-131500571D01*
X138104666Y-131548190D01*
X137723714Y-131548190D01*
X139247523Y-132024380D02*
X138676095Y-132024380D01*
X138961809Y-132024380D02*
X138961809Y-131024380D01*
X138866571Y-131167238D01*
X138771333Y-131262476D01*
X138676095Y-131310095D01*
X139580857Y-131024380D02*
X140247523Y-131024380D01*
X139818952Y-132024380D01*
X171482380Y-129814285D02*
X170482380Y-129814285D01*
X170482380Y-129433333D01*
X170530000Y-129338095D01*
X170577619Y-129290476D01*
X170672857Y-129242857D01*
X170815714Y-129242857D01*
X170910952Y-129290476D01*
X170958571Y-129338095D01*
X171006190Y-129433333D01*
X171006190Y-129814285D01*
X171482380Y-128290476D02*
X171482380Y-128861904D01*
X171482380Y-128576190D02*
X170482380Y-128576190D01*
X170625238Y-128671428D01*
X170720476Y-128766666D01*
X170768095Y-128861904D01*
X170910952Y-127719047D02*
X170863333Y-127814285D01*
X170815714Y-127861904D01*
X170720476Y-127909523D01*
X170672857Y-127909523D01*
X170577619Y-127861904D01*
X170530000Y-127814285D01*
X170482380Y-127719047D01*
X170482380Y-127528571D01*
X170530000Y-127433333D01*
X170577619Y-127385714D01*
X170672857Y-127338095D01*
X170720476Y-127338095D01*
X170815714Y-127385714D01*
X170863333Y-127433333D01*
X170910952Y-127528571D01*
X170910952Y-127719047D01*
X170958571Y-127814285D01*
X171006190Y-127861904D01*
X171101428Y-127909523D01*
X171291904Y-127909523D01*
X171387142Y-127861904D01*
X171434761Y-127814285D01*
X171482380Y-127719047D01*
X171482380Y-127528571D01*
X171434761Y-127433333D01*
X171387142Y-127385714D01*
X171291904Y-127338095D01*
X171101428Y-127338095D01*
X171006190Y-127385714D01*
X170958571Y-127433333D01*
X170910952Y-127528571D01*
X146282380Y-111214285D02*
X145282380Y-111214285D01*
X145282380Y-110833333D01*
X145330000Y-110738095D01*
X145377619Y-110690476D01*
X145472857Y-110642857D01*
X145615714Y-110642857D01*
X145710952Y-110690476D01*
X145758571Y-110738095D01*
X145806190Y-110833333D01*
X145806190Y-111214285D01*
X146282380Y-109690476D02*
X146282380Y-110261904D01*
X146282380Y-109976190D02*
X145282380Y-109976190D01*
X145425238Y-110071428D01*
X145520476Y-110166666D01*
X145568095Y-110261904D01*
X146282380Y-109214285D02*
X146282380Y-109023809D01*
X146234761Y-108928571D01*
X146187142Y-108880952D01*
X146044285Y-108785714D01*
X145853809Y-108738095D01*
X145472857Y-108738095D01*
X145377619Y-108785714D01*
X145330000Y-108833333D01*
X145282380Y-108928571D01*
X145282380Y-109119047D01*
X145330000Y-109214285D01*
X145377619Y-109261904D01*
X145472857Y-109309523D01*
X145710952Y-109309523D01*
X145806190Y-109261904D01*
X145853809Y-109214285D01*
X145901428Y-109119047D01*
X145901428Y-108928571D01*
X145853809Y-108833333D01*
X145806190Y-108785714D01*
X145710952Y-108738095D01*
X149421666Y-137196666D02*
X149088333Y-137430000D01*
X149421666Y-137596666D02*
X148721666Y-137596666D01*
X148721666Y-137330000D01*
X148755000Y-137263333D01*
X148788333Y-137230000D01*
X148855000Y-137196666D01*
X148955000Y-137196666D01*
X149021666Y-137230000D01*
X149055000Y-137263333D01*
X149088333Y-137330000D01*
X149088333Y-137596666D01*
X148721666Y-136963333D02*
X148721666Y-136530000D01*
X148988333Y-136763333D01*
X148988333Y-136663333D01*
X149021666Y-136596666D01*
X149055000Y-136563333D01*
X149121666Y-136530000D01*
X149288333Y-136530000D01*
X149355000Y-136563333D01*
X149388333Y-136596666D01*
X149421666Y-136663333D01*
X149421666Y-136863333D01*
X149388333Y-136930000D01*
X149355000Y-136963333D01*
X152683333Y-120352380D02*
X152350000Y-119876190D01*
X152111904Y-120352380D02*
X152111904Y-119352380D01*
X152492857Y-119352380D01*
X152588095Y-119400000D01*
X152635714Y-119447619D01*
X152683333Y-119542857D01*
X152683333Y-119685714D01*
X152635714Y-119780952D01*
X152588095Y-119828571D01*
X152492857Y-119876190D01*
X152111904Y-119876190D01*
X153540476Y-119685714D02*
X153540476Y-120352380D01*
X153302380Y-119304761D02*
X153064285Y-120019047D01*
X153683333Y-120019047D01*
X155183333Y-120352380D02*
X154850000Y-119876190D01*
X154611904Y-120352380D02*
X154611904Y-119352380D01*
X154992857Y-119352380D01*
X155088095Y-119400000D01*
X155135714Y-119447619D01*
X155183333Y-119542857D01*
X155183333Y-119685714D01*
X155135714Y-119780952D01*
X155088095Y-119828571D01*
X154992857Y-119876190D01*
X154611904Y-119876190D01*
X156088095Y-119352380D02*
X155611904Y-119352380D01*
X155564285Y-119828571D01*
X155611904Y-119780952D01*
X155707142Y-119733333D01*
X155945238Y-119733333D01*
X156040476Y-119780952D01*
X156088095Y-119828571D01*
X156135714Y-119923809D01*
X156135714Y-120161904D01*
X156088095Y-120257142D01*
X156040476Y-120304761D01*
X155945238Y-120352380D01*
X155707142Y-120352380D01*
X155611904Y-120304761D01*
X155564285Y-120257142D01*
X161963333Y-139452380D02*
X161630000Y-138976190D01*
X161391904Y-139452380D02*
X161391904Y-138452380D01*
X161772857Y-138452380D01*
X161868095Y-138500000D01*
X161915714Y-138547619D01*
X161963333Y-138642857D01*
X161963333Y-138785714D01*
X161915714Y-138880952D01*
X161868095Y-138928571D01*
X161772857Y-138976190D01*
X161391904Y-138976190D01*
X162820476Y-138452380D02*
X162630000Y-138452380D01*
X162534761Y-138500000D01*
X162487142Y-138547619D01*
X162391904Y-138690476D01*
X162344285Y-138880952D01*
X162344285Y-139261904D01*
X162391904Y-139357142D01*
X162439523Y-139404761D01*
X162534761Y-139452380D01*
X162725238Y-139452380D01*
X162820476Y-139404761D01*
X162868095Y-139357142D01*
X162915714Y-139261904D01*
X162915714Y-139023809D01*
X162868095Y-138928571D01*
X162820476Y-138880952D01*
X162725238Y-138833333D01*
X162534761Y-138833333D01*
X162439523Y-138880952D01*
X162391904Y-138928571D01*
X162344285Y-139023809D01*
X161963333Y-138152380D02*
X161630000Y-137676190D01*
X161391904Y-138152380D02*
X161391904Y-137152380D01*
X161772857Y-137152380D01*
X161868095Y-137200000D01*
X161915714Y-137247619D01*
X161963333Y-137342857D01*
X161963333Y-137485714D01*
X161915714Y-137580952D01*
X161868095Y-137628571D01*
X161772857Y-137676190D01*
X161391904Y-137676190D01*
X162296666Y-137152380D02*
X162963333Y-137152380D01*
X162534761Y-138152380D01*
X143830380Y-121578666D02*
X143354190Y-121912000D01*
X143830380Y-122150095D02*
X142830380Y-122150095D01*
X142830380Y-121769142D01*
X142878000Y-121673904D01*
X142925619Y-121626285D01*
X143020857Y-121578666D01*
X143163714Y-121578666D01*
X143258952Y-121626285D01*
X143306571Y-121673904D01*
X143354190Y-121769142D01*
X143354190Y-122150095D01*
X143258952Y-121007238D02*
X143211333Y-121102476D01*
X143163714Y-121150095D01*
X143068476Y-121197714D01*
X143020857Y-121197714D01*
X142925619Y-121150095D01*
X142878000Y-121102476D01*
X142830380Y-121007238D01*
X142830380Y-120816761D01*
X142878000Y-120721523D01*
X142925619Y-120673904D01*
X143020857Y-120626285D01*
X143068476Y-120626285D01*
X143163714Y-120673904D01*
X143211333Y-120721523D01*
X143258952Y-120816761D01*
X143258952Y-121007238D01*
X143306571Y-121102476D01*
X143354190Y-121150095D01*
X143449428Y-121197714D01*
X143639904Y-121197714D01*
X143735142Y-121150095D01*
X143782761Y-121102476D01*
X143830380Y-121007238D01*
X143830380Y-120816761D01*
X143782761Y-120721523D01*
X143735142Y-120673904D01*
X143639904Y-120626285D01*
X143449428Y-120626285D01*
X143354190Y-120673904D01*
X143306571Y-120721523D01*
X143258952Y-120816761D01*
X169975380Y-125096880D02*
X170784904Y-125096880D01*
X170880142Y-125049261D01*
X170927761Y-125001642D01*
X170975380Y-124906404D01*
X170975380Y-124715928D01*
X170927761Y-124620690D01*
X170880142Y-124573071D01*
X170784904Y-124525452D01*
X169975380Y-124525452D01*
X170070619Y-124096880D02*
X170023000Y-124049261D01*
X169975380Y-123954023D01*
X169975380Y-123715928D01*
X170023000Y-123620690D01*
X170070619Y-123573071D01*
X170165857Y-123525452D01*
X170261095Y-123525452D01*
X170403952Y-123573071D01*
X170975380Y-124144499D01*
X170975380Y-123525452D01*
X167815714Y-112452380D02*
X167815714Y-111452380D01*
X168196666Y-111452380D01*
X168291904Y-111500000D01*
X168339523Y-111547619D01*
X168387142Y-111642857D01*
X168387142Y-111785714D01*
X168339523Y-111880952D01*
X168291904Y-111928571D01*
X168196666Y-111976190D01*
X167815714Y-111976190D01*
X168768095Y-111547619D02*
X168815714Y-111500000D01*
X168910952Y-111452380D01*
X169149047Y-111452380D01*
X169244285Y-111500000D01*
X169291904Y-111547619D01*
X169339523Y-111642857D01*
X169339523Y-111738095D01*
X169291904Y-111880952D01*
X168720476Y-112452380D01*
X169339523Y-112452380D01*
X169958571Y-111452380D02*
X170053809Y-111452380D01*
X170149047Y-111500000D01*
X170196666Y-111547619D01*
X170244285Y-111642857D01*
X170291904Y-111833333D01*
X170291904Y-112071428D01*
X170244285Y-112261904D01*
X170196666Y-112357142D01*
X170149047Y-112404761D01*
X170053809Y-112452380D01*
X169958571Y-112452380D01*
X169863333Y-112404761D01*
X169815714Y-112357142D01*
X169768095Y-112261904D01*
X169720476Y-112071428D01*
X169720476Y-111833333D01*
X169768095Y-111642857D01*
X169815714Y-111547619D01*
X169863333Y-111500000D01*
X169958571Y-111452380D01*
X139315714Y-112252380D02*
X139315714Y-111252380D01*
X139696666Y-111252380D01*
X139791904Y-111300000D01*
X139839523Y-111347619D01*
X139887142Y-111442857D01*
X139887142Y-111585714D01*
X139839523Y-111680952D01*
X139791904Y-111728571D01*
X139696666Y-111776190D01*
X139315714Y-111776190D01*
X140268095Y-111347619D02*
X140315714Y-111300000D01*
X140410952Y-111252380D01*
X140649047Y-111252380D01*
X140744285Y-111300000D01*
X140791904Y-111347619D01*
X140839523Y-111442857D01*
X140839523Y-111538095D01*
X140791904Y-111680952D01*
X140220476Y-112252380D01*
X140839523Y-112252380D01*
X141791904Y-112252380D02*
X141220476Y-112252380D01*
X141506190Y-112252380D02*
X141506190Y-111252380D01*
X141410952Y-111395238D01*
X141315714Y-111490476D01*
X141220476Y-111538095D01*
X167815714Y-158752380D02*
X167815714Y-157752380D01*
X168196666Y-157752380D01*
X168291904Y-157800000D01*
X168339523Y-157847619D01*
X168387142Y-157942857D01*
X168387142Y-158085714D01*
X168339523Y-158180952D01*
X168291904Y-158228571D01*
X168196666Y-158276190D01*
X167815714Y-158276190D01*
X168768095Y-157847619D02*
X168815714Y-157800000D01*
X168910952Y-157752380D01*
X169149047Y-157752380D01*
X169244285Y-157800000D01*
X169291904Y-157847619D01*
X169339523Y-157942857D01*
X169339523Y-158038095D01*
X169291904Y-158180952D01*
X168720476Y-158752380D01*
X169339523Y-158752380D01*
X169720476Y-157847619D02*
X169768095Y-157800000D01*
X169863333Y-157752380D01*
X170101428Y-157752380D01*
X170196666Y-157800000D01*
X170244285Y-157847619D01*
X170291904Y-157942857D01*
X170291904Y-158038095D01*
X170244285Y-158180952D01*
X169672857Y-158752380D01*
X170291904Y-158752380D01*
X139115714Y-158452380D02*
X139115714Y-157452380D01*
X139496666Y-157452380D01*
X139591904Y-157500000D01*
X139639523Y-157547619D01*
X139687142Y-157642857D01*
X139687142Y-157785714D01*
X139639523Y-157880952D01*
X139591904Y-157928571D01*
X139496666Y-157976190D01*
X139115714Y-157976190D01*
X140068095Y-157547619D02*
X140115714Y-157500000D01*
X140210952Y-157452380D01*
X140449047Y-157452380D01*
X140544285Y-157500000D01*
X140591904Y-157547619D01*
X140639523Y-157642857D01*
X140639523Y-157738095D01*
X140591904Y-157880952D01*
X140020476Y-158452380D01*
X140639523Y-158452380D01*
X140972857Y-157452380D02*
X141591904Y-157452380D01*
X141258571Y-157833333D01*
X141401428Y-157833333D01*
X141496666Y-157880952D01*
X141544285Y-157928571D01*
X141591904Y-158023809D01*
X141591904Y-158261904D01*
X141544285Y-158357142D01*
X141496666Y-158404761D01*
X141401428Y-158452380D01*
X141115714Y-158452380D01*
X141020476Y-158404761D01*
X140972857Y-158357142D01*
X143187142Y-141542857D02*
X143234761Y-141590476D01*
X143282380Y-141733333D01*
X143282380Y-141828571D01*
X143234761Y-141971428D01*
X143139523Y-142066666D01*
X143044285Y-142114285D01*
X142853809Y-142161904D01*
X142710952Y-142161904D01*
X142520476Y-142114285D01*
X142425238Y-142066666D01*
X142330000Y-141971428D01*
X142282380Y-141828571D01*
X142282380Y-141733333D01*
X142330000Y-141590476D01*
X142377619Y-141542857D01*
X143282380Y-140590476D02*
X143282380Y-141161904D01*
X143282380Y-140876190D02*
X142282380Y-140876190D01*
X142425238Y-140971428D01*
X142520476Y-141066666D01*
X142568095Y-141161904D01*
X142282380Y-140257142D02*
X142282380Y-139590476D01*
X143282380Y-140019047D01*
D13*
X150780000Y-152516666D02*
X150813333Y-152550000D01*
X150846666Y-152650000D01*
X150846666Y-152716666D01*
X150813333Y-152816666D01*
X150746666Y-152883333D01*
X150680000Y-152916666D01*
X150546666Y-152950000D01*
X150446666Y-152950000D01*
X150313333Y-152916666D01*
X150246666Y-152883333D01*
X150180000Y-152816666D01*
X150146666Y-152716666D01*
X150146666Y-152650000D01*
X150180000Y-152550000D01*
X150213333Y-152516666D01*
X150213333Y-152250000D02*
X150180000Y-152216666D01*
X150146666Y-152150000D01*
X150146666Y-151983333D01*
X150180000Y-151916666D01*
X150213333Y-151883333D01*
X150280000Y-151850000D01*
X150346666Y-151850000D01*
X150446666Y-151883333D01*
X150846666Y-152283333D01*
X150846666Y-151850000D01*
X153980000Y-152516666D02*
X154013333Y-152550000D01*
X154046666Y-152650000D01*
X154046666Y-152716666D01*
X154013333Y-152816666D01*
X153946666Y-152883333D01*
X153880000Y-152916666D01*
X153746666Y-152950000D01*
X153646666Y-152950000D01*
X153513333Y-152916666D01*
X153446666Y-152883333D01*
X153380000Y-152816666D01*
X153346666Y-152716666D01*
X153346666Y-152650000D01*
X153380000Y-152550000D01*
X153413333Y-152516666D01*
X153580000Y-151916666D02*
X154046666Y-151916666D01*
X153313333Y-152083333D02*
X153813333Y-152250000D01*
X153813333Y-151816666D01*
M02*
