G04 #@! TF.FileFunction,Soldermask,Top*
%FSLAX46Y46*%
G04 Gerber Fmt 4.6, Leading zero omitted, Abs format (unit mm)*
G04 Created by KiCad (PCBNEW no-vcs-found-undefined) date Mon Oct 24 18:16:08 2016*
%MOMM*%
%LPD*%
G01*
G04 APERTURE LIST*
%ADD10C,0.100000*%
%ADD11R,1.687500X1.687500*%
%ADD12R,0.650000X1.100000*%
%ADD13R,1.100000X0.650000*%
%ADD14R,0.900000X1.000000*%
%ADD15R,1.000000X0.900000*%
%ADD16R,2.200860X1.997660*%
%ADD17R,2.635200X2.635200*%
%ADD18R,2.127200X2.432000*%
%ADD19O,2.127200X2.432000*%
%ADD20R,2.127200X2.127200*%
%ADD21O,2.127200X2.127200*%
%ADD22R,2.432000X2.432000*%
%ADD23O,2.432000X2.432000*%
%ADD24R,1.000000X0.800000*%
%ADD25R,0.800000X1.000000*%
%ADD26R,1.300000X0.900000*%
%ADD27R,1.200100X1.200100*%
%ADD28C,7.400000*%
G04 APERTURE END LIST*
D10*
D11*
X147500750Y-141324750D03*
X147500750Y-142612250D03*
X147500750Y-143899750D03*
X147500750Y-145187250D03*
X148788250Y-141324750D03*
X148788250Y-142612250D03*
X148788250Y-143899750D03*
X148788250Y-145187250D03*
X150075750Y-141324750D03*
X150075750Y-142612250D03*
X150075750Y-143899750D03*
X150075750Y-145187250D03*
X151363250Y-141324750D03*
X151363250Y-142612250D03*
X151363250Y-143899750D03*
X151363250Y-145187250D03*
D12*
X146682000Y-139856000D03*
X147182000Y-139856000D03*
X147682000Y-139856000D03*
X148182000Y-139856000D03*
X148682000Y-139856000D03*
X149182000Y-139856000D03*
X149682000Y-139856000D03*
X150182000Y-139856000D03*
X150682000Y-139856000D03*
X151182000Y-139856000D03*
X151682000Y-139856000D03*
X152182000Y-139856000D03*
D13*
X152832000Y-140506000D03*
X152832000Y-141006000D03*
X152832000Y-141506000D03*
X152832000Y-142006000D03*
X152832000Y-142506000D03*
X152832000Y-143006000D03*
X152832000Y-143506000D03*
X152832000Y-144006000D03*
X152832000Y-144506000D03*
X152832000Y-145006000D03*
X152832000Y-145506000D03*
X152832000Y-146006000D03*
D12*
X152182000Y-146656000D03*
X151682000Y-146656000D03*
X151182000Y-146656000D03*
X150682000Y-146656000D03*
X150182000Y-146656000D03*
X149682000Y-146656000D03*
X149182000Y-146656000D03*
X148682000Y-146656000D03*
X148182000Y-146656000D03*
X147682000Y-146656000D03*
X147182000Y-146656000D03*
X146682000Y-146656000D03*
D13*
X146032000Y-146006000D03*
X146032000Y-145506000D03*
X146032000Y-145006000D03*
X146032000Y-144506000D03*
X146032000Y-144006000D03*
X146032000Y-143506000D03*
X146032000Y-143006000D03*
X146032000Y-142506000D03*
X146032000Y-142006000D03*
X146032000Y-141506000D03*
X146032000Y-141006000D03*
X146032000Y-140506000D03*
D14*
X152030000Y-149850000D03*
X152030000Y-150950000D03*
X155430000Y-149850000D03*
X155430000Y-150950000D03*
D15*
X157080000Y-145100000D03*
X155980000Y-145100000D03*
X157080000Y-143700000D03*
X155980000Y-143700000D03*
X157080000Y-142300000D03*
X155980000Y-142300000D03*
X157080000Y-140900000D03*
X155980000Y-140900000D03*
X152580000Y-137900000D03*
X153680000Y-137900000D03*
X158680000Y-145100000D03*
X159780000Y-145100000D03*
X158680000Y-143700000D03*
X159780000Y-143700000D03*
X158680000Y-142300000D03*
X159780000Y-142300000D03*
X158680000Y-140900000D03*
X159780000Y-140900000D03*
X168698000Y-121348500D03*
X167598000Y-121348500D03*
D14*
X165354000Y-124946500D03*
X165354000Y-123846500D03*
D16*
X138938000Y-123339860D03*
X138938000Y-120500140D03*
D17*
X141000000Y-150000000D03*
X170180000Y-147320000D03*
X170180000Y-137160000D03*
D18*
X154000000Y-159000000D03*
D19*
X151460000Y-159000000D03*
X148920000Y-159000000D03*
X146380000Y-159000000D03*
D20*
X152985000Y-127140000D03*
D21*
X152985000Y-124600000D03*
X155525000Y-127140000D03*
X155525000Y-124600000D03*
D17*
X170180000Y-139700000D03*
X170180000Y-142240000D03*
X170180000Y-144780000D03*
D22*
X167894000Y-118554500D03*
D23*
X165354000Y-118554500D03*
D22*
X138938000Y-129032000D03*
D23*
X138938000Y-126492000D03*
D22*
X168402000Y-128460500D03*
D23*
X165862000Y-128460500D03*
D18*
X148000000Y-111500000D03*
D19*
X150540000Y-111500000D03*
X153080000Y-111500000D03*
X155620000Y-111500000D03*
X158160000Y-111500000D03*
X160700000Y-111500000D03*
D24*
X150330000Y-136450000D03*
X150330000Y-137350000D03*
D25*
X152400000Y-121700000D03*
X153300000Y-121700000D03*
X154900000Y-121700000D03*
X155800000Y-121700000D03*
X160216000Y-138938000D03*
X159316000Y-138938000D03*
X159316000Y-137668000D03*
X160216000Y-137668000D03*
D26*
X141478000Y-120662000D03*
X141478000Y-122162000D03*
D27*
X167272240Y-123384976D03*
X167272240Y-125284976D03*
X169271220Y-124334976D03*
D28*
X169000000Y-112000000D03*
X140500000Y-112000000D03*
X169000000Y-158000000D03*
X140500000Y-158000000D03*
D14*
X142830000Y-144150000D03*
X142830000Y-143050000D03*
X150430000Y-150950000D03*
X150430000Y-149850000D03*
X153730000Y-150950000D03*
X153730000Y-149850000D03*
M02*
