M48
;DRILL file {KiCad no-vcs-found-undefined} date Mon Oct 24 18:16:32 2016
;FORMAT={-:-/ absolute / inch / decimal}
FMAT,2
INCH,TZ
T1C0.012
T2C0.031
T3C0.040
T4C0.138
%
G90
G05
M72
T1
X5.6232Y-5.7244
X5.6665Y-5.6102
X5.702Y-5.5709
X5.702Y-5.6063
X5.7531Y-5.4488
X5.8004Y-5.3898
X5.8043Y-5.563
X5.8043Y-5.6142
X5.8043Y-5.6654
X5.8043Y-5.7165
X5.8335Y-5.0731
X5.8516Y-5.3504
X5.8516Y-5.4173
X5.8555Y-5.563
X5.8555Y-5.6142
X5.8555Y-5.6654
X5.8555Y-5.7165
X5.8713Y-5.4606
X5.9063Y-5.6644
X5.9067Y-5.563
X5.9067Y-5.6142
X5.9067Y-5.7165
X5.9165Y-5.1417
X5.9236Y-4.8055
X5.9264Y-5.185
X5.9264Y-5.3071
X5.9579Y-5.563
X5.9579Y-5.6142
X5.9579Y-5.6654
X5.9579Y-5.7165
X5.9657Y-4.7913
X5.9854Y-5.4528
X5.9906Y-5.1114
X6.0917Y-5.4291
X6.1154Y-5.7638
X6.1429Y-5.7913
X6.1862Y-5.378
X6.1902Y-5.3189
X6.2098Y-5.3898
X6.2138Y-5.5
X6.2492Y-5.378
X6.3358Y-5.4173
X6.3437Y-5.4685
X6.3437Y-5.7024
X6.3516Y-5.6024
T2
X5.8827Y-5.6408
T3
X5.47Y-4.98
X5.47Y-5.08
X5.5512Y-5.9055
X5.763Y-6.2598
X5.8268Y-4.3898
X5.863Y-6.2598
X5.9268Y-4.3898
X5.963Y-6.2598
X6.023Y-4.9055
X6.023Y-5.0055
X6.0268Y-4.3898
X6.063Y-6.2598
X6.123Y-4.9055
X6.123Y-5.0055
X6.1268Y-4.3898
X6.2268Y-4.3898
X6.3268Y-4.3898
X6.51Y-4.6675
X6.53Y-5.0575
X6.61Y-4.6675
X6.63Y-5.0575
X6.7Y-5.4
X6.7Y-5.5
X6.7Y-5.6
X6.7Y-5.7
X6.7Y-5.8
T4
X5.5315Y-4.4094
X5.5315Y-6.2205
X6.6535Y-4.4094
X6.6535Y-6.2205
T0
M30
