G04 #@! TF.FileFunction,Copper,L3,Inr,Signal*
%FSLAX46Y46*%
G04 Gerber Fmt 4.6, Leading zero omitted, Abs format (unit mm)*
G04 Created by KiCad (PCBNEW no-vcs-found-undefined) date Mon Oct 24 18:16:08 2016*
%MOMM*%
%LPD*%
G01*
G04 APERTURE LIST*
%ADD10C,0.100000*%
%ADD11R,2.235200X2.235200*%
%ADD12R,1.727200X2.032000*%
%ADD13O,1.727200X2.032000*%
%ADD14R,1.727200X1.727200*%
%ADD15O,1.727200X1.727200*%
%ADD16R,2.032000X2.032000*%
%ADD17O,2.032000X2.032000*%
%ADD18C,7.000000*%
%ADD19C,0.460000*%
%ADD20C,1.200000*%
%ADD21C,0.200000*%
%ADD22C,0.254000*%
G04 APERTURE END LIST*
D10*
D11*
X141000000Y-150000000D03*
X170180000Y-147320000D03*
X170180000Y-137160000D03*
D12*
X154000000Y-159000000D03*
D13*
X151460000Y-159000000D03*
X148920000Y-159000000D03*
X146380000Y-159000000D03*
D14*
X152985000Y-127140000D03*
D15*
X152985000Y-124600000D03*
X155525000Y-127140000D03*
X155525000Y-124600000D03*
D11*
X170180000Y-139700000D03*
X170180000Y-142240000D03*
X170180000Y-144780000D03*
D16*
X167894000Y-118554500D03*
D17*
X165354000Y-118554500D03*
D16*
X138938000Y-129032000D03*
D17*
X138938000Y-126492000D03*
D16*
X168402000Y-128460500D03*
D17*
X165862000Y-128460500D03*
D12*
X148000000Y-111500000D03*
D13*
X150540000Y-111500000D03*
X153080000Y-111500000D03*
X155620000Y-111500000D03*
X158160000Y-111500000D03*
X160700000Y-111500000D03*
D18*
X169000000Y-112000000D03*
X140500000Y-112000000D03*
X169000000Y-158000000D03*
X140500000Y-158000000D03*
D19*
X147430000Y-145200000D03*
X147430000Y-143900000D03*
X148730000Y-145200000D03*
X147430000Y-141300000D03*
X148730000Y-141300000D03*
X147430000Y-142600000D03*
X148730000Y-143900000D03*
X150030000Y-141300000D03*
X148730000Y-142600000D03*
X151330000Y-141300000D03*
X151330000Y-142600000D03*
X150030000Y-142600000D03*
X144830000Y-141500000D03*
X144830000Y-142400000D03*
X154730000Y-137900000D03*
X161330000Y-142300000D03*
X161130000Y-144840000D03*
X148630000Y-135900000D03*
X142830000Y-145400000D03*
X151330000Y-143900000D03*
X151330000Y-145200000D03*
X150030000Y-145200000D03*
X150020339Y-143875660D03*
X160930000Y-137600000D03*
X150530000Y-134800000D03*
D20*
X149420340Y-143275661D03*
D19*
X152030000Y-138500000D03*
X143930000Y-142500000D03*
X161130000Y-138900000D03*
X150530000Y-131700000D03*
X146130000Y-138400000D03*
X151530000Y-121700000D03*
X150460000Y-122060000D03*
X147330000Y-136900000D03*
X157130000Y-136600000D03*
X148630000Y-137600000D03*
X157730000Y-136900000D03*
X149130000Y-138700000D03*
X152160000Y-129830000D03*
X148170493Y-128857794D03*
X156030000Y-147100000D03*
X155330000Y-146400000D03*
X158730000Y-136600000D03*
X157830000Y-139700000D03*
X157230000Y-135100000D03*
X150280000Y-130600000D03*
D21*
X151530000Y-139000000D02*
X152030000Y-138500000D01*
X143930000Y-142500000D02*
X143930000Y-137600000D01*
X143930000Y-137600000D02*
X144630000Y-136900000D01*
X161030000Y-139000000D02*
X151530000Y-139000000D01*
X151530000Y-139000000D02*
X151030000Y-139000000D01*
X147230000Y-139500000D02*
X146130000Y-138400000D01*
X150530000Y-139500000D02*
X147230000Y-139500000D01*
X151030000Y-139000000D02*
X150530000Y-139500000D01*
X161130000Y-138900000D02*
X161030000Y-139000000D01*
X161030000Y-139000000D02*
X168402000Y-131628000D01*
X168402000Y-128460500D02*
X168402000Y-131628000D01*
X148430000Y-129800000D02*
X150930000Y-127300000D01*
X151530000Y-122300000D02*
X151530000Y-121700000D01*
X150930000Y-122900000D02*
X151530000Y-122300000D01*
X150930000Y-127300000D02*
X150930000Y-122900000D01*
X150530000Y-131700000D02*
X150330000Y-131700000D01*
X140962000Y-129032000D02*
X138938000Y-129032000D01*
X141730000Y-129800000D02*
X140962000Y-129032000D01*
X148430000Y-129800000D02*
X141730000Y-129800000D01*
X150330000Y-131700000D02*
X148430000Y-129800000D01*
X138938000Y-131208000D02*
X138938000Y-129032000D01*
X138938000Y-131208000D02*
X144630000Y-136900000D01*
X144630000Y-136900000D02*
X146130000Y-138400000D01*
X150540000Y-111500000D02*
X150540000Y-120710000D01*
X150540000Y-120710000D02*
X151530000Y-121700000D01*
X147330000Y-136900000D02*
X147630000Y-136600000D01*
X147630000Y-136600000D02*
X157130000Y-136600000D01*
X149030000Y-137200000D02*
X157430000Y-137200000D01*
X149030000Y-137200000D02*
X148630000Y-137600000D01*
X157430000Y-137200000D02*
X157730000Y-136900000D01*
D22*
G36*
X165711767Y-109798720D02*
X165119675Y-111224635D01*
X165118328Y-112768592D01*
X165707930Y-114195538D01*
X166798720Y-115288233D01*
X168224635Y-115880325D01*
X169768592Y-115881672D01*
X171195538Y-115292070D01*
X172003000Y-114486016D01*
X172003000Y-155514887D01*
X171201280Y-154711767D01*
X169775365Y-154119675D01*
X168231408Y-154118328D01*
X166804462Y-154707930D01*
X165711767Y-155798720D01*
X165119675Y-157224635D01*
X165118328Y-158768592D01*
X165707930Y-160195538D01*
X166284385Y-160773000D01*
X143215515Y-160773000D01*
X143788233Y-160201280D01*
X144361694Y-158820231D01*
X145135400Y-158820231D01*
X145135400Y-159179769D01*
X145230140Y-159656057D01*
X145499935Y-160059834D01*
X145903712Y-160329629D01*
X146380000Y-160424369D01*
X146856288Y-160329629D01*
X147260065Y-160059834D01*
X147529860Y-159656057D01*
X147624600Y-159179769D01*
X147624600Y-158820231D01*
X147675400Y-158820231D01*
X147675400Y-159179769D01*
X147770140Y-159656057D01*
X148039935Y-160059834D01*
X148443712Y-160329629D01*
X148920000Y-160424369D01*
X149396288Y-160329629D01*
X149800065Y-160059834D01*
X150069860Y-159656057D01*
X150164600Y-159179769D01*
X150164600Y-158820231D01*
X150215400Y-158820231D01*
X150215400Y-159179769D01*
X150310140Y-159656057D01*
X150579935Y-160059834D01*
X150983712Y-160329629D01*
X151460000Y-160424369D01*
X151936288Y-160329629D01*
X152340065Y-160059834D01*
X152609860Y-159656057D01*
X152704600Y-159179769D01*
X152704600Y-158820231D01*
X152609860Y-158343943D01*
X152369354Y-157984000D01*
X152747936Y-157984000D01*
X152747936Y-160016000D01*
X152777506Y-160164659D01*
X152861714Y-160290686D01*
X152987741Y-160374894D01*
X153136400Y-160404464D01*
X154863600Y-160404464D01*
X155012259Y-160374894D01*
X155138286Y-160290686D01*
X155222494Y-160164659D01*
X155252064Y-160016000D01*
X155252064Y-157984000D01*
X155222494Y-157835341D01*
X155138286Y-157709314D01*
X155012259Y-157625106D01*
X154863600Y-157595536D01*
X153136400Y-157595536D01*
X152987741Y-157625106D01*
X152861714Y-157709314D01*
X152777506Y-157835341D01*
X152747936Y-157984000D01*
X152369354Y-157984000D01*
X152340065Y-157940166D01*
X151936288Y-157670371D01*
X151460000Y-157575631D01*
X150983712Y-157670371D01*
X150579935Y-157940166D01*
X150310140Y-158343943D01*
X150215400Y-158820231D01*
X150164600Y-158820231D01*
X150069860Y-158343943D01*
X149800065Y-157940166D01*
X149396288Y-157670371D01*
X148920000Y-157575631D01*
X148443712Y-157670371D01*
X148039935Y-157940166D01*
X147770140Y-158343943D01*
X147675400Y-158820231D01*
X147624600Y-158820231D01*
X147529860Y-158343943D01*
X147260065Y-157940166D01*
X146856288Y-157670371D01*
X146380000Y-157575631D01*
X145903712Y-157670371D01*
X145499935Y-157940166D01*
X145230140Y-158343943D01*
X145135400Y-158820231D01*
X144361694Y-158820231D01*
X144380325Y-158775365D01*
X144381672Y-157231408D01*
X143792070Y-155804462D01*
X142701280Y-154711767D01*
X141275365Y-154119675D01*
X139731408Y-154118328D01*
X138304462Y-154707930D01*
X137757000Y-155254438D01*
X137757000Y-148882400D01*
X139493936Y-148882400D01*
X139493936Y-151117600D01*
X139523506Y-151266259D01*
X139607714Y-151392286D01*
X139733741Y-151476494D01*
X139882400Y-151506064D01*
X142117600Y-151506064D01*
X142266259Y-151476494D01*
X142392286Y-151392286D01*
X142476494Y-151266259D01*
X142506064Y-151117600D01*
X142506064Y-148882400D01*
X142476494Y-148733741D01*
X142392286Y-148607714D01*
X142266259Y-148523506D01*
X142117600Y-148493936D01*
X139882400Y-148493936D01*
X139733741Y-148523506D01*
X139607714Y-148607714D01*
X139523506Y-148733741D01*
X139493936Y-148882400D01*
X137757000Y-148882400D01*
X137757000Y-146521002D01*
X154718894Y-146521002D01*
X154811718Y-146745651D01*
X154983445Y-146917678D01*
X155207931Y-147010894D01*
X155419077Y-147011078D01*
X155418894Y-147221002D01*
X155511718Y-147445651D01*
X155683445Y-147617678D01*
X155907931Y-147710894D01*
X156151002Y-147711106D01*
X156375651Y-147618282D01*
X156547678Y-147446555D01*
X156640894Y-147222069D01*
X156641106Y-146978998D01*
X156548282Y-146754349D01*
X156376555Y-146582322D01*
X156152069Y-146489106D01*
X155940923Y-146488922D01*
X155941106Y-146278998D01*
X155848282Y-146054349D01*
X155676555Y-145882322D01*
X155452069Y-145789106D01*
X155208998Y-145788894D01*
X154984349Y-145881718D01*
X154812322Y-146053445D01*
X154719106Y-146277931D01*
X154718894Y-146521002D01*
X137757000Y-146521002D01*
X137757000Y-145521002D01*
X142218894Y-145521002D01*
X142311718Y-145745651D01*
X142483445Y-145917678D01*
X142707931Y-146010894D01*
X142951002Y-146011106D01*
X143175651Y-145918282D01*
X143347678Y-145746555D01*
X143440894Y-145522069D01*
X143441069Y-145321002D01*
X146818894Y-145321002D01*
X146911718Y-145545651D01*
X147083445Y-145717678D01*
X147307931Y-145810894D01*
X147551002Y-145811106D01*
X147775651Y-145718282D01*
X147947678Y-145546555D01*
X148040894Y-145322069D01*
X148040894Y-145321002D01*
X148118894Y-145321002D01*
X148211718Y-145545651D01*
X148383445Y-145717678D01*
X148607931Y-145810894D01*
X148851002Y-145811106D01*
X149075651Y-145718282D01*
X149247678Y-145546555D01*
X149340894Y-145322069D01*
X149340894Y-145321002D01*
X149418894Y-145321002D01*
X149511718Y-145545651D01*
X149683445Y-145717678D01*
X149907931Y-145810894D01*
X150151002Y-145811106D01*
X150375651Y-145718282D01*
X150547678Y-145546555D01*
X150640894Y-145322069D01*
X150640894Y-145321002D01*
X150718894Y-145321002D01*
X150811718Y-145545651D01*
X150983445Y-145717678D01*
X151207931Y-145810894D01*
X151451002Y-145811106D01*
X151675651Y-145718282D01*
X151847678Y-145546555D01*
X151940894Y-145322069D01*
X151941106Y-145078998D01*
X151892351Y-144961002D01*
X160518894Y-144961002D01*
X160611718Y-145185651D01*
X160783445Y-145357678D01*
X161007931Y-145450894D01*
X161251002Y-145451106D01*
X161475651Y-145358282D01*
X161647678Y-145186555D01*
X161740894Y-144962069D01*
X161741106Y-144718998D01*
X161648282Y-144494349D01*
X161476555Y-144322322D01*
X161252069Y-144229106D01*
X161008998Y-144228894D01*
X160784349Y-144321718D01*
X160612322Y-144493445D01*
X160519106Y-144717931D01*
X160518894Y-144961002D01*
X151892351Y-144961002D01*
X151848282Y-144854349D01*
X151676555Y-144682322D01*
X151452069Y-144589106D01*
X151208998Y-144588894D01*
X150984349Y-144681718D01*
X150812322Y-144853445D01*
X150719106Y-145077931D01*
X150718894Y-145321002D01*
X150640894Y-145321002D01*
X150641106Y-145078998D01*
X150548282Y-144854349D01*
X150376555Y-144682322D01*
X150152069Y-144589106D01*
X149908998Y-144588894D01*
X149684349Y-144681718D01*
X149512322Y-144853445D01*
X149419106Y-145077931D01*
X149418894Y-145321002D01*
X149340894Y-145321002D01*
X149341106Y-145078998D01*
X149248282Y-144854349D01*
X149076555Y-144682322D01*
X148852069Y-144589106D01*
X148608998Y-144588894D01*
X148384349Y-144681718D01*
X148212322Y-144853445D01*
X148119106Y-145077931D01*
X148118894Y-145321002D01*
X148040894Y-145321002D01*
X148041106Y-145078998D01*
X147948282Y-144854349D01*
X147776555Y-144682322D01*
X147552069Y-144589106D01*
X147308998Y-144588894D01*
X147084349Y-144681718D01*
X146912322Y-144853445D01*
X146819106Y-145077931D01*
X146818894Y-145321002D01*
X143441069Y-145321002D01*
X143441106Y-145278998D01*
X143348282Y-145054349D01*
X143176555Y-144882322D01*
X142952069Y-144789106D01*
X142708998Y-144788894D01*
X142484349Y-144881718D01*
X142312322Y-145053445D01*
X142219106Y-145277931D01*
X142218894Y-145521002D01*
X137757000Y-145521002D01*
X137757000Y-144021002D01*
X146818894Y-144021002D01*
X146911718Y-144245651D01*
X147083445Y-144417678D01*
X147307931Y-144510894D01*
X147551002Y-144511106D01*
X147775651Y-144418282D01*
X147947678Y-144246555D01*
X148040894Y-144022069D01*
X148041106Y-143778998D01*
X147948282Y-143554349D01*
X147776555Y-143382322D01*
X147552069Y-143289106D01*
X147308998Y-143288894D01*
X147084349Y-143381718D01*
X146912322Y-143553445D01*
X146819106Y-143777931D01*
X146818894Y-144021002D01*
X137757000Y-144021002D01*
X137757000Y-141621002D01*
X144218894Y-141621002D01*
X144311718Y-141845651D01*
X144415916Y-141950031D01*
X144312322Y-142053445D01*
X144219106Y-142277931D01*
X144218894Y-142521002D01*
X144311718Y-142745651D01*
X144483445Y-142917678D01*
X144707931Y-143010894D01*
X144951002Y-143011106D01*
X145175651Y-142918282D01*
X145347678Y-142746555D01*
X145358288Y-142721002D01*
X146818894Y-142721002D01*
X146911718Y-142945651D01*
X147083445Y-143117678D01*
X147307931Y-143210894D01*
X147551002Y-143211106D01*
X147775651Y-143118282D01*
X147947678Y-142946555D01*
X148040894Y-142722069D01*
X148040894Y-142721002D01*
X148118894Y-142721002D01*
X148211718Y-142945651D01*
X148383445Y-143117678D01*
X148439457Y-143140937D01*
X148439267Y-143359026D01*
X148384349Y-143381718D01*
X148212322Y-143553445D01*
X148119106Y-143777931D01*
X148118894Y-144021002D01*
X148211718Y-144245651D01*
X148383445Y-144417678D01*
X148607931Y-144510894D01*
X148851002Y-144511106D01*
X149075651Y-144418282D01*
X149237714Y-144256502D01*
X149537448Y-144256764D01*
X149673784Y-144393338D01*
X149898270Y-144486554D01*
X150141341Y-144486766D01*
X150365990Y-144393942D01*
X150538017Y-144222215D01*
X150621569Y-144021002D01*
X150718894Y-144021002D01*
X150811718Y-144245651D01*
X150983445Y-144417678D01*
X151207931Y-144510894D01*
X151451002Y-144511106D01*
X151675651Y-144418282D01*
X151847678Y-144246555D01*
X151940894Y-144022069D01*
X151941106Y-143778998D01*
X151848282Y-143554349D01*
X151676555Y-143382322D01*
X151452069Y-143289106D01*
X151208998Y-143288894D01*
X150984349Y-143381718D01*
X150812322Y-143553445D01*
X150719106Y-143777931D01*
X150718894Y-144021002D01*
X150621569Y-144021002D01*
X150631233Y-143997729D01*
X150631445Y-143754658D01*
X150538621Y-143530009D01*
X150401238Y-143392386D01*
X150401500Y-143092478D01*
X150547678Y-142946555D01*
X150640894Y-142722069D01*
X150640894Y-142721002D01*
X150718894Y-142721002D01*
X150811718Y-142945651D01*
X150983445Y-143117678D01*
X151207931Y-143210894D01*
X151451002Y-143211106D01*
X151675651Y-143118282D01*
X151847678Y-142946555D01*
X151940894Y-142722069D01*
X151941106Y-142478998D01*
X151917143Y-142421002D01*
X160718894Y-142421002D01*
X160811718Y-142645651D01*
X160983445Y-142817678D01*
X161207931Y-142910894D01*
X161451002Y-142911106D01*
X161675651Y-142818282D01*
X161847678Y-142646555D01*
X161940894Y-142422069D01*
X161941106Y-142178998D01*
X161848282Y-141954349D01*
X161676555Y-141782322D01*
X161452069Y-141689106D01*
X161208998Y-141688894D01*
X160984349Y-141781718D01*
X160812322Y-141953445D01*
X160719106Y-142177931D01*
X160718894Y-142421002D01*
X151917143Y-142421002D01*
X151848282Y-142254349D01*
X151676555Y-142082322D01*
X151452069Y-141989106D01*
X151208998Y-141988894D01*
X150984349Y-142081718D01*
X150812322Y-142253445D01*
X150719106Y-142477931D01*
X150718894Y-142721002D01*
X150640894Y-142721002D01*
X150641106Y-142478998D01*
X150548282Y-142254349D01*
X150376555Y-142082322D01*
X150152069Y-141989106D01*
X149908998Y-141988894D01*
X149684349Y-142081718D01*
X149512322Y-142253445D01*
X149495180Y-142294726D01*
X149264883Y-142294525D01*
X149248282Y-142254349D01*
X149076555Y-142082322D01*
X148852069Y-141989106D01*
X148608998Y-141988894D01*
X148384349Y-142081718D01*
X148212322Y-142253445D01*
X148119106Y-142477931D01*
X148118894Y-142721002D01*
X148040894Y-142721002D01*
X148041106Y-142478998D01*
X147948282Y-142254349D01*
X147776555Y-142082322D01*
X147552069Y-141989106D01*
X147308998Y-141988894D01*
X147084349Y-142081718D01*
X146912322Y-142253445D01*
X146819106Y-142477931D01*
X146818894Y-142721002D01*
X145358288Y-142721002D01*
X145440894Y-142522069D01*
X145441106Y-142278998D01*
X145348282Y-142054349D01*
X145244084Y-141949969D01*
X145347678Y-141846555D01*
X145440894Y-141622069D01*
X145441069Y-141421002D01*
X146818894Y-141421002D01*
X146911718Y-141645651D01*
X147083445Y-141817678D01*
X147307931Y-141910894D01*
X147551002Y-141911106D01*
X147775651Y-141818282D01*
X147947678Y-141646555D01*
X148040894Y-141422069D01*
X148040894Y-141421002D01*
X148118894Y-141421002D01*
X148211718Y-141645651D01*
X148383445Y-141817678D01*
X148607931Y-141910894D01*
X148851002Y-141911106D01*
X149075651Y-141818282D01*
X149247678Y-141646555D01*
X149340894Y-141422069D01*
X149340894Y-141421002D01*
X149418894Y-141421002D01*
X149511718Y-141645651D01*
X149683445Y-141817678D01*
X149907931Y-141910894D01*
X150151002Y-141911106D01*
X150375651Y-141818282D01*
X150547678Y-141646555D01*
X150640894Y-141422069D01*
X150640894Y-141421002D01*
X150718894Y-141421002D01*
X150811718Y-141645651D01*
X150983445Y-141817678D01*
X151207931Y-141910894D01*
X151451002Y-141911106D01*
X151675651Y-141818282D01*
X151847678Y-141646555D01*
X151940894Y-141422069D01*
X151941106Y-141178998D01*
X151848282Y-140954349D01*
X151676555Y-140782322D01*
X151452069Y-140689106D01*
X151208998Y-140688894D01*
X150984349Y-140781718D01*
X150812322Y-140953445D01*
X150719106Y-141177931D01*
X150718894Y-141421002D01*
X150640894Y-141421002D01*
X150641106Y-141178998D01*
X150548282Y-140954349D01*
X150376555Y-140782322D01*
X150152069Y-140689106D01*
X149908998Y-140688894D01*
X149684349Y-140781718D01*
X149512322Y-140953445D01*
X149419106Y-141177931D01*
X149418894Y-141421002D01*
X149340894Y-141421002D01*
X149341106Y-141178998D01*
X149248282Y-140954349D01*
X149076555Y-140782322D01*
X148852069Y-140689106D01*
X148608998Y-140688894D01*
X148384349Y-140781718D01*
X148212322Y-140953445D01*
X148119106Y-141177931D01*
X148118894Y-141421002D01*
X148040894Y-141421002D01*
X148041106Y-141178998D01*
X147948282Y-140954349D01*
X147776555Y-140782322D01*
X147552069Y-140689106D01*
X147308998Y-140688894D01*
X147084349Y-140781718D01*
X146912322Y-140953445D01*
X146819106Y-141177931D01*
X146818894Y-141421002D01*
X145441069Y-141421002D01*
X145441106Y-141378998D01*
X145348282Y-141154349D01*
X145176555Y-140982322D01*
X144952069Y-140889106D01*
X144708998Y-140888894D01*
X144484349Y-140981718D01*
X144312322Y-141153445D01*
X144219106Y-141377931D01*
X144218894Y-141621002D01*
X137757000Y-141621002D01*
X137757000Y-139821002D01*
X157218894Y-139821002D01*
X157311718Y-140045651D01*
X157483445Y-140217678D01*
X157707931Y-140310894D01*
X157951002Y-140311106D01*
X158175651Y-140218282D01*
X158347678Y-140046555D01*
X158440894Y-139822069D01*
X158441106Y-139578998D01*
X158348282Y-139354349D01*
X158176555Y-139182322D01*
X157952069Y-139089106D01*
X157708998Y-139088894D01*
X157484349Y-139181718D01*
X157312322Y-139353445D01*
X157219106Y-139577931D01*
X157218894Y-139821002D01*
X137757000Y-139821002D01*
X137757000Y-137021002D01*
X146718894Y-137021002D01*
X146811718Y-137245651D01*
X146983445Y-137417678D01*
X147207931Y-137510894D01*
X147451002Y-137511106D01*
X147675651Y-137418282D01*
X147847678Y-137246555D01*
X147916423Y-137081000D01*
X148286087Y-137081000D01*
X148284349Y-137081718D01*
X148112322Y-137253445D01*
X148019106Y-137477931D01*
X148018894Y-137721002D01*
X148111718Y-137945651D01*
X148283445Y-138117678D01*
X148507931Y-138210894D01*
X148751002Y-138211106D01*
X148757669Y-138208351D01*
X148612322Y-138353445D01*
X148519106Y-138577931D01*
X148518894Y-138821002D01*
X148611718Y-139045651D01*
X148783445Y-139217678D01*
X149007931Y-139310894D01*
X149251002Y-139311106D01*
X149475651Y-139218282D01*
X149647678Y-139046555D01*
X149740894Y-138822069D01*
X149741106Y-138578998D01*
X149648282Y-138354349D01*
X149476555Y-138182322D01*
X149252069Y-138089106D01*
X149008998Y-138088894D01*
X149002331Y-138091649D01*
X149147678Y-137946555D01*
X149240894Y-137722069D01*
X149240930Y-137681000D01*
X154159356Y-137681000D01*
X154119106Y-137777931D01*
X154118894Y-138021002D01*
X154211718Y-138245651D01*
X154383445Y-138417678D01*
X154607931Y-138510894D01*
X154851002Y-138511106D01*
X155075651Y-138418282D01*
X155247678Y-138246555D01*
X155340894Y-138022069D01*
X155341106Y-137778998D01*
X155317143Y-137721002D01*
X160318894Y-137721002D01*
X160411718Y-137945651D01*
X160583445Y-138117678D01*
X160807931Y-138210894D01*
X161051002Y-138211106D01*
X161275651Y-138118282D01*
X161447678Y-137946555D01*
X161540894Y-137722069D01*
X161541106Y-137478998D01*
X161448282Y-137254349D01*
X161276555Y-137082322D01*
X161052069Y-136989106D01*
X160808998Y-136988894D01*
X160584349Y-137081718D01*
X160412322Y-137253445D01*
X160319106Y-137477931D01*
X160318894Y-137721002D01*
X155317143Y-137721002D01*
X155300614Y-137681000D01*
X157430000Y-137681000D01*
X157614071Y-137644386D01*
X157770118Y-137540118D01*
X157799175Y-137511061D01*
X157851002Y-137511106D01*
X158075651Y-137418282D01*
X158247678Y-137246555D01*
X158325356Y-137059488D01*
X158383445Y-137117678D01*
X158607931Y-137210894D01*
X158851002Y-137211106D01*
X159075651Y-137118282D01*
X159247678Y-136946555D01*
X159340894Y-136722069D01*
X159341106Y-136478998D01*
X159248282Y-136254349D01*
X159076555Y-136082322D01*
X158980414Y-136042400D01*
X168673936Y-136042400D01*
X168673936Y-138277600D01*
X168703506Y-138426259D01*
X168706006Y-138430000D01*
X168703506Y-138433741D01*
X168673936Y-138582400D01*
X168673936Y-140817600D01*
X168703506Y-140966259D01*
X168706006Y-140970000D01*
X168703506Y-140973741D01*
X168673936Y-141122400D01*
X168673936Y-143357600D01*
X168703506Y-143506259D01*
X168706006Y-143510000D01*
X168703506Y-143513741D01*
X168673936Y-143662400D01*
X168673936Y-145897600D01*
X168703506Y-146046259D01*
X168706006Y-146050000D01*
X168703506Y-146053741D01*
X168673936Y-146202400D01*
X168673936Y-148437600D01*
X168703506Y-148586259D01*
X168787714Y-148712286D01*
X168913741Y-148796494D01*
X169062400Y-148826064D01*
X171297600Y-148826064D01*
X171446259Y-148796494D01*
X171572286Y-148712286D01*
X171656494Y-148586259D01*
X171686064Y-148437600D01*
X171686064Y-146202400D01*
X171656494Y-146053741D01*
X171653994Y-146050000D01*
X171656494Y-146046259D01*
X171686064Y-145897600D01*
X171686064Y-143662400D01*
X171656494Y-143513741D01*
X171653994Y-143510000D01*
X171656494Y-143506259D01*
X171686064Y-143357600D01*
X171686064Y-141122400D01*
X171656494Y-140973741D01*
X171653994Y-140970000D01*
X171656494Y-140966259D01*
X171686064Y-140817600D01*
X171686064Y-138582400D01*
X171656494Y-138433741D01*
X171653994Y-138430000D01*
X171656494Y-138426259D01*
X171686064Y-138277600D01*
X171686064Y-136042400D01*
X171656494Y-135893741D01*
X171572286Y-135767714D01*
X171446259Y-135683506D01*
X171297600Y-135653936D01*
X169062400Y-135653936D01*
X168913741Y-135683506D01*
X168787714Y-135767714D01*
X168703506Y-135893741D01*
X168673936Y-136042400D01*
X158980414Y-136042400D01*
X158852069Y-135989106D01*
X158608998Y-135988894D01*
X158384349Y-136081718D01*
X158212322Y-136253445D01*
X158134644Y-136440512D01*
X158076555Y-136382322D01*
X157852069Y-136289106D01*
X157662575Y-136288941D01*
X157648282Y-136254349D01*
X157476555Y-136082322D01*
X157252069Y-135989106D01*
X157008998Y-135988894D01*
X156784349Y-136081718D01*
X156747002Y-136119000D01*
X149200644Y-136119000D01*
X149240894Y-136022069D01*
X149241106Y-135778998D01*
X149148282Y-135554349D01*
X148976555Y-135382322D01*
X148752069Y-135289106D01*
X148508998Y-135288894D01*
X148284349Y-135381718D01*
X148112322Y-135553445D01*
X148019106Y-135777931D01*
X148018894Y-136021002D01*
X148059386Y-136119000D01*
X147630000Y-136119000D01*
X147445929Y-136155614D01*
X147289882Y-136259882D01*
X147260825Y-136288939D01*
X147208998Y-136288894D01*
X146984349Y-136381718D01*
X146812322Y-136553445D01*
X146719106Y-136777931D01*
X146718894Y-137021002D01*
X137757000Y-137021002D01*
X137757000Y-134921002D01*
X149918894Y-134921002D01*
X150011718Y-135145651D01*
X150183445Y-135317678D01*
X150407931Y-135410894D01*
X150651002Y-135411106D01*
X150875651Y-135318282D01*
X150973100Y-135221002D01*
X156618894Y-135221002D01*
X156711718Y-135445651D01*
X156883445Y-135617678D01*
X157107931Y-135710894D01*
X157351002Y-135711106D01*
X157575651Y-135618282D01*
X157747678Y-135446555D01*
X157840894Y-135222069D01*
X157841106Y-134978998D01*
X157748282Y-134754349D01*
X157576555Y-134582322D01*
X157352069Y-134489106D01*
X157108998Y-134488894D01*
X156884349Y-134581718D01*
X156712322Y-134753445D01*
X156619106Y-134977931D01*
X156618894Y-135221002D01*
X150973100Y-135221002D01*
X151047678Y-135146555D01*
X151140894Y-134922069D01*
X151141106Y-134678998D01*
X151048282Y-134454349D01*
X150876555Y-134282322D01*
X150652069Y-134189106D01*
X150408998Y-134188894D01*
X150184349Y-134281718D01*
X150012322Y-134453445D01*
X149919106Y-134677931D01*
X149918894Y-134921002D01*
X137757000Y-134921002D01*
X137757000Y-130721002D01*
X149668894Y-130721002D01*
X149761718Y-130945651D01*
X149933445Y-131117678D01*
X150157931Y-131210894D01*
X150401002Y-131211106D01*
X150625651Y-131118282D01*
X150797678Y-130946555D01*
X150890894Y-130722069D01*
X150891106Y-130478998D01*
X150798282Y-130254349D01*
X150626555Y-130082322D01*
X150402069Y-129989106D01*
X150158998Y-129988894D01*
X149934349Y-130081718D01*
X149762322Y-130253445D01*
X149669106Y-130477931D01*
X149668894Y-130721002D01*
X137757000Y-130721002D01*
X137757000Y-130666974D01*
X137795691Y-130683000D01*
X138652250Y-130683000D01*
X138811000Y-130524250D01*
X138811000Y-129159000D01*
X139065000Y-129159000D01*
X139065000Y-130524250D01*
X139223750Y-130683000D01*
X140080309Y-130683000D01*
X140313698Y-130586327D01*
X140492327Y-130407699D01*
X140589000Y-130174310D01*
X140589000Y-129951002D01*
X151548894Y-129951002D01*
X151641718Y-130175651D01*
X151813445Y-130347678D01*
X152037931Y-130440894D01*
X152281002Y-130441106D01*
X152505651Y-130348282D01*
X152677678Y-130176555D01*
X152770894Y-129952069D01*
X152771106Y-129708998D01*
X152678282Y-129484349D01*
X152506555Y-129312322D01*
X152282069Y-129219106D01*
X152038998Y-129218894D01*
X151814349Y-129311718D01*
X151642322Y-129483445D01*
X151549106Y-129707931D01*
X151548894Y-129951002D01*
X140589000Y-129951002D01*
X140589000Y-129317750D01*
X140430250Y-129159000D01*
X139065000Y-129159000D01*
X138811000Y-129159000D01*
X138791000Y-129159000D01*
X138791000Y-128978796D01*
X147559387Y-128978796D01*
X147652211Y-129203445D01*
X147823938Y-129375472D01*
X148048424Y-129468688D01*
X148291495Y-129468900D01*
X148516144Y-129376076D01*
X148688171Y-129204349D01*
X148781387Y-128979863D01*
X148781599Y-128736792D01*
X148688775Y-128512143D01*
X148609901Y-128433131D01*
X164465000Y-128433131D01*
X164465000Y-128487869D01*
X164571340Y-129022478D01*
X164874172Y-129475697D01*
X165327391Y-129778529D01*
X165862000Y-129884869D01*
X166396609Y-129778529D01*
X166751000Y-129541732D01*
X166751000Y-129602809D01*
X166847673Y-129836198D01*
X167026301Y-130014827D01*
X167259690Y-130111500D01*
X168116250Y-130111500D01*
X168275000Y-129952750D01*
X168275000Y-128587500D01*
X168529000Y-128587500D01*
X168529000Y-129952750D01*
X168687750Y-130111500D01*
X169544310Y-130111500D01*
X169777699Y-130014827D01*
X169956327Y-129836198D01*
X170053000Y-129602809D01*
X170053000Y-128746250D01*
X169894250Y-128587500D01*
X168529000Y-128587500D01*
X168275000Y-128587500D01*
X168255000Y-128587500D01*
X168255000Y-128333500D01*
X168275000Y-128333500D01*
X168275000Y-126968250D01*
X168529000Y-126968250D01*
X168529000Y-128333500D01*
X169894250Y-128333500D01*
X170053000Y-128174750D01*
X170053000Y-127318191D01*
X169956327Y-127084802D01*
X169777699Y-126906173D01*
X169544310Y-126809500D01*
X168687750Y-126809500D01*
X168529000Y-126968250D01*
X168275000Y-126968250D01*
X168116250Y-126809500D01*
X167259690Y-126809500D01*
X167026301Y-126906173D01*
X166847673Y-127084802D01*
X166751000Y-127318191D01*
X166751000Y-127379268D01*
X166396609Y-127142471D01*
X165862000Y-127036131D01*
X165327391Y-127142471D01*
X164874172Y-127445303D01*
X164571340Y-127898522D01*
X164465000Y-128433131D01*
X148609901Y-128433131D01*
X148517048Y-128340116D01*
X148292562Y-128246900D01*
X148049491Y-128246688D01*
X147824842Y-128339512D01*
X147652815Y-128511239D01*
X147559599Y-128735725D01*
X147559387Y-128978796D01*
X138791000Y-128978796D01*
X138791000Y-128905000D01*
X138811000Y-128905000D01*
X138811000Y-128885000D01*
X139065000Y-128885000D01*
X139065000Y-128905000D01*
X140430250Y-128905000D01*
X140589000Y-128746250D01*
X140589000Y-127889690D01*
X140492327Y-127656301D01*
X140313698Y-127477673D01*
X140080309Y-127381000D01*
X140019232Y-127381000D01*
X140256029Y-127026609D01*
X140362369Y-126492000D01*
X140319484Y-126276400D01*
X151732936Y-126276400D01*
X151732936Y-128003600D01*
X151762506Y-128152259D01*
X151846714Y-128278286D01*
X151972741Y-128362494D01*
X152121400Y-128392064D01*
X153848600Y-128392064D01*
X153997259Y-128362494D01*
X154123286Y-128278286D01*
X154207494Y-128152259D01*
X154237064Y-128003600D01*
X154237064Y-127115617D01*
X154280400Y-127115617D01*
X154280400Y-127164383D01*
X154375140Y-127640671D01*
X154644935Y-128044448D01*
X155048712Y-128314243D01*
X155525000Y-128408983D01*
X156001288Y-128314243D01*
X156405065Y-128044448D01*
X156674860Y-127640671D01*
X156769600Y-127164383D01*
X156769600Y-127115617D01*
X156674860Y-126639329D01*
X156405065Y-126235552D01*
X156001288Y-125965757D01*
X155525000Y-125871017D01*
X155048712Y-125965757D01*
X154644935Y-126235552D01*
X154375140Y-126639329D01*
X154280400Y-127115617D01*
X154237064Y-127115617D01*
X154237064Y-126276400D01*
X154207494Y-126127741D01*
X154123286Y-126001714D01*
X153997259Y-125917506D01*
X153848600Y-125887936D01*
X152121400Y-125887936D01*
X151972741Y-125917506D01*
X151846714Y-126001714D01*
X151762506Y-126127741D01*
X151732936Y-126276400D01*
X140319484Y-126276400D01*
X140256029Y-125957391D01*
X139953197Y-125504172D01*
X139499978Y-125201340D01*
X138965369Y-125095000D01*
X138910631Y-125095000D01*
X138376022Y-125201340D01*
X137922803Y-125504172D01*
X137757000Y-125752313D01*
X137757000Y-124575617D01*
X151740400Y-124575617D01*
X151740400Y-124624383D01*
X151835140Y-125100671D01*
X152104935Y-125504448D01*
X152508712Y-125774243D01*
X152985000Y-125868983D01*
X153461288Y-125774243D01*
X153865065Y-125504448D01*
X154134860Y-125100671D01*
X154229600Y-124624383D01*
X154229600Y-124575617D01*
X154280400Y-124575617D01*
X154280400Y-124624383D01*
X154375140Y-125100671D01*
X154644935Y-125504448D01*
X155048712Y-125774243D01*
X155525000Y-125868983D01*
X156001288Y-125774243D01*
X156405065Y-125504448D01*
X156674860Y-125100671D01*
X156769600Y-124624383D01*
X156769600Y-124575617D01*
X156674860Y-124099329D01*
X156405065Y-123695552D01*
X156001288Y-123425757D01*
X155525000Y-123331017D01*
X155048712Y-123425757D01*
X154644935Y-123695552D01*
X154375140Y-124099329D01*
X154280400Y-124575617D01*
X154229600Y-124575617D01*
X154134860Y-124099329D01*
X153865065Y-123695552D01*
X153461288Y-123425757D01*
X152985000Y-123331017D01*
X152508712Y-123425757D01*
X152104935Y-123695552D01*
X151835140Y-124099329D01*
X151740400Y-124575617D01*
X137757000Y-124575617D01*
X137757000Y-122181002D01*
X149848894Y-122181002D01*
X149941718Y-122405651D01*
X150113445Y-122577678D01*
X150337931Y-122670894D01*
X150581002Y-122671106D01*
X150805651Y-122578282D01*
X150977678Y-122406555D01*
X151070894Y-122182069D01*
X151071106Y-121938998D01*
X150978282Y-121714349D01*
X150806555Y-121542322D01*
X150582069Y-121449106D01*
X150338998Y-121448894D01*
X150114349Y-121541718D01*
X149942322Y-121713445D01*
X149849106Y-121937931D01*
X149848894Y-122181002D01*
X137757000Y-122181002D01*
X137757000Y-118527131D01*
X163957000Y-118527131D01*
X163957000Y-118581869D01*
X164063340Y-119116478D01*
X164366172Y-119569697D01*
X164819391Y-119872529D01*
X165354000Y-119978869D01*
X165888609Y-119872529D01*
X166341828Y-119569697D01*
X166489536Y-119348637D01*
X166489536Y-119570500D01*
X166519106Y-119719159D01*
X166603314Y-119845186D01*
X166729341Y-119929394D01*
X166878000Y-119958964D01*
X168910000Y-119958964D01*
X169058659Y-119929394D01*
X169184686Y-119845186D01*
X169268894Y-119719159D01*
X169298464Y-119570500D01*
X169298464Y-117538500D01*
X169268894Y-117389841D01*
X169184686Y-117263814D01*
X169058659Y-117179606D01*
X168910000Y-117150036D01*
X166878000Y-117150036D01*
X166729341Y-117179606D01*
X166603314Y-117263814D01*
X166519106Y-117389841D01*
X166489536Y-117538500D01*
X166489536Y-117760363D01*
X166341828Y-117539303D01*
X165888609Y-117236471D01*
X165354000Y-117130131D01*
X164819391Y-117236471D01*
X164366172Y-117539303D01*
X164063340Y-117992522D01*
X163957000Y-118527131D01*
X137757000Y-118527131D01*
X137757000Y-114745567D01*
X138298720Y-115288233D01*
X139724635Y-115880325D01*
X141268592Y-115881672D01*
X142695538Y-115292070D01*
X143788233Y-114201280D01*
X144380325Y-112775365D01*
X144381672Y-111231408D01*
X144072850Y-110484000D01*
X146747936Y-110484000D01*
X146747936Y-112516000D01*
X146777506Y-112664659D01*
X146861714Y-112790686D01*
X146987741Y-112874894D01*
X147136400Y-112904464D01*
X148863600Y-112904464D01*
X149012259Y-112874894D01*
X149138286Y-112790686D01*
X149222494Y-112664659D01*
X149252064Y-112516000D01*
X149252064Y-112418817D01*
X149637964Y-112850732D01*
X150165209Y-113104709D01*
X150180974Y-113107358D01*
X150413000Y-112986217D01*
X150413000Y-111627000D01*
X150393000Y-111627000D01*
X150393000Y-111373000D01*
X150413000Y-111373000D01*
X150413000Y-110013783D01*
X150667000Y-110013783D01*
X150667000Y-111373000D01*
X150687000Y-111373000D01*
X150687000Y-111627000D01*
X150667000Y-111627000D01*
X150667000Y-112986217D01*
X150899026Y-113107358D01*
X150914791Y-113104709D01*
X151442036Y-112850732D01*
X151831954Y-112414320D01*
X151927296Y-112141757D01*
X151930140Y-112156057D01*
X152199935Y-112559834D01*
X152603712Y-112829629D01*
X153080000Y-112924369D01*
X153556288Y-112829629D01*
X153960065Y-112559834D01*
X154229860Y-112156057D01*
X154324600Y-111679769D01*
X154324600Y-111320231D01*
X154375400Y-111320231D01*
X154375400Y-111679769D01*
X154470140Y-112156057D01*
X154739935Y-112559834D01*
X155143712Y-112829629D01*
X155620000Y-112924369D01*
X156096288Y-112829629D01*
X156500065Y-112559834D01*
X156769860Y-112156057D01*
X156864600Y-111679769D01*
X156864600Y-111320231D01*
X156915400Y-111320231D01*
X156915400Y-111679769D01*
X157010140Y-112156057D01*
X157279935Y-112559834D01*
X157683712Y-112829629D01*
X158160000Y-112924369D01*
X158636288Y-112829629D01*
X159040065Y-112559834D01*
X159309860Y-112156057D01*
X159404600Y-111679769D01*
X159404600Y-111320231D01*
X159455400Y-111320231D01*
X159455400Y-111679769D01*
X159550140Y-112156057D01*
X159819935Y-112559834D01*
X160223712Y-112829629D01*
X160700000Y-112924369D01*
X161176288Y-112829629D01*
X161580065Y-112559834D01*
X161849860Y-112156057D01*
X161944600Y-111679769D01*
X161944600Y-111320231D01*
X161849860Y-110843943D01*
X161580065Y-110440166D01*
X161176288Y-110170371D01*
X160700000Y-110075631D01*
X160223712Y-110170371D01*
X159819935Y-110440166D01*
X159550140Y-110843943D01*
X159455400Y-111320231D01*
X159404600Y-111320231D01*
X159309860Y-110843943D01*
X159040065Y-110440166D01*
X158636288Y-110170371D01*
X158160000Y-110075631D01*
X157683712Y-110170371D01*
X157279935Y-110440166D01*
X157010140Y-110843943D01*
X156915400Y-111320231D01*
X156864600Y-111320231D01*
X156769860Y-110843943D01*
X156500065Y-110440166D01*
X156096288Y-110170371D01*
X155620000Y-110075631D01*
X155143712Y-110170371D01*
X154739935Y-110440166D01*
X154470140Y-110843943D01*
X154375400Y-111320231D01*
X154324600Y-111320231D01*
X154229860Y-110843943D01*
X153960065Y-110440166D01*
X153556288Y-110170371D01*
X153080000Y-110075631D01*
X152603712Y-110170371D01*
X152199935Y-110440166D01*
X151930140Y-110843943D01*
X151927296Y-110858243D01*
X151831954Y-110585680D01*
X151442036Y-110149268D01*
X150914791Y-109895291D01*
X150899026Y-109892642D01*
X150667000Y-110013783D01*
X150413000Y-110013783D01*
X150180974Y-109892642D01*
X150165209Y-109895291D01*
X149637964Y-110149268D01*
X149252064Y-110581183D01*
X149252064Y-110484000D01*
X149222494Y-110335341D01*
X149138286Y-110209314D01*
X149012259Y-110125106D01*
X148863600Y-110095536D01*
X147136400Y-110095536D01*
X146987741Y-110125106D01*
X146861714Y-110209314D01*
X146777506Y-110335341D01*
X146747936Y-110484000D01*
X144072850Y-110484000D01*
X143792070Y-109804462D01*
X143015963Y-109027000D01*
X166484835Y-109027000D01*
X165711767Y-109798720D01*
X165711767Y-109798720D01*
G37*
X165711767Y-109798720D02*
X165119675Y-111224635D01*
X165118328Y-112768592D01*
X165707930Y-114195538D01*
X166798720Y-115288233D01*
X168224635Y-115880325D01*
X169768592Y-115881672D01*
X171195538Y-115292070D01*
X172003000Y-114486016D01*
X172003000Y-155514887D01*
X171201280Y-154711767D01*
X169775365Y-154119675D01*
X168231408Y-154118328D01*
X166804462Y-154707930D01*
X165711767Y-155798720D01*
X165119675Y-157224635D01*
X165118328Y-158768592D01*
X165707930Y-160195538D01*
X166284385Y-160773000D01*
X143215515Y-160773000D01*
X143788233Y-160201280D01*
X144361694Y-158820231D01*
X145135400Y-158820231D01*
X145135400Y-159179769D01*
X145230140Y-159656057D01*
X145499935Y-160059834D01*
X145903712Y-160329629D01*
X146380000Y-160424369D01*
X146856288Y-160329629D01*
X147260065Y-160059834D01*
X147529860Y-159656057D01*
X147624600Y-159179769D01*
X147624600Y-158820231D01*
X147675400Y-158820231D01*
X147675400Y-159179769D01*
X147770140Y-159656057D01*
X148039935Y-160059834D01*
X148443712Y-160329629D01*
X148920000Y-160424369D01*
X149396288Y-160329629D01*
X149800065Y-160059834D01*
X150069860Y-159656057D01*
X150164600Y-159179769D01*
X150164600Y-158820231D01*
X150215400Y-158820231D01*
X150215400Y-159179769D01*
X150310140Y-159656057D01*
X150579935Y-160059834D01*
X150983712Y-160329629D01*
X151460000Y-160424369D01*
X151936288Y-160329629D01*
X152340065Y-160059834D01*
X152609860Y-159656057D01*
X152704600Y-159179769D01*
X152704600Y-158820231D01*
X152609860Y-158343943D01*
X152369354Y-157984000D01*
X152747936Y-157984000D01*
X152747936Y-160016000D01*
X152777506Y-160164659D01*
X152861714Y-160290686D01*
X152987741Y-160374894D01*
X153136400Y-160404464D01*
X154863600Y-160404464D01*
X155012259Y-160374894D01*
X155138286Y-160290686D01*
X155222494Y-160164659D01*
X155252064Y-160016000D01*
X155252064Y-157984000D01*
X155222494Y-157835341D01*
X155138286Y-157709314D01*
X155012259Y-157625106D01*
X154863600Y-157595536D01*
X153136400Y-157595536D01*
X152987741Y-157625106D01*
X152861714Y-157709314D01*
X152777506Y-157835341D01*
X152747936Y-157984000D01*
X152369354Y-157984000D01*
X152340065Y-157940166D01*
X151936288Y-157670371D01*
X151460000Y-157575631D01*
X150983712Y-157670371D01*
X150579935Y-157940166D01*
X150310140Y-158343943D01*
X150215400Y-158820231D01*
X150164600Y-158820231D01*
X150069860Y-158343943D01*
X149800065Y-157940166D01*
X149396288Y-157670371D01*
X148920000Y-157575631D01*
X148443712Y-157670371D01*
X148039935Y-157940166D01*
X147770140Y-158343943D01*
X147675400Y-158820231D01*
X147624600Y-158820231D01*
X147529860Y-158343943D01*
X147260065Y-157940166D01*
X146856288Y-157670371D01*
X146380000Y-157575631D01*
X145903712Y-157670371D01*
X145499935Y-157940166D01*
X145230140Y-158343943D01*
X145135400Y-158820231D01*
X144361694Y-158820231D01*
X144380325Y-158775365D01*
X144381672Y-157231408D01*
X143792070Y-155804462D01*
X142701280Y-154711767D01*
X141275365Y-154119675D01*
X139731408Y-154118328D01*
X138304462Y-154707930D01*
X137757000Y-155254438D01*
X137757000Y-148882400D01*
X139493936Y-148882400D01*
X139493936Y-151117600D01*
X139523506Y-151266259D01*
X139607714Y-151392286D01*
X139733741Y-151476494D01*
X139882400Y-151506064D01*
X142117600Y-151506064D01*
X142266259Y-151476494D01*
X142392286Y-151392286D01*
X142476494Y-151266259D01*
X142506064Y-151117600D01*
X142506064Y-148882400D01*
X142476494Y-148733741D01*
X142392286Y-148607714D01*
X142266259Y-148523506D01*
X142117600Y-148493936D01*
X139882400Y-148493936D01*
X139733741Y-148523506D01*
X139607714Y-148607714D01*
X139523506Y-148733741D01*
X139493936Y-148882400D01*
X137757000Y-148882400D01*
X137757000Y-146521002D01*
X154718894Y-146521002D01*
X154811718Y-146745651D01*
X154983445Y-146917678D01*
X155207931Y-147010894D01*
X155419077Y-147011078D01*
X155418894Y-147221002D01*
X155511718Y-147445651D01*
X155683445Y-147617678D01*
X155907931Y-147710894D01*
X156151002Y-147711106D01*
X156375651Y-147618282D01*
X156547678Y-147446555D01*
X156640894Y-147222069D01*
X156641106Y-146978998D01*
X156548282Y-146754349D01*
X156376555Y-146582322D01*
X156152069Y-146489106D01*
X155940923Y-146488922D01*
X155941106Y-146278998D01*
X155848282Y-146054349D01*
X155676555Y-145882322D01*
X155452069Y-145789106D01*
X155208998Y-145788894D01*
X154984349Y-145881718D01*
X154812322Y-146053445D01*
X154719106Y-146277931D01*
X154718894Y-146521002D01*
X137757000Y-146521002D01*
X137757000Y-145521002D01*
X142218894Y-145521002D01*
X142311718Y-145745651D01*
X142483445Y-145917678D01*
X142707931Y-146010894D01*
X142951002Y-146011106D01*
X143175651Y-145918282D01*
X143347678Y-145746555D01*
X143440894Y-145522069D01*
X143441069Y-145321002D01*
X146818894Y-145321002D01*
X146911718Y-145545651D01*
X147083445Y-145717678D01*
X147307931Y-145810894D01*
X147551002Y-145811106D01*
X147775651Y-145718282D01*
X147947678Y-145546555D01*
X148040894Y-145322069D01*
X148040894Y-145321002D01*
X148118894Y-145321002D01*
X148211718Y-145545651D01*
X148383445Y-145717678D01*
X148607931Y-145810894D01*
X148851002Y-145811106D01*
X149075651Y-145718282D01*
X149247678Y-145546555D01*
X149340894Y-145322069D01*
X149340894Y-145321002D01*
X149418894Y-145321002D01*
X149511718Y-145545651D01*
X149683445Y-145717678D01*
X149907931Y-145810894D01*
X150151002Y-145811106D01*
X150375651Y-145718282D01*
X150547678Y-145546555D01*
X150640894Y-145322069D01*
X150640894Y-145321002D01*
X150718894Y-145321002D01*
X150811718Y-145545651D01*
X150983445Y-145717678D01*
X151207931Y-145810894D01*
X151451002Y-145811106D01*
X151675651Y-145718282D01*
X151847678Y-145546555D01*
X151940894Y-145322069D01*
X151941106Y-145078998D01*
X151892351Y-144961002D01*
X160518894Y-144961002D01*
X160611718Y-145185651D01*
X160783445Y-145357678D01*
X161007931Y-145450894D01*
X161251002Y-145451106D01*
X161475651Y-145358282D01*
X161647678Y-145186555D01*
X161740894Y-144962069D01*
X161741106Y-144718998D01*
X161648282Y-144494349D01*
X161476555Y-144322322D01*
X161252069Y-144229106D01*
X161008998Y-144228894D01*
X160784349Y-144321718D01*
X160612322Y-144493445D01*
X160519106Y-144717931D01*
X160518894Y-144961002D01*
X151892351Y-144961002D01*
X151848282Y-144854349D01*
X151676555Y-144682322D01*
X151452069Y-144589106D01*
X151208998Y-144588894D01*
X150984349Y-144681718D01*
X150812322Y-144853445D01*
X150719106Y-145077931D01*
X150718894Y-145321002D01*
X150640894Y-145321002D01*
X150641106Y-145078998D01*
X150548282Y-144854349D01*
X150376555Y-144682322D01*
X150152069Y-144589106D01*
X149908998Y-144588894D01*
X149684349Y-144681718D01*
X149512322Y-144853445D01*
X149419106Y-145077931D01*
X149418894Y-145321002D01*
X149340894Y-145321002D01*
X149341106Y-145078998D01*
X149248282Y-144854349D01*
X149076555Y-144682322D01*
X148852069Y-144589106D01*
X148608998Y-144588894D01*
X148384349Y-144681718D01*
X148212322Y-144853445D01*
X148119106Y-145077931D01*
X148118894Y-145321002D01*
X148040894Y-145321002D01*
X148041106Y-145078998D01*
X147948282Y-144854349D01*
X147776555Y-144682322D01*
X147552069Y-144589106D01*
X147308998Y-144588894D01*
X147084349Y-144681718D01*
X146912322Y-144853445D01*
X146819106Y-145077931D01*
X146818894Y-145321002D01*
X143441069Y-145321002D01*
X143441106Y-145278998D01*
X143348282Y-145054349D01*
X143176555Y-144882322D01*
X142952069Y-144789106D01*
X142708998Y-144788894D01*
X142484349Y-144881718D01*
X142312322Y-145053445D01*
X142219106Y-145277931D01*
X142218894Y-145521002D01*
X137757000Y-145521002D01*
X137757000Y-144021002D01*
X146818894Y-144021002D01*
X146911718Y-144245651D01*
X147083445Y-144417678D01*
X147307931Y-144510894D01*
X147551002Y-144511106D01*
X147775651Y-144418282D01*
X147947678Y-144246555D01*
X148040894Y-144022069D01*
X148041106Y-143778998D01*
X147948282Y-143554349D01*
X147776555Y-143382322D01*
X147552069Y-143289106D01*
X147308998Y-143288894D01*
X147084349Y-143381718D01*
X146912322Y-143553445D01*
X146819106Y-143777931D01*
X146818894Y-144021002D01*
X137757000Y-144021002D01*
X137757000Y-141621002D01*
X144218894Y-141621002D01*
X144311718Y-141845651D01*
X144415916Y-141950031D01*
X144312322Y-142053445D01*
X144219106Y-142277931D01*
X144218894Y-142521002D01*
X144311718Y-142745651D01*
X144483445Y-142917678D01*
X144707931Y-143010894D01*
X144951002Y-143011106D01*
X145175651Y-142918282D01*
X145347678Y-142746555D01*
X145358288Y-142721002D01*
X146818894Y-142721002D01*
X146911718Y-142945651D01*
X147083445Y-143117678D01*
X147307931Y-143210894D01*
X147551002Y-143211106D01*
X147775651Y-143118282D01*
X147947678Y-142946555D01*
X148040894Y-142722069D01*
X148040894Y-142721002D01*
X148118894Y-142721002D01*
X148211718Y-142945651D01*
X148383445Y-143117678D01*
X148439457Y-143140937D01*
X148439267Y-143359026D01*
X148384349Y-143381718D01*
X148212322Y-143553445D01*
X148119106Y-143777931D01*
X148118894Y-144021002D01*
X148211718Y-144245651D01*
X148383445Y-144417678D01*
X148607931Y-144510894D01*
X148851002Y-144511106D01*
X149075651Y-144418282D01*
X149237714Y-144256502D01*
X149537448Y-144256764D01*
X149673784Y-144393338D01*
X149898270Y-144486554D01*
X150141341Y-144486766D01*
X150365990Y-144393942D01*
X150538017Y-144222215D01*
X150621569Y-144021002D01*
X150718894Y-144021002D01*
X150811718Y-144245651D01*
X150983445Y-144417678D01*
X151207931Y-144510894D01*
X151451002Y-144511106D01*
X151675651Y-144418282D01*
X151847678Y-144246555D01*
X151940894Y-144022069D01*
X151941106Y-143778998D01*
X151848282Y-143554349D01*
X151676555Y-143382322D01*
X151452069Y-143289106D01*
X151208998Y-143288894D01*
X150984349Y-143381718D01*
X150812322Y-143553445D01*
X150719106Y-143777931D01*
X150718894Y-144021002D01*
X150621569Y-144021002D01*
X150631233Y-143997729D01*
X150631445Y-143754658D01*
X150538621Y-143530009D01*
X150401238Y-143392386D01*
X150401500Y-143092478D01*
X150547678Y-142946555D01*
X150640894Y-142722069D01*
X150640894Y-142721002D01*
X150718894Y-142721002D01*
X150811718Y-142945651D01*
X150983445Y-143117678D01*
X151207931Y-143210894D01*
X151451002Y-143211106D01*
X151675651Y-143118282D01*
X151847678Y-142946555D01*
X151940894Y-142722069D01*
X151941106Y-142478998D01*
X151917143Y-142421002D01*
X160718894Y-142421002D01*
X160811718Y-142645651D01*
X160983445Y-142817678D01*
X161207931Y-142910894D01*
X161451002Y-142911106D01*
X161675651Y-142818282D01*
X161847678Y-142646555D01*
X161940894Y-142422069D01*
X161941106Y-142178998D01*
X161848282Y-141954349D01*
X161676555Y-141782322D01*
X161452069Y-141689106D01*
X161208998Y-141688894D01*
X160984349Y-141781718D01*
X160812322Y-141953445D01*
X160719106Y-142177931D01*
X160718894Y-142421002D01*
X151917143Y-142421002D01*
X151848282Y-142254349D01*
X151676555Y-142082322D01*
X151452069Y-141989106D01*
X151208998Y-141988894D01*
X150984349Y-142081718D01*
X150812322Y-142253445D01*
X150719106Y-142477931D01*
X150718894Y-142721002D01*
X150640894Y-142721002D01*
X150641106Y-142478998D01*
X150548282Y-142254349D01*
X150376555Y-142082322D01*
X150152069Y-141989106D01*
X149908998Y-141988894D01*
X149684349Y-142081718D01*
X149512322Y-142253445D01*
X149495180Y-142294726D01*
X149264883Y-142294525D01*
X149248282Y-142254349D01*
X149076555Y-142082322D01*
X148852069Y-141989106D01*
X148608998Y-141988894D01*
X148384349Y-142081718D01*
X148212322Y-142253445D01*
X148119106Y-142477931D01*
X148118894Y-142721002D01*
X148040894Y-142721002D01*
X148041106Y-142478998D01*
X147948282Y-142254349D01*
X147776555Y-142082322D01*
X147552069Y-141989106D01*
X147308998Y-141988894D01*
X147084349Y-142081718D01*
X146912322Y-142253445D01*
X146819106Y-142477931D01*
X146818894Y-142721002D01*
X145358288Y-142721002D01*
X145440894Y-142522069D01*
X145441106Y-142278998D01*
X145348282Y-142054349D01*
X145244084Y-141949969D01*
X145347678Y-141846555D01*
X145440894Y-141622069D01*
X145441069Y-141421002D01*
X146818894Y-141421002D01*
X146911718Y-141645651D01*
X147083445Y-141817678D01*
X147307931Y-141910894D01*
X147551002Y-141911106D01*
X147775651Y-141818282D01*
X147947678Y-141646555D01*
X148040894Y-141422069D01*
X148040894Y-141421002D01*
X148118894Y-141421002D01*
X148211718Y-141645651D01*
X148383445Y-141817678D01*
X148607931Y-141910894D01*
X148851002Y-141911106D01*
X149075651Y-141818282D01*
X149247678Y-141646555D01*
X149340894Y-141422069D01*
X149340894Y-141421002D01*
X149418894Y-141421002D01*
X149511718Y-141645651D01*
X149683445Y-141817678D01*
X149907931Y-141910894D01*
X150151002Y-141911106D01*
X150375651Y-141818282D01*
X150547678Y-141646555D01*
X150640894Y-141422069D01*
X150640894Y-141421002D01*
X150718894Y-141421002D01*
X150811718Y-141645651D01*
X150983445Y-141817678D01*
X151207931Y-141910894D01*
X151451002Y-141911106D01*
X151675651Y-141818282D01*
X151847678Y-141646555D01*
X151940894Y-141422069D01*
X151941106Y-141178998D01*
X151848282Y-140954349D01*
X151676555Y-140782322D01*
X151452069Y-140689106D01*
X151208998Y-140688894D01*
X150984349Y-140781718D01*
X150812322Y-140953445D01*
X150719106Y-141177931D01*
X150718894Y-141421002D01*
X150640894Y-141421002D01*
X150641106Y-141178998D01*
X150548282Y-140954349D01*
X150376555Y-140782322D01*
X150152069Y-140689106D01*
X149908998Y-140688894D01*
X149684349Y-140781718D01*
X149512322Y-140953445D01*
X149419106Y-141177931D01*
X149418894Y-141421002D01*
X149340894Y-141421002D01*
X149341106Y-141178998D01*
X149248282Y-140954349D01*
X149076555Y-140782322D01*
X148852069Y-140689106D01*
X148608998Y-140688894D01*
X148384349Y-140781718D01*
X148212322Y-140953445D01*
X148119106Y-141177931D01*
X148118894Y-141421002D01*
X148040894Y-141421002D01*
X148041106Y-141178998D01*
X147948282Y-140954349D01*
X147776555Y-140782322D01*
X147552069Y-140689106D01*
X147308998Y-140688894D01*
X147084349Y-140781718D01*
X146912322Y-140953445D01*
X146819106Y-141177931D01*
X146818894Y-141421002D01*
X145441069Y-141421002D01*
X145441106Y-141378998D01*
X145348282Y-141154349D01*
X145176555Y-140982322D01*
X144952069Y-140889106D01*
X144708998Y-140888894D01*
X144484349Y-140981718D01*
X144312322Y-141153445D01*
X144219106Y-141377931D01*
X144218894Y-141621002D01*
X137757000Y-141621002D01*
X137757000Y-139821002D01*
X157218894Y-139821002D01*
X157311718Y-140045651D01*
X157483445Y-140217678D01*
X157707931Y-140310894D01*
X157951002Y-140311106D01*
X158175651Y-140218282D01*
X158347678Y-140046555D01*
X158440894Y-139822069D01*
X158441106Y-139578998D01*
X158348282Y-139354349D01*
X158176555Y-139182322D01*
X157952069Y-139089106D01*
X157708998Y-139088894D01*
X157484349Y-139181718D01*
X157312322Y-139353445D01*
X157219106Y-139577931D01*
X157218894Y-139821002D01*
X137757000Y-139821002D01*
X137757000Y-137021002D01*
X146718894Y-137021002D01*
X146811718Y-137245651D01*
X146983445Y-137417678D01*
X147207931Y-137510894D01*
X147451002Y-137511106D01*
X147675651Y-137418282D01*
X147847678Y-137246555D01*
X147916423Y-137081000D01*
X148286087Y-137081000D01*
X148284349Y-137081718D01*
X148112322Y-137253445D01*
X148019106Y-137477931D01*
X148018894Y-137721002D01*
X148111718Y-137945651D01*
X148283445Y-138117678D01*
X148507931Y-138210894D01*
X148751002Y-138211106D01*
X148757669Y-138208351D01*
X148612322Y-138353445D01*
X148519106Y-138577931D01*
X148518894Y-138821002D01*
X148611718Y-139045651D01*
X148783445Y-139217678D01*
X149007931Y-139310894D01*
X149251002Y-139311106D01*
X149475651Y-139218282D01*
X149647678Y-139046555D01*
X149740894Y-138822069D01*
X149741106Y-138578998D01*
X149648282Y-138354349D01*
X149476555Y-138182322D01*
X149252069Y-138089106D01*
X149008998Y-138088894D01*
X149002331Y-138091649D01*
X149147678Y-137946555D01*
X149240894Y-137722069D01*
X149240930Y-137681000D01*
X154159356Y-137681000D01*
X154119106Y-137777931D01*
X154118894Y-138021002D01*
X154211718Y-138245651D01*
X154383445Y-138417678D01*
X154607931Y-138510894D01*
X154851002Y-138511106D01*
X155075651Y-138418282D01*
X155247678Y-138246555D01*
X155340894Y-138022069D01*
X155341106Y-137778998D01*
X155317143Y-137721002D01*
X160318894Y-137721002D01*
X160411718Y-137945651D01*
X160583445Y-138117678D01*
X160807931Y-138210894D01*
X161051002Y-138211106D01*
X161275651Y-138118282D01*
X161447678Y-137946555D01*
X161540894Y-137722069D01*
X161541106Y-137478998D01*
X161448282Y-137254349D01*
X161276555Y-137082322D01*
X161052069Y-136989106D01*
X160808998Y-136988894D01*
X160584349Y-137081718D01*
X160412322Y-137253445D01*
X160319106Y-137477931D01*
X160318894Y-137721002D01*
X155317143Y-137721002D01*
X155300614Y-137681000D01*
X157430000Y-137681000D01*
X157614071Y-137644386D01*
X157770118Y-137540118D01*
X157799175Y-137511061D01*
X157851002Y-137511106D01*
X158075651Y-137418282D01*
X158247678Y-137246555D01*
X158325356Y-137059488D01*
X158383445Y-137117678D01*
X158607931Y-137210894D01*
X158851002Y-137211106D01*
X159075651Y-137118282D01*
X159247678Y-136946555D01*
X159340894Y-136722069D01*
X159341106Y-136478998D01*
X159248282Y-136254349D01*
X159076555Y-136082322D01*
X158980414Y-136042400D01*
X168673936Y-136042400D01*
X168673936Y-138277600D01*
X168703506Y-138426259D01*
X168706006Y-138430000D01*
X168703506Y-138433741D01*
X168673936Y-138582400D01*
X168673936Y-140817600D01*
X168703506Y-140966259D01*
X168706006Y-140970000D01*
X168703506Y-140973741D01*
X168673936Y-141122400D01*
X168673936Y-143357600D01*
X168703506Y-143506259D01*
X168706006Y-143510000D01*
X168703506Y-143513741D01*
X168673936Y-143662400D01*
X168673936Y-145897600D01*
X168703506Y-146046259D01*
X168706006Y-146050000D01*
X168703506Y-146053741D01*
X168673936Y-146202400D01*
X168673936Y-148437600D01*
X168703506Y-148586259D01*
X168787714Y-148712286D01*
X168913741Y-148796494D01*
X169062400Y-148826064D01*
X171297600Y-148826064D01*
X171446259Y-148796494D01*
X171572286Y-148712286D01*
X171656494Y-148586259D01*
X171686064Y-148437600D01*
X171686064Y-146202400D01*
X171656494Y-146053741D01*
X171653994Y-146050000D01*
X171656494Y-146046259D01*
X171686064Y-145897600D01*
X171686064Y-143662400D01*
X171656494Y-143513741D01*
X171653994Y-143510000D01*
X171656494Y-143506259D01*
X171686064Y-143357600D01*
X171686064Y-141122400D01*
X171656494Y-140973741D01*
X171653994Y-140970000D01*
X171656494Y-140966259D01*
X171686064Y-140817600D01*
X171686064Y-138582400D01*
X171656494Y-138433741D01*
X171653994Y-138430000D01*
X171656494Y-138426259D01*
X171686064Y-138277600D01*
X171686064Y-136042400D01*
X171656494Y-135893741D01*
X171572286Y-135767714D01*
X171446259Y-135683506D01*
X171297600Y-135653936D01*
X169062400Y-135653936D01*
X168913741Y-135683506D01*
X168787714Y-135767714D01*
X168703506Y-135893741D01*
X168673936Y-136042400D01*
X158980414Y-136042400D01*
X158852069Y-135989106D01*
X158608998Y-135988894D01*
X158384349Y-136081718D01*
X158212322Y-136253445D01*
X158134644Y-136440512D01*
X158076555Y-136382322D01*
X157852069Y-136289106D01*
X157662575Y-136288941D01*
X157648282Y-136254349D01*
X157476555Y-136082322D01*
X157252069Y-135989106D01*
X157008998Y-135988894D01*
X156784349Y-136081718D01*
X156747002Y-136119000D01*
X149200644Y-136119000D01*
X149240894Y-136022069D01*
X149241106Y-135778998D01*
X149148282Y-135554349D01*
X148976555Y-135382322D01*
X148752069Y-135289106D01*
X148508998Y-135288894D01*
X148284349Y-135381718D01*
X148112322Y-135553445D01*
X148019106Y-135777931D01*
X148018894Y-136021002D01*
X148059386Y-136119000D01*
X147630000Y-136119000D01*
X147445929Y-136155614D01*
X147289882Y-136259882D01*
X147260825Y-136288939D01*
X147208998Y-136288894D01*
X146984349Y-136381718D01*
X146812322Y-136553445D01*
X146719106Y-136777931D01*
X146718894Y-137021002D01*
X137757000Y-137021002D01*
X137757000Y-134921002D01*
X149918894Y-134921002D01*
X150011718Y-135145651D01*
X150183445Y-135317678D01*
X150407931Y-135410894D01*
X150651002Y-135411106D01*
X150875651Y-135318282D01*
X150973100Y-135221002D01*
X156618894Y-135221002D01*
X156711718Y-135445651D01*
X156883445Y-135617678D01*
X157107931Y-135710894D01*
X157351002Y-135711106D01*
X157575651Y-135618282D01*
X157747678Y-135446555D01*
X157840894Y-135222069D01*
X157841106Y-134978998D01*
X157748282Y-134754349D01*
X157576555Y-134582322D01*
X157352069Y-134489106D01*
X157108998Y-134488894D01*
X156884349Y-134581718D01*
X156712322Y-134753445D01*
X156619106Y-134977931D01*
X156618894Y-135221002D01*
X150973100Y-135221002D01*
X151047678Y-135146555D01*
X151140894Y-134922069D01*
X151141106Y-134678998D01*
X151048282Y-134454349D01*
X150876555Y-134282322D01*
X150652069Y-134189106D01*
X150408998Y-134188894D01*
X150184349Y-134281718D01*
X150012322Y-134453445D01*
X149919106Y-134677931D01*
X149918894Y-134921002D01*
X137757000Y-134921002D01*
X137757000Y-130721002D01*
X149668894Y-130721002D01*
X149761718Y-130945651D01*
X149933445Y-131117678D01*
X150157931Y-131210894D01*
X150401002Y-131211106D01*
X150625651Y-131118282D01*
X150797678Y-130946555D01*
X150890894Y-130722069D01*
X150891106Y-130478998D01*
X150798282Y-130254349D01*
X150626555Y-130082322D01*
X150402069Y-129989106D01*
X150158998Y-129988894D01*
X149934349Y-130081718D01*
X149762322Y-130253445D01*
X149669106Y-130477931D01*
X149668894Y-130721002D01*
X137757000Y-130721002D01*
X137757000Y-130666974D01*
X137795691Y-130683000D01*
X138652250Y-130683000D01*
X138811000Y-130524250D01*
X138811000Y-129159000D01*
X139065000Y-129159000D01*
X139065000Y-130524250D01*
X139223750Y-130683000D01*
X140080309Y-130683000D01*
X140313698Y-130586327D01*
X140492327Y-130407699D01*
X140589000Y-130174310D01*
X140589000Y-129951002D01*
X151548894Y-129951002D01*
X151641718Y-130175651D01*
X151813445Y-130347678D01*
X152037931Y-130440894D01*
X152281002Y-130441106D01*
X152505651Y-130348282D01*
X152677678Y-130176555D01*
X152770894Y-129952069D01*
X152771106Y-129708998D01*
X152678282Y-129484349D01*
X152506555Y-129312322D01*
X152282069Y-129219106D01*
X152038998Y-129218894D01*
X151814349Y-129311718D01*
X151642322Y-129483445D01*
X151549106Y-129707931D01*
X151548894Y-129951002D01*
X140589000Y-129951002D01*
X140589000Y-129317750D01*
X140430250Y-129159000D01*
X139065000Y-129159000D01*
X138811000Y-129159000D01*
X138791000Y-129159000D01*
X138791000Y-128978796D01*
X147559387Y-128978796D01*
X147652211Y-129203445D01*
X147823938Y-129375472D01*
X148048424Y-129468688D01*
X148291495Y-129468900D01*
X148516144Y-129376076D01*
X148688171Y-129204349D01*
X148781387Y-128979863D01*
X148781599Y-128736792D01*
X148688775Y-128512143D01*
X148609901Y-128433131D01*
X164465000Y-128433131D01*
X164465000Y-128487869D01*
X164571340Y-129022478D01*
X164874172Y-129475697D01*
X165327391Y-129778529D01*
X165862000Y-129884869D01*
X166396609Y-129778529D01*
X166751000Y-129541732D01*
X166751000Y-129602809D01*
X166847673Y-129836198D01*
X167026301Y-130014827D01*
X167259690Y-130111500D01*
X168116250Y-130111500D01*
X168275000Y-129952750D01*
X168275000Y-128587500D01*
X168529000Y-128587500D01*
X168529000Y-129952750D01*
X168687750Y-130111500D01*
X169544310Y-130111500D01*
X169777699Y-130014827D01*
X169956327Y-129836198D01*
X170053000Y-129602809D01*
X170053000Y-128746250D01*
X169894250Y-128587500D01*
X168529000Y-128587500D01*
X168275000Y-128587500D01*
X168255000Y-128587500D01*
X168255000Y-128333500D01*
X168275000Y-128333500D01*
X168275000Y-126968250D01*
X168529000Y-126968250D01*
X168529000Y-128333500D01*
X169894250Y-128333500D01*
X170053000Y-128174750D01*
X170053000Y-127318191D01*
X169956327Y-127084802D01*
X169777699Y-126906173D01*
X169544310Y-126809500D01*
X168687750Y-126809500D01*
X168529000Y-126968250D01*
X168275000Y-126968250D01*
X168116250Y-126809500D01*
X167259690Y-126809500D01*
X167026301Y-126906173D01*
X166847673Y-127084802D01*
X166751000Y-127318191D01*
X166751000Y-127379268D01*
X166396609Y-127142471D01*
X165862000Y-127036131D01*
X165327391Y-127142471D01*
X164874172Y-127445303D01*
X164571340Y-127898522D01*
X164465000Y-128433131D01*
X148609901Y-128433131D01*
X148517048Y-128340116D01*
X148292562Y-128246900D01*
X148049491Y-128246688D01*
X147824842Y-128339512D01*
X147652815Y-128511239D01*
X147559599Y-128735725D01*
X147559387Y-128978796D01*
X138791000Y-128978796D01*
X138791000Y-128905000D01*
X138811000Y-128905000D01*
X138811000Y-128885000D01*
X139065000Y-128885000D01*
X139065000Y-128905000D01*
X140430250Y-128905000D01*
X140589000Y-128746250D01*
X140589000Y-127889690D01*
X140492327Y-127656301D01*
X140313698Y-127477673D01*
X140080309Y-127381000D01*
X140019232Y-127381000D01*
X140256029Y-127026609D01*
X140362369Y-126492000D01*
X140319484Y-126276400D01*
X151732936Y-126276400D01*
X151732936Y-128003600D01*
X151762506Y-128152259D01*
X151846714Y-128278286D01*
X151972741Y-128362494D01*
X152121400Y-128392064D01*
X153848600Y-128392064D01*
X153997259Y-128362494D01*
X154123286Y-128278286D01*
X154207494Y-128152259D01*
X154237064Y-128003600D01*
X154237064Y-127115617D01*
X154280400Y-127115617D01*
X154280400Y-127164383D01*
X154375140Y-127640671D01*
X154644935Y-128044448D01*
X155048712Y-128314243D01*
X155525000Y-128408983D01*
X156001288Y-128314243D01*
X156405065Y-128044448D01*
X156674860Y-127640671D01*
X156769600Y-127164383D01*
X156769600Y-127115617D01*
X156674860Y-126639329D01*
X156405065Y-126235552D01*
X156001288Y-125965757D01*
X155525000Y-125871017D01*
X155048712Y-125965757D01*
X154644935Y-126235552D01*
X154375140Y-126639329D01*
X154280400Y-127115617D01*
X154237064Y-127115617D01*
X154237064Y-126276400D01*
X154207494Y-126127741D01*
X154123286Y-126001714D01*
X153997259Y-125917506D01*
X153848600Y-125887936D01*
X152121400Y-125887936D01*
X151972741Y-125917506D01*
X151846714Y-126001714D01*
X151762506Y-126127741D01*
X151732936Y-126276400D01*
X140319484Y-126276400D01*
X140256029Y-125957391D01*
X139953197Y-125504172D01*
X139499978Y-125201340D01*
X138965369Y-125095000D01*
X138910631Y-125095000D01*
X138376022Y-125201340D01*
X137922803Y-125504172D01*
X137757000Y-125752313D01*
X137757000Y-124575617D01*
X151740400Y-124575617D01*
X151740400Y-124624383D01*
X151835140Y-125100671D01*
X152104935Y-125504448D01*
X152508712Y-125774243D01*
X152985000Y-125868983D01*
X153461288Y-125774243D01*
X153865065Y-125504448D01*
X154134860Y-125100671D01*
X154229600Y-124624383D01*
X154229600Y-124575617D01*
X154280400Y-124575617D01*
X154280400Y-124624383D01*
X154375140Y-125100671D01*
X154644935Y-125504448D01*
X155048712Y-125774243D01*
X155525000Y-125868983D01*
X156001288Y-125774243D01*
X156405065Y-125504448D01*
X156674860Y-125100671D01*
X156769600Y-124624383D01*
X156769600Y-124575617D01*
X156674860Y-124099329D01*
X156405065Y-123695552D01*
X156001288Y-123425757D01*
X155525000Y-123331017D01*
X155048712Y-123425757D01*
X154644935Y-123695552D01*
X154375140Y-124099329D01*
X154280400Y-124575617D01*
X154229600Y-124575617D01*
X154134860Y-124099329D01*
X153865065Y-123695552D01*
X153461288Y-123425757D01*
X152985000Y-123331017D01*
X152508712Y-123425757D01*
X152104935Y-123695552D01*
X151835140Y-124099329D01*
X151740400Y-124575617D01*
X137757000Y-124575617D01*
X137757000Y-122181002D01*
X149848894Y-122181002D01*
X149941718Y-122405651D01*
X150113445Y-122577678D01*
X150337931Y-122670894D01*
X150581002Y-122671106D01*
X150805651Y-122578282D01*
X150977678Y-122406555D01*
X151070894Y-122182069D01*
X151071106Y-121938998D01*
X150978282Y-121714349D01*
X150806555Y-121542322D01*
X150582069Y-121449106D01*
X150338998Y-121448894D01*
X150114349Y-121541718D01*
X149942322Y-121713445D01*
X149849106Y-121937931D01*
X149848894Y-122181002D01*
X137757000Y-122181002D01*
X137757000Y-118527131D01*
X163957000Y-118527131D01*
X163957000Y-118581869D01*
X164063340Y-119116478D01*
X164366172Y-119569697D01*
X164819391Y-119872529D01*
X165354000Y-119978869D01*
X165888609Y-119872529D01*
X166341828Y-119569697D01*
X166489536Y-119348637D01*
X166489536Y-119570500D01*
X166519106Y-119719159D01*
X166603314Y-119845186D01*
X166729341Y-119929394D01*
X166878000Y-119958964D01*
X168910000Y-119958964D01*
X169058659Y-119929394D01*
X169184686Y-119845186D01*
X169268894Y-119719159D01*
X169298464Y-119570500D01*
X169298464Y-117538500D01*
X169268894Y-117389841D01*
X169184686Y-117263814D01*
X169058659Y-117179606D01*
X168910000Y-117150036D01*
X166878000Y-117150036D01*
X166729341Y-117179606D01*
X166603314Y-117263814D01*
X166519106Y-117389841D01*
X166489536Y-117538500D01*
X166489536Y-117760363D01*
X166341828Y-117539303D01*
X165888609Y-117236471D01*
X165354000Y-117130131D01*
X164819391Y-117236471D01*
X164366172Y-117539303D01*
X164063340Y-117992522D01*
X163957000Y-118527131D01*
X137757000Y-118527131D01*
X137757000Y-114745567D01*
X138298720Y-115288233D01*
X139724635Y-115880325D01*
X141268592Y-115881672D01*
X142695538Y-115292070D01*
X143788233Y-114201280D01*
X144380325Y-112775365D01*
X144381672Y-111231408D01*
X144072850Y-110484000D01*
X146747936Y-110484000D01*
X146747936Y-112516000D01*
X146777506Y-112664659D01*
X146861714Y-112790686D01*
X146987741Y-112874894D01*
X147136400Y-112904464D01*
X148863600Y-112904464D01*
X149012259Y-112874894D01*
X149138286Y-112790686D01*
X149222494Y-112664659D01*
X149252064Y-112516000D01*
X149252064Y-112418817D01*
X149637964Y-112850732D01*
X150165209Y-113104709D01*
X150180974Y-113107358D01*
X150413000Y-112986217D01*
X150413000Y-111627000D01*
X150393000Y-111627000D01*
X150393000Y-111373000D01*
X150413000Y-111373000D01*
X150413000Y-110013783D01*
X150667000Y-110013783D01*
X150667000Y-111373000D01*
X150687000Y-111373000D01*
X150687000Y-111627000D01*
X150667000Y-111627000D01*
X150667000Y-112986217D01*
X150899026Y-113107358D01*
X150914791Y-113104709D01*
X151442036Y-112850732D01*
X151831954Y-112414320D01*
X151927296Y-112141757D01*
X151930140Y-112156057D01*
X152199935Y-112559834D01*
X152603712Y-112829629D01*
X153080000Y-112924369D01*
X153556288Y-112829629D01*
X153960065Y-112559834D01*
X154229860Y-112156057D01*
X154324600Y-111679769D01*
X154324600Y-111320231D01*
X154375400Y-111320231D01*
X154375400Y-111679769D01*
X154470140Y-112156057D01*
X154739935Y-112559834D01*
X155143712Y-112829629D01*
X155620000Y-112924369D01*
X156096288Y-112829629D01*
X156500065Y-112559834D01*
X156769860Y-112156057D01*
X156864600Y-111679769D01*
X156864600Y-111320231D01*
X156915400Y-111320231D01*
X156915400Y-111679769D01*
X157010140Y-112156057D01*
X157279935Y-112559834D01*
X157683712Y-112829629D01*
X158160000Y-112924369D01*
X158636288Y-112829629D01*
X159040065Y-112559834D01*
X159309860Y-112156057D01*
X159404600Y-111679769D01*
X159404600Y-111320231D01*
X159455400Y-111320231D01*
X159455400Y-111679769D01*
X159550140Y-112156057D01*
X159819935Y-112559834D01*
X160223712Y-112829629D01*
X160700000Y-112924369D01*
X161176288Y-112829629D01*
X161580065Y-112559834D01*
X161849860Y-112156057D01*
X161944600Y-111679769D01*
X161944600Y-111320231D01*
X161849860Y-110843943D01*
X161580065Y-110440166D01*
X161176288Y-110170371D01*
X160700000Y-110075631D01*
X160223712Y-110170371D01*
X159819935Y-110440166D01*
X159550140Y-110843943D01*
X159455400Y-111320231D01*
X159404600Y-111320231D01*
X159309860Y-110843943D01*
X159040065Y-110440166D01*
X158636288Y-110170371D01*
X158160000Y-110075631D01*
X157683712Y-110170371D01*
X157279935Y-110440166D01*
X157010140Y-110843943D01*
X156915400Y-111320231D01*
X156864600Y-111320231D01*
X156769860Y-110843943D01*
X156500065Y-110440166D01*
X156096288Y-110170371D01*
X155620000Y-110075631D01*
X155143712Y-110170371D01*
X154739935Y-110440166D01*
X154470140Y-110843943D01*
X154375400Y-111320231D01*
X154324600Y-111320231D01*
X154229860Y-110843943D01*
X153960065Y-110440166D01*
X153556288Y-110170371D01*
X153080000Y-110075631D01*
X152603712Y-110170371D01*
X152199935Y-110440166D01*
X151930140Y-110843943D01*
X151927296Y-110858243D01*
X151831954Y-110585680D01*
X151442036Y-110149268D01*
X150914791Y-109895291D01*
X150899026Y-109892642D01*
X150667000Y-110013783D01*
X150413000Y-110013783D01*
X150180974Y-109892642D01*
X150165209Y-109895291D01*
X149637964Y-110149268D01*
X149252064Y-110581183D01*
X149252064Y-110484000D01*
X149222494Y-110335341D01*
X149138286Y-110209314D01*
X149012259Y-110125106D01*
X148863600Y-110095536D01*
X147136400Y-110095536D01*
X146987741Y-110125106D01*
X146861714Y-110209314D01*
X146777506Y-110335341D01*
X146747936Y-110484000D01*
X144072850Y-110484000D01*
X143792070Y-109804462D01*
X143015963Y-109027000D01*
X166484835Y-109027000D01*
X165711767Y-109798720D01*
M02*
