G04 #@! TF.FileFunction,Soldermask,Bot*
%FSLAX46Y46*%
G04 Gerber Fmt 4.6, Leading zero omitted, Abs format (unit mm)*
G04 Created by KiCad (PCBNEW no-vcs-found-undefined) date Mon Oct 24 18:16:08 2016*
%MOMM*%
%LPD*%
G01*
G04 APERTURE LIST*
%ADD10C,0.100000*%
%ADD11R,0.900000X1.000000*%
%ADD12R,2.635200X2.635200*%
%ADD13R,2.127200X2.432000*%
%ADD14O,2.127200X2.432000*%
%ADD15R,2.127200X2.127200*%
%ADD16O,2.127200X2.127200*%
%ADD17R,2.432000X2.432000*%
%ADD18O,2.432000X2.432000*%
%ADD19R,0.750000X1.200000*%
%ADD20R,1.200000X0.750000*%
%ADD21R,1.650000X1.650000*%
%ADD22C,7.400000*%
G04 APERTURE END LIST*
D10*
D11*
X150525000Y-132800000D03*
X150525000Y-133900000D03*
D12*
X141000000Y-150000000D03*
X170180000Y-147320000D03*
X170180000Y-137160000D03*
D13*
X154000000Y-159000000D03*
D14*
X151460000Y-159000000D03*
X148920000Y-159000000D03*
X146380000Y-159000000D03*
D15*
X152985000Y-127140000D03*
D16*
X152985000Y-124600000D03*
X155525000Y-127140000D03*
X155525000Y-124600000D03*
D12*
X170180000Y-139700000D03*
X170180000Y-142240000D03*
X170180000Y-144780000D03*
D17*
X167894000Y-118554500D03*
D18*
X165354000Y-118554500D03*
D17*
X138938000Y-129032000D03*
D18*
X138938000Y-126492000D03*
D17*
X168402000Y-128460500D03*
D18*
X165862000Y-128460500D03*
D13*
X148000000Y-111500000D03*
D14*
X150540000Y-111500000D03*
X153080000Y-111500000D03*
X155620000Y-111500000D03*
X158160000Y-111500000D03*
X160700000Y-111500000D03*
D19*
X153150000Y-131350000D03*
X153800000Y-131350000D03*
X154450000Y-131350000D03*
X155100000Y-131350000D03*
D20*
X156125000Y-132375000D03*
X156125000Y-133025000D03*
X156125000Y-133675000D03*
X156125000Y-134325000D03*
D19*
X155100000Y-135350000D03*
X154450000Y-135350000D03*
X153800000Y-135350000D03*
X153150000Y-135350000D03*
D20*
X152125000Y-134325000D03*
X152125000Y-133675000D03*
X152125000Y-133025000D03*
X152125000Y-132375000D03*
D21*
X154750000Y-133975000D03*
X153500000Y-133975000D03*
X154750000Y-132725000D03*
X153500000Y-132725000D03*
D22*
X169000000Y-112000000D03*
X140500000Y-112000000D03*
X169000000Y-158000000D03*
X140500000Y-158000000D03*
M02*
