G04 #@! TF.FileFunction,Copper,L4,Bot,Signal*
%FSLAX46Y46*%
G04 Gerber Fmt 4.6, Leading zero omitted, Abs format (unit mm)*
G04 Created by KiCad (PCBNEW no-vcs-found-undefined) date Mon Oct 24 18:16:08 2016*
%MOMM*%
%LPD*%
G01*
G04 APERTURE LIST*
%ADD10C,0.100000*%
%ADD11R,0.500000X0.600000*%
%ADD12R,2.235200X2.235200*%
%ADD13R,1.727200X2.032000*%
%ADD14O,1.727200X2.032000*%
%ADD15R,1.727200X1.727200*%
%ADD16O,1.727200X1.727200*%
%ADD17R,2.032000X2.032000*%
%ADD18O,2.032000X2.032000*%
%ADD19R,0.350000X0.800000*%
%ADD20R,0.800000X0.350000*%
%ADD21R,1.250000X1.250000*%
%ADD22C,7.000000*%
%ADD23C,0.460000*%
%ADD24C,1.200000*%
%ADD25C,0.200000*%
%ADD26C,0.254000*%
G04 APERTURE END LIST*
D10*
D11*
X150525000Y-132800000D03*
X150525000Y-133900000D03*
D12*
X141000000Y-150000000D03*
X170180000Y-147320000D03*
X170180000Y-137160000D03*
D13*
X154000000Y-159000000D03*
D14*
X151460000Y-159000000D03*
X148920000Y-159000000D03*
X146380000Y-159000000D03*
D15*
X152985000Y-127140000D03*
D16*
X152985000Y-124600000D03*
X155525000Y-127140000D03*
X155525000Y-124600000D03*
D12*
X170180000Y-139700000D03*
X170180000Y-142240000D03*
X170180000Y-144780000D03*
D17*
X167894000Y-118554500D03*
D18*
X165354000Y-118554500D03*
D17*
X138938000Y-129032000D03*
D18*
X138938000Y-126492000D03*
D17*
X168402000Y-128460500D03*
D18*
X165862000Y-128460500D03*
D13*
X148000000Y-111500000D03*
D14*
X150540000Y-111500000D03*
X153080000Y-111500000D03*
X155620000Y-111500000D03*
X158160000Y-111500000D03*
X160700000Y-111500000D03*
D19*
X153150000Y-131350000D03*
X153800000Y-131350000D03*
X154450000Y-131350000D03*
X155100000Y-131350000D03*
D20*
X156125000Y-132375000D03*
X156125000Y-133025000D03*
X156125000Y-133675000D03*
X156125000Y-134325000D03*
D19*
X155100000Y-135350000D03*
X154450000Y-135350000D03*
X153800000Y-135350000D03*
X153150000Y-135350000D03*
D20*
X152125000Y-134325000D03*
X152125000Y-133675000D03*
X152125000Y-133025000D03*
X152125000Y-132375000D03*
D21*
X154750000Y-133975000D03*
X153500000Y-133975000D03*
X154750000Y-132725000D03*
X153500000Y-132725000D03*
D22*
X169000000Y-112000000D03*
X140500000Y-112000000D03*
X169000000Y-158000000D03*
X140500000Y-158000000D03*
D23*
X147430000Y-145200000D03*
X147430000Y-143900000D03*
X148730000Y-145200000D03*
X147430000Y-141300000D03*
X148730000Y-141300000D03*
X147430000Y-142600000D03*
X148730000Y-143900000D03*
X150030000Y-141300000D03*
X148730000Y-142600000D03*
X151330000Y-141300000D03*
X151330000Y-142600000D03*
X150030000Y-142600000D03*
X144830000Y-141500000D03*
X144830000Y-142400000D03*
X154730000Y-137900000D03*
X161330000Y-142300000D03*
X161130000Y-144840000D03*
X148630000Y-135900000D03*
X142830000Y-145400000D03*
X151330000Y-143900000D03*
X151330000Y-145200000D03*
X150030000Y-145200000D03*
X150020339Y-143875660D03*
X160930000Y-137600000D03*
X150530000Y-134800000D03*
D24*
X149420340Y-143275661D03*
D23*
X152030000Y-138500000D03*
X143930000Y-142500000D03*
X161130000Y-138900000D03*
X150530000Y-131700000D03*
X146130000Y-138400000D03*
X151530000Y-121700000D03*
X150460000Y-122060000D03*
X147330000Y-136900000D03*
X157130000Y-136600000D03*
X148630000Y-137600000D03*
X157730000Y-136900000D03*
X149130000Y-138700000D03*
X152160000Y-129830000D03*
X148170493Y-128857794D03*
X156030000Y-147100000D03*
X155330000Y-146400000D03*
X158730000Y-136600000D03*
X157830000Y-139700000D03*
X157230000Y-135100000D03*
X150280000Y-130600000D03*
D25*
X150525000Y-133900000D02*
X150525000Y-134795000D01*
X150525000Y-134795000D02*
X150530000Y-134800000D01*
X152125000Y-134325000D02*
X150950000Y-134325000D01*
X150950000Y-134325000D02*
X150525000Y-133900000D01*
X152030000Y-138500000D02*
X152130000Y-138400000D01*
X150525000Y-131705000D02*
X150530000Y-131700000D01*
X150525000Y-132800000D02*
X150525000Y-131705000D01*
X152125000Y-132375000D02*
X150950000Y-132375000D01*
X150950000Y-132375000D02*
X150525000Y-132800000D01*
X152880000Y-129180000D02*
X150460000Y-126760000D01*
X150460000Y-126760000D02*
X150460000Y-122060000D01*
X154450000Y-131350000D02*
X154450000Y-130750000D01*
X154450000Y-130750000D02*
X152880000Y-129180000D01*
X149540000Y-122150000D02*
X155620000Y-116070000D01*
X155620000Y-116070000D02*
X155620000Y-111500000D01*
X149540000Y-134790000D02*
X149540000Y-122150000D01*
X150100000Y-135350000D02*
X149540000Y-134790000D01*
X153150000Y-135350000D02*
X150100000Y-135350000D01*
X155458576Y-109920000D02*
X156732400Y-109920000D01*
X156732400Y-109920000D02*
X158160000Y-111347600D01*
X158160000Y-111347600D02*
X158160000Y-111500000D01*
X149090000Y-121990000D02*
X154496390Y-116583610D01*
X154496390Y-116583610D02*
X154496390Y-110882186D01*
X154496390Y-110882186D02*
X155458576Y-109920000D01*
X149090000Y-135390000D02*
X149090000Y-121990000D01*
X149890000Y-136190000D02*
X149090000Y-135390000D01*
X153560000Y-136190000D02*
X149890000Y-136190000D01*
X153800000Y-135350000D02*
X153800000Y-135950000D01*
X153800000Y-135950000D02*
X153560000Y-136190000D01*
X157705000Y-133675000D02*
X156125000Y-133675000D01*
X158330000Y-135400000D02*
X157130000Y-136600000D01*
X158330000Y-134300000D02*
X158330000Y-135400000D01*
X157705000Y-133675000D02*
X158330000Y-134300000D01*
X158830000Y-135700000D02*
X158830000Y-133900000D01*
X156125000Y-133025000D02*
X157955000Y-133025000D01*
X157955000Y-133025000D02*
X158830000Y-133900000D01*
X158830000Y-135800000D02*
X158830000Y-135700000D01*
X157730000Y-136900000D02*
X158830000Y-135800000D01*
X146530000Y-130498287D02*
X148170493Y-128857794D01*
X146530000Y-137400000D02*
X146530000Y-130498287D01*
X147430000Y-138300000D02*
X146530000Y-137400000D01*
X148730000Y-138300000D02*
X147430000Y-138300000D01*
X149130000Y-138700000D02*
X148730000Y-138300000D01*
X148170493Y-128857794D02*
X146930000Y-130098287D01*
X146930000Y-130098287D02*
X147000000Y-130028287D01*
X153800000Y-130750000D02*
X153800000Y-131350000D01*
X152880000Y-129830000D02*
X153800000Y-130750000D01*
X152160000Y-129830000D02*
X152880000Y-129830000D01*
X155100000Y-135350000D02*
X155100000Y-136070000D01*
X156030000Y-137000000D02*
X156030000Y-147100000D01*
X155100000Y-136070000D02*
X156030000Y-137000000D01*
X155330000Y-146400000D02*
X155330000Y-137300000D01*
X154450000Y-136420000D02*
X154450000Y-135350000D01*
X155330000Y-137300000D02*
X154450000Y-136420000D01*
X158730000Y-138800000D02*
X158730000Y-136600000D01*
X157830000Y-139700000D02*
X158730000Y-138800000D01*
X156125000Y-134325000D02*
X156455000Y-134325000D01*
X156455000Y-134325000D02*
X157230000Y-135100000D01*
X151030000Y-131350000D02*
X150280000Y-130600000D01*
X153150000Y-131350000D02*
X151030000Y-131350000D01*
D26*
G36*
X165711767Y-109798720D02*
X165119675Y-111224635D01*
X165118328Y-112768592D01*
X165707930Y-114195538D01*
X166798720Y-115288233D01*
X168224635Y-115880325D01*
X169768592Y-115881672D01*
X171195538Y-115292070D01*
X172003000Y-114486016D01*
X172003000Y-155514887D01*
X171201280Y-154711767D01*
X169775365Y-154119675D01*
X168231408Y-154118328D01*
X166804462Y-154707930D01*
X165711767Y-155798720D01*
X165119675Y-157224635D01*
X165118328Y-158768592D01*
X165707930Y-160195538D01*
X166284385Y-160773000D01*
X143215515Y-160773000D01*
X143788233Y-160201280D01*
X144361694Y-158820231D01*
X145135400Y-158820231D01*
X145135400Y-159179769D01*
X145230140Y-159656057D01*
X145499935Y-160059834D01*
X145903712Y-160329629D01*
X146380000Y-160424369D01*
X146856288Y-160329629D01*
X147260065Y-160059834D01*
X147529860Y-159656057D01*
X147624600Y-159179769D01*
X147624600Y-158820231D01*
X147675400Y-158820231D01*
X147675400Y-159179769D01*
X147770140Y-159656057D01*
X148039935Y-160059834D01*
X148443712Y-160329629D01*
X148920000Y-160424369D01*
X149396288Y-160329629D01*
X149800065Y-160059834D01*
X150069860Y-159656057D01*
X150164600Y-159179769D01*
X150164600Y-158820231D01*
X150215400Y-158820231D01*
X150215400Y-159179769D01*
X150310140Y-159656057D01*
X150579935Y-160059834D01*
X150983712Y-160329629D01*
X151460000Y-160424369D01*
X151936288Y-160329629D01*
X152340065Y-160059834D01*
X152609860Y-159656057D01*
X152704600Y-159179769D01*
X152704600Y-158820231D01*
X152609860Y-158343943D01*
X152369354Y-157984000D01*
X152747936Y-157984000D01*
X152747936Y-160016000D01*
X152777506Y-160164659D01*
X152861714Y-160290686D01*
X152987741Y-160374894D01*
X153136400Y-160404464D01*
X154863600Y-160404464D01*
X155012259Y-160374894D01*
X155138286Y-160290686D01*
X155222494Y-160164659D01*
X155252064Y-160016000D01*
X155252064Y-157984000D01*
X155222494Y-157835341D01*
X155138286Y-157709314D01*
X155012259Y-157625106D01*
X154863600Y-157595536D01*
X153136400Y-157595536D01*
X152987741Y-157625106D01*
X152861714Y-157709314D01*
X152777506Y-157835341D01*
X152747936Y-157984000D01*
X152369354Y-157984000D01*
X152340065Y-157940166D01*
X151936288Y-157670371D01*
X151460000Y-157575631D01*
X150983712Y-157670371D01*
X150579935Y-157940166D01*
X150310140Y-158343943D01*
X150215400Y-158820231D01*
X150164600Y-158820231D01*
X150069860Y-158343943D01*
X149800065Y-157940166D01*
X149396288Y-157670371D01*
X148920000Y-157575631D01*
X148443712Y-157670371D01*
X148039935Y-157940166D01*
X147770140Y-158343943D01*
X147675400Y-158820231D01*
X147624600Y-158820231D01*
X147529860Y-158343943D01*
X147260065Y-157940166D01*
X146856288Y-157670371D01*
X146380000Y-157575631D01*
X145903712Y-157670371D01*
X145499935Y-157940166D01*
X145230140Y-158343943D01*
X145135400Y-158820231D01*
X144361694Y-158820231D01*
X144380325Y-158775365D01*
X144381672Y-157231408D01*
X143792070Y-155804462D01*
X142701280Y-154711767D01*
X141275365Y-154119675D01*
X139731408Y-154118328D01*
X138304462Y-154707930D01*
X137757000Y-155254438D01*
X137757000Y-150285750D01*
X139247400Y-150285750D01*
X139247400Y-151243910D01*
X139344073Y-151477299D01*
X139522702Y-151655927D01*
X139756091Y-151752600D01*
X140714250Y-151752600D01*
X140873000Y-151593850D01*
X140873000Y-150127000D01*
X141127000Y-150127000D01*
X141127000Y-151593850D01*
X141285750Y-151752600D01*
X142243909Y-151752600D01*
X142477298Y-151655927D01*
X142655927Y-151477299D01*
X142752600Y-151243910D01*
X142752600Y-150285750D01*
X142593850Y-150127000D01*
X141127000Y-150127000D01*
X140873000Y-150127000D01*
X139406150Y-150127000D01*
X139247400Y-150285750D01*
X137757000Y-150285750D01*
X137757000Y-148756090D01*
X139247400Y-148756090D01*
X139247400Y-149714250D01*
X139406150Y-149873000D01*
X140873000Y-149873000D01*
X140873000Y-148406150D01*
X141127000Y-148406150D01*
X141127000Y-149873000D01*
X142593850Y-149873000D01*
X142752600Y-149714250D01*
X142752600Y-148756090D01*
X142655927Y-148522701D01*
X142477298Y-148344073D01*
X142243909Y-148247400D01*
X141285750Y-148247400D01*
X141127000Y-148406150D01*
X140873000Y-148406150D01*
X140714250Y-148247400D01*
X139756091Y-148247400D01*
X139522702Y-148344073D01*
X139344073Y-148522701D01*
X139247400Y-148756090D01*
X137757000Y-148756090D01*
X137757000Y-142621002D01*
X143318894Y-142621002D01*
X143411718Y-142845651D01*
X143583445Y-143017678D01*
X143807931Y-143110894D01*
X144051002Y-143111106D01*
X144275651Y-143018282D01*
X144447678Y-142846555D01*
X144540894Y-142622069D01*
X144541106Y-142378998D01*
X144448282Y-142154349D01*
X144276555Y-141982322D01*
X144052069Y-141889106D01*
X143808998Y-141888894D01*
X143584349Y-141981718D01*
X143412322Y-142153445D01*
X143319106Y-142377931D01*
X143318894Y-142621002D01*
X137757000Y-142621002D01*
X137757000Y-138521002D01*
X145518894Y-138521002D01*
X145611718Y-138745651D01*
X145783445Y-138917678D01*
X146007931Y-139010894D01*
X146251002Y-139011106D01*
X146475651Y-138918282D01*
X146647678Y-138746555D01*
X146740894Y-138522069D01*
X146741095Y-138291332D01*
X147089881Y-138640118D01*
X147179501Y-138700000D01*
X147245929Y-138744386D01*
X147430000Y-138781000D01*
X148518929Y-138781000D01*
X148518894Y-138821002D01*
X148611718Y-139045651D01*
X148783445Y-139217678D01*
X149007931Y-139310894D01*
X149251002Y-139311106D01*
X149475651Y-139218282D01*
X149647678Y-139046555D01*
X149740894Y-138822069D01*
X149741069Y-138621002D01*
X151418894Y-138621002D01*
X151511718Y-138845651D01*
X151683445Y-139017678D01*
X151907931Y-139110894D01*
X152151002Y-139111106D01*
X152375651Y-139018282D01*
X152547678Y-138846555D01*
X152640894Y-138622069D01*
X152641106Y-138378998D01*
X152574998Y-138219005D01*
X152574386Y-138215930D01*
X152572659Y-138213346D01*
X152548282Y-138154349D01*
X152502787Y-138108774D01*
X152470118Y-138059882D01*
X152421653Y-138027499D01*
X152376555Y-137982322D01*
X152317081Y-137957626D01*
X152314070Y-137955614D01*
X152310549Y-137954914D01*
X152152069Y-137889106D01*
X151908998Y-137888894D01*
X151684349Y-137981718D01*
X151512322Y-138153445D01*
X151419106Y-138377931D01*
X151418894Y-138621002D01*
X149741069Y-138621002D01*
X149741106Y-138578998D01*
X149648282Y-138354349D01*
X149476555Y-138182322D01*
X149252069Y-138089106D01*
X149199296Y-138089060D01*
X149102195Y-137991959D01*
X149147678Y-137946555D01*
X149240894Y-137722069D01*
X149241106Y-137478998D01*
X149148282Y-137254349D01*
X148976555Y-137082322D01*
X148752069Y-136989106D01*
X148508998Y-136988894D01*
X148284349Y-137081718D01*
X148112322Y-137253445D01*
X148019106Y-137477931D01*
X148018894Y-137721002D01*
X148059386Y-137819000D01*
X147629237Y-137819000D01*
X147321229Y-137510993D01*
X147451002Y-137511106D01*
X147675651Y-137418282D01*
X147847678Y-137246555D01*
X147940894Y-137022069D01*
X147941106Y-136778998D01*
X147848282Y-136554349D01*
X147676555Y-136382322D01*
X147452069Y-136289106D01*
X147208998Y-136288894D01*
X147011000Y-136370706D01*
X147011000Y-130697523D01*
X148239669Y-129468855D01*
X148291495Y-129468900D01*
X148516144Y-129376076D01*
X148609000Y-129283382D01*
X148609000Y-135390000D01*
X148645614Y-135574071D01*
X148749882Y-135730118D01*
X149549882Y-136530118D01*
X149705929Y-136634386D01*
X149890000Y-136671000D01*
X153560000Y-136671000D01*
X153744071Y-136634386D01*
X153900118Y-136530118D01*
X153975842Y-136454395D01*
X154004804Y-136600000D01*
X154005614Y-136604071D01*
X154109882Y-136760118D01*
X154849000Y-137499236D01*
X154849000Y-146016831D01*
X154812322Y-146053445D01*
X154719106Y-146277931D01*
X154718894Y-146521002D01*
X154811718Y-146745651D01*
X154983445Y-146917678D01*
X155207931Y-147010894D01*
X155419077Y-147011078D01*
X155418894Y-147221002D01*
X155511718Y-147445651D01*
X155683445Y-147617678D01*
X155907931Y-147710894D01*
X156151002Y-147711106D01*
X156375651Y-147618282D01*
X156388204Y-147605750D01*
X168427400Y-147605750D01*
X168427400Y-148563909D01*
X168524073Y-148797298D01*
X168702701Y-148975927D01*
X168936090Y-149072600D01*
X169894250Y-149072600D01*
X170053000Y-148913850D01*
X170053000Y-147447000D01*
X170307000Y-147447000D01*
X170307000Y-148913850D01*
X170465750Y-149072600D01*
X171423910Y-149072600D01*
X171657299Y-148975927D01*
X171835927Y-148797298D01*
X171932600Y-148563909D01*
X171932600Y-147605750D01*
X171773850Y-147447000D01*
X170307000Y-147447000D01*
X170053000Y-147447000D01*
X168586150Y-147447000D01*
X168427400Y-147605750D01*
X156388204Y-147605750D01*
X156547678Y-147446555D01*
X156640894Y-147222069D01*
X156641106Y-146978998D01*
X156548282Y-146754349D01*
X156511000Y-146717002D01*
X156511000Y-146076091D01*
X168427400Y-146076091D01*
X168427400Y-147034250D01*
X168586150Y-147193000D01*
X170053000Y-147193000D01*
X170053000Y-147173000D01*
X170307000Y-147173000D01*
X170307000Y-147193000D01*
X171773850Y-147193000D01*
X171932600Y-147034250D01*
X171932600Y-146076091D01*
X171835927Y-145842702D01*
X171686064Y-145692838D01*
X171686064Y-143662400D01*
X171656494Y-143513741D01*
X171653994Y-143510000D01*
X171656494Y-143506259D01*
X171686064Y-143357600D01*
X171686064Y-141122400D01*
X171656494Y-140973741D01*
X171653994Y-140970000D01*
X171656494Y-140966259D01*
X171686064Y-140817600D01*
X171686064Y-138582400D01*
X171656494Y-138433741D01*
X171653994Y-138430000D01*
X171656494Y-138426259D01*
X171686064Y-138277600D01*
X171686064Y-136042400D01*
X171656494Y-135893741D01*
X171572286Y-135767714D01*
X171446259Y-135683506D01*
X171297600Y-135653936D01*
X169062400Y-135653936D01*
X168913741Y-135683506D01*
X168787714Y-135767714D01*
X168703506Y-135893741D01*
X168673936Y-136042400D01*
X168673936Y-138277600D01*
X168703506Y-138426259D01*
X168706006Y-138430000D01*
X168703506Y-138433741D01*
X168673936Y-138582400D01*
X168673936Y-140817600D01*
X168703506Y-140966259D01*
X168706006Y-140970000D01*
X168703506Y-140973741D01*
X168673936Y-141122400D01*
X168673936Y-143357600D01*
X168703506Y-143506259D01*
X168706006Y-143510000D01*
X168703506Y-143513741D01*
X168673936Y-143662400D01*
X168673936Y-145692838D01*
X168524073Y-145842702D01*
X168427400Y-146076091D01*
X156511000Y-146076091D01*
X156511000Y-137000000D01*
X156474386Y-136815929D01*
X156432622Y-136753426D01*
X156370119Y-136659882D01*
X155623881Y-135913645D01*
X155633894Y-135898659D01*
X155663464Y-135750000D01*
X155663464Y-134950000D01*
X155648624Y-134875395D01*
X155649686Y-134874686D01*
X155650395Y-134873624D01*
X155725000Y-134888464D01*
X156338228Y-134888464D01*
X156618939Y-135169176D01*
X156618894Y-135221002D01*
X156711718Y-135445651D01*
X156883445Y-135617678D01*
X157107931Y-135710894D01*
X157338668Y-135711095D01*
X157060825Y-135988939D01*
X157008998Y-135988894D01*
X156784349Y-136081718D01*
X156612322Y-136253445D01*
X156519106Y-136477931D01*
X156518894Y-136721002D01*
X156611718Y-136945651D01*
X156783445Y-137117678D01*
X157007931Y-137210894D01*
X157197425Y-137211059D01*
X157211718Y-137245651D01*
X157383445Y-137417678D01*
X157607931Y-137510894D01*
X157851002Y-137511106D01*
X158075651Y-137418282D01*
X158247678Y-137246555D01*
X158249000Y-137243371D01*
X158249000Y-138600763D01*
X157760824Y-139088939D01*
X157708998Y-139088894D01*
X157484349Y-139181718D01*
X157312322Y-139353445D01*
X157219106Y-139577931D01*
X157218894Y-139821002D01*
X157311718Y-140045651D01*
X157483445Y-140217678D01*
X157707931Y-140310894D01*
X157951002Y-140311106D01*
X158175651Y-140218282D01*
X158347678Y-140046555D01*
X158440894Y-139822069D01*
X158440940Y-139769296D01*
X159070118Y-139140119D01*
X159149709Y-139021002D01*
X160518894Y-139021002D01*
X160611718Y-139245651D01*
X160783445Y-139417678D01*
X161007931Y-139510894D01*
X161251002Y-139511106D01*
X161475651Y-139418282D01*
X161647678Y-139246555D01*
X161740894Y-139022069D01*
X161741106Y-138778998D01*
X161648282Y-138554349D01*
X161476555Y-138382322D01*
X161252069Y-138289106D01*
X161008998Y-138288894D01*
X160784349Y-138381718D01*
X160612322Y-138553445D01*
X160519106Y-138777931D01*
X160518894Y-139021002D01*
X159149709Y-139021002D01*
X159174386Y-138984071D01*
X159194277Y-138884070D01*
X159211000Y-138800000D01*
X159211000Y-136983169D01*
X159247678Y-136946555D01*
X159340894Y-136722069D01*
X159341106Y-136478998D01*
X159248282Y-136254349D01*
X159152168Y-136158068D01*
X159170118Y-136140118D01*
X159171223Y-136138464D01*
X159274386Y-135984071D01*
X159311000Y-135800000D01*
X159311000Y-133900000D01*
X159274386Y-133715929D01*
X159170118Y-133559882D01*
X158295118Y-132684882D01*
X158139071Y-132580614D01*
X157955000Y-132544000D01*
X156913464Y-132544000D01*
X156913464Y-132200000D01*
X156883894Y-132051341D01*
X156799686Y-131925314D01*
X156673659Y-131841106D01*
X156525000Y-131811536D01*
X155725000Y-131811536D01*
X155650395Y-131826376D01*
X155649686Y-131825314D01*
X155648624Y-131824605D01*
X155663464Y-131750000D01*
X155663464Y-130950000D01*
X155633894Y-130801341D01*
X155549686Y-130675314D01*
X155423659Y-130591106D01*
X155275000Y-130561536D01*
X154925000Y-130561536D01*
X154894711Y-130567561D01*
X154894386Y-130565929D01*
X154849189Y-130498287D01*
X154790118Y-130409881D01*
X153220118Y-128839882D01*
X152813367Y-128433131D01*
X164465000Y-128433131D01*
X164465000Y-128487869D01*
X164571340Y-129022478D01*
X164874172Y-129475697D01*
X165327391Y-129778529D01*
X165862000Y-129884869D01*
X166396609Y-129778529D01*
X166849828Y-129475697D01*
X166997536Y-129254637D01*
X166997536Y-129476500D01*
X167027106Y-129625159D01*
X167111314Y-129751186D01*
X167237341Y-129835394D01*
X167386000Y-129864964D01*
X169418000Y-129864964D01*
X169566659Y-129835394D01*
X169692686Y-129751186D01*
X169776894Y-129625159D01*
X169806464Y-129476500D01*
X169806464Y-127444500D01*
X169776894Y-127295841D01*
X169692686Y-127169814D01*
X169566659Y-127085606D01*
X169418000Y-127056036D01*
X167386000Y-127056036D01*
X167237341Y-127085606D01*
X167111314Y-127169814D01*
X167027106Y-127295841D01*
X166997536Y-127444500D01*
X166997536Y-127666363D01*
X166849828Y-127445303D01*
X166396609Y-127142471D01*
X165862000Y-127036131D01*
X165327391Y-127142471D01*
X164874172Y-127445303D01*
X164571340Y-127898522D01*
X164465000Y-128433131D01*
X152813367Y-128433131D01*
X152772300Y-128392064D01*
X153848600Y-128392064D01*
X153997259Y-128362494D01*
X154123286Y-128278286D01*
X154207494Y-128152259D01*
X154237064Y-128003600D01*
X154237064Y-127115617D01*
X154280400Y-127115617D01*
X154280400Y-127164383D01*
X154375140Y-127640671D01*
X154644935Y-128044448D01*
X155048712Y-128314243D01*
X155525000Y-128408983D01*
X156001288Y-128314243D01*
X156405065Y-128044448D01*
X156674860Y-127640671D01*
X156769600Y-127164383D01*
X156769600Y-127115617D01*
X156674860Y-126639329D01*
X156405065Y-126235552D01*
X156001288Y-125965757D01*
X155525000Y-125871017D01*
X155048712Y-125965757D01*
X154644935Y-126235552D01*
X154375140Y-126639329D01*
X154280400Y-127115617D01*
X154237064Y-127115617D01*
X154237064Y-126276400D01*
X154207494Y-126127741D01*
X154123286Y-126001714D01*
X153997259Y-125917506D01*
X153848600Y-125887936D01*
X153747276Y-125887936D01*
X153759947Y-125882688D01*
X154191821Y-125488490D01*
X154374676Y-125098338D01*
X154375140Y-125100671D01*
X154644935Y-125504448D01*
X155048712Y-125774243D01*
X155525000Y-125868983D01*
X156001288Y-125774243D01*
X156405065Y-125504448D01*
X156674860Y-125100671D01*
X156769600Y-124624383D01*
X156769600Y-124575617D01*
X156674860Y-124099329D01*
X156405065Y-123695552D01*
X156001288Y-123425757D01*
X155525000Y-123331017D01*
X155048712Y-123425757D01*
X154644935Y-123695552D01*
X154375140Y-124099329D01*
X154374676Y-124101662D01*
X154191821Y-123711510D01*
X153759947Y-123317312D01*
X153344026Y-123145042D01*
X153112000Y-123266183D01*
X153112000Y-124473000D01*
X153132000Y-124473000D01*
X153132000Y-124727000D01*
X153112000Y-124727000D01*
X153112000Y-124747000D01*
X152858000Y-124747000D01*
X152858000Y-124727000D01*
X151650531Y-124727000D01*
X151530032Y-124959027D01*
X151778179Y-125488490D01*
X152210053Y-125882688D01*
X152222724Y-125887936D01*
X152121400Y-125887936D01*
X151972741Y-125917506D01*
X151846714Y-126001714D01*
X151762506Y-126127741D01*
X151732936Y-126276400D01*
X151732936Y-127352700D01*
X150941000Y-126560764D01*
X150941000Y-124240973D01*
X151530032Y-124240973D01*
X151650531Y-124473000D01*
X152858000Y-124473000D01*
X152858000Y-123266183D01*
X152625974Y-123145042D01*
X152210053Y-123317312D01*
X151778179Y-123711510D01*
X151530032Y-124240973D01*
X150941000Y-124240973D01*
X150941000Y-122443169D01*
X150977678Y-122406555D01*
X151070894Y-122182069D01*
X151070961Y-122104998D01*
X151183445Y-122217678D01*
X151407931Y-122310894D01*
X151651002Y-122311106D01*
X151875651Y-122218282D01*
X152047678Y-122046555D01*
X152140894Y-121822069D01*
X152141106Y-121578998D01*
X152048282Y-121354349D01*
X151876555Y-121182322D01*
X151652069Y-121089106D01*
X151408998Y-121088894D01*
X151191454Y-121178782D01*
X153432790Y-118937446D01*
X163748017Y-118937446D01*
X164016812Y-119522879D01*
X164489182Y-119960885D01*
X164971056Y-120160475D01*
X165227000Y-120041336D01*
X165227000Y-118681500D01*
X163866633Y-118681500D01*
X163748017Y-118937446D01*
X153432790Y-118937446D01*
X154198682Y-118171554D01*
X163748017Y-118171554D01*
X163866633Y-118427500D01*
X165227000Y-118427500D01*
X165227000Y-117067664D01*
X165481000Y-117067664D01*
X165481000Y-118427500D01*
X165501000Y-118427500D01*
X165501000Y-118681500D01*
X165481000Y-118681500D01*
X165481000Y-120041336D01*
X165736944Y-120160475D01*
X166218818Y-119960885D01*
X166512940Y-119688160D01*
X166519106Y-119719159D01*
X166603314Y-119845186D01*
X166729341Y-119929394D01*
X166878000Y-119958964D01*
X168910000Y-119958964D01*
X169058659Y-119929394D01*
X169184686Y-119845186D01*
X169268894Y-119719159D01*
X169298464Y-119570500D01*
X169298464Y-117538500D01*
X169268894Y-117389841D01*
X169184686Y-117263814D01*
X169058659Y-117179606D01*
X168910000Y-117150036D01*
X166878000Y-117150036D01*
X166729341Y-117179606D01*
X166603314Y-117263814D01*
X166519106Y-117389841D01*
X166512940Y-117420840D01*
X166218818Y-117148115D01*
X165736944Y-116948525D01*
X165481000Y-117067664D01*
X165227000Y-117067664D01*
X164971056Y-116948525D01*
X164489182Y-117148115D01*
X164016812Y-117586121D01*
X163748017Y-118171554D01*
X154198682Y-118171554D01*
X155960118Y-116410119D01*
X156064386Y-116254071D01*
X156087230Y-116139224D01*
X156101000Y-116070000D01*
X156101000Y-112826481D01*
X156500065Y-112559834D01*
X156769860Y-112156057D01*
X156864600Y-111679769D01*
X156864600Y-111320231D01*
X156769860Y-110843943D01*
X156500065Y-110440166D01*
X156441449Y-110401000D01*
X156533164Y-110401000D01*
X157004493Y-110872330D01*
X156915400Y-111320231D01*
X156915400Y-111679769D01*
X157010140Y-112156057D01*
X157279935Y-112559834D01*
X157683712Y-112829629D01*
X158160000Y-112924369D01*
X158636288Y-112829629D01*
X159040065Y-112559834D01*
X159309860Y-112156057D01*
X159404600Y-111679769D01*
X159404600Y-111320231D01*
X159455400Y-111320231D01*
X159455400Y-111679769D01*
X159550140Y-112156057D01*
X159819935Y-112559834D01*
X160223712Y-112829629D01*
X160700000Y-112924369D01*
X161176288Y-112829629D01*
X161580065Y-112559834D01*
X161849860Y-112156057D01*
X161944600Y-111679769D01*
X161944600Y-111320231D01*
X161849860Y-110843943D01*
X161580065Y-110440166D01*
X161176288Y-110170371D01*
X160700000Y-110075631D01*
X160223712Y-110170371D01*
X159819935Y-110440166D01*
X159550140Y-110843943D01*
X159455400Y-111320231D01*
X159404600Y-111320231D01*
X159309860Y-110843943D01*
X159040065Y-110440166D01*
X158636288Y-110170371D01*
X158160000Y-110075631D01*
X157683712Y-110170371D01*
X157671301Y-110178664D01*
X157072518Y-109579882D01*
X156916471Y-109475614D01*
X156732400Y-109439000D01*
X155458576Y-109439000D01*
X155274505Y-109475614D01*
X155118457Y-109579882D01*
X154249602Y-110448738D01*
X153982036Y-110149268D01*
X153454791Y-109895291D01*
X153439026Y-109892642D01*
X153207000Y-110013783D01*
X153207000Y-111373000D01*
X153227000Y-111373000D01*
X153227000Y-111627000D01*
X153207000Y-111627000D01*
X153207000Y-112986217D01*
X153439026Y-113107358D01*
X153454791Y-113104709D01*
X153982036Y-112850732D01*
X154015390Y-112813401D01*
X154015390Y-116384374D01*
X148749882Y-121649882D01*
X148645614Y-121805929D01*
X148609000Y-121990000D01*
X148609000Y-128432229D01*
X148517048Y-128340116D01*
X148292562Y-128246900D01*
X148049491Y-128246688D01*
X147824842Y-128339512D01*
X147652815Y-128511239D01*
X147559599Y-128735725D01*
X147559553Y-128788497D01*
X146189882Y-130158169D01*
X146085614Y-130314216D01*
X146049000Y-130498287D01*
X146049000Y-137400000D01*
X146085614Y-137584071D01*
X146189882Y-137740118D01*
X146238858Y-137789094D01*
X146008998Y-137788894D01*
X145784349Y-137881718D01*
X145612322Y-138053445D01*
X145519106Y-138277931D01*
X145518894Y-138521002D01*
X137757000Y-138521002D01*
X137757000Y-130395975D01*
X137773341Y-130406894D01*
X137922000Y-130436464D01*
X139954000Y-130436464D01*
X140102659Y-130406894D01*
X140228686Y-130322686D01*
X140312894Y-130196659D01*
X140342464Y-130048000D01*
X140342464Y-128016000D01*
X140312894Y-127867341D01*
X140228686Y-127741314D01*
X140102659Y-127657106D01*
X139954000Y-127627536D01*
X139732137Y-127627536D01*
X139953197Y-127479828D01*
X140256029Y-127026609D01*
X140362369Y-126492000D01*
X140256029Y-125957391D01*
X139953197Y-125504172D01*
X139499978Y-125201340D01*
X138965369Y-125095000D01*
X138910631Y-125095000D01*
X138376022Y-125201340D01*
X137922803Y-125504172D01*
X137757000Y-125752313D01*
X137757000Y-114745567D01*
X138298720Y-115288233D01*
X139724635Y-115880325D01*
X141268592Y-115881672D01*
X142695538Y-115292070D01*
X143788233Y-114201280D01*
X144380325Y-112775365D01*
X144381672Y-111231408D01*
X144072850Y-110484000D01*
X146747936Y-110484000D01*
X146747936Y-112516000D01*
X146777506Y-112664659D01*
X146861714Y-112790686D01*
X146987741Y-112874894D01*
X147136400Y-112904464D01*
X148863600Y-112904464D01*
X149012259Y-112874894D01*
X149138286Y-112790686D01*
X149222494Y-112664659D01*
X149252064Y-112516000D01*
X149252064Y-111320231D01*
X149295400Y-111320231D01*
X149295400Y-111679769D01*
X149390140Y-112156057D01*
X149659935Y-112559834D01*
X150063712Y-112829629D01*
X150540000Y-112924369D01*
X151016288Y-112829629D01*
X151420065Y-112559834D01*
X151689860Y-112156057D01*
X151692704Y-112141757D01*
X151788046Y-112414320D01*
X152177964Y-112850732D01*
X152705209Y-113104709D01*
X152720974Y-113107358D01*
X152953000Y-112986217D01*
X152953000Y-111627000D01*
X152933000Y-111627000D01*
X152933000Y-111373000D01*
X152953000Y-111373000D01*
X152953000Y-110013783D01*
X152720974Y-109892642D01*
X152705209Y-109895291D01*
X152177964Y-110149268D01*
X151788046Y-110585680D01*
X151692704Y-110858243D01*
X151689860Y-110843943D01*
X151420065Y-110440166D01*
X151016288Y-110170371D01*
X150540000Y-110075631D01*
X150063712Y-110170371D01*
X149659935Y-110440166D01*
X149390140Y-110843943D01*
X149295400Y-111320231D01*
X149252064Y-111320231D01*
X149252064Y-110484000D01*
X149222494Y-110335341D01*
X149138286Y-110209314D01*
X149012259Y-110125106D01*
X148863600Y-110095536D01*
X147136400Y-110095536D01*
X146987741Y-110125106D01*
X146861714Y-110209314D01*
X146777506Y-110335341D01*
X146747936Y-110484000D01*
X144072850Y-110484000D01*
X143792070Y-109804462D01*
X143015963Y-109027000D01*
X166484835Y-109027000D01*
X165711767Y-109798720D01*
X165711767Y-109798720D01*
G37*
X165711767Y-109798720D02*
X165119675Y-111224635D01*
X165118328Y-112768592D01*
X165707930Y-114195538D01*
X166798720Y-115288233D01*
X168224635Y-115880325D01*
X169768592Y-115881672D01*
X171195538Y-115292070D01*
X172003000Y-114486016D01*
X172003000Y-155514887D01*
X171201280Y-154711767D01*
X169775365Y-154119675D01*
X168231408Y-154118328D01*
X166804462Y-154707930D01*
X165711767Y-155798720D01*
X165119675Y-157224635D01*
X165118328Y-158768592D01*
X165707930Y-160195538D01*
X166284385Y-160773000D01*
X143215515Y-160773000D01*
X143788233Y-160201280D01*
X144361694Y-158820231D01*
X145135400Y-158820231D01*
X145135400Y-159179769D01*
X145230140Y-159656057D01*
X145499935Y-160059834D01*
X145903712Y-160329629D01*
X146380000Y-160424369D01*
X146856288Y-160329629D01*
X147260065Y-160059834D01*
X147529860Y-159656057D01*
X147624600Y-159179769D01*
X147624600Y-158820231D01*
X147675400Y-158820231D01*
X147675400Y-159179769D01*
X147770140Y-159656057D01*
X148039935Y-160059834D01*
X148443712Y-160329629D01*
X148920000Y-160424369D01*
X149396288Y-160329629D01*
X149800065Y-160059834D01*
X150069860Y-159656057D01*
X150164600Y-159179769D01*
X150164600Y-158820231D01*
X150215400Y-158820231D01*
X150215400Y-159179769D01*
X150310140Y-159656057D01*
X150579935Y-160059834D01*
X150983712Y-160329629D01*
X151460000Y-160424369D01*
X151936288Y-160329629D01*
X152340065Y-160059834D01*
X152609860Y-159656057D01*
X152704600Y-159179769D01*
X152704600Y-158820231D01*
X152609860Y-158343943D01*
X152369354Y-157984000D01*
X152747936Y-157984000D01*
X152747936Y-160016000D01*
X152777506Y-160164659D01*
X152861714Y-160290686D01*
X152987741Y-160374894D01*
X153136400Y-160404464D01*
X154863600Y-160404464D01*
X155012259Y-160374894D01*
X155138286Y-160290686D01*
X155222494Y-160164659D01*
X155252064Y-160016000D01*
X155252064Y-157984000D01*
X155222494Y-157835341D01*
X155138286Y-157709314D01*
X155012259Y-157625106D01*
X154863600Y-157595536D01*
X153136400Y-157595536D01*
X152987741Y-157625106D01*
X152861714Y-157709314D01*
X152777506Y-157835341D01*
X152747936Y-157984000D01*
X152369354Y-157984000D01*
X152340065Y-157940166D01*
X151936288Y-157670371D01*
X151460000Y-157575631D01*
X150983712Y-157670371D01*
X150579935Y-157940166D01*
X150310140Y-158343943D01*
X150215400Y-158820231D01*
X150164600Y-158820231D01*
X150069860Y-158343943D01*
X149800065Y-157940166D01*
X149396288Y-157670371D01*
X148920000Y-157575631D01*
X148443712Y-157670371D01*
X148039935Y-157940166D01*
X147770140Y-158343943D01*
X147675400Y-158820231D01*
X147624600Y-158820231D01*
X147529860Y-158343943D01*
X147260065Y-157940166D01*
X146856288Y-157670371D01*
X146380000Y-157575631D01*
X145903712Y-157670371D01*
X145499935Y-157940166D01*
X145230140Y-158343943D01*
X145135400Y-158820231D01*
X144361694Y-158820231D01*
X144380325Y-158775365D01*
X144381672Y-157231408D01*
X143792070Y-155804462D01*
X142701280Y-154711767D01*
X141275365Y-154119675D01*
X139731408Y-154118328D01*
X138304462Y-154707930D01*
X137757000Y-155254438D01*
X137757000Y-150285750D01*
X139247400Y-150285750D01*
X139247400Y-151243910D01*
X139344073Y-151477299D01*
X139522702Y-151655927D01*
X139756091Y-151752600D01*
X140714250Y-151752600D01*
X140873000Y-151593850D01*
X140873000Y-150127000D01*
X141127000Y-150127000D01*
X141127000Y-151593850D01*
X141285750Y-151752600D01*
X142243909Y-151752600D01*
X142477298Y-151655927D01*
X142655927Y-151477299D01*
X142752600Y-151243910D01*
X142752600Y-150285750D01*
X142593850Y-150127000D01*
X141127000Y-150127000D01*
X140873000Y-150127000D01*
X139406150Y-150127000D01*
X139247400Y-150285750D01*
X137757000Y-150285750D01*
X137757000Y-148756090D01*
X139247400Y-148756090D01*
X139247400Y-149714250D01*
X139406150Y-149873000D01*
X140873000Y-149873000D01*
X140873000Y-148406150D01*
X141127000Y-148406150D01*
X141127000Y-149873000D01*
X142593850Y-149873000D01*
X142752600Y-149714250D01*
X142752600Y-148756090D01*
X142655927Y-148522701D01*
X142477298Y-148344073D01*
X142243909Y-148247400D01*
X141285750Y-148247400D01*
X141127000Y-148406150D01*
X140873000Y-148406150D01*
X140714250Y-148247400D01*
X139756091Y-148247400D01*
X139522702Y-148344073D01*
X139344073Y-148522701D01*
X139247400Y-148756090D01*
X137757000Y-148756090D01*
X137757000Y-142621002D01*
X143318894Y-142621002D01*
X143411718Y-142845651D01*
X143583445Y-143017678D01*
X143807931Y-143110894D01*
X144051002Y-143111106D01*
X144275651Y-143018282D01*
X144447678Y-142846555D01*
X144540894Y-142622069D01*
X144541106Y-142378998D01*
X144448282Y-142154349D01*
X144276555Y-141982322D01*
X144052069Y-141889106D01*
X143808998Y-141888894D01*
X143584349Y-141981718D01*
X143412322Y-142153445D01*
X143319106Y-142377931D01*
X143318894Y-142621002D01*
X137757000Y-142621002D01*
X137757000Y-138521002D01*
X145518894Y-138521002D01*
X145611718Y-138745651D01*
X145783445Y-138917678D01*
X146007931Y-139010894D01*
X146251002Y-139011106D01*
X146475651Y-138918282D01*
X146647678Y-138746555D01*
X146740894Y-138522069D01*
X146741095Y-138291332D01*
X147089881Y-138640118D01*
X147179501Y-138700000D01*
X147245929Y-138744386D01*
X147430000Y-138781000D01*
X148518929Y-138781000D01*
X148518894Y-138821002D01*
X148611718Y-139045651D01*
X148783445Y-139217678D01*
X149007931Y-139310894D01*
X149251002Y-139311106D01*
X149475651Y-139218282D01*
X149647678Y-139046555D01*
X149740894Y-138822069D01*
X149741069Y-138621002D01*
X151418894Y-138621002D01*
X151511718Y-138845651D01*
X151683445Y-139017678D01*
X151907931Y-139110894D01*
X152151002Y-139111106D01*
X152375651Y-139018282D01*
X152547678Y-138846555D01*
X152640894Y-138622069D01*
X152641106Y-138378998D01*
X152574998Y-138219005D01*
X152574386Y-138215930D01*
X152572659Y-138213346D01*
X152548282Y-138154349D01*
X152502787Y-138108774D01*
X152470118Y-138059882D01*
X152421653Y-138027499D01*
X152376555Y-137982322D01*
X152317081Y-137957626D01*
X152314070Y-137955614D01*
X152310549Y-137954914D01*
X152152069Y-137889106D01*
X151908998Y-137888894D01*
X151684349Y-137981718D01*
X151512322Y-138153445D01*
X151419106Y-138377931D01*
X151418894Y-138621002D01*
X149741069Y-138621002D01*
X149741106Y-138578998D01*
X149648282Y-138354349D01*
X149476555Y-138182322D01*
X149252069Y-138089106D01*
X149199296Y-138089060D01*
X149102195Y-137991959D01*
X149147678Y-137946555D01*
X149240894Y-137722069D01*
X149241106Y-137478998D01*
X149148282Y-137254349D01*
X148976555Y-137082322D01*
X148752069Y-136989106D01*
X148508998Y-136988894D01*
X148284349Y-137081718D01*
X148112322Y-137253445D01*
X148019106Y-137477931D01*
X148018894Y-137721002D01*
X148059386Y-137819000D01*
X147629237Y-137819000D01*
X147321229Y-137510993D01*
X147451002Y-137511106D01*
X147675651Y-137418282D01*
X147847678Y-137246555D01*
X147940894Y-137022069D01*
X147941106Y-136778998D01*
X147848282Y-136554349D01*
X147676555Y-136382322D01*
X147452069Y-136289106D01*
X147208998Y-136288894D01*
X147011000Y-136370706D01*
X147011000Y-130697523D01*
X148239669Y-129468855D01*
X148291495Y-129468900D01*
X148516144Y-129376076D01*
X148609000Y-129283382D01*
X148609000Y-135390000D01*
X148645614Y-135574071D01*
X148749882Y-135730118D01*
X149549882Y-136530118D01*
X149705929Y-136634386D01*
X149890000Y-136671000D01*
X153560000Y-136671000D01*
X153744071Y-136634386D01*
X153900118Y-136530118D01*
X153975842Y-136454395D01*
X154004804Y-136600000D01*
X154005614Y-136604071D01*
X154109882Y-136760118D01*
X154849000Y-137499236D01*
X154849000Y-146016831D01*
X154812322Y-146053445D01*
X154719106Y-146277931D01*
X154718894Y-146521002D01*
X154811718Y-146745651D01*
X154983445Y-146917678D01*
X155207931Y-147010894D01*
X155419077Y-147011078D01*
X155418894Y-147221002D01*
X155511718Y-147445651D01*
X155683445Y-147617678D01*
X155907931Y-147710894D01*
X156151002Y-147711106D01*
X156375651Y-147618282D01*
X156388204Y-147605750D01*
X168427400Y-147605750D01*
X168427400Y-148563909D01*
X168524073Y-148797298D01*
X168702701Y-148975927D01*
X168936090Y-149072600D01*
X169894250Y-149072600D01*
X170053000Y-148913850D01*
X170053000Y-147447000D01*
X170307000Y-147447000D01*
X170307000Y-148913850D01*
X170465750Y-149072600D01*
X171423910Y-149072600D01*
X171657299Y-148975927D01*
X171835927Y-148797298D01*
X171932600Y-148563909D01*
X171932600Y-147605750D01*
X171773850Y-147447000D01*
X170307000Y-147447000D01*
X170053000Y-147447000D01*
X168586150Y-147447000D01*
X168427400Y-147605750D01*
X156388204Y-147605750D01*
X156547678Y-147446555D01*
X156640894Y-147222069D01*
X156641106Y-146978998D01*
X156548282Y-146754349D01*
X156511000Y-146717002D01*
X156511000Y-146076091D01*
X168427400Y-146076091D01*
X168427400Y-147034250D01*
X168586150Y-147193000D01*
X170053000Y-147193000D01*
X170053000Y-147173000D01*
X170307000Y-147173000D01*
X170307000Y-147193000D01*
X171773850Y-147193000D01*
X171932600Y-147034250D01*
X171932600Y-146076091D01*
X171835927Y-145842702D01*
X171686064Y-145692838D01*
X171686064Y-143662400D01*
X171656494Y-143513741D01*
X171653994Y-143510000D01*
X171656494Y-143506259D01*
X171686064Y-143357600D01*
X171686064Y-141122400D01*
X171656494Y-140973741D01*
X171653994Y-140970000D01*
X171656494Y-140966259D01*
X171686064Y-140817600D01*
X171686064Y-138582400D01*
X171656494Y-138433741D01*
X171653994Y-138430000D01*
X171656494Y-138426259D01*
X171686064Y-138277600D01*
X171686064Y-136042400D01*
X171656494Y-135893741D01*
X171572286Y-135767714D01*
X171446259Y-135683506D01*
X171297600Y-135653936D01*
X169062400Y-135653936D01*
X168913741Y-135683506D01*
X168787714Y-135767714D01*
X168703506Y-135893741D01*
X168673936Y-136042400D01*
X168673936Y-138277600D01*
X168703506Y-138426259D01*
X168706006Y-138430000D01*
X168703506Y-138433741D01*
X168673936Y-138582400D01*
X168673936Y-140817600D01*
X168703506Y-140966259D01*
X168706006Y-140970000D01*
X168703506Y-140973741D01*
X168673936Y-141122400D01*
X168673936Y-143357600D01*
X168703506Y-143506259D01*
X168706006Y-143510000D01*
X168703506Y-143513741D01*
X168673936Y-143662400D01*
X168673936Y-145692838D01*
X168524073Y-145842702D01*
X168427400Y-146076091D01*
X156511000Y-146076091D01*
X156511000Y-137000000D01*
X156474386Y-136815929D01*
X156432622Y-136753426D01*
X156370119Y-136659882D01*
X155623881Y-135913645D01*
X155633894Y-135898659D01*
X155663464Y-135750000D01*
X155663464Y-134950000D01*
X155648624Y-134875395D01*
X155649686Y-134874686D01*
X155650395Y-134873624D01*
X155725000Y-134888464D01*
X156338228Y-134888464D01*
X156618939Y-135169176D01*
X156618894Y-135221002D01*
X156711718Y-135445651D01*
X156883445Y-135617678D01*
X157107931Y-135710894D01*
X157338668Y-135711095D01*
X157060825Y-135988939D01*
X157008998Y-135988894D01*
X156784349Y-136081718D01*
X156612322Y-136253445D01*
X156519106Y-136477931D01*
X156518894Y-136721002D01*
X156611718Y-136945651D01*
X156783445Y-137117678D01*
X157007931Y-137210894D01*
X157197425Y-137211059D01*
X157211718Y-137245651D01*
X157383445Y-137417678D01*
X157607931Y-137510894D01*
X157851002Y-137511106D01*
X158075651Y-137418282D01*
X158247678Y-137246555D01*
X158249000Y-137243371D01*
X158249000Y-138600763D01*
X157760824Y-139088939D01*
X157708998Y-139088894D01*
X157484349Y-139181718D01*
X157312322Y-139353445D01*
X157219106Y-139577931D01*
X157218894Y-139821002D01*
X157311718Y-140045651D01*
X157483445Y-140217678D01*
X157707931Y-140310894D01*
X157951002Y-140311106D01*
X158175651Y-140218282D01*
X158347678Y-140046555D01*
X158440894Y-139822069D01*
X158440940Y-139769296D01*
X159070118Y-139140119D01*
X159149709Y-139021002D01*
X160518894Y-139021002D01*
X160611718Y-139245651D01*
X160783445Y-139417678D01*
X161007931Y-139510894D01*
X161251002Y-139511106D01*
X161475651Y-139418282D01*
X161647678Y-139246555D01*
X161740894Y-139022069D01*
X161741106Y-138778998D01*
X161648282Y-138554349D01*
X161476555Y-138382322D01*
X161252069Y-138289106D01*
X161008998Y-138288894D01*
X160784349Y-138381718D01*
X160612322Y-138553445D01*
X160519106Y-138777931D01*
X160518894Y-139021002D01*
X159149709Y-139021002D01*
X159174386Y-138984071D01*
X159194277Y-138884070D01*
X159211000Y-138800000D01*
X159211000Y-136983169D01*
X159247678Y-136946555D01*
X159340894Y-136722069D01*
X159341106Y-136478998D01*
X159248282Y-136254349D01*
X159152168Y-136158068D01*
X159170118Y-136140118D01*
X159171223Y-136138464D01*
X159274386Y-135984071D01*
X159311000Y-135800000D01*
X159311000Y-133900000D01*
X159274386Y-133715929D01*
X159170118Y-133559882D01*
X158295118Y-132684882D01*
X158139071Y-132580614D01*
X157955000Y-132544000D01*
X156913464Y-132544000D01*
X156913464Y-132200000D01*
X156883894Y-132051341D01*
X156799686Y-131925314D01*
X156673659Y-131841106D01*
X156525000Y-131811536D01*
X155725000Y-131811536D01*
X155650395Y-131826376D01*
X155649686Y-131825314D01*
X155648624Y-131824605D01*
X155663464Y-131750000D01*
X155663464Y-130950000D01*
X155633894Y-130801341D01*
X155549686Y-130675314D01*
X155423659Y-130591106D01*
X155275000Y-130561536D01*
X154925000Y-130561536D01*
X154894711Y-130567561D01*
X154894386Y-130565929D01*
X154849189Y-130498287D01*
X154790118Y-130409881D01*
X153220118Y-128839882D01*
X152813367Y-128433131D01*
X164465000Y-128433131D01*
X164465000Y-128487869D01*
X164571340Y-129022478D01*
X164874172Y-129475697D01*
X165327391Y-129778529D01*
X165862000Y-129884869D01*
X166396609Y-129778529D01*
X166849828Y-129475697D01*
X166997536Y-129254637D01*
X166997536Y-129476500D01*
X167027106Y-129625159D01*
X167111314Y-129751186D01*
X167237341Y-129835394D01*
X167386000Y-129864964D01*
X169418000Y-129864964D01*
X169566659Y-129835394D01*
X169692686Y-129751186D01*
X169776894Y-129625159D01*
X169806464Y-129476500D01*
X169806464Y-127444500D01*
X169776894Y-127295841D01*
X169692686Y-127169814D01*
X169566659Y-127085606D01*
X169418000Y-127056036D01*
X167386000Y-127056036D01*
X167237341Y-127085606D01*
X167111314Y-127169814D01*
X167027106Y-127295841D01*
X166997536Y-127444500D01*
X166997536Y-127666363D01*
X166849828Y-127445303D01*
X166396609Y-127142471D01*
X165862000Y-127036131D01*
X165327391Y-127142471D01*
X164874172Y-127445303D01*
X164571340Y-127898522D01*
X164465000Y-128433131D01*
X152813367Y-128433131D01*
X152772300Y-128392064D01*
X153848600Y-128392064D01*
X153997259Y-128362494D01*
X154123286Y-128278286D01*
X154207494Y-128152259D01*
X154237064Y-128003600D01*
X154237064Y-127115617D01*
X154280400Y-127115617D01*
X154280400Y-127164383D01*
X154375140Y-127640671D01*
X154644935Y-128044448D01*
X155048712Y-128314243D01*
X155525000Y-128408983D01*
X156001288Y-128314243D01*
X156405065Y-128044448D01*
X156674860Y-127640671D01*
X156769600Y-127164383D01*
X156769600Y-127115617D01*
X156674860Y-126639329D01*
X156405065Y-126235552D01*
X156001288Y-125965757D01*
X155525000Y-125871017D01*
X155048712Y-125965757D01*
X154644935Y-126235552D01*
X154375140Y-126639329D01*
X154280400Y-127115617D01*
X154237064Y-127115617D01*
X154237064Y-126276400D01*
X154207494Y-126127741D01*
X154123286Y-126001714D01*
X153997259Y-125917506D01*
X153848600Y-125887936D01*
X153747276Y-125887936D01*
X153759947Y-125882688D01*
X154191821Y-125488490D01*
X154374676Y-125098338D01*
X154375140Y-125100671D01*
X154644935Y-125504448D01*
X155048712Y-125774243D01*
X155525000Y-125868983D01*
X156001288Y-125774243D01*
X156405065Y-125504448D01*
X156674860Y-125100671D01*
X156769600Y-124624383D01*
X156769600Y-124575617D01*
X156674860Y-124099329D01*
X156405065Y-123695552D01*
X156001288Y-123425757D01*
X155525000Y-123331017D01*
X155048712Y-123425757D01*
X154644935Y-123695552D01*
X154375140Y-124099329D01*
X154374676Y-124101662D01*
X154191821Y-123711510D01*
X153759947Y-123317312D01*
X153344026Y-123145042D01*
X153112000Y-123266183D01*
X153112000Y-124473000D01*
X153132000Y-124473000D01*
X153132000Y-124727000D01*
X153112000Y-124727000D01*
X153112000Y-124747000D01*
X152858000Y-124747000D01*
X152858000Y-124727000D01*
X151650531Y-124727000D01*
X151530032Y-124959027D01*
X151778179Y-125488490D01*
X152210053Y-125882688D01*
X152222724Y-125887936D01*
X152121400Y-125887936D01*
X151972741Y-125917506D01*
X151846714Y-126001714D01*
X151762506Y-126127741D01*
X151732936Y-126276400D01*
X151732936Y-127352700D01*
X150941000Y-126560764D01*
X150941000Y-124240973D01*
X151530032Y-124240973D01*
X151650531Y-124473000D01*
X152858000Y-124473000D01*
X152858000Y-123266183D01*
X152625974Y-123145042D01*
X152210053Y-123317312D01*
X151778179Y-123711510D01*
X151530032Y-124240973D01*
X150941000Y-124240973D01*
X150941000Y-122443169D01*
X150977678Y-122406555D01*
X151070894Y-122182069D01*
X151070961Y-122104998D01*
X151183445Y-122217678D01*
X151407931Y-122310894D01*
X151651002Y-122311106D01*
X151875651Y-122218282D01*
X152047678Y-122046555D01*
X152140894Y-121822069D01*
X152141106Y-121578998D01*
X152048282Y-121354349D01*
X151876555Y-121182322D01*
X151652069Y-121089106D01*
X151408998Y-121088894D01*
X151191454Y-121178782D01*
X153432790Y-118937446D01*
X163748017Y-118937446D01*
X164016812Y-119522879D01*
X164489182Y-119960885D01*
X164971056Y-120160475D01*
X165227000Y-120041336D01*
X165227000Y-118681500D01*
X163866633Y-118681500D01*
X163748017Y-118937446D01*
X153432790Y-118937446D01*
X154198682Y-118171554D01*
X163748017Y-118171554D01*
X163866633Y-118427500D01*
X165227000Y-118427500D01*
X165227000Y-117067664D01*
X165481000Y-117067664D01*
X165481000Y-118427500D01*
X165501000Y-118427500D01*
X165501000Y-118681500D01*
X165481000Y-118681500D01*
X165481000Y-120041336D01*
X165736944Y-120160475D01*
X166218818Y-119960885D01*
X166512940Y-119688160D01*
X166519106Y-119719159D01*
X166603314Y-119845186D01*
X166729341Y-119929394D01*
X166878000Y-119958964D01*
X168910000Y-119958964D01*
X169058659Y-119929394D01*
X169184686Y-119845186D01*
X169268894Y-119719159D01*
X169298464Y-119570500D01*
X169298464Y-117538500D01*
X169268894Y-117389841D01*
X169184686Y-117263814D01*
X169058659Y-117179606D01*
X168910000Y-117150036D01*
X166878000Y-117150036D01*
X166729341Y-117179606D01*
X166603314Y-117263814D01*
X166519106Y-117389841D01*
X166512940Y-117420840D01*
X166218818Y-117148115D01*
X165736944Y-116948525D01*
X165481000Y-117067664D01*
X165227000Y-117067664D01*
X164971056Y-116948525D01*
X164489182Y-117148115D01*
X164016812Y-117586121D01*
X163748017Y-118171554D01*
X154198682Y-118171554D01*
X155960118Y-116410119D01*
X156064386Y-116254071D01*
X156087230Y-116139224D01*
X156101000Y-116070000D01*
X156101000Y-112826481D01*
X156500065Y-112559834D01*
X156769860Y-112156057D01*
X156864600Y-111679769D01*
X156864600Y-111320231D01*
X156769860Y-110843943D01*
X156500065Y-110440166D01*
X156441449Y-110401000D01*
X156533164Y-110401000D01*
X157004493Y-110872330D01*
X156915400Y-111320231D01*
X156915400Y-111679769D01*
X157010140Y-112156057D01*
X157279935Y-112559834D01*
X157683712Y-112829629D01*
X158160000Y-112924369D01*
X158636288Y-112829629D01*
X159040065Y-112559834D01*
X159309860Y-112156057D01*
X159404600Y-111679769D01*
X159404600Y-111320231D01*
X159455400Y-111320231D01*
X159455400Y-111679769D01*
X159550140Y-112156057D01*
X159819935Y-112559834D01*
X160223712Y-112829629D01*
X160700000Y-112924369D01*
X161176288Y-112829629D01*
X161580065Y-112559834D01*
X161849860Y-112156057D01*
X161944600Y-111679769D01*
X161944600Y-111320231D01*
X161849860Y-110843943D01*
X161580065Y-110440166D01*
X161176288Y-110170371D01*
X160700000Y-110075631D01*
X160223712Y-110170371D01*
X159819935Y-110440166D01*
X159550140Y-110843943D01*
X159455400Y-111320231D01*
X159404600Y-111320231D01*
X159309860Y-110843943D01*
X159040065Y-110440166D01*
X158636288Y-110170371D01*
X158160000Y-110075631D01*
X157683712Y-110170371D01*
X157671301Y-110178664D01*
X157072518Y-109579882D01*
X156916471Y-109475614D01*
X156732400Y-109439000D01*
X155458576Y-109439000D01*
X155274505Y-109475614D01*
X155118457Y-109579882D01*
X154249602Y-110448738D01*
X153982036Y-110149268D01*
X153454791Y-109895291D01*
X153439026Y-109892642D01*
X153207000Y-110013783D01*
X153207000Y-111373000D01*
X153227000Y-111373000D01*
X153227000Y-111627000D01*
X153207000Y-111627000D01*
X153207000Y-112986217D01*
X153439026Y-113107358D01*
X153454791Y-113104709D01*
X153982036Y-112850732D01*
X154015390Y-112813401D01*
X154015390Y-116384374D01*
X148749882Y-121649882D01*
X148645614Y-121805929D01*
X148609000Y-121990000D01*
X148609000Y-128432229D01*
X148517048Y-128340116D01*
X148292562Y-128246900D01*
X148049491Y-128246688D01*
X147824842Y-128339512D01*
X147652815Y-128511239D01*
X147559599Y-128735725D01*
X147559553Y-128788497D01*
X146189882Y-130158169D01*
X146085614Y-130314216D01*
X146049000Y-130498287D01*
X146049000Y-137400000D01*
X146085614Y-137584071D01*
X146189882Y-137740118D01*
X146238858Y-137789094D01*
X146008998Y-137788894D01*
X145784349Y-137881718D01*
X145612322Y-138053445D01*
X145519106Y-138277931D01*
X145518894Y-138521002D01*
X137757000Y-138521002D01*
X137757000Y-130395975D01*
X137773341Y-130406894D01*
X137922000Y-130436464D01*
X139954000Y-130436464D01*
X140102659Y-130406894D01*
X140228686Y-130322686D01*
X140312894Y-130196659D01*
X140342464Y-130048000D01*
X140342464Y-128016000D01*
X140312894Y-127867341D01*
X140228686Y-127741314D01*
X140102659Y-127657106D01*
X139954000Y-127627536D01*
X139732137Y-127627536D01*
X139953197Y-127479828D01*
X140256029Y-127026609D01*
X140362369Y-126492000D01*
X140256029Y-125957391D01*
X139953197Y-125504172D01*
X139499978Y-125201340D01*
X138965369Y-125095000D01*
X138910631Y-125095000D01*
X138376022Y-125201340D01*
X137922803Y-125504172D01*
X137757000Y-125752313D01*
X137757000Y-114745567D01*
X138298720Y-115288233D01*
X139724635Y-115880325D01*
X141268592Y-115881672D01*
X142695538Y-115292070D01*
X143788233Y-114201280D01*
X144380325Y-112775365D01*
X144381672Y-111231408D01*
X144072850Y-110484000D01*
X146747936Y-110484000D01*
X146747936Y-112516000D01*
X146777506Y-112664659D01*
X146861714Y-112790686D01*
X146987741Y-112874894D01*
X147136400Y-112904464D01*
X148863600Y-112904464D01*
X149012259Y-112874894D01*
X149138286Y-112790686D01*
X149222494Y-112664659D01*
X149252064Y-112516000D01*
X149252064Y-111320231D01*
X149295400Y-111320231D01*
X149295400Y-111679769D01*
X149390140Y-112156057D01*
X149659935Y-112559834D01*
X150063712Y-112829629D01*
X150540000Y-112924369D01*
X151016288Y-112829629D01*
X151420065Y-112559834D01*
X151689860Y-112156057D01*
X151692704Y-112141757D01*
X151788046Y-112414320D01*
X152177964Y-112850732D01*
X152705209Y-113104709D01*
X152720974Y-113107358D01*
X152953000Y-112986217D01*
X152953000Y-111627000D01*
X152933000Y-111627000D01*
X152933000Y-111373000D01*
X152953000Y-111373000D01*
X152953000Y-110013783D01*
X152720974Y-109892642D01*
X152705209Y-109895291D01*
X152177964Y-110149268D01*
X151788046Y-110585680D01*
X151692704Y-110858243D01*
X151689860Y-110843943D01*
X151420065Y-110440166D01*
X151016288Y-110170371D01*
X150540000Y-110075631D01*
X150063712Y-110170371D01*
X149659935Y-110440166D01*
X149390140Y-110843943D01*
X149295400Y-111320231D01*
X149252064Y-111320231D01*
X149252064Y-110484000D01*
X149222494Y-110335341D01*
X149138286Y-110209314D01*
X149012259Y-110125106D01*
X148863600Y-110095536D01*
X147136400Y-110095536D01*
X146987741Y-110125106D01*
X146861714Y-110209314D01*
X146777506Y-110335341D01*
X146747936Y-110484000D01*
X144072850Y-110484000D01*
X143792070Y-109804462D01*
X143015963Y-109027000D01*
X166484835Y-109027000D01*
X165711767Y-109798720D01*
G36*
X150650000Y-133773000D02*
X150672000Y-133773000D01*
X150672000Y-134027000D01*
X150650000Y-134027000D01*
X150650000Y-134676250D01*
X150808750Y-134835000D01*
X150901310Y-134835000D01*
X151134699Y-134738327D01*
X151135901Y-134737125D01*
X151186673Y-134859699D01*
X151195974Y-134869000D01*
X150299237Y-134869000D01*
X150253243Y-134823007D01*
X150400000Y-134676250D01*
X150400000Y-134027000D01*
X150378000Y-134027000D01*
X150378000Y-133773000D01*
X150400000Y-133773000D01*
X150400000Y-133753000D01*
X150650000Y-133753000D01*
X150650000Y-133773000D01*
X150650000Y-133773000D01*
G37*
X150650000Y-133773000D02*
X150672000Y-133773000D01*
X150672000Y-134027000D01*
X150650000Y-134027000D01*
X150650000Y-134676250D01*
X150808750Y-134835000D01*
X150901310Y-134835000D01*
X151134699Y-134738327D01*
X151135901Y-134737125D01*
X151186673Y-134859699D01*
X151195974Y-134869000D01*
X150299237Y-134869000D01*
X150253243Y-134823007D01*
X150400000Y-134676250D01*
X150400000Y-134027000D01*
X150378000Y-134027000D01*
X150378000Y-133773000D01*
X150400000Y-133773000D01*
X150400000Y-133753000D01*
X150650000Y-133753000D01*
X150650000Y-133773000D01*
G36*
X152272000Y-134412500D02*
X152252000Y-134412500D01*
X152252000Y-134472000D01*
X151998000Y-134472000D01*
X151998000Y-134412500D01*
X151978000Y-134412500D01*
X151978000Y-134238464D01*
X152272000Y-134238464D01*
X152272000Y-134412500D01*
X152272000Y-134412500D01*
G37*
X152272000Y-134412500D02*
X152252000Y-134412500D01*
X152252000Y-134472000D01*
X151998000Y-134472000D01*
X151998000Y-134412500D01*
X151978000Y-134412500D01*
X151978000Y-134238464D01*
X152272000Y-134238464D01*
X152272000Y-134412500D01*
M02*
