G04 #@! TF.FileFunction,Soldermask,Top*
%FSLAX46Y46*%
G04 Gerber Fmt 4.6, Leading zero omitted, Abs format (unit mm)*
G04 Created by KiCad (PCBNEW 4.0.4+e1-6308~48~ubuntu16.04.1-stable) date Tue Oct 11 09:38:20 2016*
%MOMM*%
%LPD*%
G01*
G04 APERTURE LIST*
%ADD10C,0.100000*%
%ADD11O,1.250000X0.600000*%
%ADD12O,0.600000X1.250000*%
%ADD13R,2.200000X2.200000*%
%ADD14R,0.900000X1.000000*%
%ADD15R,1.200000X1.150000*%
%ADD16R,1.000000X0.900000*%
%ADD17R,2.200860X1.997660*%
%ADD18R,2.432000X2.432000*%
%ADD19O,2.432000X2.432000*%
%ADD20R,2.635200X2.635200*%
%ADD21R,2.127200X2.432000*%
%ADD22O,2.127200X2.432000*%
%ADD23R,2.127200X2.127200*%
%ADD24O,2.127200X2.127200*%
%ADD25R,0.800000X1.000000*%
%ADD26R,1.300000X0.900000*%
%ADD27C,1.924000*%
%ADD28R,1.200100X1.200100*%
%ADD29C,7.400000*%
G04 APERTURE END LIST*
D10*
D11*
X151982000Y-141456000D03*
X151982000Y-141856000D03*
X151982000Y-142256000D03*
X151982000Y-142656000D03*
X151982000Y-143056000D03*
X151982000Y-143456000D03*
X151982000Y-143856000D03*
X151982000Y-144256000D03*
X151982000Y-144656000D03*
X151982000Y-145056000D03*
D12*
X152632000Y-145706000D03*
X153032000Y-145706000D03*
X153432000Y-145706000D03*
X153832000Y-145706000D03*
X154232000Y-145706000D03*
X154632000Y-145706000D03*
X155032000Y-145706000D03*
X155432000Y-145706000D03*
X155832000Y-145706000D03*
X156232000Y-145706000D03*
D11*
X156882000Y-145056000D03*
X156882000Y-144656000D03*
X156882000Y-144256000D03*
X156882000Y-143856000D03*
X156882000Y-143456000D03*
X156882000Y-143056000D03*
X156882000Y-142656000D03*
X156882000Y-142256000D03*
X156882000Y-141856000D03*
X156882000Y-141456000D03*
D12*
X156232000Y-140806000D03*
X155832000Y-140806000D03*
X155432000Y-140806000D03*
X155032000Y-140806000D03*
X154632000Y-140806000D03*
X154232000Y-140806000D03*
X153832000Y-140806000D03*
X153432000Y-140806000D03*
X153032000Y-140806000D03*
X152632000Y-140806000D03*
D13*
X155332000Y-144156000D03*
X155332000Y-142356000D03*
X153532000Y-144156000D03*
X153532000Y-142356000D03*
D14*
X148640000Y-140190000D03*
X148640000Y-141290000D03*
D15*
X149570000Y-142830000D03*
X148070000Y-142830000D03*
D14*
X149990000Y-140200000D03*
X149990000Y-141300000D03*
D15*
X149560000Y-144380000D03*
X148060000Y-144380000D03*
D16*
X150425000Y-137400000D03*
X151525000Y-137400000D03*
X155744000Y-147574000D03*
X154644000Y-147574000D03*
D14*
X157226000Y-138980000D03*
X157226000Y-137880000D03*
D16*
X158284000Y-147574000D03*
X157184000Y-147574000D03*
X158962000Y-146050000D03*
X160062000Y-146050000D03*
X158962000Y-144780000D03*
X160062000Y-144780000D03*
X158962000Y-143510000D03*
X160062000Y-143510000D03*
X158962000Y-142240000D03*
X160062000Y-142240000D03*
X158962000Y-140970000D03*
X160062000Y-140970000D03*
X168698000Y-121348500D03*
X167598000Y-121348500D03*
D14*
X165354000Y-124946500D03*
X165354000Y-123846500D03*
D17*
X138938000Y-123339860D03*
X138938000Y-120500140D03*
D18*
X140462000Y-136969500D03*
D19*
X140462000Y-139509500D03*
D18*
X148875000Y-147900000D03*
D19*
X146335000Y-147900000D03*
D20*
X145380000Y-136910000D03*
X141097000Y-144145000D03*
X148925000Y-151750000D03*
X141000000Y-150000000D03*
X170180000Y-147320000D03*
X145150000Y-131200000D03*
X160930000Y-121100000D03*
X170180000Y-137160000D03*
X170180000Y-134620000D03*
D21*
X155500000Y-159000000D03*
D22*
X152960000Y-159000000D03*
X150420000Y-159000000D03*
X147880000Y-159000000D03*
D23*
X152985000Y-127140000D03*
D24*
X152985000Y-124600000D03*
X155525000Y-127140000D03*
X155525000Y-124600000D03*
D20*
X170180000Y-139700000D03*
X170180000Y-142240000D03*
X170180000Y-144780000D03*
D18*
X167894000Y-118554500D03*
D19*
X165354000Y-118554500D03*
D18*
X138938000Y-129032000D03*
D19*
X138938000Y-126492000D03*
D18*
X168402000Y-128460500D03*
D19*
X165862000Y-128460500D03*
D21*
X148000000Y-111500000D03*
D22*
X150540000Y-111500000D03*
X153080000Y-111500000D03*
X155620000Y-111500000D03*
X158160000Y-111500000D03*
X160700000Y-111500000D03*
D25*
X153100000Y-138750000D03*
X154000000Y-138750000D03*
X154025000Y-137350000D03*
X153125000Y-137350000D03*
X150700000Y-138875000D03*
X151600000Y-138875000D03*
X152400000Y-121700000D03*
X153300000Y-121700000D03*
X154900000Y-121700000D03*
X155800000Y-121700000D03*
X160216000Y-138938000D03*
X159316000Y-138938000D03*
X159316000Y-137668000D03*
X160216000Y-137668000D03*
D26*
X141478000Y-120662000D03*
X141478000Y-122162000D03*
D27*
X160782000Y-129286000D03*
X160782000Y-126746000D03*
X160782000Y-131826000D03*
D28*
X167272240Y-123384976D03*
X167272240Y-125284976D03*
X169271220Y-124334976D03*
D29*
X169000000Y-112000000D03*
X140500000Y-112000000D03*
X169000000Y-158000000D03*
X140500000Y-158000000D03*
M02*
