G04 #@! TF.FileFunction,Legend,Top*
%FSLAX46Y46*%
G04 Gerber Fmt 4.6, Leading zero omitted, Abs format (unit mm)*
G04 Created by KiCad (PCBNEW 4.0.4+e1-6308~48~ubuntu16.04.1-stable) date Tue Oct 11 09:38:20 2016*
%MOMM*%
%LPD*%
G01*
G04 APERTURE LIST*
%ADD10C,0.100000*%
%ADD11C,0.300000*%
%ADD12C,0.150000*%
%ADD13C,0.125000*%
G04 APERTURE END LIST*
D10*
D11*
X156394286Y-150614286D02*
X156565715Y-150671429D01*
X156622858Y-150728571D01*
X156680001Y-150842857D01*
X156680001Y-151014286D01*
X156622858Y-151128571D01*
X156565715Y-151185714D01*
X156451429Y-151242857D01*
X155994286Y-151242857D01*
X155994286Y-150042857D01*
X156394286Y-150042857D01*
X156508572Y-150100000D01*
X156565715Y-150157143D01*
X156622858Y-150271429D01*
X156622858Y-150385714D01*
X156565715Y-150500000D01*
X156508572Y-150557143D01*
X156394286Y-150614286D01*
X155994286Y-150614286D01*
X157194286Y-151242857D02*
X157194286Y-150042857D01*
X157994287Y-150042857D02*
X158222858Y-150042857D01*
X158337144Y-150100000D01*
X158451430Y-150214286D01*
X158508572Y-150442857D01*
X158508572Y-150842857D01*
X158451430Y-151071429D01*
X158337144Y-151185714D01*
X158222858Y-151242857D01*
X157994287Y-151242857D01*
X157880001Y-151185714D01*
X157765715Y-151071429D01*
X157708572Y-150842857D01*
X157708572Y-150442857D01*
X157765715Y-150214286D01*
X157880001Y-150100000D01*
X157994287Y-150042857D01*
X158965715Y-150157143D02*
X159022858Y-150100000D01*
X159137144Y-150042857D01*
X159422858Y-150042857D01*
X159537144Y-150100000D01*
X159594287Y-150157143D01*
X159651430Y-150271429D01*
X159651430Y-150385714D01*
X159594287Y-150557143D01*
X158908573Y-151242857D01*
X159651430Y-151242857D01*
X160394287Y-150042857D02*
X160508572Y-150042857D01*
X160622858Y-150100000D01*
X160680001Y-150157143D01*
X160737144Y-150271429D01*
X160794287Y-150500000D01*
X160794287Y-150785714D01*
X160737144Y-151014286D01*
X160680001Y-151128571D01*
X160622858Y-151185714D01*
X160508572Y-151242857D01*
X160394287Y-151242857D01*
X160280001Y-151185714D01*
X160222858Y-151128571D01*
X160165715Y-151014286D01*
X160108572Y-150785714D01*
X160108572Y-150500000D01*
X160165715Y-150271429D01*
X160222858Y-150157143D01*
X160280001Y-150100000D01*
X160394287Y-150042857D01*
X161937144Y-151242857D02*
X161251429Y-151242857D01*
X161594287Y-151242857D02*
X161594287Y-150042857D01*
X161480001Y-150214286D01*
X161365715Y-150328571D01*
X161251429Y-150385714D01*
X162965715Y-150042857D02*
X162737144Y-150042857D01*
X162622858Y-150100000D01*
X162565715Y-150157143D01*
X162451429Y-150328571D01*
X162394286Y-150557143D01*
X162394286Y-151014286D01*
X162451429Y-151128571D01*
X162508572Y-151185714D01*
X162622858Y-151242857D01*
X162851429Y-151242857D01*
X162965715Y-151185714D01*
X163022858Y-151128571D01*
X163080001Y-151014286D01*
X163080001Y-150728571D01*
X163022858Y-150614286D01*
X162965715Y-150557143D01*
X162851429Y-150500000D01*
X162622858Y-150500000D01*
X162508572Y-150557143D01*
X162451429Y-150614286D01*
X162394286Y-150728571D01*
X165308572Y-151357143D02*
X165194287Y-151300000D01*
X165080001Y-151185714D01*
X164908572Y-151014286D01*
X164794287Y-150957143D01*
X164680001Y-150957143D01*
X164737144Y-151242857D02*
X164622858Y-151185714D01*
X164508572Y-151071429D01*
X164451429Y-150842857D01*
X164451429Y-150442857D01*
X164508572Y-150214286D01*
X164622858Y-150100000D01*
X164737144Y-150042857D01*
X164965715Y-150042857D01*
X165080001Y-150100000D01*
X165194287Y-150214286D01*
X165251429Y-150442857D01*
X165251429Y-150842857D01*
X165194287Y-151071429D01*
X165080001Y-151185714D01*
X164965715Y-151242857D01*
X164737144Y-151242857D01*
X166165715Y-150614286D02*
X165765715Y-150614286D01*
X165765715Y-151242857D02*
X165765715Y-150042857D01*
X166337144Y-150042857D01*
X166794286Y-151242857D02*
X166794286Y-150042857D01*
X167480001Y-151242857D01*
X167480001Y-150042857D01*
X168794287Y-150042857D02*
X169194287Y-151242857D01*
X169594287Y-150042857D01*
X170622858Y-151242857D02*
X169937143Y-151242857D01*
X170280001Y-151242857D02*
X170280001Y-150042857D01*
X170165715Y-150214286D01*
X170051429Y-150328571D01*
X169937143Y-150385714D01*
X157422857Y-153285714D02*
X157594286Y-153342857D01*
X157880000Y-153342857D01*
X157994286Y-153285714D01*
X158051429Y-153228571D01*
X158108572Y-153114286D01*
X158108572Y-153000000D01*
X158051429Y-152885714D01*
X157994286Y-152828571D01*
X157880000Y-152771429D01*
X157651429Y-152714286D01*
X157537143Y-152657143D01*
X157480000Y-152600000D01*
X157422857Y-152485714D01*
X157422857Y-152371429D01*
X157480000Y-152257143D01*
X157537143Y-152200000D01*
X157651429Y-152142857D01*
X157937143Y-152142857D01*
X158108572Y-152200000D01*
X160222858Y-153342857D02*
X159822858Y-152771429D01*
X159537143Y-153342857D02*
X159537143Y-152142857D01*
X159994286Y-152142857D01*
X160108572Y-152200000D01*
X160165715Y-152257143D01*
X160222858Y-152371429D01*
X160222858Y-152542857D01*
X160165715Y-152657143D01*
X160108572Y-152714286D01*
X159994286Y-152771429D01*
X159537143Y-152771429D01*
X160965715Y-152142857D02*
X161194286Y-152142857D01*
X161308572Y-152200000D01*
X161422858Y-152314286D01*
X161480000Y-152542857D01*
X161480000Y-152942857D01*
X161422858Y-153171429D01*
X161308572Y-153285714D01*
X161194286Y-153342857D01*
X160965715Y-153342857D01*
X160851429Y-153285714D01*
X160737143Y-153171429D01*
X160680000Y-152942857D01*
X160680000Y-152542857D01*
X160737143Y-152314286D01*
X160851429Y-152200000D01*
X160965715Y-152142857D01*
X161994286Y-153342857D02*
X161994286Y-152142857D01*
X162280001Y-152142857D01*
X162451429Y-152200000D01*
X162565715Y-152314286D01*
X162622858Y-152428571D01*
X162680001Y-152657143D01*
X162680001Y-152828571D01*
X162622858Y-153057143D01*
X162565715Y-153171429D01*
X162451429Y-153285714D01*
X162280001Y-153342857D01*
X161994286Y-153342857D01*
X163880001Y-153342857D02*
X163480001Y-152771429D01*
X163194286Y-153342857D02*
X163194286Y-152142857D01*
X163651429Y-152142857D01*
X163765715Y-152200000D01*
X163822858Y-152257143D01*
X163880001Y-152371429D01*
X163880001Y-152542857D01*
X163822858Y-152657143D01*
X163765715Y-152714286D01*
X163651429Y-152771429D01*
X163194286Y-152771429D01*
X164394286Y-153342857D02*
X164394286Y-152142857D01*
X165594287Y-152200000D02*
X165480001Y-152142857D01*
X165308572Y-152142857D01*
X165137144Y-152200000D01*
X165022858Y-152314286D01*
X164965715Y-152428571D01*
X164908572Y-152657143D01*
X164908572Y-152828571D01*
X164965715Y-153057143D01*
X165022858Y-153171429D01*
X165137144Y-153285714D01*
X165308572Y-153342857D01*
X165422858Y-153342857D01*
X165594287Y-153285714D01*
X165651430Y-153228571D01*
X165651430Y-152828571D01*
X165422858Y-152828571D01*
X166165715Y-152142857D02*
X166165715Y-153114286D01*
X166222858Y-153228571D01*
X166280001Y-153285714D01*
X166394287Y-153342857D01*
X166622858Y-153342857D01*
X166737144Y-153285714D01*
X166794287Y-153228571D01*
X166851430Y-153114286D01*
X166851430Y-152142857D01*
X167422858Y-152714286D02*
X167822858Y-152714286D01*
X167994287Y-153342857D02*
X167422858Y-153342857D01*
X167422858Y-152142857D01*
X167994287Y-152142857D01*
X168394287Y-152142857D02*
X169194287Y-152142857D01*
X168394287Y-153342857D01*
X169194287Y-153342857D01*
D12*
X157107000Y-140581000D02*
X157107000Y-141131000D01*
X151757000Y-145931000D02*
X151757000Y-145381000D01*
X157107000Y-145931000D02*
X157107000Y-145381000D01*
X151757000Y-140581000D02*
X152307000Y-140581000D01*
X151757000Y-145931000D02*
X152307000Y-145931000D01*
X157107000Y-145931000D02*
X156557000Y-145931000D01*
X157107000Y-140581000D02*
X156557000Y-140581000D01*
X149115000Y-140990000D02*
X149115000Y-140490000D01*
X148165000Y-140490000D02*
X148165000Y-140990000D01*
X149170000Y-143430000D02*
X148470000Y-143430000D01*
X148470000Y-142230000D02*
X149170000Y-142230000D01*
X150465000Y-141000000D02*
X150465000Y-140500000D01*
X149515000Y-140500000D02*
X149515000Y-141000000D01*
X149160000Y-144980000D02*
X148460000Y-144980000D01*
X148460000Y-143780000D02*
X149160000Y-143780000D01*
X151225000Y-136925000D02*
X150725000Y-136925000D01*
X150725000Y-137875000D02*
X151225000Y-137875000D01*
X154944000Y-148049000D02*
X155444000Y-148049000D01*
X155444000Y-147099000D02*
X154944000Y-147099000D01*
X156751000Y-138180000D02*
X156751000Y-138680000D01*
X157701000Y-138680000D02*
X157701000Y-138180000D01*
X157484000Y-148049000D02*
X157984000Y-148049000D01*
X157984000Y-147099000D02*
X157484000Y-147099000D01*
X159762000Y-145575000D02*
X159262000Y-145575000D01*
X159262000Y-146525000D02*
X159762000Y-146525000D01*
X159762000Y-144305000D02*
X159262000Y-144305000D01*
X159262000Y-145255000D02*
X159762000Y-145255000D01*
X159762000Y-143035000D02*
X159262000Y-143035000D01*
X159262000Y-143985000D02*
X159762000Y-143985000D01*
X159762000Y-141765000D02*
X159262000Y-141765000D01*
X159262000Y-142715000D02*
X159762000Y-142715000D01*
X159762000Y-140495000D02*
X159262000Y-140495000D01*
X159262000Y-141445000D02*
X159762000Y-141445000D01*
X167898000Y-121823500D02*
X168398000Y-121823500D01*
X168398000Y-120873500D02*
X167898000Y-120873500D01*
X164879000Y-124146500D02*
X164879000Y-124646500D01*
X165829000Y-124646500D02*
X165829000Y-124146500D01*
X137888000Y-119770000D02*
X137888000Y-123370000D01*
X139988000Y-119770000D02*
X139988000Y-123370000D01*
X139238000Y-121820000D02*
X138638000Y-121820000D01*
X138638000Y-121820000D02*
X138938000Y-121520000D01*
X138938000Y-121520000D02*
X139138000Y-121720000D01*
X139138000Y-121720000D02*
X138888000Y-121720000D01*
X138888000Y-121720000D02*
X138938000Y-121670000D01*
X139438000Y-121420000D02*
X138438000Y-121420000D01*
X138938000Y-121920000D02*
X138938000Y-122420000D01*
X138938000Y-121420000D02*
X139438000Y-121920000D01*
X139438000Y-121920000D02*
X138438000Y-121920000D01*
X138438000Y-121920000D02*
X138938000Y-121420000D01*
X138912000Y-135419500D02*
X138912000Y-136969500D01*
X139192000Y-140779500D02*
X139192000Y-138239500D01*
X139192000Y-138239500D02*
X141732000Y-138239500D01*
X142012000Y-136969500D02*
X142012000Y-135419500D01*
X142012000Y-135419500D02*
X138912000Y-135419500D01*
X141732000Y-138239500D02*
X141732000Y-140779500D01*
X141732000Y-140779500D02*
X139192000Y-140779500D01*
X147605000Y-149170000D02*
X145065000Y-149170000D01*
X150425000Y-149450000D02*
X148875000Y-149450000D01*
X147605000Y-149170000D02*
X147605000Y-146630000D01*
X148875000Y-146350000D02*
X150425000Y-146350000D01*
X150425000Y-146350000D02*
X150425000Y-149450000D01*
X147605000Y-146630000D02*
X145065000Y-146630000D01*
X145065000Y-146630000D02*
X145065000Y-149170000D01*
X146930000Y-135360000D02*
X146930000Y-136910000D01*
X143830000Y-136910000D02*
X143830000Y-135360000D01*
X143830000Y-135360000D02*
X146930000Y-135360000D01*
X144110000Y-138180000D02*
X146650000Y-138180000D01*
X142647000Y-142595000D02*
X142647000Y-144145000D01*
X139547000Y-144145000D02*
X139547000Y-142595000D01*
X139547000Y-142595000D02*
X142647000Y-142595000D01*
X139827000Y-145415000D02*
X142367000Y-145415000D01*
X147375000Y-150200000D02*
X148925000Y-150200000D01*
X148925000Y-153300000D02*
X147375000Y-153300000D01*
X147375000Y-153300000D02*
X147375000Y-150200000D01*
X150195000Y-153020000D02*
X150195000Y-150480000D01*
X142550000Y-148450000D02*
X142550000Y-150000000D01*
X139450000Y-150000000D02*
X139450000Y-148450000D01*
X139450000Y-148450000D02*
X142550000Y-148450000D01*
X139730000Y-151270000D02*
X142270000Y-151270000D01*
X168630000Y-145770000D02*
X170180000Y-145770000D01*
X170180000Y-148870000D02*
X168630000Y-148870000D01*
X168630000Y-148870000D02*
X168630000Y-145770000D01*
X171450000Y-148590000D02*
X171450000Y-146050000D01*
X146700000Y-129650000D02*
X146700000Y-131200000D01*
X143600000Y-131200000D02*
X143600000Y-129650000D01*
X143600000Y-129650000D02*
X146700000Y-129650000D01*
X143880000Y-132470000D02*
X146420000Y-132470000D01*
X162480000Y-119550000D02*
X162480000Y-121100000D01*
X159380000Y-121100000D02*
X159380000Y-119550000D01*
X159380000Y-119550000D02*
X162480000Y-119550000D01*
X159660000Y-122370000D02*
X162200000Y-122370000D01*
X168630000Y-135610000D02*
X170180000Y-135610000D01*
X170180000Y-138710000D02*
X168630000Y-138710000D01*
X168630000Y-138710000D02*
X168630000Y-135610000D01*
X171450000Y-138430000D02*
X171450000Y-135890000D01*
X168630000Y-133070000D02*
X170180000Y-133070000D01*
X170180000Y-136170000D02*
X168630000Y-136170000D01*
X168630000Y-136170000D02*
X168630000Y-133070000D01*
X171450000Y-135890000D02*
X171450000Y-133350000D01*
X157050000Y-157700000D02*
X155500000Y-157700000D01*
X157050000Y-159000000D02*
X157050000Y-157700000D01*
X155627000Y-163191000D02*
X155627000Y-169033000D01*
X155627000Y-169033000D02*
X155373000Y-169033000D01*
X155373000Y-169033000D02*
X155373000Y-163191000D01*
X155373000Y-163191000D02*
X155500000Y-163191000D01*
X155500000Y-163191000D02*
X155500000Y-169033000D01*
X155754000Y-160524000D02*
X155754000Y-160143000D01*
X155246000Y-160524000D02*
X155246000Y-160143000D01*
X153214000Y-160524000D02*
X153214000Y-160143000D01*
X152706000Y-160524000D02*
X152706000Y-160143000D01*
X150674000Y-160524000D02*
X150674000Y-160143000D01*
X150166000Y-160524000D02*
X150166000Y-160143000D01*
X147626000Y-160524000D02*
X147626000Y-160143000D01*
X148134000Y-160524000D02*
X148134000Y-160143000D01*
X156770000Y-160524000D02*
X156770000Y-163064000D01*
X154230000Y-160524000D02*
X154230000Y-163064000D01*
X154230000Y-160524000D02*
X151690000Y-160524000D01*
X151690000Y-160524000D02*
X151690000Y-163064000D01*
X153214000Y-163064000D02*
X153214000Y-169160000D01*
X153214000Y-169160000D02*
X152706000Y-169160000D01*
X152706000Y-169160000D02*
X152706000Y-163064000D01*
X151690000Y-163064000D02*
X154230000Y-163064000D01*
X154230000Y-163064000D02*
X156770000Y-163064000D01*
X155246000Y-169160000D02*
X155246000Y-163064000D01*
X155754000Y-169160000D02*
X155246000Y-169160000D01*
X155754000Y-163064000D02*
X155754000Y-169160000D01*
X154230000Y-160524000D02*
X154230000Y-163064000D01*
X156770000Y-160524000D02*
X154230000Y-160524000D01*
X149150000Y-160524000D02*
X149150000Y-163064000D01*
X149150000Y-160524000D02*
X146610000Y-160524000D01*
X146610000Y-160524000D02*
X146610000Y-163064000D01*
X148134000Y-163064000D02*
X148134000Y-169160000D01*
X148134000Y-169160000D02*
X147626000Y-169160000D01*
X147626000Y-169160000D02*
X147626000Y-163064000D01*
X146610000Y-163064000D02*
X149150000Y-163064000D01*
X149150000Y-163064000D02*
X151690000Y-163064000D01*
X150166000Y-169160000D02*
X150166000Y-163064000D01*
X150674000Y-169160000D02*
X150166000Y-169160000D01*
X150674000Y-163064000D02*
X150674000Y-169160000D01*
X149150000Y-160524000D02*
X149150000Y-163064000D01*
X151690000Y-160524000D02*
X149150000Y-160524000D01*
X151690000Y-160524000D02*
X151690000Y-163064000D01*
X152985000Y-128690000D02*
X151435000Y-128690000D01*
X151435000Y-127140000D02*
X151435000Y-128690000D01*
X154255000Y-128410000D02*
X154255000Y-125870000D01*
X154255000Y-125870000D02*
X151715000Y-125870000D01*
X151715000Y-125870000D02*
X151715000Y-123330000D01*
X151715000Y-123330000D02*
X156795000Y-123330000D01*
X156795000Y-123330000D02*
X156795000Y-128410000D01*
X156795000Y-128410000D02*
X154255000Y-128410000D01*
X168630000Y-138150000D02*
X170180000Y-138150000D01*
X170180000Y-141250000D02*
X168630000Y-141250000D01*
X168630000Y-141250000D02*
X168630000Y-138150000D01*
X171450000Y-140970000D02*
X171450000Y-138430000D01*
X168630000Y-140690000D02*
X170180000Y-140690000D01*
X170180000Y-143790000D02*
X168630000Y-143790000D01*
X168630000Y-143790000D02*
X168630000Y-140690000D01*
X171450000Y-143510000D02*
X171450000Y-140970000D01*
X168630000Y-143230000D02*
X170180000Y-143230000D01*
X170180000Y-146330000D02*
X168630000Y-146330000D01*
X168630000Y-146330000D02*
X168630000Y-143230000D01*
X171450000Y-146050000D02*
X171450000Y-143510000D01*
X166624000Y-119824500D02*
X164084000Y-119824500D01*
X169444000Y-120104500D02*
X167894000Y-120104500D01*
X166624000Y-119824500D02*
X166624000Y-117284500D01*
X167894000Y-117004500D02*
X169444000Y-117004500D01*
X169444000Y-117004500D02*
X169444000Y-120104500D01*
X166624000Y-117284500D02*
X164084000Y-117284500D01*
X164084000Y-117284500D02*
X164084000Y-119824500D01*
X137668000Y-127762000D02*
X137668000Y-125222000D01*
X137388000Y-130582000D02*
X137388000Y-129032000D01*
X137668000Y-127762000D02*
X140208000Y-127762000D01*
X140488000Y-129032000D02*
X140488000Y-130582000D01*
X140488000Y-130582000D02*
X137388000Y-130582000D01*
X140208000Y-127762000D02*
X140208000Y-125222000D01*
X140208000Y-125222000D02*
X137668000Y-125222000D01*
X167132000Y-129730500D02*
X164592000Y-129730500D01*
X169952000Y-130010500D02*
X168402000Y-130010500D01*
X167132000Y-129730500D02*
X167132000Y-127190500D01*
X168402000Y-126910500D02*
X169952000Y-126910500D01*
X169952000Y-126910500D02*
X169952000Y-130010500D01*
X167132000Y-127190500D02*
X164592000Y-127190500D01*
X164592000Y-127190500D02*
X164592000Y-129730500D01*
X146450000Y-112800000D02*
X148000000Y-112800000D01*
X146450000Y-111500000D02*
X146450000Y-112800000D01*
X147873000Y-107309000D02*
X147873000Y-101467000D01*
X147873000Y-101467000D02*
X148127000Y-101467000D01*
X148127000Y-101467000D02*
X148127000Y-107309000D01*
X148127000Y-107309000D02*
X148000000Y-107309000D01*
X148000000Y-107309000D02*
X148000000Y-101467000D01*
X147746000Y-109976000D02*
X147746000Y-110357000D01*
X148254000Y-109976000D02*
X148254000Y-110357000D01*
X150286000Y-109976000D02*
X150286000Y-110357000D01*
X150794000Y-109976000D02*
X150794000Y-110357000D01*
X152826000Y-109976000D02*
X152826000Y-110357000D01*
X153334000Y-109976000D02*
X153334000Y-110357000D01*
X160954000Y-109976000D02*
X160954000Y-110357000D01*
X160446000Y-109976000D02*
X160446000Y-110357000D01*
X158414000Y-109976000D02*
X158414000Y-110357000D01*
X157906000Y-109976000D02*
X157906000Y-110357000D01*
X155874000Y-109976000D02*
X155874000Y-110357000D01*
X155366000Y-109976000D02*
X155366000Y-110357000D01*
X146730000Y-109976000D02*
X146730000Y-107436000D01*
X149270000Y-109976000D02*
X149270000Y-107436000D01*
X149270000Y-109976000D02*
X151810000Y-109976000D01*
X151810000Y-109976000D02*
X151810000Y-107436000D01*
X150286000Y-107436000D02*
X150286000Y-101340000D01*
X150286000Y-101340000D02*
X150794000Y-101340000D01*
X150794000Y-101340000D02*
X150794000Y-107436000D01*
X151810000Y-107436000D02*
X149270000Y-107436000D01*
X149270000Y-107436000D02*
X146730000Y-107436000D01*
X148254000Y-101340000D02*
X148254000Y-107436000D01*
X147746000Y-101340000D02*
X148254000Y-101340000D01*
X147746000Y-107436000D02*
X147746000Y-101340000D01*
X149270000Y-109976000D02*
X149270000Y-107436000D01*
X146730000Y-109976000D02*
X149270000Y-109976000D01*
X156890000Y-109976000D02*
X156890000Y-107436000D01*
X156890000Y-109976000D02*
X159430000Y-109976000D01*
X159430000Y-109976000D02*
X159430000Y-107436000D01*
X157906000Y-107436000D02*
X157906000Y-101340000D01*
X157906000Y-101340000D02*
X158414000Y-101340000D01*
X158414000Y-101340000D02*
X158414000Y-107436000D01*
X159430000Y-107436000D02*
X156890000Y-107436000D01*
X161970000Y-107436000D02*
X159430000Y-107436000D01*
X160954000Y-101340000D02*
X160954000Y-107436000D01*
X160446000Y-101340000D02*
X160954000Y-101340000D01*
X160446000Y-107436000D02*
X160446000Y-101340000D01*
X161970000Y-109976000D02*
X161970000Y-107436000D01*
X159430000Y-109976000D02*
X161970000Y-109976000D01*
X159430000Y-109976000D02*
X159430000Y-107436000D01*
X154350000Y-109976000D02*
X154350000Y-107436000D01*
X154350000Y-109976000D02*
X156890000Y-109976000D01*
X156890000Y-109976000D02*
X156890000Y-107436000D01*
X155366000Y-107436000D02*
X155366000Y-101340000D01*
X155366000Y-101340000D02*
X155874000Y-101340000D01*
X155874000Y-101340000D02*
X155874000Y-107436000D01*
X156890000Y-107436000D02*
X154350000Y-107436000D01*
X154350000Y-107436000D02*
X151810000Y-107436000D01*
X153334000Y-101340000D02*
X153334000Y-107436000D01*
X152826000Y-101340000D02*
X153334000Y-101340000D01*
X152826000Y-107436000D02*
X152826000Y-101340000D01*
X154350000Y-109976000D02*
X154350000Y-107436000D01*
X151810000Y-109976000D02*
X154350000Y-109976000D01*
X151810000Y-109976000D02*
X151810000Y-107436000D01*
X153800000Y-138225000D02*
X153300000Y-138225000D01*
X153300000Y-139275000D02*
X153800000Y-139275000D01*
X153325000Y-137875000D02*
X153825000Y-137875000D01*
X153825000Y-136825000D02*
X153325000Y-136825000D01*
X151400000Y-138350000D02*
X150900000Y-138350000D01*
X150900000Y-139400000D02*
X151400000Y-139400000D01*
X153100000Y-121175000D02*
X152600000Y-121175000D01*
X152600000Y-122225000D02*
X153100000Y-122225000D01*
X155600000Y-121175000D02*
X155100000Y-121175000D01*
X155100000Y-122225000D02*
X155600000Y-122225000D01*
X159516000Y-139463000D02*
X160016000Y-139463000D01*
X160016000Y-138413000D02*
X159516000Y-138413000D01*
X160016000Y-137143000D02*
X159516000Y-137143000D01*
X159516000Y-138193000D02*
X160016000Y-138193000D01*
X140803000Y-121912000D02*
X140803000Y-120912000D01*
X142153000Y-120912000D02*
X142153000Y-121912000D01*
X158750000Y-132842000D02*
X160020000Y-132842000D01*
X159499300Y-132054600D02*
X159245300Y-132092700D01*
X159245300Y-132092700D02*
X158965900Y-132270500D01*
X158965900Y-132270500D02*
X158750000Y-132588000D01*
X158750000Y-132588000D02*
X158737300Y-133032500D01*
X158737300Y-133032500D02*
X158940500Y-133388100D01*
X158940500Y-133388100D02*
X159232600Y-133565900D01*
X159232600Y-133565900D02*
X159550100Y-133616700D01*
X159550100Y-133616700D02*
X159956500Y-133515100D01*
X159956500Y-133515100D02*
X160210500Y-133172200D01*
X160210500Y-133172200D02*
X160299400Y-132994400D01*
X162560000Y-124460000D02*
X162560000Y-134112000D01*
X159512000Y-134112000D02*
X158242000Y-134112000D01*
X158242000Y-134112000D02*
X158242000Y-124460000D01*
X158242000Y-124460000D02*
X163322000Y-124460000D01*
X163322000Y-134112000D02*
X160782000Y-134112000D01*
X160782000Y-134112000D02*
X159512000Y-134112000D01*
X168923240Y-125634136D02*
X168923240Y-125585876D01*
X168222200Y-122835156D02*
X168923240Y-122835156D01*
X168923240Y-122835156D02*
X168923240Y-123084076D01*
X168923240Y-125634136D02*
X168923240Y-125834796D01*
X168923240Y-125834796D02*
X168222200Y-125834796D01*
X151468095Y-147052381D02*
X151468095Y-147861905D01*
X151515714Y-147957143D01*
X151563333Y-148004762D01*
X151658571Y-148052381D01*
X151849048Y-148052381D01*
X151944286Y-148004762D01*
X151991905Y-147957143D01*
X152039524Y-147861905D01*
X152039524Y-147052381D01*
X153039524Y-148052381D02*
X152468095Y-148052381D01*
X152753809Y-148052381D02*
X152753809Y-147052381D01*
X152658571Y-147195238D01*
X152563333Y-147290476D01*
X152468095Y-147338095D01*
X148780000Y-139016666D02*
X148813333Y-139050000D01*
X148846667Y-139150000D01*
X148846667Y-139216666D01*
X148813333Y-139316666D01*
X148746667Y-139383333D01*
X148680000Y-139416666D01*
X148546667Y-139450000D01*
X148446667Y-139450000D01*
X148313333Y-139416666D01*
X148246667Y-139383333D01*
X148180000Y-139316666D01*
X148146667Y-139216666D01*
X148146667Y-139150000D01*
X148180000Y-139050000D01*
X148213333Y-139016666D01*
X148846667Y-138350000D02*
X148846667Y-138750000D01*
X148846667Y-138550000D02*
X148146667Y-138550000D01*
X148246667Y-138616666D01*
X148313333Y-138683333D01*
X148346667Y-138750000D01*
X146113334Y-143187143D02*
X146065715Y-143234762D01*
X145922858Y-143282381D01*
X145827620Y-143282381D01*
X145684762Y-143234762D01*
X145589524Y-143139524D01*
X145541905Y-143044286D01*
X145494286Y-142853810D01*
X145494286Y-142710952D01*
X145541905Y-142520476D01*
X145589524Y-142425238D01*
X145684762Y-142330000D01*
X145827620Y-142282381D01*
X145922858Y-142282381D01*
X146065715Y-142330000D01*
X146113334Y-142377619D01*
X146494286Y-142377619D02*
X146541905Y-142330000D01*
X146637143Y-142282381D01*
X146875239Y-142282381D01*
X146970477Y-142330000D01*
X147018096Y-142377619D01*
X147065715Y-142472857D01*
X147065715Y-142568095D01*
X147018096Y-142710952D01*
X146446667Y-143282381D01*
X147065715Y-143282381D01*
D13*
X149980000Y-139016666D02*
X150013333Y-139050000D01*
X150046667Y-139150000D01*
X150046667Y-139216666D01*
X150013333Y-139316666D01*
X149946667Y-139383333D01*
X149880000Y-139416666D01*
X149746667Y-139450000D01*
X149646667Y-139450000D01*
X149513333Y-139416666D01*
X149446667Y-139383333D01*
X149380000Y-139316666D01*
X149346667Y-139216666D01*
X149346667Y-139150000D01*
X149380000Y-139050000D01*
X149413333Y-139016666D01*
X149346667Y-138783333D02*
X149346667Y-138350000D01*
X149613333Y-138583333D01*
X149613333Y-138483333D01*
X149646667Y-138416666D01*
X149680000Y-138383333D01*
X149746667Y-138350000D01*
X149913333Y-138350000D01*
X149980000Y-138383333D01*
X150013333Y-138416666D01*
X150046667Y-138483333D01*
X150046667Y-138683333D01*
X150013333Y-138750000D01*
X149980000Y-138783333D01*
D12*
X146103334Y-144737143D02*
X146055715Y-144784762D01*
X145912858Y-144832381D01*
X145817620Y-144832381D01*
X145674762Y-144784762D01*
X145579524Y-144689524D01*
X145531905Y-144594286D01*
X145484286Y-144403810D01*
X145484286Y-144260952D01*
X145531905Y-144070476D01*
X145579524Y-143975238D01*
X145674762Y-143880000D01*
X145817620Y-143832381D01*
X145912858Y-143832381D01*
X146055715Y-143880000D01*
X146103334Y-143927619D01*
X146960477Y-144165714D02*
X146960477Y-144832381D01*
X146722381Y-143784762D02*
X146484286Y-144499048D01*
X147103334Y-144499048D01*
X150813334Y-136450000D02*
X150780000Y-136483333D01*
X150680000Y-136516667D01*
X150613334Y-136516667D01*
X150513334Y-136483333D01*
X150446667Y-136416667D01*
X150413334Y-136350000D01*
X150380000Y-136216667D01*
X150380000Y-136116667D01*
X150413334Y-135983333D01*
X150446667Y-135916667D01*
X150513334Y-135850000D01*
X150613334Y-135816667D01*
X150680000Y-135816667D01*
X150780000Y-135850000D01*
X150813334Y-135883333D01*
X151446667Y-135816667D02*
X151113334Y-135816667D01*
X151080000Y-136150000D01*
X151113334Y-136116667D01*
X151180000Y-136083333D01*
X151346667Y-136083333D01*
X151413334Y-136116667D01*
X151446667Y-136150000D01*
X151480000Y-136216667D01*
X151480000Y-136383333D01*
X151446667Y-136450000D01*
X151413334Y-136483333D01*
X151346667Y-136516667D01*
X151180000Y-136516667D01*
X151113334Y-136483333D01*
X151080000Y-136450000D01*
X155363334Y-149357143D02*
X155315715Y-149404762D01*
X155172858Y-149452381D01*
X155077620Y-149452381D01*
X154934762Y-149404762D01*
X154839524Y-149309524D01*
X154791905Y-149214286D01*
X154744286Y-149023810D01*
X154744286Y-148880952D01*
X154791905Y-148690476D01*
X154839524Y-148595238D01*
X154934762Y-148500000D01*
X155077620Y-148452381D01*
X155172858Y-148452381D01*
X155315715Y-148500000D01*
X155363334Y-148547619D01*
X156220477Y-148452381D02*
X156030000Y-148452381D01*
X155934762Y-148500000D01*
X155887143Y-148547619D01*
X155791905Y-148690476D01*
X155744286Y-148880952D01*
X155744286Y-149261905D01*
X155791905Y-149357143D01*
X155839524Y-149404762D01*
X155934762Y-149452381D01*
X156125239Y-149452381D01*
X156220477Y-149404762D01*
X156268096Y-149357143D01*
X156315715Y-149261905D01*
X156315715Y-149023810D01*
X156268096Y-148928571D01*
X156220477Y-148880952D01*
X156125239Y-148833333D01*
X155934762Y-148833333D01*
X155839524Y-148880952D01*
X155791905Y-148928571D01*
X155744286Y-149023810D01*
X157476000Y-136260666D02*
X157509333Y-136294000D01*
X157542667Y-136394000D01*
X157542667Y-136460666D01*
X157509333Y-136560666D01*
X157442667Y-136627333D01*
X157376000Y-136660666D01*
X157242667Y-136694000D01*
X157142667Y-136694000D01*
X157009333Y-136660666D01*
X156942667Y-136627333D01*
X156876000Y-136560666D01*
X156842667Y-136460666D01*
X156842667Y-136394000D01*
X156876000Y-136294000D01*
X156909333Y-136260666D01*
X156842667Y-136027333D02*
X156842667Y-135560666D01*
X157542667Y-135860666D01*
X157563334Y-149257143D02*
X157515715Y-149304762D01*
X157372858Y-149352381D01*
X157277620Y-149352381D01*
X157134762Y-149304762D01*
X157039524Y-149209524D01*
X156991905Y-149114286D01*
X156944286Y-148923810D01*
X156944286Y-148780952D01*
X156991905Y-148590476D01*
X157039524Y-148495238D01*
X157134762Y-148400000D01*
X157277620Y-148352381D01*
X157372858Y-148352381D01*
X157515715Y-148400000D01*
X157563334Y-148447619D01*
X158134762Y-148780952D02*
X158039524Y-148733333D01*
X157991905Y-148685714D01*
X157944286Y-148590476D01*
X157944286Y-148542857D01*
X157991905Y-148447619D01*
X158039524Y-148400000D01*
X158134762Y-148352381D01*
X158325239Y-148352381D01*
X158420477Y-148400000D01*
X158468096Y-148447619D01*
X158515715Y-148542857D01*
X158515715Y-148590476D01*
X158468096Y-148685714D01*
X158420477Y-148733333D01*
X158325239Y-148780952D01*
X158134762Y-148780952D01*
X158039524Y-148828571D01*
X157991905Y-148876190D01*
X157944286Y-148971429D01*
X157944286Y-149161905D01*
X157991905Y-149257143D01*
X158039524Y-149304762D01*
X158134762Y-149352381D01*
X158325239Y-149352381D01*
X158420477Y-149304762D01*
X158468096Y-149257143D01*
X158515715Y-149161905D01*
X158515715Y-148971429D01*
X158468096Y-148876190D01*
X158420477Y-148828571D01*
X158325239Y-148780952D01*
X162139334Y-146407143D02*
X162091715Y-146454762D01*
X161948858Y-146502381D01*
X161853620Y-146502381D01*
X161710762Y-146454762D01*
X161615524Y-146359524D01*
X161567905Y-146264286D01*
X161520286Y-146073810D01*
X161520286Y-145930952D01*
X161567905Y-145740476D01*
X161615524Y-145645238D01*
X161710762Y-145550000D01*
X161853620Y-145502381D01*
X161948858Y-145502381D01*
X162091715Y-145550000D01*
X162139334Y-145597619D01*
X162615524Y-146502381D02*
X162806000Y-146502381D01*
X162901239Y-146454762D01*
X162948858Y-146407143D01*
X163044096Y-146264286D01*
X163091715Y-146073810D01*
X163091715Y-145692857D01*
X163044096Y-145597619D01*
X162996477Y-145550000D01*
X162901239Y-145502381D01*
X162710762Y-145502381D01*
X162615524Y-145550000D01*
X162567905Y-145597619D01*
X162520286Y-145692857D01*
X162520286Y-145930952D01*
X162567905Y-146026190D01*
X162615524Y-146073810D01*
X162710762Y-146121429D01*
X162901239Y-146121429D01*
X162996477Y-146073810D01*
X163044096Y-146026190D01*
X163091715Y-145930952D01*
X162487143Y-145057143D02*
X162439524Y-145104762D01*
X162296667Y-145152381D01*
X162201429Y-145152381D01*
X162058571Y-145104762D01*
X161963333Y-145009524D01*
X161915714Y-144914286D01*
X161868095Y-144723810D01*
X161868095Y-144580952D01*
X161915714Y-144390476D01*
X161963333Y-144295238D01*
X162058571Y-144200000D01*
X162201429Y-144152381D01*
X162296667Y-144152381D01*
X162439524Y-144200000D01*
X162487143Y-144247619D01*
X163439524Y-145152381D02*
X162868095Y-145152381D01*
X163153809Y-145152381D02*
X163153809Y-144152381D01*
X163058571Y-144295238D01*
X162963333Y-144390476D01*
X162868095Y-144438095D01*
X164058571Y-144152381D02*
X164153810Y-144152381D01*
X164249048Y-144200000D01*
X164296667Y-144247619D01*
X164344286Y-144342857D01*
X164391905Y-144533333D01*
X164391905Y-144771429D01*
X164344286Y-144961905D01*
X164296667Y-145057143D01*
X164249048Y-145104762D01*
X164153810Y-145152381D01*
X164058571Y-145152381D01*
X163963333Y-145104762D01*
X163915714Y-145057143D01*
X163868095Y-144961905D01*
X163820476Y-144771429D01*
X163820476Y-144533333D01*
X163868095Y-144342857D01*
X163915714Y-144247619D01*
X163963333Y-144200000D01*
X164058571Y-144152381D01*
X162087143Y-143857143D02*
X162039524Y-143904762D01*
X161896667Y-143952381D01*
X161801429Y-143952381D01*
X161658571Y-143904762D01*
X161563333Y-143809524D01*
X161515714Y-143714286D01*
X161468095Y-143523810D01*
X161468095Y-143380952D01*
X161515714Y-143190476D01*
X161563333Y-143095238D01*
X161658571Y-143000000D01*
X161801429Y-142952381D01*
X161896667Y-142952381D01*
X162039524Y-143000000D01*
X162087143Y-143047619D01*
X163039524Y-143952381D02*
X162468095Y-143952381D01*
X162753809Y-143952381D02*
X162753809Y-142952381D01*
X162658571Y-143095238D01*
X162563333Y-143190476D01*
X162468095Y-143238095D01*
X163991905Y-143952381D02*
X163420476Y-143952381D01*
X163706190Y-143952381D02*
X163706190Y-142952381D01*
X163610952Y-143095238D01*
X163515714Y-143190476D01*
X163420476Y-143238095D01*
X162187143Y-142657143D02*
X162139524Y-142704762D01*
X161996667Y-142752381D01*
X161901429Y-142752381D01*
X161758571Y-142704762D01*
X161663333Y-142609524D01*
X161615714Y-142514286D01*
X161568095Y-142323810D01*
X161568095Y-142180952D01*
X161615714Y-141990476D01*
X161663333Y-141895238D01*
X161758571Y-141800000D01*
X161901429Y-141752381D01*
X161996667Y-141752381D01*
X162139524Y-141800000D01*
X162187143Y-141847619D01*
X163139524Y-142752381D02*
X162568095Y-142752381D01*
X162853809Y-142752381D02*
X162853809Y-141752381D01*
X162758571Y-141895238D01*
X162663333Y-141990476D01*
X162568095Y-142038095D01*
X163520476Y-141847619D02*
X163568095Y-141800000D01*
X163663333Y-141752381D01*
X163901429Y-141752381D01*
X163996667Y-141800000D01*
X164044286Y-141847619D01*
X164091905Y-141942857D01*
X164091905Y-142038095D01*
X164044286Y-142180952D01*
X163472857Y-142752381D01*
X164091905Y-142752381D01*
X161663143Y-141327143D02*
X161615524Y-141374762D01*
X161472667Y-141422381D01*
X161377429Y-141422381D01*
X161234571Y-141374762D01*
X161139333Y-141279524D01*
X161091714Y-141184286D01*
X161044095Y-140993810D01*
X161044095Y-140850952D01*
X161091714Y-140660476D01*
X161139333Y-140565238D01*
X161234571Y-140470000D01*
X161377429Y-140422381D01*
X161472667Y-140422381D01*
X161615524Y-140470000D01*
X161663143Y-140517619D01*
X162615524Y-141422381D02*
X162044095Y-141422381D01*
X162329809Y-141422381D02*
X162329809Y-140422381D01*
X162234571Y-140565238D01*
X162139333Y-140660476D01*
X162044095Y-140708095D01*
X162948857Y-140422381D02*
X163567905Y-140422381D01*
X163234571Y-140803333D01*
X163377429Y-140803333D01*
X163472667Y-140850952D01*
X163520286Y-140898571D01*
X163567905Y-140993810D01*
X163567905Y-141231905D01*
X163520286Y-141327143D01*
X163472667Y-141374762D01*
X163377429Y-141422381D01*
X163091714Y-141422381D01*
X162996476Y-141374762D01*
X162948857Y-141327143D01*
X170299143Y-121705643D02*
X170251524Y-121753262D01*
X170108667Y-121800881D01*
X170013429Y-121800881D01*
X169870571Y-121753262D01*
X169775333Y-121658024D01*
X169727714Y-121562786D01*
X169680095Y-121372310D01*
X169680095Y-121229452D01*
X169727714Y-121038976D01*
X169775333Y-120943738D01*
X169870571Y-120848500D01*
X170013429Y-120800881D01*
X170108667Y-120800881D01*
X170251524Y-120848500D01*
X170299143Y-120896119D01*
X171251524Y-121800881D02*
X170680095Y-121800881D01*
X170965809Y-121800881D02*
X170965809Y-120800881D01*
X170870571Y-120943738D01*
X170775333Y-121038976D01*
X170680095Y-121086595D01*
X172108667Y-121134214D02*
X172108667Y-121800881D01*
X171870571Y-120753262D02*
X171632476Y-121467548D01*
X172251524Y-121467548D01*
X164011143Y-125039357D02*
X164058762Y-125086976D01*
X164106381Y-125229833D01*
X164106381Y-125325071D01*
X164058762Y-125467929D01*
X163963524Y-125563167D01*
X163868286Y-125610786D01*
X163677810Y-125658405D01*
X163534952Y-125658405D01*
X163344476Y-125610786D01*
X163249238Y-125563167D01*
X163154000Y-125467929D01*
X163106381Y-125325071D01*
X163106381Y-125229833D01*
X163154000Y-125086976D01*
X163201619Y-125039357D01*
X164106381Y-124086976D02*
X164106381Y-124658405D01*
X164106381Y-124372691D02*
X163106381Y-124372691D01*
X163249238Y-124467929D01*
X163344476Y-124563167D01*
X163392095Y-124658405D01*
X163106381Y-123182214D02*
X163106381Y-123658405D01*
X163582571Y-123706024D01*
X163534952Y-123658405D01*
X163487333Y-123563167D01*
X163487333Y-123325071D01*
X163534952Y-123229833D01*
X163582571Y-123182214D01*
X163677810Y-123134595D01*
X163915905Y-123134595D01*
X164011143Y-123182214D01*
X164058762Y-123229833D01*
X164106381Y-123325071D01*
X164106381Y-123563167D01*
X164058762Y-123658405D01*
X164011143Y-123706024D01*
X139582381Y-119038095D02*
X138582381Y-119038095D01*
X138582381Y-118800000D01*
X138630000Y-118657142D01*
X138725238Y-118561904D01*
X138820476Y-118514285D01*
X139010952Y-118466666D01*
X139153810Y-118466666D01*
X139344286Y-118514285D01*
X139439524Y-118561904D01*
X139534762Y-118657142D01*
X139582381Y-118800000D01*
X139582381Y-119038095D01*
X139582381Y-117514285D02*
X139582381Y-118085714D01*
X139582381Y-117800000D02*
X138582381Y-117800000D01*
X138725238Y-117895238D01*
X138820476Y-117990476D01*
X138868095Y-118085714D01*
X139563334Y-134752381D02*
X139087143Y-134752381D01*
X139087143Y-133752381D01*
X140420477Y-134752381D02*
X139849048Y-134752381D01*
X140134762Y-134752381D02*
X140134762Y-133752381D01*
X140039524Y-133895238D01*
X139944286Y-133990476D01*
X139849048Y-134038095D01*
X144282381Y-148138095D02*
X143282381Y-148138095D01*
X143282381Y-147757142D01*
X143330000Y-147661904D01*
X143377619Y-147614285D01*
X143472857Y-147566666D01*
X143615714Y-147566666D01*
X143710952Y-147614285D01*
X143758571Y-147661904D01*
X143806190Y-147757142D01*
X143806190Y-148138095D01*
X144282381Y-146614285D02*
X144282381Y-147185714D01*
X144282381Y-146900000D02*
X143282381Y-146900000D01*
X143425238Y-146995238D01*
X143520476Y-147090476D01*
X143568095Y-147185714D01*
X144387905Y-134568381D02*
X144387905Y-133568381D01*
X144768858Y-133568381D01*
X144864096Y-133616000D01*
X144911715Y-133663619D01*
X144959334Y-133758857D01*
X144959334Y-133901714D01*
X144911715Y-133996952D01*
X144864096Y-134044571D01*
X144768858Y-134092190D01*
X144387905Y-134092190D01*
X145340286Y-133663619D02*
X145387905Y-133616000D01*
X145483143Y-133568381D01*
X145721239Y-133568381D01*
X145816477Y-133616000D01*
X145864096Y-133663619D01*
X145911715Y-133758857D01*
X145911715Y-133854095D01*
X145864096Y-133996952D01*
X145292667Y-134568381D01*
X145911715Y-134568381D01*
X139391905Y-147152381D02*
X139391905Y-146152381D01*
X139772858Y-146152381D01*
X139868096Y-146200000D01*
X139915715Y-146247619D01*
X139963334Y-146342857D01*
X139963334Y-146485714D01*
X139915715Y-146580952D01*
X139868096Y-146628571D01*
X139772858Y-146676190D01*
X139391905Y-146676190D01*
X140296667Y-146152381D02*
X140915715Y-146152381D01*
X140582381Y-146533333D01*
X140725239Y-146533333D01*
X140820477Y-146580952D01*
X140868096Y-146628571D01*
X140915715Y-146723810D01*
X140915715Y-146961905D01*
X140868096Y-147057143D01*
X140820477Y-147104762D01*
X140725239Y-147152381D01*
X140439524Y-147152381D01*
X140344286Y-147104762D01*
X140296667Y-147057143D01*
X147291905Y-154752381D02*
X147291905Y-153752381D01*
X147672858Y-153752381D01*
X147768096Y-153800000D01*
X147815715Y-153847619D01*
X147863334Y-153942857D01*
X147863334Y-154085714D01*
X147815715Y-154180952D01*
X147768096Y-154228571D01*
X147672858Y-154276190D01*
X147291905Y-154276190D01*
X148720477Y-154085714D02*
X148720477Y-154752381D01*
X148482381Y-153704762D02*
X148244286Y-154419048D01*
X148863334Y-154419048D01*
X139991905Y-153052381D02*
X139991905Y-152052381D01*
X140372858Y-152052381D01*
X140468096Y-152100000D01*
X140515715Y-152147619D01*
X140563334Y-152242857D01*
X140563334Y-152385714D01*
X140515715Y-152480952D01*
X140468096Y-152528571D01*
X140372858Y-152576190D01*
X139991905Y-152576190D01*
X141468096Y-152052381D02*
X140991905Y-152052381D01*
X140944286Y-152528571D01*
X140991905Y-152480952D01*
X141087143Y-152433333D01*
X141325239Y-152433333D01*
X141420477Y-152480952D01*
X141468096Y-152528571D01*
X141515715Y-152623810D01*
X141515715Y-152861905D01*
X141468096Y-152957143D01*
X141420477Y-153004762D01*
X141325239Y-153052381D01*
X141087143Y-153052381D01*
X140991905Y-153004762D01*
X140944286Y-152957143D01*
X166191905Y-148052381D02*
X166191905Y-147052381D01*
X166572858Y-147052381D01*
X166668096Y-147100000D01*
X166715715Y-147147619D01*
X166763334Y-147242857D01*
X166763334Y-147385714D01*
X166715715Y-147480952D01*
X166668096Y-147528571D01*
X166572858Y-147576190D01*
X166191905Y-147576190D01*
X167620477Y-147052381D02*
X167430000Y-147052381D01*
X167334762Y-147100000D01*
X167287143Y-147147619D01*
X167191905Y-147290476D01*
X167144286Y-147480952D01*
X167144286Y-147861905D01*
X167191905Y-147957143D01*
X167239524Y-148004762D01*
X167334762Y-148052381D01*
X167525239Y-148052381D01*
X167620477Y-148004762D01*
X167668096Y-147957143D01*
X167715715Y-147861905D01*
X167715715Y-147623810D01*
X167668096Y-147528571D01*
X167620477Y-147480952D01*
X167525239Y-147433333D01*
X167334762Y-147433333D01*
X167239524Y-147480952D01*
X167191905Y-147528571D01*
X167144286Y-147623810D01*
X144426572Y-129025381D02*
X144426572Y-128025381D01*
X144807525Y-128025381D01*
X144902763Y-128073000D01*
X144950382Y-128120619D01*
X144998001Y-128215857D01*
X144998001Y-128358714D01*
X144950382Y-128453952D01*
X144902763Y-128501571D01*
X144807525Y-128549190D01*
X144426572Y-128549190D01*
X145331334Y-128025381D02*
X145998001Y-128025381D01*
X145569429Y-129025381D01*
X159952572Y-118847381D02*
X159952572Y-117847381D01*
X160333525Y-117847381D01*
X160428763Y-117895000D01*
X160476382Y-117942619D01*
X160524001Y-118037857D01*
X160524001Y-118180714D01*
X160476382Y-118275952D01*
X160428763Y-118323571D01*
X160333525Y-118371190D01*
X159952572Y-118371190D01*
X161095429Y-118275952D02*
X161000191Y-118228333D01*
X160952572Y-118180714D01*
X160904953Y-118085476D01*
X160904953Y-118037857D01*
X160952572Y-117942619D01*
X161000191Y-117895000D01*
X161095429Y-117847381D01*
X161285906Y-117847381D01*
X161381144Y-117895000D01*
X161428763Y-117942619D01*
X161476382Y-118037857D01*
X161476382Y-118085476D01*
X161428763Y-118180714D01*
X161381144Y-118228333D01*
X161285906Y-118275952D01*
X161095429Y-118275952D01*
X161000191Y-118323571D01*
X160952572Y-118371190D01*
X160904953Y-118466429D01*
X160904953Y-118656905D01*
X160952572Y-118752143D01*
X161000191Y-118799762D01*
X161095429Y-118847381D01*
X161285906Y-118847381D01*
X161381144Y-118799762D01*
X161428763Y-118752143D01*
X161476382Y-118656905D01*
X161476382Y-118466429D01*
X161428763Y-118371190D01*
X161381144Y-118323571D01*
X161285906Y-118275952D01*
X166341905Y-137652381D02*
X166341905Y-136652381D01*
X166722858Y-136652381D01*
X166818096Y-136700000D01*
X166865715Y-136747619D01*
X166913334Y-136842857D01*
X166913334Y-136985714D01*
X166865715Y-137080952D01*
X166818096Y-137128571D01*
X166722858Y-137176190D01*
X166341905Y-137176190D01*
X167389524Y-137652381D02*
X167580000Y-137652381D01*
X167675239Y-137604762D01*
X167722858Y-137557143D01*
X167818096Y-137414286D01*
X167865715Y-137223810D01*
X167865715Y-136842857D01*
X167818096Y-136747619D01*
X167770477Y-136700000D01*
X167675239Y-136652381D01*
X167484762Y-136652381D01*
X167389524Y-136700000D01*
X167341905Y-136747619D01*
X167294286Y-136842857D01*
X167294286Y-137080952D01*
X167341905Y-137176190D01*
X167389524Y-137223810D01*
X167484762Y-137271429D01*
X167675239Y-137271429D01*
X167770477Y-137223810D01*
X167818096Y-137176190D01*
X167865715Y-137080952D01*
X165540714Y-135002381D02*
X165540714Y-134002381D01*
X165921667Y-134002381D01*
X166016905Y-134050000D01*
X166064524Y-134097619D01*
X166112143Y-134192857D01*
X166112143Y-134335714D01*
X166064524Y-134430952D01*
X166016905Y-134478571D01*
X165921667Y-134526190D01*
X165540714Y-134526190D01*
X167064524Y-135002381D02*
X166493095Y-135002381D01*
X166778809Y-135002381D02*
X166778809Y-134002381D01*
X166683571Y-134145238D01*
X166588333Y-134240476D01*
X166493095Y-134288095D01*
X167683571Y-134002381D02*
X167778810Y-134002381D01*
X167874048Y-134050000D01*
X167921667Y-134097619D01*
X167969286Y-134192857D01*
X168016905Y-134383333D01*
X168016905Y-134621429D01*
X167969286Y-134811905D01*
X167921667Y-134907143D01*
X167874048Y-134954762D01*
X167778810Y-135002381D01*
X167683571Y-135002381D01*
X167588333Y-134954762D01*
X167540714Y-134907143D01*
X167493095Y-134811905D01*
X167445476Y-134621429D01*
X167445476Y-134383333D01*
X167493095Y-134192857D01*
X167540714Y-134097619D01*
X167588333Y-134050000D01*
X167683571Y-134002381D01*
X157915714Y-159552381D02*
X157915714Y-158552381D01*
X158296667Y-158552381D01*
X158391905Y-158600000D01*
X158439524Y-158647619D01*
X158487143Y-158742857D01*
X158487143Y-158885714D01*
X158439524Y-158980952D01*
X158391905Y-159028571D01*
X158296667Y-159076190D01*
X157915714Y-159076190D01*
X159439524Y-159552381D02*
X158868095Y-159552381D01*
X159153809Y-159552381D02*
X159153809Y-158552381D01*
X159058571Y-158695238D01*
X158963333Y-158790476D01*
X158868095Y-158838095D01*
X160391905Y-159552381D02*
X159820476Y-159552381D01*
X160106190Y-159552381D02*
X160106190Y-158552381D01*
X160010952Y-158695238D01*
X159915714Y-158790476D01*
X159820476Y-158838095D01*
X148337381Y-128354286D02*
X147337381Y-128354286D01*
X147337381Y-127973333D01*
X147385000Y-127878095D01*
X147432619Y-127830476D01*
X147527857Y-127782857D01*
X147670714Y-127782857D01*
X147765952Y-127830476D01*
X147813571Y-127878095D01*
X147861190Y-127973333D01*
X147861190Y-128354286D01*
X148337381Y-126830476D02*
X148337381Y-127401905D01*
X148337381Y-127116191D02*
X147337381Y-127116191D01*
X147480238Y-127211429D01*
X147575476Y-127306667D01*
X147623095Y-127401905D01*
X147432619Y-126449524D02*
X147385000Y-126401905D01*
X147337381Y-126306667D01*
X147337381Y-126068571D01*
X147385000Y-125973333D01*
X147432619Y-125925714D01*
X147527857Y-125878095D01*
X147623095Y-125878095D01*
X147765952Y-125925714D01*
X148337381Y-126497143D01*
X148337381Y-125878095D01*
X165665714Y-140227381D02*
X165665714Y-139227381D01*
X166046667Y-139227381D01*
X166141905Y-139275000D01*
X166189524Y-139322619D01*
X166237143Y-139417857D01*
X166237143Y-139560714D01*
X166189524Y-139655952D01*
X166141905Y-139703571D01*
X166046667Y-139751190D01*
X165665714Y-139751190D01*
X167189524Y-140227381D02*
X166618095Y-140227381D01*
X166903809Y-140227381D02*
X166903809Y-139227381D01*
X166808571Y-139370238D01*
X166713333Y-139465476D01*
X166618095Y-139513095D01*
X167522857Y-139227381D02*
X168141905Y-139227381D01*
X167808571Y-139608333D01*
X167951429Y-139608333D01*
X168046667Y-139655952D01*
X168094286Y-139703571D01*
X168141905Y-139798810D01*
X168141905Y-140036905D01*
X168094286Y-140132143D01*
X168046667Y-140179762D01*
X167951429Y-140227381D01*
X167665714Y-140227381D01*
X167570476Y-140179762D01*
X167522857Y-140132143D01*
X165715714Y-142952381D02*
X165715714Y-141952381D01*
X166096667Y-141952381D01*
X166191905Y-142000000D01*
X166239524Y-142047619D01*
X166287143Y-142142857D01*
X166287143Y-142285714D01*
X166239524Y-142380952D01*
X166191905Y-142428571D01*
X166096667Y-142476190D01*
X165715714Y-142476190D01*
X167239524Y-142952381D02*
X166668095Y-142952381D01*
X166953809Y-142952381D02*
X166953809Y-141952381D01*
X166858571Y-142095238D01*
X166763333Y-142190476D01*
X166668095Y-142238095D01*
X168096667Y-142285714D02*
X168096667Y-142952381D01*
X167858571Y-141904762D02*
X167620476Y-142619048D01*
X168239524Y-142619048D01*
X165465714Y-145277381D02*
X165465714Y-144277381D01*
X165846667Y-144277381D01*
X165941905Y-144325000D01*
X165989524Y-144372619D01*
X166037143Y-144467857D01*
X166037143Y-144610714D01*
X165989524Y-144705952D01*
X165941905Y-144753571D01*
X165846667Y-144801190D01*
X165465714Y-144801190D01*
X166989524Y-145277381D02*
X166418095Y-145277381D01*
X166703809Y-145277381D02*
X166703809Y-144277381D01*
X166608571Y-144420238D01*
X166513333Y-144515476D01*
X166418095Y-144563095D01*
X167894286Y-144277381D02*
X167418095Y-144277381D01*
X167370476Y-144753571D01*
X167418095Y-144705952D01*
X167513333Y-144658333D01*
X167751429Y-144658333D01*
X167846667Y-144705952D01*
X167894286Y-144753571D01*
X167941905Y-144848810D01*
X167941905Y-145086905D01*
X167894286Y-145182143D01*
X167846667Y-145229762D01*
X167751429Y-145277381D01*
X167513333Y-145277381D01*
X167418095Y-145229762D01*
X167370476Y-145182143D01*
X171182381Y-119614286D02*
X170182381Y-119614286D01*
X170182381Y-119233333D01*
X170230000Y-119138095D01*
X170277619Y-119090476D01*
X170372857Y-119042857D01*
X170515714Y-119042857D01*
X170610952Y-119090476D01*
X170658571Y-119138095D01*
X170706190Y-119233333D01*
X170706190Y-119614286D01*
X171182381Y-118090476D02*
X171182381Y-118661905D01*
X171182381Y-118376191D02*
X170182381Y-118376191D01*
X170325238Y-118471429D01*
X170420476Y-118566667D01*
X170468095Y-118661905D01*
X170182381Y-117233333D02*
X170182381Y-117423810D01*
X170230000Y-117519048D01*
X170277619Y-117566667D01*
X170420476Y-117661905D01*
X170610952Y-117709524D01*
X170991905Y-117709524D01*
X171087143Y-117661905D01*
X171134762Y-117614286D01*
X171182381Y-117519048D01*
X171182381Y-117328571D01*
X171134762Y-117233333D01*
X171087143Y-117185714D01*
X170991905Y-117138095D01*
X170753810Y-117138095D01*
X170658571Y-117185714D01*
X170610952Y-117233333D01*
X170563333Y-117328571D01*
X170563333Y-117519048D01*
X170610952Y-117614286D01*
X170658571Y-117661905D01*
X170753810Y-117709524D01*
X137723714Y-132024381D02*
X137723714Y-131024381D01*
X138104667Y-131024381D01*
X138199905Y-131072000D01*
X138247524Y-131119619D01*
X138295143Y-131214857D01*
X138295143Y-131357714D01*
X138247524Y-131452952D01*
X138199905Y-131500571D01*
X138104667Y-131548190D01*
X137723714Y-131548190D01*
X139247524Y-132024381D02*
X138676095Y-132024381D01*
X138961809Y-132024381D02*
X138961809Y-131024381D01*
X138866571Y-131167238D01*
X138771333Y-131262476D01*
X138676095Y-131310095D01*
X139580857Y-131024381D02*
X140247524Y-131024381D01*
X139818952Y-132024381D01*
X171482381Y-129814286D02*
X170482381Y-129814286D01*
X170482381Y-129433333D01*
X170530000Y-129338095D01*
X170577619Y-129290476D01*
X170672857Y-129242857D01*
X170815714Y-129242857D01*
X170910952Y-129290476D01*
X170958571Y-129338095D01*
X171006190Y-129433333D01*
X171006190Y-129814286D01*
X171482381Y-128290476D02*
X171482381Y-128861905D01*
X171482381Y-128576191D02*
X170482381Y-128576191D01*
X170625238Y-128671429D01*
X170720476Y-128766667D01*
X170768095Y-128861905D01*
X170910952Y-127719048D02*
X170863333Y-127814286D01*
X170815714Y-127861905D01*
X170720476Y-127909524D01*
X170672857Y-127909524D01*
X170577619Y-127861905D01*
X170530000Y-127814286D01*
X170482381Y-127719048D01*
X170482381Y-127528571D01*
X170530000Y-127433333D01*
X170577619Y-127385714D01*
X170672857Y-127338095D01*
X170720476Y-127338095D01*
X170815714Y-127385714D01*
X170863333Y-127433333D01*
X170910952Y-127528571D01*
X170910952Y-127719048D01*
X170958571Y-127814286D01*
X171006190Y-127861905D01*
X171101429Y-127909524D01*
X171291905Y-127909524D01*
X171387143Y-127861905D01*
X171434762Y-127814286D01*
X171482381Y-127719048D01*
X171482381Y-127528571D01*
X171434762Y-127433333D01*
X171387143Y-127385714D01*
X171291905Y-127338095D01*
X171101429Y-127338095D01*
X171006190Y-127385714D01*
X170958571Y-127433333D01*
X170910952Y-127528571D01*
X146282381Y-111214286D02*
X145282381Y-111214286D01*
X145282381Y-110833333D01*
X145330000Y-110738095D01*
X145377619Y-110690476D01*
X145472857Y-110642857D01*
X145615714Y-110642857D01*
X145710952Y-110690476D01*
X145758571Y-110738095D01*
X145806190Y-110833333D01*
X145806190Y-111214286D01*
X146282381Y-109690476D02*
X146282381Y-110261905D01*
X146282381Y-109976191D02*
X145282381Y-109976191D01*
X145425238Y-110071429D01*
X145520476Y-110166667D01*
X145568095Y-110261905D01*
X146282381Y-109214286D02*
X146282381Y-109023810D01*
X146234762Y-108928571D01*
X146187143Y-108880952D01*
X146044286Y-108785714D01*
X145853810Y-108738095D01*
X145472857Y-108738095D01*
X145377619Y-108785714D01*
X145330000Y-108833333D01*
X145282381Y-108928571D01*
X145282381Y-109119048D01*
X145330000Y-109214286D01*
X145377619Y-109261905D01*
X145472857Y-109309524D01*
X145710952Y-109309524D01*
X145806190Y-109261905D01*
X145853810Y-109214286D01*
X145901429Y-109119048D01*
X145901429Y-108928571D01*
X145853810Y-108833333D01*
X145806190Y-108785714D01*
X145710952Y-108738095D01*
X155113334Y-139516667D02*
X154880000Y-139183333D01*
X154713334Y-139516667D02*
X154713334Y-138816667D01*
X154980000Y-138816667D01*
X155046667Y-138850000D01*
X155080000Y-138883333D01*
X155113334Y-138950000D01*
X155113334Y-139050000D01*
X155080000Y-139116667D01*
X155046667Y-139150000D01*
X154980000Y-139183333D01*
X154713334Y-139183333D01*
X155780000Y-139516667D02*
X155380000Y-139516667D01*
X155580000Y-139516667D02*
X155580000Y-138816667D01*
X155513334Y-138916667D01*
X155446667Y-138983333D01*
X155380000Y-139016667D01*
X153458334Y-136396667D02*
X153225000Y-136063333D01*
X153058334Y-136396667D02*
X153058334Y-135696667D01*
X153325000Y-135696667D01*
X153391667Y-135730000D01*
X153425000Y-135763333D01*
X153458334Y-135830000D01*
X153458334Y-135930000D01*
X153425000Y-135996667D01*
X153391667Y-136030000D01*
X153325000Y-136063333D01*
X153058334Y-136063333D01*
X153725000Y-135763333D02*
X153758334Y-135730000D01*
X153825000Y-135696667D01*
X153991667Y-135696667D01*
X154058334Y-135730000D01*
X154091667Y-135763333D01*
X154125000Y-135830000D01*
X154125000Y-135896667D01*
X154091667Y-135996667D01*
X153691667Y-136396667D01*
X154125000Y-136396667D01*
X151213334Y-140416667D02*
X150980000Y-140083333D01*
X150813334Y-140416667D02*
X150813334Y-139716667D01*
X151080000Y-139716667D01*
X151146667Y-139750000D01*
X151180000Y-139783333D01*
X151213334Y-139850000D01*
X151213334Y-139950000D01*
X151180000Y-140016667D01*
X151146667Y-140050000D01*
X151080000Y-140083333D01*
X150813334Y-140083333D01*
X151446667Y-139716667D02*
X151880000Y-139716667D01*
X151646667Y-139983333D01*
X151746667Y-139983333D01*
X151813334Y-140016667D01*
X151846667Y-140050000D01*
X151880000Y-140116667D01*
X151880000Y-140283333D01*
X151846667Y-140350000D01*
X151813334Y-140383333D01*
X151746667Y-140416667D01*
X151546667Y-140416667D01*
X151480000Y-140383333D01*
X151446667Y-140350000D01*
X152683334Y-120352381D02*
X152350000Y-119876190D01*
X152111905Y-120352381D02*
X152111905Y-119352381D01*
X152492858Y-119352381D01*
X152588096Y-119400000D01*
X152635715Y-119447619D01*
X152683334Y-119542857D01*
X152683334Y-119685714D01*
X152635715Y-119780952D01*
X152588096Y-119828571D01*
X152492858Y-119876190D01*
X152111905Y-119876190D01*
X153540477Y-119685714D02*
X153540477Y-120352381D01*
X153302381Y-119304762D02*
X153064286Y-120019048D01*
X153683334Y-120019048D01*
X155183334Y-120352381D02*
X154850000Y-119876190D01*
X154611905Y-120352381D02*
X154611905Y-119352381D01*
X154992858Y-119352381D01*
X155088096Y-119400000D01*
X155135715Y-119447619D01*
X155183334Y-119542857D01*
X155183334Y-119685714D01*
X155135715Y-119780952D01*
X155088096Y-119828571D01*
X154992858Y-119876190D01*
X154611905Y-119876190D01*
X156088096Y-119352381D02*
X155611905Y-119352381D01*
X155564286Y-119828571D01*
X155611905Y-119780952D01*
X155707143Y-119733333D01*
X155945239Y-119733333D01*
X156040477Y-119780952D01*
X156088096Y-119828571D01*
X156135715Y-119923810D01*
X156135715Y-120161905D01*
X156088096Y-120257143D01*
X156040477Y-120304762D01*
X155945239Y-120352381D01*
X155707143Y-120352381D01*
X155611905Y-120304762D01*
X155564286Y-120257143D01*
X161963334Y-139452381D02*
X161630000Y-138976190D01*
X161391905Y-139452381D02*
X161391905Y-138452381D01*
X161772858Y-138452381D01*
X161868096Y-138500000D01*
X161915715Y-138547619D01*
X161963334Y-138642857D01*
X161963334Y-138785714D01*
X161915715Y-138880952D01*
X161868096Y-138928571D01*
X161772858Y-138976190D01*
X161391905Y-138976190D01*
X162820477Y-138452381D02*
X162630000Y-138452381D01*
X162534762Y-138500000D01*
X162487143Y-138547619D01*
X162391905Y-138690476D01*
X162344286Y-138880952D01*
X162344286Y-139261905D01*
X162391905Y-139357143D01*
X162439524Y-139404762D01*
X162534762Y-139452381D01*
X162725239Y-139452381D01*
X162820477Y-139404762D01*
X162868096Y-139357143D01*
X162915715Y-139261905D01*
X162915715Y-139023810D01*
X162868096Y-138928571D01*
X162820477Y-138880952D01*
X162725239Y-138833333D01*
X162534762Y-138833333D01*
X162439524Y-138880952D01*
X162391905Y-138928571D01*
X162344286Y-139023810D01*
X161963334Y-138152381D02*
X161630000Y-137676190D01*
X161391905Y-138152381D02*
X161391905Y-137152381D01*
X161772858Y-137152381D01*
X161868096Y-137200000D01*
X161915715Y-137247619D01*
X161963334Y-137342857D01*
X161963334Y-137485714D01*
X161915715Y-137580952D01*
X161868096Y-137628571D01*
X161772858Y-137676190D01*
X161391905Y-137676190D01*
X162296667Y-137152381D02*
X162963334Y-137152381D01*
X162534762Y-138152381D01*
X143830381Y-121578666D02*
X143354190Y-121912000D01*
X143830381Y-122150095D02*
X142830381Y-122150095D01*
X142830381Y-121769142D01*
X142878000Y-121673904D01*
X142925619Y-121626285D01*
X143020857Y-121578666D01*
X143163714Y-121578666D01*
X143258952Y-121626285D01*
X143306571Y-121673904D01*
X143354190Y-121769142D01*
X143354190Y-122150095D01*
X143258952Y-121007238D02*
X143211333Y-121102476D01*
X143163714Y-121150095D01*
X143068476Y-121197714D01*
X143020857Y-121197714D01*
X142925619Y-121150095D01*
X142878000Y-121102476D01*
X142830381Y-121007238D01*
X142830381Y-120816761D01*
X142878000Y-120721523D01*
X142925619Y-120673904D01*
X143020857Y-120626285D01*
X143068476Y-120626285D01*
X143163714Y-120673904D01*
X143211333Y-120721523D01*
X143258952Y-120816761D01*
X143258952Y-121007238D01*
X143306571Y-121102476D01*
X143354190Y-121150095D01*
X143449429Y-121197714D01*
X143639905Y-121197714D01*
X143735143Y-121150095D01*
X143782762Y-121102476D01*
X143830381Y-121007238D01*
X143830381Y-120816761D01*
X143782762Y-120721523D01*
X143735143Y-120673904D01*
X143639905Y-120626285D01*
X143449429Y-120626285D01*
X143354190Y-120673904D01*
X143306571Y-120721523D01*
X143258952Y-120816761D01*
X164282381Y-133095238D02*
X163806190Y-133428572D01*
X164282381Y-133666667D02*
X163282381Y-133666667D01*
X163282381Y-133285714D01*
X163330000Y-133190476D01*
X163377619Y-133142857D01*
X163472857Y-133095238D01*
X163615714Y-133095238D01*
X163710952Y-133142857D01*
X163758571Y-133190476D01*
X163806190Y-133285714D01*
X163806190Y-133666667D01*
X163282381Y-132809524D02*
X164282381Y-132476191D01*
X163282381Y-132142857D01*
X164282381Y-131285714D02*
X164282381Y-131857143D01*
X164282381Y-131571429D02*
X163282381Y-131571429D01*
X163425238Y-131666667D01*
X163520476Y-131761905D01*
X163568095Y-131857143D01*
X169975381Y-125096881D02*
X170784905Y-125096881D01*
X170880143Y-125049262D01*
X170927762Y-125001643D01*
X170975381Y-124906405D01*
X170975381Y-124715928D01*
X170927762Y-124620690D01*
X170880143Y-124573071D01*
X170784905Y-124525452D01*
X169975381Y-124525452D01*
X170070619Y-124096881D02*
X170023000Y-124049262D01*
X169975381Y-123954024D01*
X169975381Y-123715928D01*
X170023000Y-123620690D01*
X170070619Y-123573071D01*
X170165857Y-123525452D01*
X170261095Y-123525452D01*
X170403952Y-123573071D01*
X170975381Y-124144500D01*
X170975381Y-123525452D01*
X167815714Y-112452381D02*
X167815714Y-111452381D01*
X168196667Y-111452381D01*
X168291905Y-111500000D01*
X168339524Y-111547619D01*
X168387143Y-111642857D01*
X168387143Y-111785714D01*
X168339524Y-111880952D01*
X168291905Y-111928571D01*
X168196667Y-111976190D01*
X167815714Y-111976190D01*
X168768095Y-111547619D02*
X168815714Y-111500000D01*
X168910952Y-111452381D01*
X169149048Y-111452381D01*
X169244286Y-111500000D01*
X169291905Y-111547619D01*
X169339524Y-111642857D01*
X169339524Y-111738095D01*
X169291905Y-111880952D01*
X168720476Y-112452381D01*
X169339524Y-112452381D01*
X169958571Y-111452381D02*
X170053810Y-111452381D01*
X170149048Y-111500000D01*
X170196667Y-111547619D01*
X170244286Y-111642857D01*
X170291905Y-111833333D01*
X170291905Y-112071429D01*
X170244286Y-112261905D01*
X170196667Y-112357143D01*
X170149048Y-112404762D01*
X170053810Y-112452381D01*
X169958571Y-112452381D01*
X169863333Y-112404762D01*
X169815714Y-112357143D01*
X169768095Y-112261905D01*
X169720476Y-112071429D01*
X169720476Y-111833333D01*
X169768095Y-111642857D01*
X169815714Y-111547619D01*
X169863333Y-111500000D01*
X169958571Y-111452381D01*
X139315714Y-112252381D02*
X139315714Y-111252381D01*
X139696667Y-111252381D01*
X139791905Y-111300000D01*
X139839524Y-111347619D01*
X139887143Y-111442857D01*
X139887143Y-111585714D01*
X139839524Y-111680952D01*
X139791905Y-111728571D01*
X139696667Y-111776190D01*
X139315714Y-111776190D01*
X140268095Y-111347619D02*
X140315714Y-111300000D01*
X140410952Y-111252381D01*
X140649048Y-111252381D01*
X140744286Y-111300000D01*
X140791905Y-111347619D01*
X140839524Y-111442857D01*
X140839524Y-111538095D01*
X140791905Y-111680952D01*
X140220476Y-112252381D01*
X140839524Y-112252381D01*
X141791905Y-112252381D02*
X141220476Y-112252381D01*
X141506190Y-112252381D02*
X141506190Y-111252381D01*
X141410952Y-111395238D01*
X141315714Y-111490476D01*
X141220476Y-111538095D01*
X167815714Y-158752381D02*
X167815714Y-157752381D01*
X168196667Y-157752381D01*
X168291905Y-157800000D01*
X168339524Y-157847619D01*
X168387143Y-157942857D01*
X168387143Y-158085714D01*
X168339524Y-158180952D01*
X168291905Y-158228571D01*
X168196667Y-158276190D01*
X167815714Y-158276190D01*
X168768095Y-157847619D02*
X168815714Y-157800000D01*
X168910952Y-157752381D01*
X169149048Y-157752381D01*
X169244286Y-157800000D01*
X169291905Y-157847619D01*
X169339524Y-157942857D01*
X169339524Y-158038095D01*
X169291905Y-158180952D01*
X168720476Y-158752381D01*
X169339524Y-158752381D01*
X169720476Y-157847619D02*
X169768095Y-157800000D01*
X169863333Y-157752381D01*
X170101429Y-157752381D01*
X170196667Y-157800000D01*
X170244286Y-157847619D01*
X170291905Y-157942857D01*
X170291905Y-158038095D01*
X170244286Y-158180952D01*
X169672857Y-158752381D01*
X170291905Y-158752381D01*
X139115714Y-158452381D02*
X139115714Y-157452381D01*
X139496667Y-157452381D01*
X139591905Y-157500000D01*
X139639524Y-157547619D01*
X139687143Y-157642857D01*
X139687143Y-157785714D01*
X139639524Y-157880952D01*
X139591905Y-157928571D01*
X139496667Y-157976190D01*
X139115714Y-157976190D01*
X140068095Y-157547619D02*
X140115714Y-157500000D01*
X140210952Y-157452381D01*
X140449048Y-157452381D01*
X140544286Y-157500000D01*
X140591905Y-157547619D01*
X140639524Y-157642857D01*
X140639524Y-157738095D01*
X140591905Y-157880952D01*
X140020476Y-158452381D01*
X140639524Y-158452381D01*
X140972857Y-157452381D02*
X141591905Y-157452381D01*
X141258571Y-157833333D01*
X141401429Y-157833333D01*
X141496667Y-157880952D01*
X141544286Y-157928571D01*
X141591905Y-158023810D01*
X141591905Y-158261905D01*
X141544286Y-158357143D01*
X141496667Y-158404762D01*
X141401429Y-158452381D01*
X141115714Y-158452381D01*
X141020476Y-158404762D01*
X140972857Y-158357143D01*
M02*
