G04 #@! TF.FileFunction,Copper,L2,Inr,Signal*
%FSLAX46Y46*%
G04 Gerber Fmt 4.6, Leading zero omitted, Abs format (unit mm)*
G04 Created by KiCad (PCBNEW 4.0.4+e1-6308~48~ubuntu16.04.1-stable) date Tue Oct 11 09:38:20 2016*
%MOMM*%
%LPD*%
G01*
G04 APERTURE LIST*
%ADD10C,0.100000*%
%ADD11R,2.032000X2.032000*%
%ADD12O,2.032000X2.032000*%
%ADD13R,2.235200X2.235200*%
%ADD14R,1.727200X2.032000*%
%ADD15O,1.727200X2.032000*%
%ADD16R,1.727200X1.727200*%
%ADD17O,1.727200X1.727200*%
%ADD18C,1.524000*%
%ADD19C,7.000000*%
%ADD20C,1.200000*%
%ADD21C,0.460000*%
%ADD22C,0.200000*%
%ADD23C,0.254000*%
G04 APERTURE END LIST*
D10*
D11*
X140462000Y-136969500D03*
D12*
X140462000Y-139509500D03*
D11*
X148875000Y-147900000D03*
D12*
X146335000Y-147900000D03*
D13*
X145380000Y-136910000D03*
X141097000Y-144145000D03*
X148925000Y-151750000D03*
X141000000Y-150000000D03*
X170180000Y-147320000D03*
X145150000Y-131200000D03*
X160930000Y-121100000D03*
X170180000Y-137160000D03*
X170180000Y-134620000D03*
D14*
X155500000Y-159000000D03*
D15*
X152960000Y-159000000D03*
X150420000Y-159000000D03*
X147880000Y-159000000D03*
D16*
X152985000Y-127140000D03*
D17*
X152985000Y-124600000D03*
X155525000Y-127140000D03*
X155525000Y-124600000D03*
D13*
X170180000Y-139700000D03*
X170180000Y-142240000D03*
X170180000Y-144780000D03*
D11*
X167894000Y-118554500D03*
D12*
X165354000Y-118554500D03*
D11*
X138938000Y-129032000D03*
D12*
X138938000Y-126492000D03*
D11*
X168402000Y-128460500D03*
D12*
X165862000Y-128460500D03*
D14*
X148000000Y-111500000D03*
D15*
X150540000Y-111500000D03*
X153080000Y-111500000D03*
X155620000Y-111500000D03*
X158160000Y-111500000D03*
X160700000Y-111500000D03*
D18*
X160782000Y-129286000D03*
X160782000Y-126746000D03*
X160782000Y-131826000D03*
D19*
X169000000Y-112000000D03*
X140500000Y-112000000D03*
X169000000Y-158000000D03*
X140500000Y-158000000D03*
D20*
X154420340Y-143275661D03*
D21*
X152370000Y-146590000D03*
X157042703Y-145644733D03*
X153532000Y-142356000D03*
X155332000Y-142356000D03*
X155330000Y-144200000D03*
X153530000Y-144200000D03*
X157230000Y-137000000D03*
X152430000Y-136700000D03*
X160930000Y-137600000D03*
X147130000Y-144400000D03*
X149544291Y-137376234D03*
X150530000Y-134800000D03*
X161200000Y-146050000D03*
X161210000Y-144760000D03*
X161250000Y-142250000D03*
X157790428Y-145193811D03*
X151403142Y-145483729D03*
X161030000Y-139000000D03*
X151530000Y-121700000D03*
X150530000Y-131900000D03*
X154213118Y-138610246D03*
X155553140Y-138467493D03*
X156279734Y-138591798D03*
X157292831Y-132371118D03*
X152916212Y-140004738D03*
X159870000Y-135930000D03*
X156676404Y-140029576D03*
X150460000Y-122060000D03*
X153874317Y-139624656D03*
X151675000Y-139575000D03*
X150458732Y-144651032D03*
X147580000Y-133900000D03*
X150280000Y-130600000D03*
X150837674Y-143169481D03*
X150570000Y-143903893D03*
X150643372Y-145437921D03*
X148170493Y-128857794D03*
X152160000Y-129830000D03*
X158118562Y-144515107D03*
X161109989Y-143870000D03*
X157769979Y-143812402D03*
X158000000Y-141500000D03*
D22*
X155020339Y-143875660D02*
X154420340Y-143275661D01*
X155430000Y-144285321D02*
X155020339Y-143875660D01*
X155430000Y-146200000D02*
X155430000Y-144285321D01*
X158930000Y-146200000D02*
X157040000Y-146200000D01*
X157040000Y-146200000D02*
X155430000Y-146200000D01*
X157042703Y-145644733D02*
X157042703Y-146197297D01*
X157042703Y-146197297D02*
X157040000Y-146200000D01*
X148330000Y-146200000D02*
X152350000Y-146200000D01*
X152370000Y-146590000D02*
X152370000Y-146220000D01*
X152350000Y-146200000D02*
X155430000Y-146200000D01*
X152370000Y-146220000D02*
X152350000Y-146200000D01*
X153532000Y-142356000D02*
X155332000Y-142356000D01*
X155330000Y-142358000D02*
X155330000Y-144200000D01*
X155332000Y-142356000D02*
X155330000Y-142358000D01*
X155330000Y-144200000D02*
X153530000Y-144200000D01*
X160930000Y-137600000D02*
X161230000Y-137600000D01*
X161730000Y-141770000D02*
X161250000Y-142250000D01*
X161730000Y-138100000D02*
X161730000Y-141770000D01*
X161230000Y-137600000D02*
X161730000Y-138100000D01*
X147130000Y-144400000D02*
X147130000Y-145000000D01*
X147130000Y-145000000D02*
X148330000Y-146200000D01*
X161130000Y-144840000D02*
X160290000Y-144840000D01*
X160290000Y-144840000D02*
X158930000Y-146200000D01*
X157230000Y-137000000D02*
X160330000Y-137000000D01*
X160330000Y-137000000D02*
X160930000Y-137600000D01*
X157230000Y-137000000D02*
X152730000Y-137000000D01*
X152730000Y-137000000D02*
X152430000Y-136700000D01*
X152430000Y-136700000D02*
X151753766Y-137376234D01*
X151753766Y-137376234D02*
X149544291Y-137376234D01*
X160782000Y-133352000D02*
X160930000Y-133500000D01*
X160930000Y-133500000D02*
X160930000Y-137600000D01*
X160782000Y-131826000D02*
X160782000Y-133352000D01*
X147130000Y-144400000D02*
X145282400Y-144400000D01*
X145282400Y-144400000D02*
X141000000Y-148682400D01*
X141000000Y-148682400D02*
X141000000Y-150000000D01*
X149544291Y-137376234D02*
X149544291Y-135785709D01*
X149544291Y-135785709D02*
X150530000Y-134800000D01*
X151430000Y-133000000D02*
X151430000Y-126155000D01*
X151430000Y-126155000D02*
X152985000Y-124600000D01*
X150759999Y-133670001D02*
X151430000Y-133000000D01*
X150530000Y-134800000D02*
X150759999Y-134570001D01*
X150759999Y-134570001D02*
X150759999Y-133670001D01*
X152985000Y-124600000D02*
X152985000Y-111595000D01*
X152985000Y-111595000D02*
X153080000Y-111500000D01*
X163630000Y-129000000D02*
X163630000Y-120278500D01*
X163630000Y-120278500D02*
X165354000Y-118554500D01*
X161565999Y-131064001D02*
X163630000Y-129000000D01*
X160782000Y-131826000D02*
X161543999Y-131064001D01*
X161543999Y-131064001D02*
X161565999Y-131064001D01*
X161330000Y-142330000D02*
X161250000Y-142250000D01*
X161439999Y-144530001D02*
X161599999Y-144530001D01*
X161130000Y-144840000D02*
X161439999Y-144530001D01*
X161599999Y-142599999D02*
X161330000Y-142330000D01*
X161599999Y-144530001D02*
X161599999Y-142599999D01*
X161210000Y-144760000D02*
X161130000Y-144840000D01*
X161200000Y-146050000D02*
X162470000Y-147320000D01*
X162470000Y-147320000D02*
X170180000Y-147320000D01*
X161210000Y-144760000D02*
X161210000Y-146040000D01*
X161210000Y-146040000D02*
X161200000Y-146050000D01*
X157827577Y-143870000D02*
X157769979Y-143812402D01*
D23*
G36*
X165711767Y-109798720D02*
X165119675Y-111224635D01*
X165118328Y-112768592D01*
X165707930Y-114195538D01*
X166798720Y-115288233D01*
X168224635Y-115880325D01*
X169768592Y-115881672D01*
X171195538Y-115292070D01*
X172003000Y-114486016D01*
X172003000Y-155514887D01*
X171201280Y-154711767D01*
X169775365Y-154119675D01*
X168231408Y-154118328D01*
X166804462Y-154707930D01*
X165711767Y-155798720D01*
X165119675Y-157224635D01*
X165118328Y-158768592D01*
X165707930Y-160195538D01*
X166284385Y-160773000D01*
X143215515Y-160773000D01*
X143788233Y-160201280D01*
X144361694Y-158820231D01*
X146635400Y-158820231D01*
X146635400Y-159179769D01*
X146730140Y-159656057D01*
X146999935Y-160059834D01*
X147403712Y-160329629D01*
X147880000Y-160424369D01*
X148356288Y-160329629D01*
X148760065Y-160059834D01*
X149029860Y-159656057D01*
X149124600Y-159179769D01*
X149124600Y-158820231D01*
X149175400Y-158820231D01*
X149175400Y-159179769D01*
X149270140Y-159656057D01*
X149539935Y-160059834D01*
X149943712Y-160329629D01*
X150420000Y-160424369D01*
X150896288Y-160329629D01*
X151300065Y-160059834D01*
X151569860Y-159656057D01*
X151664600Y-159179769D01*
X151664600Y-158820231D01*
X151715400Y-158820231D01*
X151715400Y-159179769D01*
X151810140Y-159656057D01*
X152079935Y-160059834D01*
X152483712Y-160329629D01*
X152960000Y-160424369D01*
X153436288Y-160329629D01*
X153840065Y-160059834D01*
X154109860Y-159656057D01*
X154204600Y-159179769D01*
X154204600Y-158820231D01*
X154109860Y-158343943D01*
X153869354Y-157984000D01*
X154247936Y-157984000D01*
X154247936Y-160016000D01*
X154274503Y-160157190D01*
X154357946Y-160286865D01*
X154485266Y-160373859D01*
X154636400Y-160404464D01*
X156363600Y-160404464D01*
X156504790Y-160377897D01*
X156634465Y-160294454D01*
X156721459Y-160167134D01*
X156752064Y-160016000D01*
X156752064Y-157984000D01*
X156725497Y-157842810D01*
X156642054Y-157713135D01*
X156514734Y-157626141D01*
X156363600Y-157595536D01*
X154636400Y-157595536D01*
X154495210Y-157622103D01*
X154365535Y-157705546D01*
X154278541Y-157832866D01*
X154247936Y-157984000D01*
X153869354Y-157984000D01*
X153840065Y-157940166D01*
X153436288Y-157670371D01*
X152960000Y-157575631D01*
X152483712Y-157670371D01*
X152079935Y-157940166D01*
X151810140Y-158343943D01*
X151715400Y-158820231D01*
X151664600Y-158820231D01*
X151569860Y-158343943D01*
X151300065Y-157940166D01*
X150896288Y-157670371D01*
X150420000Y-157575631D01*
X149943712Y-157670371D01*
X149539935Y-157940166D01*
X149270140Y-158343943D01*
X149175400Y-158820231D01*
X149124600Y-158820231D01*
X149029860Y-158343943D01*
X148760065Y-157940166D01*
X148356288Y-157670371D01*
X147880000Y-157575631D01*
X147403712Y-157670371D01*
X146999935Y-157940166D01*
X146730140Y-158343943D01*
X146635400Y-158820231D01*
X144361694Y-158820231D01*
X144380325Y-158775365D01*
X144381672Y-157231408D01*
X143792070Y-155804462D01*
X142701280Y-154711767D01*
X141275365Y-154119675D01*
X139731408Y-154118328D01*
X138304462Y-154707930D01*
X137757000Y-155254438D01*
X137757000Y-150285750D01*
X139247400Y-150285750D01*
X139247400Y-151243910D01*
X139344073Y-151477299D01*
X139522702Y-151655927D01*
X139756091Y-151752600D01*
X140714250Y-151752600D01*
X140873000Y-151593850D01*
X140873000Y-150127000D01*
X141127000Y-150127000D01*
X141127000Y-151593850D01*
X141285750Y-151752600D01*
X142243909Y-151752600D01*
X142477298Y-151655927D01*
X142655927Y-151477299D01*
X142752600Y-151243910D01*
X142752600Y-150632400D01*
X147418936Y-150632400D01*
X147418936Y-152867600D01*
X147445503Y-153008790D01*
X147528946Y-153138465D01*
X147656266Y-153225459D01*
X147807400Y-153256064D01*
X150042600Y-153256064D01*
X150183790Y-153229497D01*
X150313465Y-153146054D01*
X150400459Y-153018734D01*
X150431064Y-152867600D01*
X150431064Y-150632400D01*
X150404497Y-150491210D01*
X150321054Y-150361535D01*
X150193734Y-150274541D01*
X150042600Y-150243936D01*
X147807400Y-150243936D01*
X147666210Y-150270503D01*
X147536535Y-150353946D01*
X147449541Y-150481266D01*
X147418936Y-150632400D01*
X142752600Y-150632400D01*
X142752600Y-150285750D01*
X142593850Y-150127000D01*
X141127000Y-150127000D01*
X140873000Y-150127000D01*
X139406150Y-150127000D01*
X139247400Y-150285750D01*
X137757000Y-150285750D01*
X137757000Y-148756090D01*
X139247400Y-148756090D01*
X139247400Y-149714250D01*
X139406150Y-149873000D01*
X140873000Y-149873000D01*
X140873000Y-148406150D01*
X141127000Y-148406150D01*
X141127000Y-149873000D01*
X142593850Y-149873000D01*
X142752600Y-149714250D01*
X142752600Y-148756090D01*
X142655927Y-148522701D01*
X142477298Y-148344073D01*
X142243909Y-148247400D01*
X141285750Y-148247400D01*
X141127000Y-148406150D01*
X140873000Y-148406150D01*
X140714250Y-148247400D01*
X139756091Y-148247400D01*
X139522702Y-148344073D01*
X139344073Y-148522701D01*
X139247400Y-148756090D01*
X137757000Y-148756090D01*
X137757000Y-147872631D01*
X144938000Y-147872631D01*
X144938000Y-147927369D01*
X145044340Y-148461978D01*
X145347172Y-148915197D01*
X145800391Y-149218029D01*
X146335000Y-149324369D01*
X146869609Y-149218029D01*
X147322828Y-148915197D01*
X147470536Y-148694137D01*
X147470536Y-148916000D01*
X147497103Y-149057190D01*
X147580546Y-149186865D01*
X147707866Y-149273859D01*
X147859000Y-149304464D01*
X149891000Y-149304464D01*
X150032190Y-149277897D01*
X150161865Y-149194454D01*
X150248859Y-149067134D01*
X150279464Y-148916000D01*
X150279464Y-147605750D01*
X168427400Y-147605750D01*
X168427400Y-148563909D01*
X168524073Y-148797298D01*
X168702701Y-148975927D01*
X168936090Y-149072600D01*
X169894250Y-149072600D01*
X170053000Y-148913850D01*
X170053000Y-147447000D01*
X170307000Y-147447000D01*
X170307000Y-148913850D01*
X170465750Y-149072600D01*
X171423910Y-149072600D01*
X171657299Y-148975927D01*
X171835927Y-148797298D01*
X171932600Y-148563909D01*
X171932600Y-147605750D01*
X171773850Y-147447000D01*
X170307000Y-147447000D01*
X170053000Y-147447000D01*
X168586150Y-147447000D01*
X168427400Y-147605750D01*
X150279464Y-147605750D01*
X150279464Y-146884000D01*
X150252897Y-146742810D01*
X150169454Y-146613135D01*
X150042134Y-146526141D01*
X149891000Y-146495536D01*
X147859000Y-146495536D01*
X147717810Y-146522103D01*
X147588135Y-146605546D01*
X147501141Y-146732866D01*
X147470536Y-146884000D01*
X147470536Y-147105863D01*
X147322828Y-146884803D01*
X146869609Y-146581971D01*
X146335000Y-146475631D01*
X145800391Y-146581971D01*
X145347172Y-146884803D01*
X145044340Y-147338022D01*
X144938000Y-147872631D01*
X137757000Y-147872631D01*
X137757000Y-143027400D01*
X139590936Y-143027400D01*
X139590936Y-145262600D01*
X139617503Y-145403790D01*
X139700946Y-145533465D01*
X139828266Y-145620459D01*
X139979400Y-145651064D01*
X142214600Y-145651064D01*
X142355790Y-145624497D01*
X142485465Y-145541054D01*
X142572459Y-145413734D01*
X142603064Y-145262600D01*
X142603064Y-144772034D01*
X149847626Y-144772034D01*
X149940450Y-144996683D01*
X150099041Y-145155552D01*
X150032478Y-145315852D01*
X150032266Y-145558923D01*
X150125090Y-145783572D01*
X150296817Y-145955599D01*
X150521303Y-146048815D01*
X150764374Y-146049027D01*
X150989023Y-145956203D01*
X151000262Y-145944984D01*
X151056587Y-146001407D01*
X151281073Y-146094623D01*
X151524144Y-146094835D01*
X151569507Y-146076091D01*
X168427400Y-146076091D01*
X168427400Y-147034250D01*
X168586150Y-147193000D01*
X170053000Y-147193000D01*
X170053000Y-147173000D01*
X170307000Y-147173000D01*
X170307000Y-147193000D01*
X171773850Y-147193000D01*
X171932600Y-147034250D01*
X171932600Y-146076091D01*
X171835927Y-145842702D01*
X171686064Y-145692838D01*
X171686064Y-143662400D01*
X171659497Y-143521210D01*
X171653404Y-143511741D01*
X171655459Y-143508734D01*
X171686064Y-143357600D01*
X171686064Y-141122400D01*
X171659497Y-140981210D01*
X171653404Y-140971741D01*
X171655459Y-140968734D01*
X171686064Y-140817600D01*
X171686064Y-138582400D01*
X171659497Y-138441210D01*
X171653404Y-138431741D01*
X171655459Y-138428734D01*
X171686064Y-138277600D01*
X171686064Y-136042400D01*
X171659497Y-135901210D01*
X171653404Y-135891741D01*
X171655459Y-135888734D01*
X171686064Y-135737600D01*
X171686064Y-133502400D01*
X171659497Y-133361210D01*
X171576054Y-133231535D01*
X171448734Y-133144541D01*
X171297600Y-133113936D01*
X169062400Y-133113936D01*
X168921210Y-133140503D01*
X168791535Y-133223946D01*
X168704541Y-133351266D01*
X168673936Y-133502400D01*
X168673936Y-135737600D01*
X168700503Y-135878790D01*
X168706596Y-135888259D01*
X168704541Y-135891266D01*
X168673936Y-136042400D01*
X168673936Y-138277600D01*
X168700503Y-138418790D01*
X168706596Y-138428259D01*
X168704541Y-138431266D01*
X168673936Y-138582400D01*
X168673936Y-140817600D01*
X168700503Y-140958790D01*
X168706596Y-140968259D01*
X168704541Y-140971266D01*
X168673936Y-141122400D01*
X168673936Y-143357600D01*
X168700503Y-143498790D01*
X168706596Y-143508259D01*
X168704541Y-143511266D01*
X168673936Y-143662400D01*
X168673936Y-145692838D01*
X168524073Y-145842702D01*
X168427400Y-146076091D01*
X151569507Y-146076091D01*
X151748793Y-146002011D01*
X151920820Y-145830284D01*
X152014036Y-145605798D01*
X152014248Y-145362727D01*
X151921424Y-145138078D01*
X151749697Y-144966051D01*
X151525211Y-144872835D01*
X151282140Y-144872623D01*
X151057491Y-144965447D01*
X151046252Y-144976666D01*
X151003063Y-144933401D01*
X151069626Y-144773101D01*
X151069838Y-144530030D01*
X150993261Y-144344701D01*
X151087678Y-144250448D01*
X151180894Y-144025962D01*
X151180974Y-143933404D01*
X157158873Y-143933404D01*
X157251697Y-144158053D01*
X157423424Y-144330080D01*
X157517576Y-144369176D01*
X157507668Y-144393038D01*
X157507456Y-144636109D01*
X157512228Y-144647658D01*
X157444777Y-144675529D01*
X157272750Y-144847256D01*
X157179534Y-145071742D01*
X157179322Y-145314813D01*
X157272146Y-145539462D01*
X157443873Y-145711489D01*
X157668359Y-145804705D01*
X157911430Y-145804917D01*
X158136079Y-145712093D01*
X158308106Y-145540366D01*
X158401322Y-145315880D01*
X158401534Y-145072809D01*
X158396762Y-145061260D01*
X158464213Y-145033389D01*
X158636240Y-144861662D01*
X158729456Y-144637176D01*
X158729668Y-144394105D01*
X158636844Y-144169456D01*
X158465117Y-143997429D01*
X158449640Y-143991002D01*
X160498883Y-143991002D01*
X160591707Y-144215651D01*
X160763434Y-144387678D01*
X160987920Y-144480894D01*
X161230991Y-144481106D01*
X161455640Y-144388282D01*
X161627667Y-144216555D01*
X161720883Y-143992069D01*
X161721095Y-143748998D01*
X161628271Y-143524349D01*
X161456544Y-143352322D01*
X161232058Y-143259106D01*
X160988987Y-143258894D01*
X160764338Y-143351718D01*
X160592311Y-143523445D01*
X160499095Y-143747931D01*
X160498883Y-143991002D01*
X158449640Y-143991002D01*
X158370965Y-143958333D01*
X158380873Y-143934471D01*
X158381085Y-143691400D01*
X158288261Y-143466751D01*
X158116534Y-143294724D01*
X157892048Y-143201508D01*
X157648977Y-143201296D01*
X157424328Y-143294120D01*
X157252301Y-143465847D01*
X157159085Y-143690333D01*
X157158873Y-143933404D01*
X151180974Y-143933404D01*
X151181106Y-143782891D01*
X151147855Y-143702419D01*
X151183325Y-143687763D01*
X151355352Y-143516036D01*
X151448568Y-143291550D01*
X151448780Y-143048479D01*
X151355956Y-142823830D01*
X151184229Y-142651803D01*
X150959743Y-142558587D01*
X150716672Y-142558375D01*
X150492023Y-142651199D01*
X150319996Y-142822926D01*
X150226780Y-143047412D01*
X150226568Y-143290483D01*
X150259819Y-143370955D01*
X150224349Y-143385611D01*
X150052322Y-143557338D01*
X149959106Y-143781824D01*
X149958894Y-144024895D01*
X150035471Y-144210224D01*
X149941054Y-144304477D01*
X149847838Y-144528963D01*
X149847626Y-144772034D01*
X142603064Y-144772034D01*
X142603064Y-143027400D01*
X142576497Y-142886210D01*
X142493054Y-142756535D01*
X142365734Y-142669541D01*
X142214600Y-142638936D01*
X139979400Y-142638936D01*
X139838210Y-142665503D01*
X139708535Y-142748946D01*
X139621541Y-142876266D01*
X139590936Y-143027400D01*
X137757000Y-143027400D01*
X137757000Y-141621002D01*
X157388894Y-141621002D01*
X157481718Y-141845651D01*
X157653445Y-142017678D01*
X157877931Y-142110894D01*
X158121002Y-142111106D01*
X158345651Y-142018282D01*
X158517678Y-141846555D01*
X158610894Y-141622069D01*
X158611106Y-141378998D01*
X158518282Y-141154349D01*
X158346555Y-140982322D01*
X158122069Y-140889106D01*
X157878998Y-140888894D01*
X157654349Y-140981718D01*
X157482322Y-141153445D01*
X157389106Y-141377931D01*
X157388894Y-141621002D01*
X137757000Y-141621002D01*
X137757000Y-135953500D01*
X139057536Y-135953500D01*
X139057536Y-137985500D01*
X139084103Y-138126690D01*
X139167546Y-138256365D01*
X139294866Y-138343359D01*
X139446000Y-138373964D01*
X139654272Y-138373964D01*
X139474172Y-138494303D01*
X139171340Y-138947522D01*
X139065000Y-139482131D01*
X139065000Y-139536869D01*
X139171340Y-140071478D01*
X139474172Y-140524697D01*
X139927391Y-140827529D01*
X140462000Y-140933869D01*
X140996609Y-140827529D01*
X141449828Y-140524697D01*
X141752660Y-140071478D01*
X141827346Y-139696002D01*
X151063894Y-139696002D01*
X151156718Y-139920651D01*
X151328445Y-140092678D01*
X151552931Y-140185894D01*
X151796002Y-140186106D01*
X151942097Y-140125740D01*
X152305106Y-140125740D01*
X152397930Y-140350389D01*
X152569657Y-140522416D01*
X152794143Y-140615632D01*
X153037214Y-140615844D01*
X153261863Y-140523020D01*
X153433890Y-140351293D01*
X153522745Y-140137309D01*
X153527762Y-140142334D01*
X153752248Y-140235550D01*
X153995319Y-140235762D01*
X154201477Y-140150578D01*
X156065298Y-140150578D01*
X156158122Y-140375227D01*
X156329849Y-140547254D01*
X156554335Y-140640470D01*
X156797406Y-140640682D01*
X157022055Y-140547858D01*
X157194082Y-140376131D01*
X157287298Y-140151645D01*
X157287510Y-139908574D01*
X157194686Y-139683925D01*
X157022959Y-139511898D01*
X156798473Y-139418682D01*
X156555402Y-139418470D01*
X156330753Y-139511294D01*
X156158726Y-139683021D01*
X156065510Y-139907507D01*
X156065298Y-140150578D01*
X154201477Y-140150578D01*
X154219968Y-140142938D01*
X154391995Y-139971211D01*
X154485211Y-139746725D01*
X154485423Y-139503654D01*
X154392599Y-139279005D01*
X154334776Y-139221081D01*
X154558769Y-139128528D01*
X154730796Y-138956801D01*
X154824012Y-138732315D01*
X154824137Y-138588495D01*
X154942034Y-138588495D01*
X155034858Y-138813144D01*
X155206585Y-138985171D01*
X155431071Y-139078387D01*
X155674142Y-139078599D01*
X155835712Y-139011839D01*
X155933179Y-139109476D01*
X156157665Y-139202692D01*
X156400736Y-139202904D01*
X156598952Y-139121002D01*
X160418894Y-139121002D01*
X160511718Y-139345651D01*
X160683445Y-139517678D01*
X160907931Y-139610894D01*
X161151002Y-139611106D01*
X161375651Y-139518282D01*
X161547678Y-139346555D01*
X161640894Y-139122069D01*
X161641106Y-138878998D01*
X161548282Y-138654349D01*
X161376555Y-138482322D01*
X161152069Y-138389106D01*
X160908998Y-138388894D01*
X160684349Y-138481718D01*
X160512322Y-138653445D01*
X160419106Y-138877931D01*
X160418894Y-139121002D01*
X156598952Y-139121002D01*
X156625385Y-139110080D01*
X156797412Y-138938353D01*
X156890628Y-138713867D01*
X156890840Y-138470796D01*
X156798016Y-138246147D01*
X156626289Y-138074120D01*
X156401803Y-137980904D01*
X156158732Y-137980692D01*
X155997162Y-138047452D01*
X155899695Y-137949815D01*
X155675209Y-137856599D01*
X155432138Y-137856387D01*
X155207489Y-137949211D01*
X155035462Y-138120938D01*
X154942246Y-138345424D01*
X154942034Y-138588495D01*
X154824137Y-138588495D01*
X154824224Y-138489244D01*
X154731400Y-138264595D01*
X154559673Y-138092568D01*
X154335187Y-137999352D01*
X154092116Y-137999140D01*
X153867467Y-138091964D01*
X153695440Y-138263691D01*
X153602224Y-138488177D01*
X153602012Y-138731248D01*
X153694836Y-138955897D01*
X153752659Y-139013821D01*
X153528666Y-139106374D01*
X153356639Y-139278101D01*
X153267784Y-139492085D01*
X153262767Y-139487060D01*
X153038281Y-139393844D01*
X152795210Y-139393632D01*
X152570561Y-139486456D01*
X152398534Y-139658183D01*
X152305318Y-139882669D01*
X152305106Y-140125740D01*
X151942097Y-140125740D01*
X152020651Y-140093282D01*
X152192678Y-139921555D01*
X152285894Y-139697069D01*
X152286106Y-139453998D01*
X152193282Y-139229349D01*
X152021555Y-139057322D01*
X151797069Y-138964106D01*
X151553998Y-138963894D01*
X151329349Y-139056718D01*
X151157322Y-139228445D01*
X151064106Y-139452931D01*
X151063894Y-139696002D01*
X141827346Y-139696002D01*
X141859000Y-139536869D01*
X141859000Y-139482131D01*
X141752660Y-138947522D01*
X141449828Y-138494303D01*
X141269728Y-138373964D01*
X141478000Y-138373964D01*
X141619190Y-138347397D01*
X141748865Y-138263954D01*
X141835859Y-138136634D01*
X141866464Y-137985500D01*
X141866464Y-135953500D01*
X141839897Y-135812310D01*
X141827086Y-135792400D01*
X143873936Y-135792400D01*
X143873936Y-138027600D01*
X143900503Y-138168790D01*
X143983946Y-138298465D01*
X144111266Y-138385459D01*
X144262400Y-138416064D01*
X146497600Y-138416064D01*
X146638790Y-138389497D01*
X146768465Y-138306054D01*
X146855459Y-138178734D01*
X146886064Y-138027600D01*
X146886064Y-136051002D01*
X159258894Y-136051002D01*
X159351718Y-136275651D01*
X159523445Y-136447678D01*
X159747931Y-136540894D01*
X159991002Y-136541106D01*
X160215651Y-136448282D01*
X160387678Y-136276555D01*
X160480894Y-136052069D01*
X160481106Y-135808998D01*
X160388282Y-135584349D01*
X160216555Y-135412322D01*
X159992069Y-135319106D01*
X159748998Y-135318894D01*
X159524349Y-135411718D01*
X159352322Y-135583445D01*
X159259106Y-135807931D01*
X159258894Y-136051002D01*
X146886064Y-136051002D01*
X146886064Y-135792400D01*
X146859497Y-135651210D01*
X146776054Y-135521535D01*
X146648734Y-135434541D01*
X146497600Y-135403936D01*
X144262400Y-135403936D01*
X144121210Y-135430503D01*
X143991535Y-135513946D01*
X143904541Y-135641266D01*
X143873936Y-135792400D01*
X141827086Y-135792400D01*
X141756454Y-135682635D01*
X141629134Y-135595641D01*
X141478000Y-135565036D01*
X139446000Y-135565036D01*
X139304810Y-135591603D01*
X139175135Y-135675046D01*
X139088141Y-135802366D01*
X139057536Y-135953500D01*
X137757000Y-135953500D01*
X137757000Y-134021002D01*
X146968894Y-134021002D01*
X147061718Y-134245651D01*
X147233445Y-134417678D01*
X147457931Y-134510894D01*
X147701002Y-134511106D01*
X147925651Y-134418282D01*
X148097678Y-134246555D01*
X148190894Y-134022069D01*
X148191106Y-133778998D01*
X148098282Y-133554349D01*
X147926555Y-133382322D01*
X147702069Y-133289106D01*
X147458998Y-133288894D01*
X147234349Y-133381718D01*
X147062322Y-133553445D01*
X146969106Y-133777931D01*
X146968894Y-134021002D01*
X137757000Y-134021002D01*
X137757000Y-130396385D01*
X137770866Y-130405859D01*
X137922000Y-130436464D01*
X139954000Y-130436464D01*
X140095190Y-130409897D01*
X140224865Y-130326454D01*
X140311859Y-130199134D01*
X140335497Y-130082400D01*
X143643936Y-130082400D01*
X143643936Y-132317600D01*
X143670503Y-132458790D01*
X143753946Y-132588465D01*
X143881266Y-132675459D01*
X144032400Y-132706064D01*
X146267600Y-132706064D01*
X146408790Y-132679497D01*
X146538465Y-132596054D01*
X146625459Y-132468734D01*
X146656064Y-132317600D01*
X146656064Y-132021002D01*
X149918894Y-132021002D01*
X150011718Y-132245651D01*
X150183445Y-132417678D01*
X150407931Y-132510894D01*
X150651002Y-132511106D01*
X150696951Y-132492120D01*
X156681725Y-132492120D01*
X156774549Y-132716769D01*
X156946276Y-132888796D01*
X157170762Y-132982012D01*
X157413833Y-132982224D01*
X157638482Y-132889400D01*
X157721814Y-132806213D01*
X159981392Y-132806213D01*
X160050857Y-133048397D01*
X160574302Y-133235144D01*
X161129368Y-133207362D01*
X161513143Y-133048397D01*
X161582608Y-132806213D01*
X160782000Y-132005605D01*
X159981392Y-132806213D01*
X157721814Y-132806213D01*
X157810509Y-132717673D01*
X157903725Y-132493187D01*
X157903937Y-132250116D01*
X157811113Y-132025467D01*
X157639386Y-131853440D01*
X157414900Y-131760224D01*
X157171829Y-131760012D01*
X156947180Y-131852836D01*
X156775153Y-132024563D01*
X156681937Y-132249049D01*
X156681725Y-132492120D01*
X150696951Y-132492120D01*
X150875651Y-132418282D01*
X151047678Y-132246555D01*
X151140894Y-132022069D01*
X151141106Y-131778998D01*
X151074708Y-131618302D01*
X159372856Y-131618302D01*
X159400638Y-132173368D01*
X159559603Y-132557143D01*
X159801787Y-132626608D01*
X160602395Y-131826000D01*
X160961605Y-131826000D01*
X161762213Y-132626608D01*
X162004397Y-132557143D01*
X162191144Y-132033698D01*
X162163362Y-131478632D01*
X162004397Y-131094857D01*
X161762213Y-131025392D01*
X160961605Y-131826000D01*
X160602395Y-131826000D01*
X159801787Y-131025392D01*
X159559603Y-131094857D01*
X159372856Y-131618302D01*
X151074708Y-131618302D01*
X151048282Y-131554349D01*
X150876555Y-131382322D01*
X150652069Y-131289106D01*
X150408998Y-131288894D01*
X150184349Y-131381718D01*
X150012322Y-131553445D01*
X149919106Y-131777931D01*
X149918894Y-132021002D01*
X146656064Y-132021002D01*
X146656064Y-130721002D01*
X149668894Y-130721002D01*
X149761718Y-130945651D01*
X149933445Y-131117678D01*
X150157931Y-131210894D01*
X150401002Y-131211106D01*
X150625651Y-131118282D01*
X150797678Y-130946555D01*
X150890894Y-130722069D01*
X150891106Y-130478998D01*
X150798282Y-130254349D01*
X150626555Y-130082322D01*
X150402069Y-129989106D01*
X150158998Y-129988894D01*
X149934349Y-130081718D01*
X149762322Y-130253445D01*
X149669106Y-130477931D01*
X149668894Y-130721002D01*
X146656064Y-130721002D01*
X146656064Y-130082400D01*
X146631340Y-129951002D01*
X151548894Y-129951002D01*
X151641718Y-130175651D01*
X151813445Y-130347678D01*
X152037931Y-130440894D01*
X152281002Y-130441106D01*
X152505651Y-130348282D01*
X152677678Y-130176555D01*
X152770894Y-129952069D01*
X152771106Y-129708998D01*
X152689856Y-129512359D01*
X159638802Y-129512359D01*
X159812446Y-129932612D01*
X160133697Y-130254423D01*
X160553646Y-130428801D01*
X160747660Y-130428970D01*
X160434632Y-130444638D01*
X160050857Y-130603603D01*
X159981392Y-130845787D01*
X160782000Y-131646395D01*
X161582608Y-130845787D01*
X161513143Y-130603603D01*
X161015742Y-130426148D01*
X161428612Y-130255554D01*
X161750423Y-129934303D01*
X161924801Y-129514354D01*
X161925198Y-129059641D01*
X161751554Y-128639388D01*
X161545656Y-128433131D01*
X164465000Y-128433131D01*
X164465000Y-128487869D01*
X164571340Y-129022478D01*
X164874172Y-129475697D01*
X165327391Y-129778529D01*
X165862000Y-129884869D01*
X166396609Y-129778529D01*
X166849828Y-129475697D01*
X166997536Y-129254637D01*
X166997536Y-129476500D01*
X167024103Y-129617690D01*
X167107546Y-129747365D01*
X167234866Y-129834359D01*
X167386000Y-129864964D01*
X169418000Y-129864964D01*
X169559190Y-129838397D01*
X169688865Y-129754954D01*
X169775859Y-129627634D01*
X169806464Y-129476500D01*
X169806464Y-127444500D01*
X169779897Y-127303310D01*
X169696454Y-127173635D01*
X169569134Y-127086641D01*
X169418000Y-127056036D01*
X167386000Y-127056036D01*
X167244810Y-127082603D01*
X167115135Y-127166046D01*
X167028141Y-127293366D01*
X166997536Y-127444500D01*
X166997536Y-127666363D01*
X166849828Y-127445303D01*
X166396609Y-127142471D01*
X165862000Y-127036131D01*
X165327391Y-127142471D01*
X164874172Y-127445303D01*
X164571340Y-127898522D01*
X164465000Y-128433131D01*
X161545656Y-128433131D01*
X161430303Y-128317577D01*
X161010354Y-128143199D01*
X160555641Y-128142802D01*
X160135388Y-128316446D01*
X159813577Y-128637697D01*
X159639199Y-129057646D01*
X159638802Y-129512359D01*
X152689856Y-129512359D01*
X152678282Y-129484349D01*
X152506555Y-129312322D01*
X152282069Y-129219106D01*
X152038998Y-129218894D01*
X151814349Y-129311718D01*
X151642322Y-129483445D01*
X151549106Y-129707931D01*
X151548894Y-129951002D01*
X146631340Y-129951002D01*
X146629497Y-129941210D01*
X146546054Y-129811535D01*
X146418734Y-129724541D01*
X146267600Y-129693936D01*
X144032400Y-129693936D01*
X143891210Y-129720503D01*
X143761535Y-129803946D01*
X143674541Y-129931266D01*
X143643936Y-130082400D01*
X140335497Y-130082400D01*
X140342464Y-130048000D01*
X140342464Y-128978796D01*
X147559387Y-128978796D01*
X147652211Y-129203445D01*
X147823938Y-129375472D01*
X148048424Y-129468688D01*
X148291495Y-129468900D01*
X148516144Y-129376076D01*
X148688171Y-129204349D01*
X148781387Y-128979863D01*
X148781599Y-128736792D01*
X148688775Y-128512143D01*
X148517048Y-128340116D01*
X148292562Y-128246900D01*
X148049491Y-128246688D01*
X147824842Y-128339512D01*
X147652815Y-128511239D01*
X147559599Y-128735725D01*
X147559387Y-128978796D01*
X140342464Y-128978796D01*
X140342464Y-128016000D01*
X140315897Y-127874810D01*
X140232454Y-127745135D01*
X140105134Y-127658141D01*
X139954000Y-127627536D01*
X139732137Y-127627536D01*
X139953197Y-127479828D01*
X140256029Y-127026609D01*
X140362369Y-126492000D01*
X140256029Y-125957391D01*
X139953197Y-125504172D01*
X139499978Y-125201340D01*
X138965369Y-125095000D01*
X138910631Y-125095000D01*
X138376022Y-125201340D01*
X137922803Y-125504172D01*
X137757000Y-125752313D01*
X137757000Y-124959027D01*
X151530032Y-124959027D01*
X151778179Y-125488490D01*
X152210053Y-125882688D01*
X152222724Y-125887936D01*
X152121400Y-125887936D01*
X151980210Y-125914503D01*
X151850535Y-125997946D01*
X151763541Y-126125266D01*
X151732936Y-126276400D01*
X151732936Y-128003600D01*
X151759503Y-128144790D01*
X151842946Y-128274465D01*
X151970266Y-128361459D01*
X152121400Y-128392064D01*
X153848600Y-128392064D01*
X153989790Y-128365497D01*
X154119465Y-128282054D01*
X154206459Y-128154734D01*
X154237064Y-128003600D01*
X154237064Y-127115617D01*
X154280400Y-127115617D01*
X154280400Y-127164383D01*
X154375140Y-127640671D01*
X154644935Y-128044448D01*
X155048712Y-128314243D01*
X155525000Y-128408983D01*
X156001288Y-128314243D01*
X156405065Y-128044448D01*
X156674860Y-127640671D01*
X156769600Y-127164383D01*
X156769600Y-127115617D01*
X156741105Y-126972359D01*
X159638802Y-126972359D01*
X159812446Y-127392612D01*
X160133697Y-127714423D01*
X160553646Y-127888801D01*
X161008359Y-127889198D01*
X161428612Y-127715554D01*
X161750423Y-127394303D01*
X161924801Y-126974354D01*
X161925198Y-126519641D01*
X161751554Y-126099388D01*
X161430303Y-125777577D01*
X161010354Y-125603199D01*
X160555641Y-125602802D01*
X160135388Y-125776446D01*
X159813577Y-126097697D01*
X159639199Y-126517646D01*
X159638802Y-126972359D01*
X156741105Y-126972359D01*
X156674860Y-126639329D01*
X156405065Y-126235552D01*
X156001288Y-125965757D01*
X155525000Y-125871017D01*
X155048712Y-125965757D01*
X154644935Y-126235552D01*
X154375140Y-126639329D01*
X154280400Y-127115617D01*
X154237064Y-127115617D01*
X154237064Y-126276400D01*
X154210497Y-126135210D01*
X154127054Y-126005535D01*
X153999734Y-125918541D01*
X153848600Y-125887936D01*
X153747276Y-125887936D01*
X153759947Y-125882688D01*
X154191821Y-125488490D01*
X154374676Y-125098338D01*
X154375140Y-125100671D01*
X154644935Y-125504448D01*
X155048712Y-125774243D01*
X155525000Y-125868983D01*
X156001288Y-125774243D01*
X156405065Y-125504448D01*
X156674860Y-125100671D01*
X156769600Y-124624383D01*
X156769600Y-124575617D01*
X156674860Y-124099329D01*
X156405065Y-123695552D01*
X156001288Y-123425757D01*
X155525000Y-123331017D01*
X155048712Y-123425757D01*
X154644935Y-123695552D01*
X154375140Y-124099329D01*
X154374676Y-124101662D01*
X154191821Y-123711510D01*
X153759947Y-123317312D01*
X153344026Y-123145042D01*
X153112000Y-123266183D01*
X153112000Y-124473000D01*
X153132000Y-124473000D01*
X153132000Y-124727000D01*
X153112000Y-124727000D01*
X153112000Y-124747000D01*
X152858000Y-124747000D01*
X152858000Y-124727000D01*
X151650531Y-124727000D01*
X151530032Y-124959027D01*
X137757000Y-124959027D01*
X137757000Y-124240973D01*
X151530032Y-124240973D01*
X151650531Y-124473000D01*
X152858000Y-124473000D01*
X152858000Y-123266183D01*
X152625974Y-123145042D01*
X152210053Y-123317312D01*
X151778179Y-123711510D01*
X151530032Y-124240973D01*
X137757000Y-124240973D01*
X137757000Y-122181002D01*
X149848894Y-122181002D01*
X149941718Y-122405651D01*
X150113445Y-122577678D01*
X150337931Y-122670894D01*
X150581002Y-122671106D01*
X150805651Y-122578282D01*
X150977678Y-122406555D01*
X151070894Y-122182069D01*
X151070961Y-122104998D01*
X151183445Y-122217678D01*
X151407931Y-122310894D01*
X151651002Y-122311106D01*
X151875651Y-122218282D01*
X152047678Y-122046555D01*
X152140894Y-121822069D01*
X152141106Y-121578998D01*
X152048282Y-121354349D01*
X151876555Y-121182322D01*
X151652069Y-121089106D01*
X151408998Y-121088894D01*
X151184349Y-121181718D01*
X151012322Y-121353445D01*
X150919106Y-121577931D01*
X150919039Y-121655002D01*
X150806555Y-121542322D01*
X150582069Y-121449106D01*
X150338998Y-121448894D01*
X150114349Y-121541718D01*
X149942322Y-121713445D01*
X149849106Y-121937931D01*
X149848894Y-122181002D01*
X137757000Y-122181002D01*
X137757000Y-119982400D01*
X159423936Y-119982400D01*
X159423936Y-122217600D01*
X159450503Y-122358790D01*
X159533946Y-122488465D01*
X159661266Y-122575459D01*
X159812400Y-122606064D01*
X162047600Y-122606064D01*
X162188790Y-122579497D01*
X162318465Y-122496054D01*
X162405459Y-122368734D01*
X162436064Y-122217600D01*
X162436064Y-119982400D01*
X162409497Y-119841210D01*
X162326054Y-119711535D01*
X162198734Y-119624541D01*
X162047600Y-119593936D01*
X159812400Y-119593936D01*
X159671210Y-119620503D01*
X159541535Y-119703946D01*
X159454541Y-119831266D01*
X159423936Y-119982400D01*
X137757000Y-119982400D01*
X137757000Y-118937446D01*
X163748017Y-118937446D01*
X164016812Y-119522879D01*
X164489182Y-119960885D01*
X164971056Y-120160475D01*
X165227000Y-120041336D01*
X165227000Y-118681500D01*
X163866633Y-118681500D01*
X163748017Y-118937446D01*
X137757000Y-118937446D01*
X137757000Y-118171554D01*
X163748017Y-118171554D01*
X163866633Y-118427500D01*
X165227000Y-118427500D01*
X165227000Y-117067664D01*
X165481000Y-117067664D01*
X165481000Y-118427500D01*
X165501000Y-118427500D01*
X165501000Y-118681500D01*
X165481000Y-118681500D01*
X165481000Y-120041336D01*
X165736944Y-120160475D01*
X166218818Y-119960885D01*
X166511863Y-119689158D01*
X166516103Y-119711690D01*
X166599546Y-119841365D01*
X166726866Y-119928359D01*
X166878000Y-119958964D01*
X168910000Y-119958964D01*
X169051190Y-119932397D01*
X169180865Y-119848954D01*
X169267859Y-119721634D01*
X169298464Y-119570500D01*
X169298464Y-117538500D01*
X169271897Y-117397310D01*
X169188454Y-117267635D01*
X169061134Y-117180641D01*
X168910000Y-117150036D01*
X166878000Y-117150036D01*
X166736810Y-117176603D01*
X166607135Y-117260046D01*
X166520141Y-117387366D01*
X166513296Y-117421170D01*
X166218818Y-117148115D01*
X165736944Y-116948525D01*
X165481000Y-117067664D01*
X165227000Y-117067664D01*
X164971056Y-116948525D01*
X164489182Y-117148115D01*
X164016812Y-117586121D01*
X163748017Y-118171554D01*
X137757000Y-118171554D01*
X137757000Y-114745567D01*
X138298720Y-115288233D01*
X139724635Y-115880325D01*
X141268592Y-115881672D01*
X142695538Y-115292070D01*
X143788233Y-114201280D01*
X144380325Y-112775365D01*
X144381672Y-111231408D01*
X144072850Y-110484000D01*
X146747936Y-110484000D01*
X146747936Y-112516000D01*
X146774503Y-112657190D01*
X146857946Y-112786865D01*
X146985266Y-112873859D01*
X147136400Y-112904464D01*
X148863600Y-112904464D01*
X149004790Y-112877897D01*
X149134465Y-112794454D01*
X149221459Y-112667134D01*
X149252064Y-112516000D01*
X149252064Y-111320231D01*
X149295400Y-111320231D01*
X149295400Y-111679769D01*
X149390140Y-112156057D01*
X149659935Y-112559834D01*
X150063712Y-112829629D01*
X150540000Y-112924369D01*
X151016288Y-112829629D01*
X151420065Y-112559834D01*
X151689860Y-112156057D01*
X151692704Y-112141757D01*
X151788046Y-112414320D01*
X152177964Y-112850732D01*
X152705209Y-113104709D01*
X152720974Y-113107358D01*
X152953000Y-112986217D01*
X152953000Y-111627000D01*
X152933000Y-111627000D01*
X152933000Y-111373000D01*
X152953000Y-111373000D01*
X152953000Y-110013783D01*
X153207000Y-110013783D01*
X153207000Y-111373000D01*
X153227000Y-111373000D01*
X153227000Y-111627000D01*
X153207000Y-111627000D01*
X153207000Y-112986217D01*
X153439026Y-113107358D01*
X153454791Y-113104709D01*
X153982036Y-112850732D01*
X154371954Y-112414320D01*
X154467296Y-112141757D01*
X154470140Y-112156057D01*
X154739935Y-112559834D01*
X155143712Y-112829629D01*
X155620000Y-112924369D01*
X156096288Y-112829629D01*
X156500065Y-112559834D01*
X156769860Y-112156057D01*
X156864600Y-111679769D01*
X156864600Y-111320231D01*
X156915400Y-111320231D01*
X156915400Y-111679769D01*
X157010140Y-112156057D01*
X157279935Y-112559834D01*
X157683712Y-112829629D01*
X158160000Y-112924369D01*
X158636288Y-112829629D01*
X159040065Y-112559834D01*
X159309860Y-112156057D01*
X159404600Y-111679769D01*
X159404600Y-111320231D01*
X159455400Y-111320231D01*
X159455400Y-111679769D01*
X159550140Y-112156057D01*
X159819935Y-112559834D01*
X160223712Y-112829629D01*
X160700000Y-112924369D01*
X161176288Y-112829629D01*
X161580065Y-112559834D01*
X161849860Y-112156057D01*
X161944600Y-111679769D01*
X161944600Y-111320231D01*
X161849860Y-110843943D01*
X161580065Y-110440166D01*
X161176288Y-110170371D01*
X160700000Y-110075631D01*
X160223712Y-110170371D01*
X159819935Y-110440166D01*
X159550140Y-110843943D01*
X159455400Y-111320231D01*
X159404600Y-111320231D01*
X159309860Y-110843943D01*
X159040065Y-110440166D01*
X158636288Y-110170371D01*
X158160000Y-110075631D01*
X157683712Y-110170371D01*
X157279935Y-110440166D01*
X157010140Y-110843943D01*
X156915400Y-111320231D01*
X156864600Y-111320231D01*
X156769860Y-110843943D01*
X156500065Y-110440166D01*
X156096288Y-110170371D01*
X155620000Y-110075631D01*
X155143712Y-110170371D01*
X154739935Y-110440166D01*
X154470140Y-110843943D01*
X154467296Y-110858243D01*
X154371954Y-110585680D01*
X153982036Y-110149268D01*
X153454791Y-109895291D01*
X153439026Y-109892642D01*
X153207000Y-110013783D01*
X152953000Y-110013783D01*
X152720974Y-109892642D01*
X152705209Y-109895291D01*
X152177964Y-110149268D01*
X151788046Y-110585680D01*
X151692704Y-110858243D01*
X151689860Y-110843943D01*
X151420065Y-110440166D01*
X151016288Y-110170371D01*
X150540000Y-110075631D01*
X150063712Y-110170371D01*
X149659935Y-110440166D01*
X149390140Y-110843943D01*
X149295400Y-111320231D01*
X149252064Y-111320231D01*
X149252064Y-110484000D01*
X149225497Y-110342810D01*
X149142054Y-110213135D01*
X149014734Y-110126141D01*
X148863600Y-110095536D01*
X147136400Y-110095536D01*
X146995210Y-110122103D01*
X146865535Y-110205546D01*
X146778541Y-110332866D01*
X146747936Y-110484000D01*
X144072850Y-110484000D01*
X143792070Y-109804462D01*
X143015963Y-109027000D01*
X166484835Y-109027000D01*
X165711767Y-109798720D01*
X165711767Y-109798720D01*
G37*
X165711767Y-109798720D02*
X165119675Y-111224635D01*
X165118328Y-112768592D01*
X165707930Y-114195538D01*
X166798720Y-115288233D01*
X168224635Y-115880325D01*
X169768592Y-115881672D01*
X171195538Y-115292070D01*
X172003000Y-114486016D01*
X172003000Y-155514887D01*
X171201280Y-154711767D01*
X169775365Y-154119675D01*
X168231408Y-154118328D01*
X166804462Y-154707930D01*
X165711767Y-155798720D01*
X165119675Y-157224635D01*
X165118328Y-158768592D01*
X165707930Y-160195538D01*
X166284385Y-160773000D01*
X143215515Y-160773000D01*
X143788233Y-160201280D01*
X144361694Y-158820231D01*
X146635400Y-158820231D01*
X146635400Y-159179769D01*
X146730140Y-159656057D01*
X146999935Y-160059834D01*
X147403712Y-160329629D01*
X147880000Y-160424369D01*
X148356288Y-160329629D01*
X148760065Y-160059834D01*
X149029860Y-159656057D01*
X149124600Y-159179769D01*
X149124600Y-158820231D01*
X149175400Y-158820231D01*
X149175400Y-159179769D01*
X149270140Y-159656057D01*
X149539935Y-160059834D01*
X149943712Y-160329629D01*
X150420000Y-160424369D01*
X150896288Y-160329629D01*
X151300065Y-160059834D01*
X151569860Y-159656057D01*
X151664600Y-159179769D01*
X151664600Y-158820231D01*
X151715400Y-158820231D01*
X151715400Y-159179769D01*
X151810140Y-159656057D01*
X152079935Y-160059834D01*
X152483712Y-160329629D01*
X152960000Y-160424369D01*
X153436288Y-160329629D01*
X153840065Y-160059834D01*
X154109860Y-159656057D01*
X154204600Y-159179769D01*
X154204600Y-158820231D01*
X154109860Y-158343943D01*
X153869354Y-157984000D01*
X154247936Y-157984000D01*
X154247936Y-160016000D01*
X154274503Y-160157190D01*
X154357946Y-160286865D01*
X154485266Y-160373859D01*
X154636400Y-160404464D01*
X156363600Y-160404464D01*
X156504790Y-160377897D01*
X156634465Y-160294454D01*
X156721459Y-160167134D01*
X156752064Y-160016000D01*
X156752064Y-157984000D01*
X156725497Y-157842810D01*
X156642054Y-157713135D01*
X156514734Y-157626141D01*
X156363600Y-157595536D01*
X154636400Y-157595536D01*
X154495210Y-157622103D01*
X154365535Y-157705546D01*
X154278541Y-157832866D01*
X154247936Y-157984000D01*
X153869354Y-157984000D01*
X153840065Y-157940166D01*
X153436288Y-157670371D01*
X152960000Y-157575631D01*
X152483712Y-157670371D01*
X152079935Y-157940166D01*
X151810140Y-158343943D01*
X151715400Y-158820231D01*
X151664600Y-158820231D01*
X151569860Y-158343943D01*
X151300065Y-157940166D01*
X150896288Y-157670371D01*
X150420000Y-157575631D01*
X149943712Y-157670371D01*
X149539935Y-157940166D01*
X149270140Y-158343943D01*
X149175400Y-158820231D01*
X149124600Y-158820231D01*
X149029860Y-158343943D01*
X148760065Y-157940166D01*
X148356288Y-157670371D01*
X147880000Y-157575631D01*
X147403712Y-157670371D01*
X146999935Y-157940166D01*
X146730140Y-158343943D01*
X146635400Y-158820231D01*
X144361694Y-158820231D01*
X144380325Y-158775365D01*
X144381672Y-157231408D01*
X143792070Y-155804462D01*
X142701280Y-154711767D01*
X141275365Y-154119675D01*
X139731408Y-154118328D01*
X138304462Y-154707930D01*
X137757000Y-155254438D01*
X137757000Y-150285750D01*
X139247400Y-150285750D01*
X139247400Y-151243910D01*
X139344073Y-151477299D01*
X139522702Y-151655927D01*
X139756091Y-151752600D01*
X140714250Y-151752600D01*
X140873000Y-151593850D01*
X140873000Y-150127000D01*
X141127000Y-150127000D01*
X141127000Y-151593850D01*
X141285750Y-151752600D01*
X142243909Y-151752600D01*
X142477298Y-151655927D01*
X142655927Y-151477299D01*
X142752600Y-151243910D01*
X142752600Y-150632400D01*
X147418936Y-150632400D01*
X147418936Y-152867600D01*
X147445503Y-153008790D01*
X147528946Y-153138465D01*
X147656266Y-153225459D01*
X147807400Y-153256064D01*
X150042600Y-153256064D01*
X150183790Y-153229497D01*
X150313465Y-153146054D01*
X150400459Y-153018734D01*
X150431064Y-152867600D01*
X150431064Y-150632400D01*
X150404497Y-150491210D01*
X150321054Y-150361535D01*
X150193734Y-150274541D01*
X150042600Y-150243936D01*
X147807400Y-150243936D01*
X147666210Y-150270503D01*
X147536535Y-150353946D01*
X147449541Y-150481266D01*
X147418936Y-150632400D01*
X142752600Y-150632400D01*
X142752600Y-150285750D01*
X142593850Y-150127000D01*
X141127000Y-150127000D01*
X140873000Y-150127000D01*
X139406150Y-150127000D01*
X139247400Y-150285750D01*
X137757000Y-150285750D01*
X137757000Y-148756090D01*
X139247400Y-148756090D01*
X139247400Y-149714250D01*
X139406150Y-149873000D01*
X140873000Y-149873000D01*
X140873000Y-148406150D01*
X141127000Y-148406150D01*
X141127000Y-149873000D01*
X142593850Y-149873000D01*
X142752600Y-149714250D01*
X142752600Y-148756090D01*
X142655927Y-148522701D01*
X142477298Y-148344073D01*
X142243909Y-148247400D01*
X141285750Y-148247400D01*
X141127000Y-148406150D01*
X140873000Y-148406150D01*
X140714250Y-148247400D01*
X139756091Y-148247400D01*
X139522702Y-148344073D01*
X139344073Y-148522701D01*
X139247400Y-148756090D01*
X137757000Y-148756090D01*
X137757000Y-147872631D01*
X144938000Y-147872631D01*
X144938000Y-147927369D01*
X145044340Y-148461978D01*
X145347172Y-148915197D01*
X145800391Y-149218029D01*
X146335000Y-149324369D01*
X146869609Y-149218029D01*
X147322828Y-148915197D01*
X147470536Y-148694137D01*
X147470536Y-148916000D01*
X147497103Y-149057190D01*
X147580546Y-149186865D01*
X147707866Y-149273859D01*
X147859000Y-149304464D01*
X149891000Y-149304464D01*
X150032190Y-149277897D01*
X150161865Y-149194454D01*
X150248859Y-149067134D01*
X150279464Y-148916000D01*
X150279464Y-147605750D01*
X168427400Y-147605750D01*
X168427400Y-148563909D01*
X168524073Y-148797298D01*
X168702701Y-148975927D01*
X168936090Y-149072600D01*
X169894250Y-149072600D01*
X170053000Y-148913850D01*
X170053000Y-147447000D01*
X170307000Y-147447000D01*
X170307000Y-148913850D01*
X170465750Y-149072600D01*
X171423910Y-149072600D01*
X171657299Y-148975927D01*
X171835927Y-148797298D01*
X171932600Y-148563909D01*
X171932600Y-147605750D01*
X171773850Y-147447000D01*
X170307000Y-147447000D01*
X170053000Y-147447000D01*
X168586150Y-147447000D01*
X168427400Y-147605750D01*
X150279464Y-147605750D01*
X150279464Y-146884000D01*
X150252897Y-146742810D01*
X150169454Y-146613135D01*
X150042134Y-146526141D01*
X149891000Y-146495536D01*
X147859000Y-146495536D01*
X147717810Y-146522103D01*
X147588135Y-146605546D01*
X147501141Y-146732866D01*
X147470536Y-146884000D01*
X147470536Y-147105863D01*
X147322828Y-146884803D01*
X146869609Y-146581971D01*
X146335000Y-146475631D01*
X145800391Y-146581971D01*
X145347172Y-146884803D01*
X145044340Y-147338022D01*
X144938000Y-147872631D01*
X137757000Y-147872631D01*
X137757000Y-143027400D01*
X139590936Y-143027400D01*
X139590936Y-145262600D01*
X139617503Y-145403790D01*
X139700946Y-145533465D01*
X139828266Y-145620459D01*
X139979400Y-145651064D01*
X142214600Y-145651064D01*
X142355790Y-145624497D01*
X142485465Y-145541054D01*
X142572459Y-145413734D01*
X142603064Y-145262600D01*
X142603064Y-144772034D01*
X149847626Y-144772034D01*
X149940450Y-144996683D01*
X150099041Y-145155552D01*
X150032478Y-145315852D01*
X150032266Y-145558923D01*
X150125090Y-145783572D01*
X150296817Y-145955599D01*
X150521303Y-146048815D01*
X150764374Y-146049027D01*
X150989023Y-145956203D01*
X151000262Y-145944984D01*
X151056587Y-146001407D01*
X151281073Y-146094623D01*
X151524144Y-146094835D01*
X151569507Y-146076091D01*
X168427400Y-146076091D01*
X168427400Y-147034250D01*
X168586150Y-147193000D01*
X170053000Y-147193000D01*
X170053000Y-147173000D01*
X170307000Y-147173000D01*
X170307000Y-147193000D01*
X171773850Y-147193000D01*
X171932600Y-147034250D01*
X171932600Y-146076091D01*
X171835927Y-145842702D01*
X171686064Y-145692838D01*
X171686064Y-143662400D01*
X171659497Y-143521210D01*
X171653404Y-143511741D01*
X171655459Y-143508734D01*
X171686064Y-143357600D01*
X171686064Y-141122400D01*
X171659497Y-140981210D01*
X171653404Y-140971741D01*
X171655459Y-140968734D01*
X171686064Y-140817600D01*
X171686064Y-138582400D01*
X171659497Y-138441210D01*
X171653404Y-138431741D01*
X171655459Y-138428734D01*
X171686064Y-138277600D01*
X171686064Y-136042400D01*
X171659497Y-135901210D01*
X171653404Y-135891741D01*
X171655459Y-135888734D01*
X171686064Y-135737600D01*
X171686064Y-133502400D01*
X171659497Y-133361210D01*
X171576054Y-133231535D01*
X171448734Y-133144541D01*
X171297600Y-133113936D01*
X169062400Y-133113936D01*
X168921210Y-133140503D01*
X168791535Y-133223946D01*
X168704541Y-133351266D01*
X168673936Y-133502400D01*
X168673936Y-135737600D01*
X168700503Y-135878790D01*
X168706596Y-135888259D01*
X168704541Y-135891266D01*
X168673936Y-136042400D01*
X168673936Y-138277600D01*
X168700503Y-138418790D01*
X168706596Y-138428259D01*
X168704541Y-138431266D01*
X168673936Y-138582400D01*
X168673936Y-140817600D01*
X168700503Y-140958790D01*
X168706596Y-140968259D01*
X168704541Y-140971266D01*
X168673936Y-141122400D01*
X168673936Y-143357600D01*
X168700503Y-143498790D01*
X168706596Y-143508259D01*
X168704541Y-143511266D01*
X168673936Y-143662400D01*
X168673936Y-145692838D01*
X168524073Y-145842702D01*
X168427400Y-146076091D01*
X151569507Y-146076091D01*
X151748793Y-146002011D01*
X151920820Y-145830284D01*
X152014036Y-145605798D01*
X152014248Y-145362727D01*
X151921424Y-145138078D01*
X151749697Y-144966051D01*
X151525211Y-144872835D01*
X151282140Y-144872623D01*
X151057491Y-144965447D01*
X151046252Y-144976666D01*
X151003063Y-144933401D01*
X151069626Y-144773101D01*
X151069838Y-144530030D01*
X150993261Y-144344701D01*
X151087678Y-144250448D01*
X151180894Y-144025962D01*
X151180974Y-143933404D01*
X157158873Y-143933404D01*
X157251697Y-144158053D01*
X157423424Y-144330080D01*
X157517576Y-144369176D01*
X157507668Y-144393038D01*
X157507456Y-144636109D01*
X157512228Y-144647658D01*
X157444777Y-144675529D01*
X157272750Y-144847256D01*
X157179534Y-145071742D01*
X157179322Y-145314813D01*
X157272146Y-145539462D01*
X157443873Y-145711489D01*
X157668359Y-145804705D01*
X157911430Y-145804917D01*
X158136079Y-145712093D01*
X158308106Y-145540366D01*
X158401322Y-145315880D01*
X158401534Y-145072809D01*
X158396762Y-145061260D01*
X158464213Y-145033389D01*
X158636240Y-144861662D01*
X158729456Y-144637176D01*
X158729668Y-144394105D01*
X158636844Y-144169456D01*
X158465117Y-143997429D01*
X158449640Y-143991002D01*
X160498883Y-143991002D01*
X160591707Y-144215651D01*
X160763434Y-144387678D01*
X160987920Y-144480894D01*
X161230991Y-144481106D01*
X161455640Y-144388282D01*
X161627667Y-144216555D01*
X161720883Y-143992069D01*
X161721095Y-143748998D01*
X161628271Y-143524349D01*
X161456544Y-143352322D01*
X161232058Y-143259106D01*
X160988987Y-143258894D01*
X160764338Y-143351718D01*
X160592311Y-143523445D01*
X160499095Y-143747931D01*
X160498883Y-143991002D01*
X158449640Y-143991002D01*
X158370965Y-143958333D01*
X158380873Y-143934471D01*
X158381085Y-143691400D01*
X158288261Y-143466751D01*
X158116534Y-143294724D01*
X157892048Y-143201508D01*
X157648977Y-143201296D01*
X157424328Y-143294120D01*
X157252301Y-143465847D01*
X157159085Y-143690333D01*
X157158873Y-143933404D01*
X151180974Y-143933404D01*
X151181106Y-143782891D01*
X151147855Y-143702419D01*
X151183325Y-143687763D01*
X151355352Y-143516036D01*
X151448568Y-143291550D01*
X151448780Y-143048479D01*
X151355956Y-142823830D01*
X151184229Y-142651803D01*
X150959743Y-142558587D01*
X150716672Y-142558375D01*
X150492023Y-142651199D01*
X150319996Y-142822926D01*
X150226780Y-143047412D01*
X150226568Y-143290483D01*
X150259819Y-143370955D01*
X150224349Y-143385611D01*
X150052322Y-143557338D01*
X149959106Y-143781824D01*
X149958894Y-144024895D01*
X150035471Y-144210224D01*
X149941054Y-144304477D01*
X149847838Y-144528963D01*
X149847626Y-144772034D01*
X142603064Y-144772034D01*
X142603064Y-143027400D01*
X142576497Y-142886210D01*
X142493054Y-142756535D01*
X142365734Y-142669541D01*
X142214600Y-142638936D01*
X139979400Y-142638936D01*
X139838210Y-142665503D01*
X139708535Y-142748946D01*
X139621541Y-142876266D01*
X139590936Y-143027400D01*
X137757000Y-143027400D01*
X137757000Y-141621002D01*
X157388894Y-141621002D01*
X157481718Y-141845651D01*
X157653445Y-142017678D01*
X157877931Y-142110894D01*
X158121002Y-142111106D01*
X158345651Y-142018282D01*
X158517678Y-141846555D01*
X158610894Y-141622069D01*
X158611106Y-141378998D01*
X158518282Y-141154349D01*
X158346555Y-140982322D01*
X158122069Y-140889106D01*
X157878998Y-140888894D01*
X157654349Y-140981718D01*
X157482322Y-141153445D01*
X157389106Y-141377931D01*
X157388894Y-141621002D01*
X137757000Y-141621002D01*
X137757000Y-135953500D01*
X139057536Y-135953500D01*
X139057536Y-137985500D01*
X139084103Y-138126690D01*
X139167546Y-138256365D01*
X139294866Y-138343359D01*
X139446000Y-138373964D01*
X139654272Y-138373964D01*
X139474172Y-138494303D01*
X139171340Y-138947522D01*
X139065000Y-139482131D01*
X139065000Y-139536869D01*
X139171340Y-140071478D01*
X139474172Y-140524697D01*
X139927391Y-140827529D01*
X140462000Y-140933869D01*
X140996609Y-140827529D01*
X141449828Y-140524697D01*
X141752660Y-140071478D01*
X141827346Y-139696002D01*
X151063894Y-139696002D01*
X151156718Y-139920651D01*
X151328445Y-140092678D01*
X151552931Y-140185894D01*
X151796002Y-140186106D01*
X151942097Y-140125740D01*
X152305106Y-140125740D01*
X152397930Y-140350389D01*
X152569657Y-140522416D01*
X152794143Y-140615632D01*
X153037214Y-140615844D01*
X153261863Y-140523020D01*
X153433890Y-140351293D01*
X153522745Y-140137309D01*
X153527762Y-140142334D01*
X153752248Y-140235550D01*
X153995319Y-140235762D01*
X154201477Y-140150578D01*
X156065298Y-140150578D01*
X156158122Y-140375227D01*
X156329849Y-140547254D01*
X156554335Y-140640470D01*
X156797406Y-140640682D01*
X157022055Y-140547858D01*
X157194082Y-140376131D01*
X157287298Y-140151645D01*
X157287510Y-139908574D01*
X157194686Y-139683925D01*
X157022959Y-139511898D01*
X156798473Y-139418682D01*
X156555402Y-139418470D01*
X156330753Y-139511294D01*
X156158726Y-139683021D01*
X156065510Y-139907507D01*
X156065298Y-140150578D01*
X154201477Y-140150578D01*
X154219968Y-140142938D01*
X154391995Y-139971211D01*
X154485211Y-139746725D01*
X154485423Y-139503654D01*
X154392599Y-139279005D01*
X154334776Y-139221081D01*
X154558769Y-139128528D01*
X154730796Y-138956801D01*
X154824012Y-138732315D01*
X154824137Y-138588495D01*
X154942034Y-138588495D01*
X155034858Y-138813144D01*
X155206585Y-138985171D01*
X155431071Y-139078387D01*
X155674142Y-139078599D01*
X155835712Y-139011839D01*
X155933179Y-139109476D01*
X156157665Y-139202692D01*
X156400736Y-139202904D01*
X156598952Y-139121002D01*
X160418894Y-139121002D01*
X160511718Y-139345651D01*
X160683445Y-139517678D01*
X160907931Y-139610894D01*
X161151002Y-139611106D01*
X161375651Y-139518282D01*
X161547678Y-139346555D01*
X161640894Y-139122069D01*
X161641106Y-138878998D01*
X161548282Y-138654349D01*
X161376555Y-138482322D01*
X161152069Y-138389106D01*
X160908998Y-138388894D01*
X160684349Y-138481718D01*
X160512322Y-138653445D01*
X160419106Y-138877931D01*
X160418894Y-139121002D01*
X156598952Y-139121002D01*
X156625385Y-139110080D01*
X156797412Y-138938353D01*
X156890628Y-138713867D01*
X156890840Y-138470796D01*
X156798016Y-138246147D01*
X156626289Y-138074120D01*
X156401803Y-137980904D01*
X156158732Y-137980692D01*
X155997162Y-138047452D01*
X155899695Y-137949815D01*
X155675209Y-137856599D01*
X155432138Y-137856387D01*
X155207489Y-137949211D01*
X155035462Y-138120938D01*
X154942246Y-138345424D01*
X154942034Y-138588495D01*
X154824137Y-138588495D01*
X154824224Y-138489244D01*
X154731400Y-138264595D01*
X154559673Y-138092568D01*
X154335187Y-137999352D01*
X154092116Y-137999140D01*
X153867467Y-138091964D01*
X153695440Y-138263691D01*
X153602224Y-138488177D01*
X153602012Y-138731248D01*
X153694836Y-138955897D01*
X153752659Y-139013821D01*
X153528666Y-139106374D01*
X153356639Y-139278101D01*
X153267784Y-139492085D01*
X153262767Y-139487060D01*
X153038281Y-139393844D01*
X152795210Y-139393632D01*
X152570561Y-139486456D01*
X152398534Y-139658183D01*
X152305318Y-139882669D01*
X152305106Y-140125740D01*
X151942097Y-140125740D01*
X152020651Y-140093282D01*
X152192678Y-139921555D01*
X152285894Y-139697069D01*
X152286106Y-139453998D01*
X152193282Y-139229349D01*
X152021555Y-139057322D01*
X151797069Y-138964106D01*
X151553998Y-138963894D01*
X151329349Y-139056718D01*
X151157322Y-139228445D01*
X151064106Y-139452931D01*
X151063894Y-139696002D01*
X141827346Y-139696002D01*
X141859000Y-139536869D01*
X141859000Y-139482131D01*
X141752660Y-138947522D01*
X141449828Y-138494303D01*
X141269728Y-138373964D01*
X141478000Y-138373964D01*
X141619190Y-138347397D01*
X141748865Y-138263954D01*
X141835859Y-138136634D01*
X141866464Y-137985500D01*
X141866464Y-135953500D01*
X141839897Y-135812310D01*
X141827086Y-135792400D01*
X143873936Y-135792400D01*
X143873936Y-138027600D01*
X143900503Y-138168790D01*
X143983946Y-138298465D01*
X144111266Y-138385459D01*
X144262400Y-138416064D01*
X146497600Y-138416064D01*
X146638790Y-138389497D01*
X146768465Y-138306054D01*
X146855459Y-138178734D01*
X146886064Y-138027600D01*
X146886064Y-136051002D01*
X159258894Y-136051002D01*
X159351718Y-136275651D01*
X159523445Y-136447678D01*
X159747931Y-136540894D01*
X159991002Y-136541106D01*
X160215651Y-136448282D01*
X160387678Y-136276555D01*
X160480894Y-136052069D01*
X160481106Y-135808998D01*
X160388282Y-135584349D01*
X160216555Y-135412322D01*
X159992069Y-135319106D01*
X159748998Y-135318894D01*
X159524349Y-135411718D01*
X159352322Y-135583445D01*
X159259106Y-135807931D01*
X159258894Y-136051002D01*
X146886064Y-136051002D01*
X146886064Y-135792400D01*
X146859497Y-135651210D01*
X146776054Y-135521535D01*
X146648734Y-135434541D01*
X146497600Y-135403936D01*
X144262400Y-135403936D01*
X144121210Y-135430503D01*
X143991535Y-135513946D01*
X143904541Y-135641266D01*
X143873936Y-135792400D01*
X141827086Y-135792400D01*
X141756454Y-135682635D01*
X141629134Y-135595641D01*
X141478000Y-135565036D01*
X139446000Y-135565036D01*
X139304810Y-135591603D01*
X139175135Y-135675046D01*
X139088141Y-135802366D01*
X139057536Y-135953500D01*
X137757000Y-135953500D01*
X137757000Y-134021002D01*
X146968894Y-134021002D01*
X147061718Y-134245651D01*
X147233445Y-134417678D01*
X147457931Y-134510894D01*
X147701002Y-134511106D01*
X147925651Y-134418282D01*
X148097678Y-134246555D01*
X148190894Y-134022069D01*
X148191106Y-133778998D01*
X148098282Y-133554349D01*
X147926555Y-133382322D01*
X147702069Y-133289106D01*
X147458998Y-133288894D01*
X147234349Y-133381718D01*
X147062322Y-133553445D01*
X146969106Y-133777931D01*
X146968894Y-134021002D01*
X137757000Y-134021002D01*
X137757000Y-130396385D01*
X137770866Y-130405859D01*
X137922000Y-130436464D01*
X139954000Y-130436464D01*
X140095190Y-130409897D01*
X140224865Y-130326454D01*
X140311859Y-130199134D01*
X140335497Y-130082400D01*
X143643936Y-130082400D01*
X143643936Y-132317600D01*
X143670503Y-132458790D01*
X143753946Y-132588465D01*
X143881266Y-132675459D01*
X144032400Y-132706064D01*
X146267600Y-132706064D01*
X146408790Y-132679497D01*
X146538465Y-132596054D01*
X146625459Y-132468734D01*
X146656064Y-132317600D01*
X146656064Y-132021002D01*
X149918894Y-132021002D01*
X150011718Y-132245651D01*
X150183445Y-132417678D01*
X150407931Y-132510894D01*
X150651002Y-132511106D01*
X150696951Y-132492120D01*
X156681725Y-132492120D01*
X156774549Y-132716769D01*
X156946276Y-132888796D01*
X157170762Y-132982012D01*
X157413833Y-132982224D01*
X157638482Y-132889400D01*
X157721814Y-132806213D01*
X159981392Y-132806213D01*
X160050857Y-133048397D01*
X160574302Y-133235144D01*
X161129368Y-133207362D01*
X161513143Y-133048397D01*
X161582608Y-132806213D01*
X160782000Y-132005605D01*
X159981392Y-132806213D01*
X157721814Y-132806213D01*
X157810509Y-132717673D01*
X157903725Y-132493187D01*
X157903937Y-132250116D01*
X157811113Y-132025467D01*
X157639386Y-131853440D01*
X157414900Y-131760224D01*
X157171829Y-131760012D01*
X156947180Y-131852836D01*
X156775153Y-132024563D01*
X156681937Y-132249049D01*
X156681725Y-132492120D01*
X150696951Y-132492120D01*
X150875651Y-132418282D01*
X151047678Y-132246555D01*
X151140894Y-132022069D01*
X151141106Y-131778998D01*
X151074708Y-131618302D01*
X159372856Y-131618302D01*
X159400638Y-132173368D01*
X159559603Y-132557143D01*
X159801787Y-132626608D01*
X160602395Y-131826000D01*
X160961605Y-131826000D01*
X161762213Y-132626608D01*
X162004397Y-132557143D01*
X162191144Y-132033698D01*
X162163362Y-131478632D01*
X162004397Y-131094857D01*
X161762213Y-131025392D01*
X160961605Y-131826000D01*
X160602395Y-131826000D01*
X159801787Y-131025392D01*
X159559603Y-131094857D01*
X159372856Y-131618302D01*
X151074708Y-131618302D01*
X151048282Y-131554349D01*
X150876555Y-131382322D01*
X150652069Y-131289106D01*
X150408998Y-131288894D01*
X150184349Y-131381718D01*
X150012322Y-131553445D01*
X149919106Y-131777931D01*
X149918894Y-132021002D01*
X146656064Y-132021002D01*
X146656064Y-130721002D01*
X149668894Y-130721002D01*
X149761718Y-130945651D01*
X149933445Y-131117678D01*
X150157931Y-131210894D01*
X150401002Y-131211106D01*
X150625651Y-131118282D01*
X150797678Y-130946555D01*
X150890894Y-130722069D01*
X150891106Y-130478998D01*
X150798282Y-130254349D01*
X150626555Y-130082322D01*
X150402069Y-129989106D01*
X150158998Y-129988894D01*
X149934349Y-130081718D01*
X149762322Y-130253445D01*
X149669106Y-130477931D01*
X149668894Y-130721002D01*
X146656064Y-130721002D01*
X146656064Y-130082400D01*
X146631340Y-129951002D01*
X151548894Y-129951002D01*
X151641718Y-130175651D01*
X151813445Y-130347678D01*
X152037931Y-130440894D01*
X152281002Y-130441106D01*
X152505651Y-130348282D01*
X152677678Y-130176555D01*
X152770894Y-129952069D01*
X152771106Y-129708998D01*
X152689856Y-129512359D01*
X159638802Y-129512359D01*
X159812446Y-129932612D01*
X160133697Y-130254423D01*
X160553646Y-130428801D01*
X160747660Y-130428970D01*
X160434632Y-130444638D01*
X160050857Y-130603603D01*
X159981392Y-130845787D01*
X160782000Y-131646395D01*
X161582608Y-130845787D01*
X161513143Y-130603603D01*
X161015742Y-130426148D01*
X161428612Y-130255554D01*
X161750423Y-129934303D01*
X161924801Y-129514354D01*
X161925198Y-129059641D01*
X161751554Y-128639388D01*
X161545656Y-128433131D01*
X164465000Y-128433131D01*
X164465000Y-128487869D01*
X164571340Y-129022478D01*
X164874172Y-129475697D01*
X165327391Y-129778529D01*
X165862000Y-129884869D01*
X166396609Y-129778529D01*
X166849828Y-129475697D01*
X166997536Y-129254637D01*
X166997536Y-129476500D01*
X167024103Y-129617690D01*
X167107546Y-129747365D01*
X167234866Y-129834359D01*
X167386000Y-129864964D01*
X169418000Y-129864964D01*
X169559190Y-129838397D01*
X169688865Y-129754954D01*
X169775859Y-129627634D01*
X169806464Y-129476500D01*
X169806464Y-127444500D01*
X169779897Y-127303310D01*
X169696454Y-127173635D01*
X169569134Y-127086641D01*
X169418000Y-127056036D01*
X167386000Y-127056036D01*
X167244810Y-127082603D01*
X167115135Y-127166046D01*
X167028141Y-127293366D01*
X166997536Y-127444500D01*
X166997536Y-127666363D01*
X166849828Y-127445303D01*
X166396609Y-127142471D01*
X165862000Y-127036131D01*
X165327391Y-127142471D01*
X164874172Y-127445303D01*
X164571340Y-127898522D01*
X164465000Y-128433131D01*
X161545656Y-128433131D01*
X161430303Y-128317577D01*
X161010354Y-128143199D01*
X160555641Y-128142802D01*
X160135388Y-128316446D01*
X159813577Y-128637697D01*
X159639199Y-129057646D01*
X159638802Y-129512359D01*
X152689856Y-129512359D01*
X152678282Y-129484349D01*
X152506555Y-129312322D01*
X152282069Y-129219106D01*
X152038998Y-129218894D01*
X151814349Y-129311718D01*
X151642322Y-129483445D01*
X151549106Y-129707931D01*
X151548894Y-129951002D01*
X146631340Y-129951002D01*
X146629497Y-129941210D01*
X146546054Y-129811535D01*
X146418734Y-129724541D01*
X146267600Y-129693936D01*
X144032400Y-129693936D01*
X143891210Y-129720503D01*
X143761535Y-129803946D01*
X143674541Y-129931266D01*
X143643936Y-130082400D01*
X140335497Y-130082400D01*
X140342464Y-130048000D01*
X140342464Y-128978796D01*
X147559387Y-128978796D01*
X147652211Y-129203445D01*
X147823938Y-129375472D01*
X148048424Y-129468688D01*
X148291495Y-129468900D01*
X148516144Y-129376076D01*
X148688171Y-129204349D01*
X148781387Y-128979863D01*
X148781599Y-128736792D01*
X148688775Y-128512143D01*
X148517048Y-128340116D01*
X148292562Y-128246900D01*
X148049491Y-128246688D01*
X147824842Y-128339512D01*
X147652815Y-128511239D01*
X147559599Y-128735725D01*
X147559387Y-128978796D01*
X140342464Y-128978796D01*
X140342464Y-128016000D01*
X140315897Y-127874810D01*
X140232454Y-127745135D01*
X140105134Y-127658141D01*
X139954000Y-127627536D01*
X139732137Y-127627536D01*
X139953197Y-127479828D01*
X140256029Y-127026609D01*
X140362369Y-126492000D01*
X140256029Y-125957391D01*
X139953197Y-125504172D01*
X139499978Y-125201340D01*
X138965369Y-125095000D01*
X138910631Y-125095000D01*
X138376022Y-125201340D01*
X137922803Y-125504172D01*
X137757000Y-125752313D01*
X137757000Y-124959027D01*
X151530032Y-124959027D01*
X151778179Y-125488490D01*
X152210053Y-125882688D01*
X152222724Y-125887936D01*
X152121400Y-125887936D01*
X151980210Y-125914503D01*
X151850535Y-125997946D01*
X151763541Y-126125266D01*
X151732936Y-126276400D01*
X151732936Y-128003600D01*
X151759503Y-128144790D01*
X151842946Y-128274465D01*
X151970266Y-128361459D01*
X152121400Y-128392064D01*
X153848600Y-128392064D01*
X153989790Y-128365497D01*
X154119465Y-128282054D01*
X154206459Y-128154734D01*
X154237064Y-128003600D01*
X154237064Y-127115617D01*
X154280400Y-127115617D01*
X154280400Y-127164383D01*
X154375140Y-127640671D01*
X154644935Y-128044448D01*
X155048712Y-128314243D01*
X155525000Y-128408983D01*
X156001288Y-128314243D01*
X156405065Y-128044448D01*
X156674860Y-127640671D01*
X156769600Y-127164383D01*
X156769600Y-127115617D01*
X156741105Y-126972359D01*
X159638802Y-126972359D01*
X159812446Y-127392612D01*
X160133697Y-127714423D01*
X160553646Y-127888801D01*
X161008359Y-127889198D01*
X161428612Y-127715554D01*
X161750423Y-127394303D01*
X161924801Y-126974354D01*
X161925198Y-126519641D01*
X161751554Y-126099388D01*
X161430303Y-125777577D01*
X161010354Y-125603199D01*
X160555641Y-125602802D01*
X160135388Y-125776446D01*
X159813577Y-126097697D01*
X159639199Y-126517646D01*
X159638802Y-126972359D01*
X156741105Y-126972359D01*
X156674860Y-126639329D01*
X156405065Y-126235552D01*
X156001288Y-125965757D01*
X155525000Y-125871017D01*
X155048712Y-125965757D01*
X154644935Y-126235552D01*
X154375140Y-126639329D01*
X154280400Y-127115617D01*
X154237064Y-127115617D01*
X154237064Y-126276400D01*
X154210497Y-126135210D01*
X154127054Y-126005535D01*
X153999734Y-125918541D01*
X153848600Y-125887936D01*
X153747276Y-125887936D01*
X153759947Y-125882688D01*
X154191821Y-125488490D01*
X154374676Y-125098338D01*
X154375140Y-125100671D01*
X154644935Y-125504448D01*
X155048712Y-125774243D01*
X155525000Y-125868983D01*
X156001288Y-125774243D01*
X156405065Y-125504448D01*
X156674860Y-125100671D01*
X156769600Y-124624383D01*
X156769600Y-124575617D01*
X156674860Y-124099329D01*
X156405065Y-123695552D01*
X156001288Y-123425757D01*
X155525000Y-123331017D01*
X155048712Y-123425757D01*
X154644935Y-123695552D01*
X154375140Y-124099329D01*
X154374676Y-124101662D01*
X154191821Y-123711510D01*
X153759947Y-123317312D01*
X153344026Y-123145042D01*
X153112000Y-123266183D01*
X153112000Y-124473000D01*
X153132000Y-124473000D01*
X153132000Y-124727000D01*
X153112000Y-124727000D01*
X153112000Y-124747000D01*
X152858000Y-124747000D01*
X152858000Y-124727000D01*
X151650531Y-124727000D01*
X151530032Y-124959027D01*
X137757000Y-124959027D01*
X137757000Y-124240973D01*
X151530032Y-124240973D01*
X151650531Y-124473000D01*
X152858000Y-124473000D01*
X152858000Y-123266183D01*
X152625974Y-123145042D01*
X152210053Y-123317312D01*
X151778179Y-123711510D01*
X151530032Y-124240973D01*
X137757000Y-124240973D01*
X137757000Y-122181002D01*
X149848894Y-122181002D01*
X149941718Y-122405651D01*
X150113445Y-122577678D01*
X150337931Y-122670894D01*
X150581002Y-122671106D01*
X150805651Y-122578282D01*
X150977678Y-122406555D01*
X151070894Y-122182069D01*
X151070961Y-122104998D01*
X151183445Y-122217678D01*
X151407931Y-122310894D01*
X151651002Y-122311106D01*
X151875651Y-122218282D01*
X152047678Y-122046555D01*
X152140894Y-121822069D01*
X152141106Y-121578998D01*
X152048282Y-121354349D01*
X151876555Y-121182322D01*
X151652069Y-121089106D01*
X151408998Y-121088894D01*
X151184349Y-121181718D01*
X151012322Y-121353445D01*
X150919106Y-121577931D01*
X150919039Y-121655002D01*
X150806555Y-121542322D01*
X150582069Y-121449106D01*
X150338998Y-121448894D01*
X150114349Y-121541718D01*
X149942322Y-121713445D01*
X149849106Y-121937931D01*
X149848894Y-122181002D01*
X137757000Y-122181002D01*
X137757000Y-119982400D01*
X159423936Y-119982400D01*
X159423936Y-122217600D01*
X159450503Y-122358790D01*
X159533946Y-122488465D01*
X159661266Y-122575459D01*
X159812400Y-122606064D01*
X162047600Y-122606064D01*
X162188790Y-122579497D01*
X162318465Y-122496054D01*
X162405459Y-122368734D01*
X162436064Y-122217600D01*
X162436064Y-119982400D01*
X162409497Y-119841210D01*
X162326054Y-119711535D01*
X162198734Y-119624541D01*
X162047600Y-119593936D01*
X159812400Y-119593936D01*
X159671210Y-119620503D01*
X159541535Y-119703946D01*
X159454541Y-119831266D01*
X159423936Y-119982400D01*
X137757000Y-119982400D01*
X137757000Y-118937446D01*
X163748017Y-118937446D01*
X164016812Y-119522879D01*
X164489182Y-119960885D01*
X164971056Y-120160475D01*
X165227000Y-120041336D01*
X165227000Y-118681500D01*
X163866633Y-118681500D01*
X163748017Y-118937446D01*
X137757000Y-118937446D01*
X137757000Y-118171554D01*
X163748017Y-118171554D01*
X163866633Y-118427500D01*
X165227000Y-118427500D01*
X165227000Y-117067664D01*
X165481000Y-117067664D01*
X165481000Y-118427500D01*
X165501000Y-118427500D01*
X165501000Y-118681500D01*
X165481000Y-118681500D01*
X165481000Y-120041336D01*
X165736944Y-120160475D01*
X166218818Y-119960885D01*
X166511863Y-119689158D01*
X166516103Y-119711690D01*
X166599546Y-119841365D01*
X166726866Y-119928359D01*
X166878000Y-119958964D01*
X168910000Y-119958964D01*
X169051190Y-119932397D01*
X169180865Y-119848954D01*
X169267859Y-119721634D01*
X169298464Y-119570500D01*
X169298464Y-117538500D01*
X169271897Y-117397310D01*
X169188454Y-117267635D01*
X169061134Y-117180641D01*
X168910000Y-117150036D01*
X166878000Y-117150036D01*
X166736810Y-117176603D01*
X166607135Y-117260046D01*
X166520141Y-117387366D01*
X166513296Y-117421170D01*
X166218818Y-117148115D01*
X165736944Y-116948525D01*
X165481000Y-117067664D01*
X165227000Y-117067664D01*
X164971056Y-116948525D01*
X164489182Y-117148115D01*
X164016812Y-117586121D01*
X163748017Y-118171554D01*
X137757000Y-118171554D01*
X137757000Y-114745567D01*
X138298720Y-115288233D01*
X139724635Y-115880325D01*
X141268592Y-115881672D01*
X142695538Y-115292070D01*
X143788233Y-114201280D01*
X144380325Y-112775365D01*
X144381672Y-111231408D01*
X144072850Y-110484000D01*
X146747936Y-110484000D01*
X146747936Y-112516000D01*
X146774503Y-112657190D01*
X146857946Y-112786865D01*
X146985266Y-112873859D01*
X147136400Y-112904464D01*
X148863600Y-112904464D01*
X149004790Y-112877897D01*
X149134465Y-112794454D01*
X149221459Y-112667134D01*
X149252064Y-112516000D01*
X149252064Y-111320231D01*
X149295400Y-111320231D01*
X149295400Y-111679769D01*
X149390140Y-112156057D01*
X149659935Y-112559834D01*
X150063712Y-112829629D01*
X150540000Y-112924369D01*
X151016288Y-112829629D01*
X151420065Y-112559834D01*
X151689860Y-112156057D01*
X151692704Y-112141757D01*
X151788046Y-112414320D01*
X152177964Y-112850732D01*
X152705209Y-113104709D01*
X152720974Y-113107358D01*
X152953000Y-112986217D01*
X152953000Y-111627000D01*
X152933000Y-111627000D01*
X152933000Y-111373000D01*
X152953000Y-111373000D01*
X152953000Y-110013783D01*
X153207000Y-110013783D01*
X153207000Y-111373000D01*
X153227000Y-111373000D01*
X153227000Y-111627000D01*
X153207000Y-111627000D01*
X153207000Y-112986217D01*
X153439026Y-113107358D01*
X153454791Y-113104709D01*
X153982036Y-112850732D01*
X154371954Y-112414320D01*
X154467296Y-112141757D01*
X154470140Y-112156057D01*
X154739935Y-112559834D01*
X155143712Y-112829629D01*
X155620000Y-112924369D01*
X156096288Y-112829629D01*
X156500065Y-112559834D01*
X156769860Y-112156057D01*
X156864600Y-111679769D01*
X156864600Y-111320231D01*
X156915400Y-111320231D01*
X156915400Y-111679769D01*
X157010140Y-112156057D01*
X157279935Y-112559834D01*
X157683712Y-112829629D01*
X158160000Y-112924369D01*
X158636288Y-112829629D01*
X159040065Y-112559834D01*
X159309860Y-112156057D01*
X159404600Y-111679769D01*
X159404600Y-111320231D01*
X159455400Y-111320231D01*
X159455400Y-111679769D01*
X159550140Y-112156057D01*
X159819935Y-112559834D01*
X160223712Y-112829629D01*
X160700000Y-112924369D01*
X161176288Y-112829629D01*
X161580065Y-112559834D01*
X161849860Y-112156057D01*
X161944600Y-111679769D01*
X161944600Y-111320231D01*
X161849860Y-110843943D01*
X161580065Y-110440166D01*
X161176288Y-110170371D01*
X160700000Y-110075631D01*
X160223712Y-110170371D01*
X159819935Y-110440166D01*
X159550140Y-110843943D01*
X159455400Y-111320231D01*
X159404600Y-111320231D01*
X159309860Y-110843943D01*
X159040065Y-110440166D01*
X158636288Y-110170371D01*
X158160000Y-110075631D01*
X157683712Y-110170371D01*
X157279935Y-110440166D01*
X157010140Y-110843943D01*
X156915400Y-111320231D01*
X156864600Y-111320231D01*
X156769860Y-110843943D01*
X156500065Y-110440166D01*
X156096288Y-110170371D01*
X155620000Y-110075631D01*
X155143712Y-110170371D01*
X154739935Y-110440166D01*
X154470140Y-110843943D01*
X154467296Y-110858243D01*
X154371954Y-110585680D01*
X153982036Y-110149268D01*
X153454791Y-109895291D01*
X153439026Y-109892642D01*
X153207000Y-110013783D01*
X152953000Y-110013783D01*
X152720974Y-109892642D01*
X152705209Y-109895291D01*
X152177964Y-110149268D01*
X151788046Y-110585680D01*
X151692704Y-110858243D01*
X151689860Y-110843943D01*
X151420065Y-110440166D01*
X151016288Y-110170371D01*
X150540000Y-110075631D01*
X150063712Y-110170371D01*
X149659935Y-110440166D01*
X149390140Y-110843943D01*
X149295400Y-111320231D01*
X149252064Y-111320231D01*
X149252064Y-110484000D01*
X149225497Y-110342810D01*
X149142054Y-110213135D01*
X149014734Y-110126141D01*
X148863600Y-110095536D01*
X147136400Y-110095536D01*
X146995210Y-110122103D01*
X146865535Y-110205546D01*
X146778541Y-110332866D01*
X146747936Y-110484000D01*
X144072850Y-110484000D01*
X143792070Y-109804462D01*
X143015963Y-109027000D01*
X166484835Y-109027000D01*
X165711767Y-109798720D01*
M02*
