G04 #@! TF.FileFunction,Legend,Bot*
%FSLAX46Y46*%
G04 Gerber Fmt 4.6, Leading zero omitted, Abs format (unit mm)*
G04 Created by KiCad (PCBNEW 4.0.4+e1-6308~48~ubuntu16.04.1-stable) date Tue Oct 11 09:38:20 2016*
%MOMM*%
%LPD*%
G01*
G04 APERTURE LIST*
%ADD10C,0.100000*%
%ADD11C,0.150000*%
G04 APERTURE END LIST*
D10*
D11*
X150050000Y-133600000D02*
X150050000Y-133100000D01*
X151000000Y-133100000D02*
X151000000Y-133600000D01*
X151975000Y-135500000D02*
X152750000Y-135500000D01*
X156275000Y-131200000D02*
X155500000Y-131200000D01*
X156275000Y-135500000D02*
X155500000Y-135500000D01*
X151975000Y-131200000D02*
X151975000Y-131975000D01*
X156275000Y-131200000D02*
X156275000Y-131975000D01*
X156275000Y-135500000D02*
X156275000Y-134725000D01*
X151975000Y-135500000D02*
X151975000Y-134725000D01*
X149182143Y-132707143D02*
X149229762Y-132659524D01*
X149277381Y-132516667D01*
X149277381Y-132421429D01*
X149229762Y-132278571D01*
X149134524Y-132183333D01*
X149039286Y-132135714D01*
X148848810Y-132088095D01*
X148705952Y-132088095D01*
X148515476Y-132135714D01*
X148420238Y-132183333D01*
X148325000Y-132278571D01*
X148277381Y-132421429D01*
X148277381Y-132516667D01*
X148325000Y-132659524D01*
X148372619Y-132707143D01*
X149277381Y-133659524D02*
X149277381Y-133088095D01*
X149277381Y-133373809D02*
X148277381Y-133373809D01*
X148420238Y-133278571D01*
X148515476Y-133183333D01*
X148563095Y-133088095D01*
X148277381Y-134516667D02*
X148277381Y-134326190D01*
X148325000Y-134230952D01*
X148372619Y-134183333D01*
X148515476Y-134088095D01*
X148705952Y-134040476D01*
X149086905Y-134040476D01*
X149182143Y-134088095D01*
X149229762Y-134135714D01*
X149277381Y-134230952D01*
X149277381Y-134421429D01*
X149229762Y-134516667D01*
X149182143Y-134564286D01*
X149086905Y-134611905D01*
X148848810Y-134611905D01*
X148753571Y-134564286D01*
X148705952Y-134516667D01*
X148658333Y-134421429D01*
X148658333Y-134230952D01*
X148705952Y-134135714D01*
X148753571Y-134088095D01*
X148848810Y-134040476D01*
X157182381Y-133438095D02*
X157991905Y-133438095D01*
X158087143Y-133485714D01*
X158134762Y-133533333D01*
X158182381Y-133628571D01*
X158182381Y-133819048D01*
X158134762Y-133914286D01*
X158087143Y-133961905D01*
X157991905Y-134009524D01*
X157182381Y-134009524D01*
X157182381Y-134390476D02*
X157182381Y-135009524D01*
X157563333Y-134676190D01*
X157563333Y-134819048D01*
X157610952Y-134914286D01*
X157658571Y-134961905D01*
X157753810Y-135009524D01*
X157991905Y-135009524D01*
X158087143Y-134961905D01*
X158134762Y-134914286D01*
X158182381Y-134819048D01*
X158182381Y-134533333D01*
X158134762Y-134438095D01*
X158087143Y-134390476D01*
M02*
