M48
;DRILL file {KiCad 4.0.4+e1-6308~48~ubuntu16.04.1-stable} date Tue Oct 11 09:38:34 2016
;FORMAT={-:-/ absolute / inch / decimal}
FMAT,2
INCH,TZ
T1C0.012
T2C0.031
T3C0.032
T4C0.040
T5C0.138
%
G90
G05
M72
T1
X5.7925Y-5.685
X5.8102Y-5.2717
X5.8335Y-5.0731
X5.8876Y-5.4085
X5.9165Y-5.1417
X5.9236Y-5.6949
X5.9236Y-4.8055
X5.9264Y-5.1929
X5.9264Y-5.3071
X5.928Y-5.6655
X5.9308Y-5.7259
X5.9385Y-5.6366
X5.9608Y-5.7277
X5.9657Y-4.7913
X5.9715Y-5.4951
X5.9906Y-5.1114
X5.9988Y-5.7713
X6.0012Y-5.3819
X6.0203Y-5.512
X6.0445Y-5.6772
X6.0446Y-5.6046
X6.058Y-5.497
X6.0714Y-5.4571
X6.1154Y-5.6772
X6.1154Y-5.6046
X6.1241Y-5.4515
X6.1527Y-5.4564
X6.1684Y-5.513
X6.1828Y-5.734
X6.1902Y-5.3937
X6.1926Y-5.2115
X6.2114Y-5.6619
X6.2122Y-5.7163
X6.2205Y-5.5709
X6.2251Y-5.6896
X6.2941Y-5.3516
X6.3358Y-5.4173
X6.3398Y-5.4724
X6.3429Y-5.6642
X6.3465Y-5.75
X6.3469Y-5.6992
X6.3484Y-5.6004
T2
X6.0795Y-5.6408
T3
X6.33Y-4.99
X6.33Y-5.09
X6.33Y-5.19
T4
X5.47Y-4.98
X5.47Y-5.08
X5.53Y-5.3925
X5.53Y-5.4925
X5.5512Y-5.9055
X5.555Y-5.675
X5.7146Y-5.1654
X5.7236Y-5.3902
X5.7612Y-5.8228
X5.822Y-6.2598
X5.8268Y-4.3898
X5.8612Y-5.8228
X5.8632Y-5.9744
X5.922Y-6.2598
X5.9268Y-4.3898
X6.022Y-6.2598
X6.023Y-4.9055
X6.023Y-5.0055
X6.0268Y-4.3898
X6.122Y-6.2598
X6.123Y-4.9055
X6.123Y-5.0055
X6.1268Y-4.3898
X6.2268Y-4.3898
X6.3268Y-4.3898
X6.3358Y-4.7677
X6.51Y-4.6675
X6.53Y-5.0575
X6.61Y-4.6675
X6.63Y-5.0575
X6.7Y-5.3
X6.7Y-5.4
X6.7Y-5.5
X6.7Y-5.6
X6.7Y-5.7
X6.7Y-5.8
T5
X5.5315Y-4.4094
X5.5315Y-6.2205
X6.6535Y-4.4094
X6.6535Y-6.2205
T0
M30
