G04 #@! TF.FileFunction,Copper,L4,Bot,Signal*
%FSLAX46Y46*%
G04 Gerber Fmt 4.6, Leading zero omitted, Abs format (unit mm)*
G04 Created by KiCad (PCBNEW 4.0.4+e1-6308~48~ubuntu16.04.1-stable) date Tue Oct 11 09:38:20 2016*
%MOMM*%
%LPD*%
G01*
G04 APERTURE LIST*
%ADD10C,0.100000*%
%ADD11R,0.500000X0.600000*%
%ADD12R,2.032000X2.032000*%
%ADD13O,2.032000X2.032000*%
%ADD14R,2.235200X2.235200*%
%ADD15R,1.727200X2.032000*%
%ADD16O,1.727200X2.032000*%
%ADD17R,1.727200X1.727200*%
%ADD18O,1.727200X1.727200*%
%ADD19C,1.524000*%
%ADD20R,0.350000X0.800000*%
%ADD21R,0.800000X0.350000*%
%ADD22R,1.250000X1.250000*%
%ADD23C,7.000000*%
%ADD24C,1.200000*%
%ADD25C,0.460000*%
%ADD26C,0.200000*%
%ADD27C,0.254000*%
G04 APERTURE END LIST*
D10*
D11*
X150525000Y-132800000D03*
X150525000Y-133900000D03*
D12*
X140462000Y-136969500D03*
D13*
X140462000Y-139509500D03*
D12*
X148875000Y-147900000D03*
D13*
X146335000Y-147900000D03*
D14*
X145380000Y-136910000D03*
X141097000Y-144145000D03*
X148925000Y-151750000D03*
X141000000Y-150000000D03*
X170180000Y-147320000D03*
X145150000Y-131200000D03*
X160930000Y-121100000D03*
X170180000Y-137160000D03*
X170180000Y-134620000D03*
D15*
X155500000Y-159000000D03*
D16*
X152960000Y-159000000D03*
X150420000Y-159000000D03*
X147880000Y-159000000D03*
D17*
X152985000Y-127140000D03*
D18*
X152985000Y-124600000D03*
X155525000Y-127140000D03*
X155525000Y-124600000D03*
D14*
X170180000Y-139700000D03*
X170180000Y-142240000D03*
X170180000Y-144780000D03*
D12*
X167894000Y-118554500D03*
D13*
X165354000Y-118554500D03*
D12*
X138938000Y-129032000D03*
D13*
X138938000Y-126492000D03*
D12*
X168402000Y-128460500D03*
D13*
X165862000Y-128460500D03*
D15*
X148000000Y-111500000D03*
D16*
X150540000Y-111500000D03*
X153080000Y-111500000D03*
X155620000Y-111500000D03*
X158160000Y-111500000D03*
X160700000Y-111500000D03*
D19*
X160782000Y-129286000D03*
X160782000Y-126746000D03*
X160782000Y-131826000D03*
D20*
X153150000Y-131350000D03*
X153800000Y-131350000D03*
X154450000Y-131350000D03*
X155100000Y-131350000D03*
D21*
X156125000Y-132375000D03*
X156125000Y-133025000D03*
X156125000Y-133675000D03*
X156125000Y-134325000D03*
D20*
X155100000Y-135350000D03*
X154450000Y-135350000D03*
X153800000Y-135350000D03*
X153150000Y-135350000D03*
D21*
X152125000Y-134325000D03*
X152125000Y-133675000D03*
X152125000Y-133025000D03*
X152125000Y-132375000D03*
D22*
X154750000Y-133975000D03*
X153500000Y-133975000D03*
X154750000Y-132725000D03*
X153500000Y-132725000D03*
D23*
X169000000Y-112000000D03*
X140500000Y-112000000D03*
X169000000Y-158000000D03*
X140500000Y-158000000D03*
D24*
X154420340Y-143275661D03*
D25*
X152370000Y-146590000D03*
X157042703Y-145644733D03*
X153532000Y-142356000D03*
X155332000Y-142356000D03*
X155330000Y-144200000D03*
X153530000Y-144200000D03*
X157230000Y-137000000D03*
X152430000Y-136700000D03*
X160930000Y-137600000D03*
X147130000Y-144400000D03*
X149544291Y-137376234D03*
X150530000Y-134800000D03*
X161200000Y-146050000D03*
X161210000Y-144760000D03*
X161250000Y-142250000D03*
X157790428Y-145193811D03*
X151403142Y-145483729D03*
X161030000Y-139000000D03*
X151530000Y-121700000D03*
X150530000Y-131900000D03*
X154213118Y-138610246D03*
X155553140Y-138467493D03*
X156279734Y-138591798D03*
X157292831Y-132371118D03*
X152916212Y-140004738D03*
X159870000Y-135930000D03*
X156676404Y-140029576D03*
X150460000Y-122060000D03*
X153874317Y-139624656D03*
X151675000Y-139575000D03*
X150458732Y-144651032D03*
X147580000Y-133900000D03*
X150280000Y-130600000D03*
X150837674Y-143169481D03*
X150570000Y-143903893D03*
X150643372Y-145437921D03*
X148170493Y-128857794D03*
X152160000Y-129830000D03*
X158118562Y-144515107D03*
X161109989Y-143870000D03*
X157769979Y-143812402D03*
X158000000Y-141500000D03*
D26*
X150525000Y-133900000D02*
X150525000Y-134795000D01*
X150525000Y-134795000D02*
X150530000Y-134800000D01*
X152125000Y-134325000D02*
X150950000Y-134325000D01*
X150950000Y-134325000D02*
X150525000Y-133900000D01*
X150525000Y-132800000D02*
X150525000Y-131905000D01*
X150525000Y-131905000D02*
X150530000Y-131900000D01*
X152125000Y-132375000D02*
X150950000Y-132375000D01*
X150950000Y-132375000D02*
X150525000Y-132800000D01*
X155553140Y-138467493D02*
X154355871Y-138467493D01*
X154355871Y-138467493D02*
X154213118Y-138610246D01*
X160930000Y-121100000D02*
X160930000Y-126598000D01*
X160930000Y-126598000D02*
X160782000Y-126746000D01*
X160909000Y-126619000D02*
X160782000Y-126746000D01*
X160782000Y-129286000D02*
X160782000Y-128208370D01*
X160782000Y-128208370D02*
X160782000Y-126746000D01*
X154636795Y-140234737D02*
X156049735Y-138821797D01*
X152916212Y-140004738D02*
X153146211Y-140234737D01*
X153146211Y-140234737D02*
X154636795Y-140234737D01*
X156049735Y-138821797D02*
X156279734Y-138591798D01*
X156125000Y-132375000D02*
X157288949Y-132375000D01*
X157288949Y-132375000D02*
X157292831Y-132371118D01*
X155100000Y-131350000D02*
X155100000Y-131049981D01*
X155100000Y-131049981D02*
X155426731Y-130723250D01*
X155426731Y-130723250D02*
X156503250Y-130723250D01*
X156503250Y-130723250D02*
X159870000Y-134090000D01*
X159870000Y-134090000D02*
X159870000Y-134650000D01*
X159870000Y-134650000D02*
X159870000Y-135930000D01*
X170180000Y-134620000D02*
X168862400Y-134620000D01*
X168862400Y-134620000D02*
X168832400Y-134650000D01*
X168832400Y-134650000D02*
X159870000Y-134650000D01*
X152880000Y-129180000D02*
X150460000Y-126760000D01*
X150460000Y-126760000D02*
X150460000Y-122060000D01*
X154450000Y-131350000D02*
X154450000Y-130750000D01*
X154450000Y-130750000D02*
X152880000Y-129180000D01*
X149540000Y-122150000D02*
X155620000Y-116070000D01*
X155620000Y-116070000D02*
X155620000Y-111500000D01*
X149540000Y-134790000D02*
X149540000Y-122150000D01*
X150100000Y-135350000D02*
X149540000Y-134790000D01*
X153150000Y-135350000D02*
X150100000Y-135350000D01*
X155458576Y-109920000D02*
X156732400Y-109920000D01*
X156732400Y-109920000D02*
X158160000Y-111347600D01*
X158160000Y-111347600D02*
X158160000Y-111500000D01*
X149090000Y-121990000D02*
X154496390Y-116583610D01*
X154496390Y-116583610D02*
X154496390Y-110882186D01*
X154496390Y-110882186D02*
X155458576Y-109920000D01*
X149090000Y-135390000D02*
X149090000Y-121990000D01*
X149890000Y-136190000D02*
X149090000Y-135390000D01*
X153560000Y-136190000D02*
X149890000Y-136190000D01*
X153800000Y-135350000D02*
X153800000Y-135950000D01*
X153800000Y-135950000D02*
X153560000Y-136190000D01*
X151675000Y-139575000D02*
X151904999Y-139345001D01*
X153594662Y-139345001D02*
X153644318Y-139394657D01*
X153644318Y-139394657D02*
X153874317Y-139624656D01*
X151904999Y-139345001D02*
X153594662Y-139345001D01*
X147580000Y-133900000D02*
X147580000Y-141772300D01*
X150228733Y-144421033D02*
X150458732Y-144651032D01*
X147580000Y-141772300D02*
X150228733Y-144421033D01*
X153150000Y-131350000D02*
X151030000Y-131350000D01*
X151030000Y-131350000D02*
X150280000Y-130600000D01*
X151067673Y-143399480D02*
X150837674Y-143169481D01*
X158676312Y-145011735D02*
X157451996Y-146236051D01*
X157451996Y-146236051D02*
X153904244Y-146236051D01*
X153904244Y-146236051D02*
X151067673Y-143399480D01*
X156725000Y-133675000D02*
X158676312Y-135626312D01*
X158676312Y-135626312D02*
X158676312Y-145011735D01*
X156125000Y-133675000D02*
X156725000Y-133675000D01*
X153262169Y-146596062D02*
X150799999Y-144133892D01*
X157601117Y-146596062D02*
X153262169Y-146596062D01*
X150799999Y-144133892D02*
X150570000Y-143903893D01*
X159220011Y-144977168D02*
X157601117Y-146596062D01*
X159220011Y-135520011D02*
X159220011Y-144977168D01*
X156725000Y-133025000D02*
X159220011Y-135520011D01*
X156125000Y-133025000D02*
X156725000Y-133025000D01*
X150318103Y-145437921D02*
X150643372Y-145437921D01*
X147000000Y-130028287D02*
X147000000Y-142119818D01*
X148170493Y-128857794D02*
X147000000Y-130028287D01*
X147000000Y-142119818D02*
X150318103Y-145437921D01*
X152160000Y-129830000D02*
X152880000Y-129830000D01*
X152880000Y-129830000D02*
X153800000Y-130750000D01*
X153800000Y-130750000D02*
X153800000Y-131350000D01*
X158276195Y-143456195D02*
X158276195Y-144032205D01*
X155100000Y-135950000D02*
X157730000Y-138580000D01*
X157258660Y-142438660D02*
X158276195Y-143456195D01*
X158118562Y-144189838D02*
X158118562Y-144515107D01*
X157258660Y-141530000D02*
X157258660Y-142438660D01*
X158276195Y-144032205D02*
X158118562Y-144189838D01*
X157730000Y-138580000D02*
X157730000Y-141058660D01*
X155100000Y-135350000D02*
X155100000Y-135950000D01*
X157730000Y-141058660D02*
X157258660Y-141530000D01*
X154450000Y-135350000D02*
X154450000Y-135950000D01*
X157539980Y-143582403D02*
X157769979Y-143812402D01*
X157792645Y-143812402D02*
X157769979Y-143812402D01*
X154450000Y-135950000D02*
X157280000Y-138780000D01*
X156270650Y-141439350D02*
X156270650Y-142313073D01*
X156270650Y-142313073D02*
X157539980Y-143582403D01*
X157280000Y-138780000D02*
X157280000Y-140430000D01*
X157840723Y-143860480D02*
X157792645Y-143812402D01*
X157280000Y-140430000D02*
X156270650Y-141439350D01*
X158240000Y-136815000D02*
X158240000Y-141260000D01*
X158240000Y-141260000D02*
X158000000Y-141500000D01*
X156125000Y-134325000D02*
X156125000Y-134700000D01*
X156125000Y-134700000D02*
X158240000Y-136815000D01*
D27*
G36*
X165711767Y-109798720D02*
X165119675Y-111224635D01*
X165118328Y-112768592D01*
X165707930Y-114195538D01*
X166798720Y-115288233D01*
X168224635Y-115880325D01*
X169768592Y-115881672D01*
X171195538Y-115292070D01*
X172003000Y-114486016D01*
X172003000Y-155514887D01*
X171201280Y-154711767D01*
X169775365Y-154119675D01*
X168231408Y-154118328D01*
X166804462Y-154707930D01*
X165711767Y-155798720D01*
X165119675Y-157224635D01*
X165118328Y-158768592D01*
X165707930Y-160195538D01*
X166284385Y-160773000D01*
X143215515Y-160773000D01*
X143788233Y-160201280D01*
X144361694Y-158820231D01*
X146635400Y-158820231D01*
X146635400Y-159179769D01*
X146730140Y-159656057D01*
X146999935Y-160059834D01*
X147403712Y-160329629D01*
X147880000Y-160424369D01*
X148356288Y-160329629D01*
X148760065Y-160059834D01*
X149029860Y-159656057D01*
X149124600Y-159179769D01*
X149124600Y-158820231D01*
X149175400Y-158820231D01*
X149175400Y-159179769D01*
X149270140Y-159656057D01*
X149539935Y-160059834D01*
X149943712Y-160329629D01*
X150420000Y-160424369D01*
X150896288Y-160329629D01*
X151300065Y-160059834D01*
X151569860Y-159656057D01*
X151664600Y-159179769D01*
X151664600Y-158820231D01*
X151715400Y-158820231D01*
X151715400Y-159179769D01*
X151810140Y-159656057D01*
X152079935Y-160059834D01*
X152483712Y-160329629D01*
X152960000Y-160424369D01*
X153436288Y-160329629D01*
X153840065Y-160059834D01*
X154109860Y-159656057D01*
X154204600Y-159179769D01*
X154204600Y-158820231D01*
X154109860Y-158343943D01*
X153869354Y-157984000D01*
X154247936Y-157984000D01*
X154247936Y-160016000D01*
X154274503Y-160157190D01*
X154357946Y-160286865D01*
X154485266Y-160373859D01*
X154636400Y-160404464D01*
X156363600Y-160404464D01*
X156504790Y-160377897D01*
X156634465Y-160294454D01*
X156721459Y-160167134D01*
X156752064Y-160016000D01*
X156752064Y-157984000D01*
X156725497Y-157842810D01*
X156642054Y-157713135D01*
X156514734Y-157626141D01*
X156363600Y-157595536D01*
X154636400Y-157595536D01*
X154495210Y-157622103D01*
X154365535Y-157705546D01*
X154278541Y-157832866D01*
X154247936Y-157984000D01*
X153869354Y-157984000D01*
X153840065Y-157940166D01*
X153436288Y-157670371D01*
X152960000Y-157575631D01*
X152483712Y-157670371D01*
X152079935Y-157940166D01*
X151810140Y-158343943D01*
X151715400Y-158820231D01*
X151664600Y-158820231D01*
X151569860Y-158343943D01*
X151300065Y-157940166D01*
X150896288Y-157670371D01*
X150420000Y-157575631D01*
X149943712Y-157670371D01*
X149539935Y-157940166D01*
X149270140Y-158343943D01*
X149175400Y-158820231D01*
X149124600Y-158820231D01*
X149029860Y-158343943D01*
X148760065Y-157940166D01*
X148356288Y-157670371D01*
X147880000Y-157575631D01*
X147403712Y-157670371D01*
X146999935Y-157940166D01*
X146730140Y-158343943D01*
X146635400Y-158820231D01*
X144361694Y-158820231D01*
X144380325Y-158775365D01*
X144381672Y-157231408D01*
X143792070Y-155804462D01*
X142701280Y-154711767D01*
X141275365Y-154119675D01*
X139731408Y-154118328D01*
X138304462Y-154707930D01*
X137757000Y-155254438D01*
X137757000Y-150285750D01*
X139247400Y-150285750D01*
X139247400Y-151243910D01*
X139344073Y-151477299D01*
X139522702Y-151655927D01*
X139756091Y-151752600D01*
X140714250Y-151752600D01*
X140873000Y-151593850D01*
X140873000Y-150127000D01*
X141127000Y-150127000D01*
X141127000Y-151593850D01*
X141285750Y-151752600D01*
X142243909Y-151752600D01*
X142477298Y-151655927D01*
X142655927Y-151477299D01*
X142752600Y-151243910D01*
X142752600Y-150632400D01*
X147418936Y-150632400D01*
X147418936Y-152867600D01*
X147445503Y-153008790D01*
X147528946Y-153138465D01*
X147656266Y-153225459D01*
X147807400Y-153256064D01*
X150042600Y-153256064D01*
X150183790Y-153229497D01*
X150313465Y-153146054D01*
X150400459Y-153018734D01*
X150431064Y-152867600D01*
X150431064Y-150632400D01*
X150404497Y-150491210D01*
X150321054Y-150361535D01*
X150193734Y-150274541D01*
X150042600Y-150243936D01*
X147807400Y-150243936D01*
X147666210Y-150270503D01*
X147536535Y-150353946D01*
X147449541Y-150481266D01*
X147418936Y-150632400D01*
X142752600Y-150632400D01*
X142752600Y-150285750D01*
X142593850Y-150127000D01*
X141127000Y-150127000D01*
X140873000Y-150127000D01*
X139406150Y-150127000D01*
X139247400Y-150285750D01*
X137757000Y-150285750D01*
X137757000Y-148756090D01*
X139247400Y-148756090D01*
X139247400Y-149714250D01*
X139406150Y-149873000D01*
X140873000Y-149873000D01*
X140873000Y-148406150D01*
X141127000Y-148406150D01*
X141127000Y-149873000D01*
X142593850Y-149873000D01*
X142752600Y-149714250D01*
X142752600Y-148756090D01*
X142655927Y-148522701D01*
X142477298Y-148344073D01*
X142243909Y-148247400D01*
X141285750Y-148247400D01*
X141127000Y-148406150D01*
X140873000Y-148406150D01*
X140714250Y-148247400D01*
X139756091Y-148247400D01*
X139522702Y-148344073D01*
X139344073Y-148522701D01*
X139247400Y-148756090D01*
X137757000Y-148756090D01*
X137757000Y-147872631D01*
X144938000Y-147872631D01*
X144938000Y-147927369D01*
X145044340Y-148461978D01*
X145347172Y-148915197D01*
X145800391Y-149218029D01*
X146335000Y-149324369D01*
X146869609Y-149218029D01*
X147322828Y-148915197D01*
X147470536Y-148694137D01*
X147470536Y-148916000D01*
X147497103Y-149057190D01*
X147580546Y-149186865D01*
X147707866Y-149273859D01*
X147859000Y-149304464D01*
X149891000Y-149304464D01*
X150032190Y-149277897D01*
X150161865Y-149194454D01*
X150248859Y-149067134D01*
X150279464Y-148916000D01*
X150279464Y-147605750D01*
X168427400Y-147605750D01*
X168427400Y-148563909D01*
X168524073Y-148797298D01*
X168702701Y-148975927D01*
X168936090Y-149072600D01*
X169894250Y-149072600D01*
X170053000Y-148913850D01*
X170053000Y-147447000D01*
X170307000Y-147447000D01*
X170307000Y-148913850D01*
X170465750Y-149072600D01*
X171423910Y-149072600D01*
X171657299Y-148975927D01*
X171835927Y-148797298D01*
X171932600Y-148563909D01*
X171932600Y-147605750D01*
X171773850Y-147447000D01*
X170307000Y-147447000D01*
X170053000Y-147447000D01*
X168586150Y-147447000D01*
X168427400Y-147605750D01*
X150279464Y-147605750D01*
X150279464Y-146884000D01*
X150252897Y-146742810D01*
X150169454Y-146613135D01*
X150042134Y-146526141D01*
X149891000Y-146495536D01*
X147859000Y-146495536D01*
X147717810Y-146522103D01*
X147588135Y-146605546D01*
X147501141Y-146732866D01*
X147470536Y-146884000D01*
X147470536Y-147105863D01*
X147322828Y-146884803D01*
X146869609Y-146581971D01*
X146335000Y-146475631D01*
X145800391Y-146581971D01*
X145347172Y-146884803D01*
X145044340Y-147338022D01*
X144938000Y-147872631D01*
X137757000Y-147872631D01*
X137757000Y-143027400D01*
X139590936Y-143027400D01*
X139590936Y-145262600D01*
X139617503Y-145403790D01*
X139700946Y-145533465D01*
X139828266Y-145620459D01*
X139979400Y-145651064D01*
X142214600Y-145651064D01*
X142355790Y-145624497D01*
X142485465Y-145541054D01*
X142572459Y-145413734D01*
X142603064Y-145262600D01*
X142603064Y-143027400D01*
X142576497Y-142886210D01*
X142493054Y-142756535D01*
X142365734Y-142669541D01*
X142214600Y-142638936D01*
X139979400Y-142638936D01*
X139838210Y-142665503D01*
X139708535Y-142748946D01*
X139621541Y-142876266D01*
X139590936Y-143027400D01*
X137757000Y-143027400D01*
X137757000Y-135953500D01*
X139057536Y-135953500D01*
X139057536Y-137985500D01*
X139084103Y-138126690D01*
X139167546Y-138256365D01*
X139294866Y-138343359D01*
X139446000Y-138373964D01*
X139654272Y-138373964D01*
X139474172Y-138494303D01*
X139171340Y-138947522D01*
X139065000Y-139482131D01*
X139065000Y-139536869D01*
X139171340Y-140071478D01*
X139474172Y-140524697D01*
X139927391Y-140827529D01*
X140462000Y-140933869D01*
X140996609Y-140827529D01*
X141449828Y-140524697D01*
X141752660Y-140071478D01*
X141859000Y-139536869D01*
X141859000Y-139482131D01*
X141752660Y-138947522D01*
X141449828Y-138494303D01*
X141269728Y-138373964D01*
X141478000Y-138373964D01*
X141619190Y-138347397D01*
X141748865Y-138263954D01*
X141835859Y-138136634D01*
X141866464Y-137985500D01*
X141866464Y-135953500D01*
X141839897Y-135812310D01*
X141756454Y-135682635D01*
X141629134Y-135595641D01*
X141478000Y-135565036D01*
X139446000Y-135565036D01*
X139304810Y-135591603D01*
X139175135Y-135675046D01*
X139088141Y-135802366D01*
X139057536Y-135953500D01*
X137757000Y-135953500D01*
X137757000Y-130396385D01*
X137770866Y-130405859D01*
X137922000Y-130436464D01*
X139954000Y-130436464D01*
X140095190Y-130409897D01*
X140224865Y-130326454D01*
X140311859Y-130199134D01*
X140335497Y-130082400D01*
X143643936Y-130082400D01*
X143643936Y-132317600D01*
X143670503Y-132458790D01*
X143753946Y-132588465D01*
X143881266Y-132675459D01*
X144032400Y-132706064D01*
X146267600Y-132706064D01*
X146408790Y-132679497D01*
X146519000Y-132608579D01*
X146519000Y-135408270D01*
X146497600Y-135403936D01*
X144262400Y-135403936D01*
X144121210Y-135430503D01*
X143991535Y-135513946D01*
X143904541Y-135641266D01*
X143873936Y-135792400D01*
X143873936Y-138027600D01*
X143900503Y-138168790D01*
X143983946Y-138298465D01*
X144111266Y-138385459D01*
X144262400Y-138416064D01*
X146497600Y-138416064D01*
X146519000Y-138412037D01*
X146519000Y-142119818D01*
X146545551Y-142253300D01*
X146555614Y-142303889D01*
X146659882Y-142459936D01*
X149977984Y-145778039D01*
X150074759Y-145842702D01*
X150134032Y-145882307D01*
X150245858Y-145904550D01*
X150296817Y-145955599D01*
X150521303Y-146048815D01*
X150764374Y-146049027D01*
X150989023Y-145956203D01*
X151000262Y-145944984D01*
X151056587Y-146001407D01*
X151281073Y-146094623D01*
X151524144Y-146094835D01*
X151748793Y-146002011D01*
X151868442Y-145882571D01*
X152922050Y-146936180D01*
X153068822Y-147034250D01*
X153078098Y-147040448D01*
X153262169Y-147077062D01*
X157601117Y-147077062D01*
X157785188Y-147040448D01*
X157941235Y-146936180D01*
X159560129Y-145317286D01*
X159596978Y-145262138D01*
X159664397Y-145161239D01*
X159701011Y-144977168D01*
X159701011Y-143991002D01*
X160498883Y-143991002D01*
X160591707Y-144215651D01*
X160763434Y-144387678D01*
X160987920Y-144480894D01*
X161230991Y-144481106D01*
X161455640Y-144388282D01*
X161627667Y-144216555D01*
X161720883Y-143992069D01*
X161721095Y-143748998D01*
X161628271Y-143524349D01*
X161456544Y-143352322D01*
X161232058Y-143259106D01*
X160988987Y-143258894D01*
X160764338Y-143351718D01*
X160592311Y-143523445D01*
X160499095Y-143747931D01*
X160498883Y-143991002D01*
X159701011Y-143991002D01*
X159701011Y-139121002D01*
X160418894Y-139121002D01*
X160511718Y-139345651D01*
X160683445Y-139517678D01*
X160907931Y-139610894D01*
X161151002Y-139611106D01*
X161375651Y-139518282D01*
X161547678Y-139346555D01*
X161640894Y-139122069D01*
X161641106Y-138878998D01*
X161548282Y-138654349D01*
X161376555Y-138482322D01*
X161152069Y-138389106D01*
X160908998Y-138388894D01*
X160684349Y-138481718D01*
X160512322Y-138653445D01*
X160419106Y-138877931D01*
X160418894Y-139121002D01*
X159701011Y-139121002D01*
X159701011Y-136521411D01*
X159747931Y-136540894D01*
X159991002Y-136541106D01*
X160215651Y-136448282D01*
X160387678Y-136276555D01*
X160480894Y-136052069D01*
X160481106Y-135808998D01*
X160388282Y-135584349D01*
X160351000Y-135547002D01*
X160351000Y-135131000D01*
X168673936Y-135131000D01*
X168673936Y-135737600D01*
X168700503Y-135878790D01*
X168706596Y-135888259D01*
X168704541Y-135891266D01*
X168673936Y-136042400D01*
X168673936Y-138277600D01*
X168700503Y-138418790D01*
X168706596Y-138428259D01*
X168704541Y-138431266D01*
X168673936Y-138582400D01*
X168673936Y-140817600D01*
X168700503Y-140958790D01*
X168706596Y-140968259D01*
X168704541Y-140971266D01*
X168673936Y-141122400D01*
X168673936Y-143357600D01*
X168700503Y-143498790D01*
X168706596Y-143508259D01*
X168704541Y-143511266D01*
X168673936Y-143662400D01*
X168673936Y-145692838D01*
X168524073Y-145842702D01*
X168427400Y-146076091D01*
X168427400Y-147034250D01*
X168586150Y-147193000D01*
X170053000Y-147193000D01*
X170053000Y-147173000D01*
X170307000Y-147173000D01*
X170307000Y-147193000D01*
X171773850Y-147193000D01*
X171932600Y-147034250D01*
X171932600Y-146076091D01*
X171835927Y-145842702D01*
X171686064Y-145692838D01*
X171686064Y-143662400D01*
X171659497Y-143521210D01*
X171653404Y-143511741D01*
X171655459Y-143508734D01*
X171686064Y-143357600D01*
X171686064Y-141122400D01*
X171659497Y-140981210D01*
X171653404Y-140971741D01*
X171655459Y-140968734D01*
X171686064Y-140817600D01*
X171686064Y-138582400D01*
X171659497Y-138441210D01*
X171653404Y-138431741D01*
X171655459Y-138428734D01*
X171686064Y-138277600D01*
X171686064Y-136042400D01*
X171659497Y-135901210D01*
X171653404Y-135891741D01*
X171655459Y-135888734D01*
X171686064Y-135737600D01*
X171686064Y-133502400D01*
X171659497Y-133361210D01*
X171576054Y-133231535D01*
X171448734Y-133144541D01*
X171297600Y-133113936D01*
X169062400Y-133113936D01*
X168921210Y-133140503D01*
X168791535Y-133223946D01*
X168704541Y-133351266D01*
X168673936Y-133502400D01*
X168673936Y-134169000D01*
X160351000Y-134169000D01*
X160351000Y-134090000D01*
X160337488Y-134022069D01*
X160314387Y-133905930D01*
X160210119Y-133749882D01*
X159266450Y-132806213D01*
X159981392Y-132806213D01*
X160050857Y-133048397D01*
X160574302Y-133235144D01*
X161129368Y-133207362D01*
X161513143Y-133048397D01*
X161582608Y-132806213D01*
X160782000Y-132005605D01*
X159981392Y-132806213D01*
X159266450Y-132806213D01*
X158078539Y-131618302D01*
X159372856Y-131618302D01*
X159400638Y-132173368D01*
X159559603Y-132557143D01*
X159801787Y-132626608D01*
X160602395Y-131826000D01*
X160961605Y-131826000D01*
X161762213Y-132626608D01*
X162004397Y-132557143D01*
X162191144Y-132033698D01*
X162163362Y-131478632D01*
X162004397Y-131094857D01*
X161762213Y-131025392D01*
X160961605Y-131826000D01*
X160602395Y-131826000D01*
X159801787Y-131025392D01*
X159559603Y-131094857D01*
X159372856Y-131618302D01*
X158078539Y-131618302D01*
X156843368Y-130383132D01*
X156687321Y-130278864D01*
X156503250Y-130242250D01*
X155426731Y-130242250D01*
X155242660Y-130278864D01*
X155086612Y-130383132D01*
X154904317Y-130565428D01*
X154894648Y-130567247D01*
X154894386Y-130565929D01*
X154856538Y-130509286D01*
X154790118Y-130409881D01*
X153220118Y-128839882D01*
X152772300Y-128392064D01*
X153848600Y-128392064D01*
X153989790Y-128365497D01*
X154119465Y-128282054D01*
X154206459Y-128154734D01*
X154237064Y-128003600D01*
X154237064Y-127115617D01*
X154280400Y-127115617D01*
X154280400Y-127164383D01*
X154375140Y-127640671D01*
X154644935Y-128044448D01*
X155048712Y-128314243D01*
X155525000Y-128408983D01*
X156001288Y-128314243D01*
X156405065Y-128044448D01*
X156674860Y-127640671D01*
X156769600Y-127164383D01*
X156769600Y-127115617D01*
X156674860Y-126639329D01*
X156405065Y-126235552D01*
X156001288Y-125965757D01*
X155525000Y-125871017D01*
X155048712Y-125965757D01*
X154644935Y-126235552D01*
X154375140Y-126639329D01*
X154280400Y-127115617D01*
X154237064Y-127115617D01*
X154237064Y-126276400D01*
X154210497Y-126135210D01*
X154127054Y-126005535D01*
X153999734Y-125918541D01*
X153848600Y-125887936D01*
X153747276Y-125887936D01*
X153759947Y-125882688D01*
X154191821Y-125488490D01*
X154374676Y-125098338D01*
X154375140Y-125100671D01*
X154644935Y-125504448D01*
X155048712Y-125774243D01*
X155525000Y-125868983D01*
X156001288Y-125774243D01*
X156405065Y-125504448D01*
X156674860Y-125100671D01*
X156769600Y-124624383D01*
X156769600Y-124575617D01*
X156674860Y-124099329D01*
X156405065Y-123695552D01*
X156001288Y-123425757D01*
X155525000Y-123331017D01*
X155048712Y-123425757D01*
X154644935Y-123695552D01*
X154375140Y-124099329D01*
X154374676Y-124101662D01*
X154191821Y-123711510D01*
X153759947Y-123317312D01*
X153344026Y-123145042D01*
X153112000Y-123266183D01*
X153112000Y-124473000D01*
X153132000Y-124473000D01*
X153132000Y-124727000D01*
X153112000Y-124727000D01*
X153112000Y-124747000D01*
X152858000Y-124747000D01*
X152858000Y-124727000D01*
X151650531Y-124727000D01*
X151530032Y-124959027D01*
X151778179Y-125488490D01*
X152210053Y-125882688D01*
X152222724Y-125887936D01*
X152121400Y-125887936D01*
X151980210Y-125914503D01*
X151850535Y-125997946D01*
X151763541Y-126125266D01*
X151732936Y-126276400D01*
X151732936Y-127352700D01*
X150941000Y-126560764D01*
X150941000Y-124240973D01*
X151530032Y-124240973D01*
X151650531Y-124473000D01*
X152858000Y-124473000D01*
X152858000Y-123266183D01*
X152625974Y-123145042D01*
X152210053Y-123317312D01*
X151778179Y-123711510D01*
X151530032Y-124240973D01*
X150941000Y-124240973D01*
X150941000Y-122443169D01*
X150977678Y-122406555D01*
X151070894Y-122182069D01*
X151070961Y-122104998D01*
X151183445Y-122217678D01*
X151407931Y-122310894D01*
X151651002Y-122311106D01*
X151875651Y-122218282D01*
X152047678Y-122046555D01*
X152140894Y-121822069D01*
X152141106Y-121578998D01*
X152048282Y-121354349D01*
X151876555Y-121182322D01*
X151652069Y-121089106D01*
X151408998Y-121088894D01*
X151191454Y-121178782D01*
X152387836Y-119982400D01*
X159423936Y-119982400D01*
X159423936Y-122217600D01*
X159450503Y-122358790D01*
X159533946Y-122488465D01*
X159661266Y-122575459D01*
X159812400Y-122606064D01*
X160449000Y-122606064D01*
X160449000Y-125646865D01*
X160135388Y-125776446D01*
X159813577Y-126097697D01*
X159639199Y-126517646D01*
X159638802Y-126972359D01*
X159812446Y-127392612D01*
X160133697Y-127714423D01*
X160301000Y-127783893D01*
X160301000Y-128248017D01*
X160135388Y-128316446D01*
X159813577Y-128637697D01*
X159639199Y-129057646D01*
X159638802Y-129512359D01*
X159812446Y-129932612D01*
X160133697Y-130254423D01*
X160553646Y-130428801D01*
X160747660Y-130428970D01*
X160434632Y-130444638D01*
X160050857Y-130603603D01*
X159981392Y-130845787D01*
X160782000Y-131646395D01*
X161582608Y-130845787D01*
X161513143Y-130603603D01*
X161015742Y-130426148D01*
X161428612Y-130255554D01*
X161750423Y-129934303D01*
X161924801Y-129514354D01*
X161925198Y-129059641D01*
X161751554Y-128639388D01*
X161545656Y-128433131D01*
X164465000Y-128433131D01*
X164465000Y-128487869D01*
X164571340Y-129022478D01*
X164874172Y-129475697D01*
X165327391Y-129778529D01*
X165862000Y-129884869D01*
X166396609Y-129778529D01*
X166849828Y-129475697D01*
X166997536Y-129254637D01*
X166997536Y-129476500D01*
X167024103Y-129617690D01*
X167107546Y-129747365D01*
X167234866Y-129834359D01*
X167386000Y-129864964D01*
X169418000Y-129864964D01*
X169559190Y-129838397D01*
X169688865Y-129754954D01*
X169775859Y-129627634D01*
X169806464Y-129476500D01*
X169806464Y-127444500D01*
X169779897Y-127303310D01*
X169696454Y-127173635D01*
X169569134Y-127086641D01*
X169418000Y-127056036D01*
X167386000Y-127056036D01*
X167244810Y-127082603D01*
X167115135Y-127166046D01*
X167028141Y-127293366D01*
X166997536Y-127444500D01*
X166997536Y-127666363D01*
X166849828Y-127445303D01*
X166396609Y-127142471D01*
X165862000Y-127036131D01*
X165327391Y-127142471D01*
X164874172Y-127445303D01*
X164571340Y-127898522D01*
X164465000Y-128433131D01*
X161545656Y-128433131D01*
X161430303Y-128317577D01*
X161263000Y-128248107D01*
X161263000Y-127783983D01*
X161428612Y-127715554D01*
X161750423Y-127394303D01*
X161924801Y-126974354D01*
X161925198Y-126519641D01*
X161751554Y-126099388D01*
X161430303Y-125777577D01*
X161411000Y-125769562D01*
X161411000Y-122606064D01*
X162047600Y-122606064D01*
X162188790Y-122579497D01*
X162318465Y-122496054D01*
X162405459Y-122368734D01*
X162436064Y-122217600D01*
X162436064Y-119982400D01*
X162409497Y-119841210D01*
X162326054Y-119711535D01*
X162198734Y-119624541D01*
X162047600Y-119593936D01*
X159812400Y-119593936D01*
X159671210Y-119620503D01*
X159541535Y-119703946D01*
X159454541Y-119831266D01*
X159423936Y-119982400D01*
X152387836Y-119982400D01*
X153432790Y-118937446D01*
X163748017Y-118937446D01*
X164016812Y-119522879D01*
X164489182Y-119960885D01*
X164971056Y-120160475D01*
X165227000Y-120041336D01*
X165227000Y-118681500D01*
X163866633Y-118681500D01*
X163748017Y-118937446D01*
X153432790Y-118937446D01*
X154198682Y-118171554D01*
X163748017Y-118171554D01*
X163866633Y-118427500D01*
X165227000Y-118427500D01*
X165227000Y-117067664D01*
X165481000Y-117067664D01*
X165481000Y-118427500D01*
X165501000Y-118427500D01*
X165501000Y-118681500D01*
X165481000Y-118681500D01*
X165481000Y-120041336D01*
X165736944Y-120160475D01*
X166218818Y-119960885D01*
X166511863Y-119689158D01*
X166516103Y-119711690D01*
X166599546Y-119841365D01*
X166726866Y-119928359D01*
X166878000Y-119958964D01*
X168910000Y-119958964D01*
X169051190Y-119932397D01*
X169180865Y-119848954D01*
X169267859Y-119721634D01*
X169298464Y-119570500D01*
X169298464Y-117538500D01*
X169271897Y-117397310D01*
X169188454Y-117267635D01*
X169061134Y-117180641D01*
X168910000Y-117150036D01*
X166878000Y-117150036D01*
X166736810Y-117176603D01*
X166607135Y-117260046D01*
X166520141Y-117387366D01*
X166513296Y-117421170D01*
X166218818Y-117148115D01*
X165736944Y-116948525D01*
X165481000Y-117067664D01*
X165227000Y-117067664D01*
X164971056Y-116948525D01*
X164489182Y-117148115D01*
X164016812Y-117586121D01*
X163748017Y-118171554D01*
X154198682Y-118171554D01*
X155960118Y-116410119D01*
X156064386Y-116254071D01*
X156087230Y-116139224D01*
X156101000Y-116070000D01*
X156101000Y-112826481D01*
X156500065Y-112559834D01*
X156769860Y-112156057D01*
X156864600Y-111679769D01*
X156864600Y-111320231D01*
X156769860Y-110843943D01*
X156500065Y-110440166D01*
X156441449Y-110401000D01*
X156533164Y-110401000D01*
X157004493Y-110872330D01*
X156915400Y-111320231D01*
X156915400Y-111679769D01*
X157010140Y-112156057D01*
X157279935Y-112559834D01*
X157683712Y-112829629D01*
X158160000Y-112924369D01*
X158636288Y-112829629D01*
X159040065Y-112559834D01*
X159309860Y-112156057D01*
X159404600Y-111679769D01*
X159404600Y-111320231D01*
X159455400Y-111320231D01*
X159455400Y-111679769D01*
X159550140Y-112156057D01*
X159819935Y-112559834D01*
X160223712Y-112829629D01*
X160700000Y-112924369D01*
X161176288Y-112829629D01*
X161580065Y-112559834D01*
X161849860Y-112156057D01*
X161944600Y-111679769D01*
X161944600Y-111320231D01*
X161849860Y-110843943D01*
X161580065Y-110440166D01*
X161176288Y-110170371D01*
X160700000Y-110075631D01*
X160223712Y-110170371D01*
X159819935Y-110440166D01*
X159550140Y-110843943D01*
X159455400Y-111320231D01*
X159404600Y-111320231D01*
X159309860Y-110843943D01*
X159040065Y-110440166D01*
X158636288Y-110170371D01*
X158160000Y-110075631D01*
X157683712Y-110170371D01*
X157671301Y-110178664D01*
X157072518Y-109579882D01*
X156916471Y-109475614D01*
X156732400Y-109439000D01*
X155458576Y-109439000D01*
X155274505Y-109475614D01*
X155118457Y-109579882D01*
X154249602Y-110448738D01*
X153982036Y-110149268D01*
X153454791Y-109895291D01*
X153439026Y-109892642D01*
X153207000Y-110013783D01*
X153207000Y-111373000D01*
X153227000Y-111373000D01*
X153227000Y-111627000D01*
X153207000Y-111627000D01*
X153207000Y-112986217D01*
X153439026Y-113107358D01*
X153454791Y-113104709D01*
X153982036Y-112850732D01*
X154015390Y-112813401D01*
X154015390Y-116384374D01*
X148749882Y-121649882D01*
X148645614Y-121805929D01*
X148609000Y-121990000D01*
X148609000Y-128432229D01*
X148517048Y-128340116D01*
X148292562Y-128246900D01*
X148049491Y-128246688D01*
X147824842Y-128339512D01*
X147652815Y-128511239D01*
X147559599Y-128735725D01*
X147559553Y-128788498D01*
X146659882Y-129688169D01*
X146561457Y-129835472D01*
X146546054Y-129811535D01*
X146418734Y-129724541D01*
X146267600Y-129693936D01*
X144032400Y-129693936D01*
X143891210Y-129720503D01*
X143761535Y-129803946D01*
X143674541Y-129931266D01*
X143643936Y-130082400D01*
X140335497Y-130082400D01*
X140342464Y-130048000D01*
X140342464Y-128016000D01*
X140315897Y-127874810D01*
X140232454Y-127745135D01*
X140105134Y-127658141D01*
X139954000Y-127627536D01*
X139732137Y-127627536D01*
X139953197Y-127479828D01*
X140256029Y-127026609D01*
X140362369Y-126492000D01*
X140256029Y-125957391D01*
X139953197Y-125504172D01*
X139499978Y-125201340D01*
X138965369Y-125095000D01*
X138910631Y-125095000D01*
X138376022Y-125201340D01*
X137922803Y-125504172D01*
X137757000Y-125752313D01*
X137757000Y-114745567D01*
X138298720Y-115288233D01*
X139724635Y-115880325D01*
X141268592Y-115881672D01*
X142695538Y-115292070D01*
X143788233Y-114201280D01*
X144380325Y-112775365D01*
X144381672Y-111231408D01*
X144072850Y-110484000D01*
X146747936Y-110484000D01*
X146747936Y-112516000D01*
X146774503Y-112657190D01*
X146857946Y-112786865D01*
X146985266Y-112873859D01*
X147136400Y-112904464D01*
X148863600Y-112904464D01*
X149004790Y-112877897D01*
X149134465Y-112794454D01*
X149221459Y-112667134D01*
X149252064Y-112516000D01*
X149252064Y-111320231D01*
X149295400Y-111320231D01*
X149295400Y-111679769D01*
X149390140Y-112156057D01*
X149659935Y-112559834D01*
X150063712Y-112829629D01*
X150540000Y-112924369D01*
X151016288Y-112829629D01*
X151420065Y-112559834D01*
X151689860Y-112156057D01*
X151692704Y-112141757D01*
X151788046Y-112414320D01*
X152177964Y-112850732D01*
X152705209Y-113104709D01*
X152720974Y-113107358D01*
X152953000Y-112986217D01*
X152953000Y-111627000D01*
X152933000Y-111627000D01*
X152933000Y-111373000D01*
X152953000Y-111373000D01*
X152953000Y-110013783D01*
X152720974Y-109892642D01*
X152705209Y-109895291D01*
X152177964Y-110149268D01*
X151788046Y-110585680D01*
X151692704Y-110858243D01*
X151689860Y-110843943D01*
X151420065Y-110440166D01*
X151016288Y-110170371D01*
X150540000Y-110075631D01*
X150063712Y-110170371D01*
X149659935Y-110440166D01*
X149390140Y-110843943D01*
X149295400Y-111320231D01*
X149252064Y-111320231D01*
X149252064Y-110484000D01*
X149225497Y-110342810D01*
X149142054Y-110213135D01*
X149014734Y-110126141D01*
X148863600Y-110095536D01*
X147136400Y-110095536D01*
X146995210Y-110122103D01*
X146865535Y-110205546D01*
X146778541Y-110332866D01*
X146747936Y-110484000D01*
X144072850Y-110484000D01*
X143792070Y-109804462D01*
X143015963Y-109027000D01*
X166484835Y-109027000D01*
X165711767Y-109798720D01*
X165711767Y-109798720D01*
G37*
X165711767Y-109798720D02*
X165119675Y-111224635D01*
X165118328Y-112768592D01*
X165707930Y-114195538D01*
X166798720Y-115288233D01*
X168224635Y-115880325D01*
X169768592Y-115881672D01*
X171195538Y-115292070D01*
X172003000Y-114486016D01*
X172003000Y-155514887D01*
X171201280Y-154711767D01*
X169775365Y-154119675D01*
X168231408Y-154118328D01*
X166804462Y-154707930D01*
X165711767Y-155798720D01*
X165119675Y-157224635D01*
X165118328Y-158768592D01*
X165707930Y-160195538D01*
X166284385Y-160773000D01*
X143215515Y-160773000D01*
X143788233Y-160201280D01*
X144361694Y-158820231D01*
X146635400Y-158820231D01*
X146635400Y-159179769D01*
X146730140Y-159656057D01*
X146999935Y-160059834D01*
X147403712Y-160329629D01*
X147880000Y-160424369D01*
X148356288Y-160329629D01*
X148760065Y-160059834D01*
X149029860Y-159656057D01*
X149124600Y-159179769D01*
X149124600Y-158820231D01*
X149175400Y-158820231D01*
X149175400Y-159179769D01*
X149270140Y-159656057D01*
X149539935Y-160059834D01*
X149943712Y-160329629D01*
X150420000Y-160424369D01*
X150896288Y-160329629D01*
X151300065Y-160059834D01*
X151569860Y-159656057D01*
X151664600Y-159179769D01*
X151664600Y-158820231D01*
X151715400Y-158820231D01*
X151715400Y-159179769D01*
X151810140Y-159656057D01*
X152079935Y-160059834D01*
X152483712Y-160329629D01*
X152960000Y-160424369D01*
X153436288Y-160329629D01*
X153840065Y-160059834D01*
X154109860Y-159656057D01*
X154204600Y-159179769D01*
X154204600Y-158820231D01*
X154109860Y-158343943D01*
X153869354Y-157984000D01*
X154247936Y-157984000D01*
X154247936Y-160016000D01*
X154274503Y-160157190D01*
X154357946Y-160286865D01*
X154485266Y-160373859D01*
X154636400Y-160404464D01*
X156363600Y-160404464D01*
X156504790Y-160377897D01*
X156634465Y-160294454D01*
X156721459Y-160167134D01*
X156752064Y-160016000D01*
X156752064Y-157984000D01*
X156725497Y-157842810D01*
X156642054Y-157713135D01*
X156514734Y-157626141D01*
X156363600Y-157595536D01*
X154636400Y-157595536D01*
X154495210Y-157622103D01*
X154365535Y-157705546D01*
X154278541Y-157832866D01*
X154247936Y-157984000D01*
X153869354Y-157984000D01*
X153840065Y-157940166D01*
X153436288Y-157670371D01*
X152960000Y-157575631D01*
X152483712Y-157670371D01*
X152079935Y-157940166D01*
X151810140Y-158343943D01*
X151715400Y-158820231D01*
X151664600Y-158820231D01*
X151569860Y-158343943D01*
X151300065Y-157940166D01*
X150896288Y-157670371D01*
X150420000Y-157575631D01*
X149943712Y-157670371D01*
X149539935Y-157940166D01*
X149270140Y-158343943D01*
X149175400Y-158820231D01*
X149124600Y-158820231D01*
X149029860Y-158343943D01*
X148760065Y-157940166D01*
X148356288Y-157670371D01*
X147880000Y-157575631D01*
X147403712Y-157670371D01*
X146999935Y-157940166D01*
X146730140Y-158343943D01*
X146635400Y-158820231D01*
X144361694Y-158820231D01*
X144380325Y-158775365D01*
X144381672Y-157231408D01*
X143792070Y-155804462D01*
X142701280Y-154711767D01*
X141275365Y-154119675D01*
X139731408Y-154118328D01*
X138304462Y-154707930D01*
X137757000Y-155254438D01*
X137757000Y-150285750D01*
X139247400Y-150285750D01*
X139247400Y-151243910D01*
X139344073Y-151477299D01*
X139522702Y-151655927D01*
X139756091Y-151752600D01*
X140714250Y-151752600D01*
X140873000Y-151593850D01*
X140873000Y-150127000D01*
X141127000Y-150127000D01*
X141127000Y-151593850D01*
X141285750Y-151752600D01*
X142243909Y-151752600D01*
X142477298Y-151655927D01*
X142655927Y-151477299D01*
X142752600Y-151243910D01*
X142752600Y-150632400D01*
X147418936Y-150632400D01*
X147418936Y-152867600D01*
X147445503Y-153008790D01*
X147528946Y-153138465D01*
X147656266Y-153225459D01*
X147807400Y-153256064D01*
X150042600Y-153256064D01*
X150183790Y-153229497D01*
X150313465Y-153146054D01*
X150400459Y-153018734D01*
X150431064Y-152867600D01*
X150431064Y-150632400D01*
X150404497Y-150491210D01*
X150321054Y-150361535D01*
X150193734Y-150274541D01*
X150042600Y-150243936D01*
X147807400Y-150243936D01*
X147666210Y-150270503D01*
X147536535Y-150353946D01*
X147449541Y-150481266D01*
X147418936Y-150632400D01*
X142752600Y-150632400D01*
X142752600Y-150285750D01*
X142593850Y-150127000D01*
X141127000Y-150127000D01*
X140873000Y-150127000D01*
X139406150Y-150127000D01*
X139247400Y-150285750D01*
X137757000Y-150285750D01*
X137757000Y-148756090D01*
X139247400Y-148756090D01*
X139247400Y-149714250D01*
X139406150Y-149873000D01*
X140873000Y-149873000D01*
X140873000Y-148406150D01*
X141127000Y-148406150D01*
X141127000Y-149873000D01*
X142593850Y-149873000D01*
X142752600Y-149714250D01*
X142752600Y-148756090D01*
X142655927Y-148522701D01*
X142477298Y-148344073D01*
X142243909Y-148247400D01*
X141285750Y-148247400D01*
X141127000Y-148406150D01*
X140873000Y-148406150D01*
X140714250Y-148247400D01*
X139756091Y-148247400D01*
X139522702Y-148344073D01*
X139344073Y-148522701D01*
X139247400Y-148756090D01*
X137757000Y-148756090D01*
X137757000Y-147872631D01*
X144938000Y-147872631D01*
X144938000Y-147927369D01*
X145044340Y-148461978D01*
X145347172Y-148915197D01*
X145800391Y-149218029D01*
X146335000Y-149324369D01*
X146869609Y-149218029D01*
X147322828Y-148915197D01*
X147470536Y-148694137D01*
X147470536Y-148916000D01*
X147497103Y-149057190D01*
X147580546Y-149186865D01*
X147707866Y-149273859D01*
X147859000Y-149304464D01*
X149891000Y-149304464D01*
X150032190Y-149277897D01*
X150161865Y-149194454D01*
X150248859Y-149067134D01*
X150279464Y-148916000D01*
X150279464Y-147605750D01*
X168427400Y-147605750D01*
X168427400Y-148563909D01*
X168524073Y-148797298D01*
X168702701Y-148975927D01*
X168936090Y-149072600D01*
X169894250Y-149072600D01*
X170053000Y-148913850D01*
X170053000Y-147447000D01*
X170307000Y-147447000D01*
X170307000Y-148913850D01*
X170465750Y-149072600D01*
X171423910Y-149072600D01*
X171657299Y-148975927D01*
X171835927Y-148797298D01*
X171932600Y-148563909D01*
X171932600Y-147605750D01*
X171773850Y-147447000D01*
X170307000Y-147447000D01*
X170053000Y-147447000D01*
X168586150Y-147447000D01*
X168427400Y-147605750D01*
X150279464Y-147605750D01*
X150279464Y-146884000D01*
X150252897Y-146742810D01*
X150169454Y-146613135D01*
X150042134Y-146526141D01*
X149891000Y-146495536D01*
X147859000Y-146495536D01*
X147717810Y-146522103D01*
X147588135Y-146605546D01*
X147501141Y-146732866D01*
X147470536Y-146884000D01*
X147470536Y-147105863D01*
X147322828Y-146884803D01*
X146869609Y-146581971D01*
X146335000Y-146475631D01*
X145800391Y-146581971D01*
X145347172Y-146884803D01*
X145044340Y-147338022D01*
X144938000Y-147872631D01*
X137757000Y-147872631D01*
X137757000Y-143027400D01*
X139590936Y-143027400D01*
X139590936Y-145262600D01*
X139617503Y-145403790D01*
X139700946Y-145533465D01*
X139828266Y-145620459D01*
X139979400Y-145651064D01*
X142214600Y-145651064D01*
X142355790Y-145624497D01*
X142485465Y-145541054D01*
X142572459Y-145413734D01*
X142603064Y-145262600D01*
X142603064Y-143027400D01*
X142576497Y-142886210D01*
X142493054Y-142756535D01*
X142365734Y-142669541D01*
X142214600Y-142638936D01*
X139979400Y-142638936D01*
X139838210Y-142665503D01*
X139708535Y-142748946D01*
X139621541Y-142876266D01*
X139590936Y-143027400D01*
X137757000Y-143027400D01*
X137757000Y-135953500D01*
X139057536Y-135953500D01*
X139057536Y-137985500D01*
X139084103Y-138126690D01*
X139167546Y-138256365D01*
X139294866Y-138343359D01*
X139446000Y-138373964D01*
X139654272Y-138373964D01*
X139474172Y-138494303D01*
X139171340Y-138947522D01*
X139065000Y-139482131D01*
X139065000Y-139536869D01*
X139171340Y-140071478D01*
X139474172Y-140524697D01*
X139927391Y-140827529D01*
X140462000Y-140933869D01*
X140996609Y-140827529D01*
X141449828Y-140524697D01*
X141752660Y-140071478D01*
X141859000Y-139536869D01*
X141859000Y-139482131D01*
X141752660Y-138947522D01*
X141449828Y-138494303D01*
X141269728Y-138373964D01*
X141478000Y-138373964D01*
X141619190Y-138347397D01*
X141748865Y-138263954D01*
X141835859Y-138136634D01*
X141866464Y-137985500D01*
X141866464Y-135953500D01*
X141839897Y-135812310D01*
X141756454Y-135682635D01*
X141629134Y-135595641D01*
X141478000Y-135565036D01*
X139446000Y-135565036D01*
X139304810Y-135591603D01*
X139175135Y-135675046D01*
X139088141Y-135802366D01*
X139057536Y-135953500D01*
X137757000Y-135953500D01*
X137757000Y-130396385D01*
X137770866Y-130405859D01*
X137922000Y-130436464D01*
X139954000Y-130436464D01*
X140095190Y-130409897D01*
X140224865Y-130326454D01*
X140311859Y-130199134D01*
X140335497Y-130082400D01*
X143643936Y-130082400D01*
X143643936Y-132317600D01*
X143670503Y-132458790D01*
X143753946Y-132588465D01*
X143881266Y-132675459D01*
X144032400Y-132706064D01*
X146267600Y-132706064D01*
X146408790Y-132679497D01*
X146519000Y-132608579D01*
X146519000Y-135408270D01*
X146497600Y-135403936D01*
X144262400Y-135403936D01*
X144121210Y-135430503D01*
X143991535Y-135513946D01*
X143904541Y-135641266D01*
X143873936Y-135792400D01*
X143873936Y-138027600D01*
X143900503Y-138168790D01*
X143983946Y-138298465D01*
X144111266Y-138385459D01*
X144262400Y-138416064D01*
X146497600Y-138416064D01*
X146519000Y-138412037D01*
X146519000Y-142119818D01*
X146545551Y-142253300D01*
X146555614Y-142303889D01*
X146659882Y-142459936D01*
X149977984Y-145778039D01*
X150074759Y-145842702D01*
X150134032Y-145882307D01*
X150245858Y-145904550D01*
X150296817Y-145955599D01*
X150521303Y-146048815D01*
X150764374Y-146049027D01*
X150989023Y-145956203D01*
X151000262Y-145944984D01*
X151056587Y-146001407D01*
X151281073Y-146094623D01*
X151524144Y-146094835D01*
X151748793Y-146002011D01*
X151868442Y-145882571D01*
X152922050Y-146936180D01*
X153068822Y-147034250D01*
X153078098Y-147040448D01*
X153262169Y-147077062D01*
X157601117Y-147077062D01*
X157785188Y-147040448D01*
X157941235Y-146936180D01*
X159560129Y-145317286D01*
X159596978Y-145262138D01*
X159664397Y-145161239D01*
X159701011Y-144977168D01*
X159701011Y-143991002D01*
X160498883Y-143991002D01*
X160591707Y-144215651D01*
X160763434Y-144387678D01*
X160987920Y-144480894D01*
X161230991Y-144481106D01*
X161455640Y-144388282D01*
X161627667Y-144216555D01*
X161720883Y-143992069D01*
X161721095Y-143748998D01*
X161628271Y-143524349D01*
X161456544Y-143352322D01*
X161232058Y-143259106D01*
X160988987Y-143258894D01*
X160764338Y-143351718D01*
X160592311Y-143523445D01*
X160499095Y-143747931D01*
X160498883Y-143991002D01*
X159701011Y-143991002D01*
X159701011Y-139121002D01*
X160418894Y-139121002D01*
X160511718Y-139345651D01*
X160683445Y-139517678D01*
X160907931Y-139610894D01*
X161151002Y-139611106D01*
X161375651Y-139518282D01*
X161547678Y-139346555D01*
X161640894Y-139122069D01*
X161641106Y-138878998D01*
X161548282Y-138654349D01*
X161376555Y-138482322D01*
X161152069Y-138389106D01*
X160908998Y-138388894D01*
X160684349Y-138481718D01*
X160512322Y-138653445D01*
X160419106Y-138877931D01*
X160418894Y-139121002D01*
X159701011Y-139121002D01*
X159701011Y-136521411D01*
X159747931Y-136540894D01*
X159991002Y-136541106D01*
X160215651Y-136448282D01*
X160387678Y-136276555D01*
X160480894Y-136052069D01*
X160481106Y-135808998D01*
X160388282Y-135584349D01*
X160351000Y-135547002D01*
X160351000Y-135131000D01*
X168673936Y-135131000D01*
X168673936Y-135737600D01*
X168700503Y-135878790D01*
X168706596Y-135888259D01*
X168704541Y-135891266D01*
X168673936Y-136042400D01*
X168673936Y-138277600D01*
X168700503Y-138418790D01*
X168706596Y-138428259D01*
X168704541Y-138431266D01*
X168673936Y-138582400D01*
X168673936Y-140817600D01*
X168700503Y-140958790D01*
X168706596Y-140968259D01*
X168704541Y-140971266D01*
X168673936Y-141122400D01*
X168673936Y-143357600D01*
X168700503Y-143498790D01*
X168706596Y-143508259D01*
X168704541Y-143511266D01*
X168673936Y-143662400D01*
X168673936Y-145692838D01*
X168524073Y-145842702D01*
X168427400Y-146076091D01*
X168427400Y-147034250D01*
X168586150Y-147193000D01*
X170053000Y-147193000D01*
X170053000Y-147173000D01*
X170307000Y-147173000D01*
X170307000Y-147193000D01*
X171773850Y-147193000D01*
X171932600Y-147034250D01*
X171932600Y-146076091D01*
X171835927Y-145842702D01*
X171686064Y-145692838D01*
X171686064Y-143662400D01*
X171659497Y-143521210D01*
X171653404Y-143511741D01*
X171655459Y-143508734D01*
X171686064Y-143357600D01*
X171686064Y-141122400D01*
X171659497Y-140981210D01*
X171653404Y-140971741D01*
X171655459Y-140968734D01*
X171686064Y-140817600D01*
X171686064Y-138582400D01*
X171659497Y-138441210D01*
X171653404Y-138431741D01*
X171655459Y-138428734D01*
X171686064Y-138277600D01*
X171686064Y-136042400D01*
X171659497Y-135901210D01*
X171653404Y-135891741D01*
X171655459Y-135888734D01*
X171686064Y-135737600D01*
X171686064Y-133502400D01*
X171659497Y-133361210D01*
X171576054Y-133231535D01*
X171448734Y-133144541D01*
X171297600Y-133113936D01*
X169062400Y-133113936D01*
X168921210Y-133140503D01*
X168791535Y-133223946D01*
X168704541Y-133351266D01*
X168673936Y-133502400D01*
X168673936Y-134169000D01*
X160351000Y-134169000D01*
X160351000Y-134090000D01*
X160337488Y-134022069D01*
X160314387Y-133905930D01*
X160210119Y-133749882D01*
X159266450Y-132806213D01*
X159981392Y-132806213D01*
X160050857Y-133048397D01*
X160574302Y-133235144D01*
X161129368Y-133207362D01*
X161513143Y-133048397D01*
X161582608Y-132806213D01*
X160782000Y-132005605D01*
X159981392Y-132806213D01*
X159266450Y-132806213D01*
X158078539Y-131618302D01*
X159372856Y-131618302D01*
X159400638Y-132173368D01*
X159559603Y-132557143D01*
X159801787Y-132626608D01*
X160602395Y-131826000D01*
X160961605Y-131826000D01*
X161762213Y-132626608D01*
X162004397Y-132557143D01*
X162191144Y-132033698D01*
X162163362Y-131478632D01*
X162004397Y-131094857D01*
X161762213Y-131025392D01*
X160961605Y-131826000D01*
X160602395Y-131826000D01*
X159801787Y-131025392D01*
X159559603Y-131094857D01*
X159372856Y-131618302D01*
X158078539Y-131618302D01*
X156843368Y-130383132D01*
X156687321Y-130278864D01*
X156503250Y-130242250D01*
X155426731Y-130242250D01*
X155242660Y-130278864D01*
X155086612Y-130383132D01*
X154904317Y-130565428D01*
X154894648Y-130567247D01*
X154894386Y-130565929D01*
X154856538Y-130509286D01*
X154790118Y-130409881D01*
X153220118Y-128839882D01*
X152772300Y-128392064D01*
X153848600Y-128392064D01*
X153989790Y-128365497D01*
X154119465Y-128282054D01*
X154206459Y-128154734D01*
X154237064Y-128003600D01*
X154237064Y-127115617D01*
X154280400Y-127115617D01*
X154280400Y-127164383D01*
X154375140Y-127640671D01*
X154644935Y-128044448D01*
X155048712Y-128314243D01*
X155525000Y-128408983D01*
X156001288Y-128314243D01*
X156405065Y-128044448D01*
X156674860Y-127640671D01*
X156769600Y-127164383D01*
X156769600Y-127115617D01*
X156674860Y-126639329D01*
X156405065Y-126235552D01*
X156001288Y-125965757D01*
X155525000Y-125871017D01*
X155048712Y-125965757D01*
X154644935Y-126235552D01*
X154375140Y-126639329D01*
X154280400Y-127115617D01*
X154237064Y-127115617D01*
X154237064Y-126276400D01*
X154210497Y-126135210D01*
X154127054Y-126005535D01*
X153999734Y-125918541D01*
X153848600Y-125887936D01*
X153747276Y-125887936D01*
X153759947Y-125882688D01*
X154191821Y-125488490D01*
X154374676Y-125098338D01*
X154375140Y-125100671D01*
X154644935Y-125504448D01*
X155048712Y-125774243D01*
X155525000Y-125868983D01*
X156001288Y-125774243D01*
X156405065Y-125504448D01*
X156674860Y-125100671D01*
X156769600Y-124624383D01*
X156769600Y-124575617D01*
X156674860Y-124099329D01*
X156405065Y-123695552D01*
X156001288Y-123425757D01*
X155525000Y-123331017D01*
X155048712Y-123425757D01*
X154644935Y-123695552D01*
X154375140Y-124099329D01*
X154374676Y-124101662D01*
X154191821Y-123711510D01*
X153759947Y-123317312D01*
X153344026Y-123145042D01*
X153112000Y-123266183D01*
X153112000Y-124473000D01*
X153132000Y-124473000D01*
X153132000Y-124727000D01*
X153112000Y-124727000D01*
X153112000Y-124747000D01*
X152858000Y-124747000D01*
X152858000Y-124727000D01*
X151650531Y-124727000D01*
X151530032Y-124959027D01*
X151778179Y-125488490D01*
X152210053Y-125882688D01*
X152222724Y-125887936D01*
X152121400Y-125887936D01*
X151980210Y-125914503D01*
X151850535Y-125997946D01*
X151763541Y-126125266D01*
X151732936Y-126276400D01*
X151732936Y-127352700D01*
X150941000Y-126560764D01*
X150941000Y-124240973D01*
X151530032Y-124240973D01*
X151650531Y-124473000D01*
X152858000Y-124473000D01*
X152858000Y-123266183D01*
X152625974Y-123145042D01*
X152210053Y-123317312D01*
X151778179Y-123711510D01*
X151530032Y-124240973D01*
X150941000Y-124240973D01*
X150941000Y-122443169D01*
X150977678Y-122406555D01*
X151070894Y-122182069D01*
X151070961Y-122104998D01*
X151183445Y-122217678D01*
X151407931Y-122310894D01*
X151651002Y-122311106D01*
X151875651Y-122218282D01*
X152047678Y-122046555D01*
X152140894Y-121822069D01*
X152141106Y-121578998D01*
X152048282Y-121354349D01*
X151876555Y-121182322D01*
X151652069Y-121089106D01*
X151408998Y-121088894D01*
X151191454Y-121178782D01*
X152387836Y-119982400D01*
X159423936Y-119982400D01*
X159423936Y-122217600D01*
X159450503Y-122358790D01*
X159533946Y-122488465D01*
X159661266Y-122575459D01*
X159812400Y-122606064D01*
X160449000Y-122606064D01*
X160449000Y-125646865D01*
X160135388Y-125776446D01*
X159813577Y-126097697D01*
X159639199Y-126517646D01*
X159638802Y-126972359D01*
X159812446Y-127392612D01*
X160133697Y-127714423D01*
X160301000Y-127783893D01*
X160301000Y-128248017D01*
X160135388Y-128316446D01*
X159813577Y-128637697D01*
X159639199Y-129057646D01*
X159638802Y-129512359D01*
X159812446Y-129932612D01*
X160133697Y-130254423D01*
X160553646Y-130428801D01*
X160747660Y-130428970D01*
X160434632Y-130444638D01*
X160050857Y-130603603D01*
X159981392Y-130845787D01*
X160782000Y-131646395D01*
X161582608Y-130845787D01*
X161513143Y-130603603D01*
X161015742Y-130426148D01*
X161428612Y-130255554D01*
X161750423Y-129934303D01*
X161924801Y-129514354D01*
X161925198Y-129059641D01*
X161751554Y-128639388D01*
X161545656Y-128433131D01*
X164465000Y-128433131D01*
X164465000Y-128487869D01*
X164571340Y-129022478D01*
X164874172Y-129475697D01*
X165327391Y-129778529D01*
X165862000Y-129884869D01*
X166396609Y-129778529D01*
X166849828Y-129475697D01*
X166997536Y-129254637D01*
X166997536Y-129476500D01*
X167024103Y-129617690D01*
X167107546Y-129747365D01*
X167234866Y-129834359D01*
X167386000Y-129864964D01*
X169418000Y-129864964D01*
X169559190Y-129838397D01*
X169688865Y-129754954D01*
X169775859Y-129627634D01*
X169806464Y-129476500D01*
X169806464Y-127444500D01*
X169779897Y-127303310D01*
X169696454Y-127173635D01*
X169569134Y-127086641D01*
X169418000Y-127056036D01*
X167386000Y-127056036D01*
X167244810Y-127082603D01*
X167115135Y-127166046D01*
X167028141Y-127293366D01*
X166997536Y-127444500D01*
X166997536Y-127666363D01*
X166849828Y-127445303D01*
X166396609Y-127142471D01*
X165862000Y-127036131D01*
X165327391Y-127142471D01*
X164874172Y-127445303D01*
X164571340Y-127898522D01*
X164465000Y-128433131D01*
X161545656Y-128433131D01*
X161430303Y-128317577D01*
X161263000Y-128248107D01*
X161263000Y-127783983D01*
X161428612Y-127715554D01*
X161750423Y-127394303D01*
X161924801Y-126974354D01*
X161925198Y-126519641D01*
X161751554Y-126099388D01*
X161430303Y-125777577D01*
X161411000Y-125769562D01*
X161411000Y-122606064D01*
X162047600Y-122606064D01*
X162188790Y-122579497D01*
X162318465Y-122496054D01*
X162405459Y-122368734D01*
X162436064Y-122217600D01*
X162436064Y-119982400D01*
X162409497Y-119841210D01*
X162326054Y-119711535D01*
X162198734Y-119624541D01*
X162047600Y-119593936D01*
X159812400Y-119593936D01*
X159671210Y-119620503D01*
X159541535Y-119703946D01*
X159454541Y-119831266D01*
X159423936Y-119982400D01*
X152387836Y-119982400D01*
X153432790Y-118937446D01*
X163748017Y-118937446D01*
X164016812Y-119522879D01*
X164489182Y-119960885D01*
X164971056Y-120160475D01*
X165227000Y-120041336D01*
X165227000Y-118681500D01*
X163866633Y-118681500D01*
X163748017Y-118937446D01*
X153432790Y-118937446D01*
X154198682Y-118171554D01*
X163748017Y-118171554D01*
X163866633Y-118427500D01*
X165227000Y-118427500D01*
X165227000Y-117067664D01*
X165481000Y-117067664D01*
X165481000Y-118427500D01*
X165501000Y-118427500D01*
X165501000Y-118681500D01*
X165481000Y-118681500D01*
X165481000Y-120041336D01*
X165736944Y-120160475D01*
X166218818Y-119960885D01*
X166511863Y-119689158D01*
X166516103Y-119711690D01*
X166599546Y-119841365D01*
X166726866Y-119928359D01*
X166878000Y-119958964D01*
X168910000Y-119958964D01*
X169051190Y-119932397D01*
X169180865Y-119848954D01*
X169267859Y-119721634D01*
X169298464Y-119570500D01*
X169298464Y-117538500D01*
X169271897Y-117397310D01*
X169188454Y-117267635D01*
X169061134Y-117180641D01*
X168910000Y-117150036D01*
X166878000Y-117150036D01*
X166736810Y-117176603D01*
X166607135Y-117260046D01*
X166520141Y-117387366D01*
X166513296Y-117421170D01*
X166218818Y-117148115D01*
X165736944Y-116948525D01*
X165481000Y-117067664D01*
X165227000Y-117067664D01*
X164971056Y-116948525D01*
X164489182Y-117148115D01*
X164016812Y-117586121D01*
X163748017Y-118171554D01*
X154198682Y-118171554D01*
X155960118Y-116410119D01*
X156064386Y-116254071D01*
X156087230Y-116139224D01*
X156101000Y-116070000D01*
X156101000Y-112826481D01*
X156500065Y-112559834D01*
X156769860Y-112156057D01*
X156864600Y-111679769D01*
X156864600Y-111320231D01*
X156769860Y-110843943D01*
X156500065Y-110440166D01*
X156441449Y-110401000D01*
X156533164Y-110401000D01*
X157004493Y-110872330D01*
X156915400Y-111320231D01*
X156915400Y-111679769D01*
X157010140Y-112156057D01*
X157279935Y-112559834D01*
X157683712Y-112829629D01*
X158160000Y-112924369D01*
X158636288Y-112829629D01*
X159040065Y-112559834D01*
X159309860Y-112156057D01*
X159404600Y-111679769D01*
X159404600Y-111320231D01*
X159455400Y-111320231D01*
X159455400Y-111679769D01*
X159550140Y-112156057D01*
X159819935Y-112559834D01*
X160223712Y-112829629D01*
X160700000Y-112924369D01*
X161176288Y-112829629D01*
X161580065Y-112559834D01*
X161849860Y-112156057D01*
X161944600Y-111679769D01*
X161944600Y-111320231D01*
X161849860Y-110843943D01*
X161580065Y-110440166D01*
X161176288Y-110170371D01*
X160700000Y-110075631D01*
X160223712Y-110170371D01*
X159819935Y-110440166D01*
X159550140Y-110843943D01*
X159455400Y-111320231D01*
X159404600Y-111320231D01*
X159309860Y-110843943D01*
X159040065Y-110440166D01*
X158636288Y-110170371D01*
X158160000Y-110075631D01*
X157683712Y-110170371D01*
X157671301Y-110178664D01*
X157072518Y-109579882D01*
X156916471Y-109475614D01*
X156732400Y-109439000D01*
X155458576Y-109439000D01*
X155274505Y-109475614D01*
X155118457Y-109579882D01*
X154249602Y-110448738D01*
X153982036Y-110149268D01*
X153454791Y-109895291D01*
X153439026Y-109892642D01*
X153207000Y-110013783D01*
X153207000Y-111373000D01*
X153227000Y-111373000D01*
X153227000Y-111627000D01*
X153207000Y-111627000D01*
X153207000Y-112986217D01*
X153439026Y-113107358D01*
X153454791Y-113104709D01*
X153982036Y-112850732D01*
X154015390Y-112813401D01*
X154015390Y-116384374D01*
X148749882Y-121649882D01*
X148645614Y-121805929D01*
X148609000Y-121990000D01*
X148609000Y-128432229D01*
X148517048Y-128340116D01*
X148292562Y-128246900D01*
X148049491Y-128246688D01*
X147824842Y-128339512D01*
X147652815Y-128511239D01*
X147559599Y-128735725D01*
X147559553Y-128788498D01*
X146659882Y-129688169D01*
X146561457Y-129835472D01*
X146546054Y-129811535D01*
X146418734Y-129724541D01*
X146267600Y-129693936D01*
X144032400Y-129693936D01*
X143891210Y-129720503D01*
X143761535Y-129803946D01*
X143674541Y-129931266D01*
X143643936Y-130082400D01*
X140335497Y-130082400D01*
X140342464Y-130048000D01*
X140342464Y-128016000D01*
X140315897Y-127874810D01*
X140232454Y-127745135D01*
X140105134Y-127658141D01*
X139954000Y-127627536D01*
X139732137Y-127627536D01*
X139953197Y-127479828D01*
X140256029Y-127026609D01*
X140362369Y-126492000D01*
X140256029Y-125957391D01*
X139953197Y-125504172D01*
X139499978Y-125201340D01*
X138965369Y-125095000D01*
X138910631Y-125095000D01*
X138376022Y-125201340D01*
X137922803Y-125504172D01*
X137757000Y-125752313D01*
X137757000Y-114745567D01*
X138298720Y-115288233D01*
X139724635Y-115880325D01*
X141268592Y-115881672D01*
X142695538Y-115292070D01*
X143788233Y-114201280D01*
X144380325Y-112775365D01*
X144381672Y-111231408D01*
X144072850Y-110484000D01*
X146747936Y-110484000D01*
X146747936Y-112516000D01*
X146774503Y-112657190D01*
X146857946Y-112786865D01*
X146985266Y-112873859D01*
X147136400Y-112904464D01*
X148863600Y-112904464D01*
X149004790Y-112877897D01*
X149134465Y-112794454D01*
X149221459Y-112667134D01*
X149252064Y-112516000D01*
X149252064Y-111320231D01*
X149295400Y-111320231D01*
X149295400Y-111679769D01*
X149390140Y-112156057D01*
X149659935Y-112559834D01*
X150063712Y-112829629D01*
X150540000Y-112924369D01*
X151016288Y-112829629D01*
X151420065Y-112559834D01*
X151689860Y-112156057D01*
X151692704Y-112141757D01*
X151788046Y-112414320D01*
X152177964Y-112850732D01*
X152705209Y-113104709D01*
X152720974Y-113107358D01*
X152953000Y-112986217D01*
X152953000Y-111627000D01*
X152933000Y-111627000D01*
X152933000Y-111373000D01*
X152953000Y-111373000D01*
X152953000Y-110013783D01*
X152720974Y-109892642D01*
X152705209Y-109895291D01*
X152177964Y-110149268D01*
X151788046Y-110585680D01*
X151692704Y-110858243D01*
X151689860Y-110843943D01*
X151420065Y-110440166D01*
X151016288Y-110170371D01*
X150540000Y-110075631D01*
X150063712Y-110170371D01*
X149659935Y-110440166D01*
X149390140Y-110843943D01*
X149295400Y-111320231D01*
X149252064Y-111320231D01*
X149252064Y-110484000D01*
X149225497Y-110342810D01*
X149142054Y-110213135D01*
X149014734Y-110126141D01*
X148863600Y-110095536D01*
X147136400Y-110095536D01*
X146995210Y-110122103D01*
X146865535Y-110205546D01*
X146778541Y-110332866D01*
X146747936Y-110484000D01*
X144072850Y-110484000D01*
X143792070Y-109804462D01*
X143015963Y-109027000D01*
X166484835Y-109027000D01*
X165711767Y-109798720D01*
G36*
X148609000Y-135390000D02*
X148634861Y-135520011D01*
X148645614Y-135574071D01*
X148749882Y-135730118D01*
X149549882Y-136530118D01*
X149705929Y-136634386D01*
X149890000Y-136671000D01*
X153560000Y-136671000D01*
X153744071Y-136634386D01*
X153900118Y-136530118D01*
X154125000Y-136305236D01*
X155677182Y-137857418D01*
X155675209Y-137856599D01*
X155432138Y-137856387D01*
X155207489Y-137949211D01*
X155170142Y-137986493D01*
X154355871Y-137986493D01*
X154291416Y-137999314D01*
X154092116Y-137999140D01*
X153867467Y-138091964D01*
X153695440Y-138263691D01*
X153602224Y-138488177D01*
X153602012Y-138731248D01*
X153662435Y-138877482D01*
X153594662Y-138864001D01*
X151904999Y-138864001D01*
X151720928Y-138900615D01*
X151658425Y-138942379D01*
X151626130Y-138963957D01*
X151553998Y-138963894D01*
X151329349Y-139056718D01*
X151157322Y-139228445D01*
X151064106Y-139452931D01*
X151063894Y-139696002D01*
X151156718Y-139920651D01*
X151328445Y-140092678D01*
X151552931Y-140185894D01*
X151796002Y-140186106D01*
X152020651Y-140093282D01*
X152192678Y-139921555D01*
X152232356Y-139826001D01*
X152328849Y-139826001D01*
X152305318Y-139882669D01*
X152305106Y-140125740D01*
X152397930Y-140350389D01*
X152569657Y-140522416D01*
X152794143Y-140615632D01*
X152867215Y-140615696D01*
X152899637Y-140637359D01*
X152962140Y-140679123D01*
X153146211Y-140715737D01*
X154636795Y-140715737D01*
X154820866Y-140679123D01*
X154976913Y-140574855D01*
X156348909Y-139202859D01*
X156400736Y-139202904D01*
X156625385Y-139110080D01*
X156777747Y-138957984D01*
X156799000Y-138979237D01*
X156799000Y-139418901D01*
X156798473Y-139418682D01*
X156555402Y-139418470D01*
X156330753Y-139511294D01*
X156158726Y-139683021D01*
X156065510Y-139907507D01*
X156065298Y-140150578D01*
X156158122Y-140375227D01*
X156329849Y-140547254D01*
X156437718Y-140592046D01*
X155930532Y-141099232D01*
X155826264Y-141255279D01*
X155789650Y-141439350D01*
X155789650Y-142313073D01*
X155814631Y-142438660D01*
X155826264Y-142497144D01*
X155930532Y-142653191D01*
X157158918Y-143881578D01*
X157158873Y-143933404D01*
X157251697Y-144158053D01*
X157423424Y-144330080D01*
X157517576Y-144369176D01*
X157507668Y-144393038D01*
X157507456Y-144636109D01*
X157512228Y-144647658D01*
X157444777Y-144675529D01*
X157272750Y-144847256D01*
X157179534Y-145071742D01*
X157179322Y-145314813D01*
X157272146Y-145539462D01*
X157370162Y-145637649D01*
X157252760Y-145755051D01*
X154103480Y-145755051D01*
X151448735Y-143100306D01*
X151448780Y-143048479D01*
X151355956Y-142823830D01*
X151184229Y-142651803D01*
X150959743Y-142558587D01*
X150716672Y-142558375D01*
X150492023Y-142651199D01*
X150319996Y-142822926D01*
X150226780Y-143047412D01*
X150226568Y-143290483D01*
X150259819Y-143370955D01*
X150224349Y-143385611D01*
X150052322Y-143557338D01*
X150050254Y-143562318D01*
X148061000Y-141573064D01*
X148061000Y-134283169D01*
X148097678Y-134246555D01*
X148190894Y-134022069D01*
X148191106Y-133778998D01*
X148098282Y-133554349D01*
X147926555Y-133382322D01*
X147702069Y-133289106D01*
X147481000Y-133288913D01*
X147481000Y-130227523D01*
X148239668Y-129468855D01*
X148291495Y-129468900D01*
X148516144Y-129376076D01*
X148609000Y-129283382D01*
X148609000Y-135390000D01*
X148609000Y-135390000D01*
G37*
X148609000Y-135390000D02*
X148634861Y-135520011D01*
X148645614Y-135574071D01*
X148749882Y-135730118D01*
X149549882Y-136530118D01*
X149705929Y-136634386D01*
X149890000Y-136671000D01*
X153560000Y-136671000D01*
X153744071Y-136634386D01*
X153900118Y-136530118D01*
X154125000Y-136305236D01*
X155677182Y-137857418D01*
X155675209Y-137856599D01*
X155432138Y-137856387D01*
X155207489Y-137949211D01*
X155170142Y-137986493D01*
X154355871Y-137986493D01*
X154291416Y-137999314D01*
X154092116Y-137999140D01*
X153867467Y-138091964D01*
X153695440Y-138263691D01*
X153602224Y-138488177D01*
X153602012Y-138731248D01*
X153662435Y-138877482D01*
X153594662Y-138864001D01*
X151904999Y-138864001D01*
X151720928Y-138900615D01*
X151658425Y-138942379D01*
X151626130Y-138963957D01*
X151553998Y-138963894D01*
X151329349Y-139056718D01*
X151157322Y-139228445D01*
X151064106Y-139452931D01*
X151063894Y-139696002D01*
X151156718Y-139920651D01*
X151328445Y-140092678D01*
X151552931Y-140185894D01*
X151796002Y-140186106D01*
X152020651Y-140093282D01*
X152192678Y-139921555D01*
X152232356Y-139826001D01*
X152328849Y-139826001D01*
X152305318Y-139882669D01*
X152305106Y-140125740D01*
X152397930Y-140350389D01*
X152569657Y-140522416D01*
X152794143Y-140615632D01*
X152867215Y-140615696D01*
X152899637Y-140637359D01*
X152962140Y-140679123D01*
X153146211Y-140715737D01*
X154636795Y-140715737D01*
X154820866Y-140679123D01*
X154976913Y-140574855D01*
X156348909Y-139202859D01*
X156400736Y-139202904D01*
X156625385Y-139110080D01*
X156777747Y-138957984D01*
X156799000Y-138979237D01*
X156799000Y-139418901D01*
X156798473Y-139418682D01*
X156555402Y-139418470D01*
X156330753Y-139511294D01*
X156158726Y-139683021D01*
X156065510Y-139907507D01*
X156065298Y-140150578D01*
X156158122Y-140375227D01*
X156329849Y-140547254D01*
X156437718Y-140592046D01*
X155930532Y-141099232D01*
X155826264Y-141255279D01*
X155789650Y-141439350D01*
X155789650Y-142313073D01*
X155814631Y-142438660D01*
X155826264Y-142497144D01*
X155930532Y-142653191D01*
X157158918Y-143881578D01*
X157158873Y-143933404D01*
X157251697Y-144158053D01*
X157423424Y-144330080D01*
X157517576Y-144369176D01*
X157507668Y-144393038D01*
X157507456Y-144636109D01*
X157512228Y-144647658D01*
X157444777Y-144675529D01*
X157272750Y-144847256D01*
X157179534Y-145071742D01*
X157179322Y-145314813D01*
X157272146Y-145539462D01*
X157370162Y-145637649D01*
X157252760Y-145755051D01*
X154103480Y-145755051D01*
X151448735Y-143100306D01*
X151448780Y-143048479D01*
X151355956Y-142823830D01*
X151184229Y-142651803D01*
X150959743Y-142558587D01*
X150716672Y-142558375D01*
X150492023Y-142651199D01*
X150319996Y-142822926D01*
X150226780Y-143047412D01*
X150226568Y-143290483D01*
X150259819Y-143370955D01*
X150224349Y-143385611D01*
X150052322Y-143557338D01*
X150050254Y-143562318D01*
X148061000Y-141573064D01*
X148061000Y-134283169D01*
X148097678Y-134246555D01*
X148190894Y-134022069D01*
X148191106Y-133778998D01*
X148098282Y-133554349D01*
X147926555Y-133382322D01*
X147702069Y-133289106D01*
X147481000Y-133288913D01*
X147481000Y-130227523D01*
X148239668Y-129468855D01*
X148291495Y-129468900D01*
X148516144Y-129376076D01*
X148609000Y-129283382D01*
X148609000Y-135390000D01*
G36*
X155679662Y-134879283D02*
X155680614Y-134884071D01*
X155784882Y-135040118D01*
X157759000Y-137014237D01*
X157759000Y-137928763D01*
X155649448Y-135819212D01*
X155663464Y-135750000D01*
X155663464Y-134950000D01*
X155649108Y-134873707D01*
X155649475Y-134873170D01*
X155679662Y-134879283D01*
X155679662Y-134879283D01*
G37*
X155679662Y-134879283D02*
X155680614Y-134884071D01*
X155784882Y-135040118D01*
X157759000Y-137014237D01*
X157759000Y-137928763D01*
X155649448Y-135819212D01*
X155663464Y-135750000D01*
X155663464Y-134950000D01*
X155649108Y-134873707D01*
X155649475Y-134873170D01*
X155679662Y-134879283D01*
G36*
X150650000Y-133773000D02*
X150672000Y-133773000D01*
X150672000Y-134027000D01*
X150650000Y-134027000D01*
X150650000Y-134676250D01*
X150808750Y-134835000D01*
X150901310Y-134835000D01*
X151134699Y-134738327D01*
X151135901Y-134737125D01*
X151186673Y-134859699D01*
X151195974Y-134869000D01*
X150299237Y-134869000D01*
X150253243Y-134823007D01*
X150400000Y-134676250D01*
X150400000Y-134027000D01*
X150378000Y-134027000D01*
X150378000Y-133773000D01*
X150400000Y-133773000D01*
X150400000Y-133753000D01*
X150650000Y-133753000D01*
X150650000Y-133773000D01*
X150650000Y-133773000D01*
G37*
X150650000Y-133773000D02*
X150672000Y-133773000D01*
X150672000Y-134027000D01*
X150650000Y-134027000D01*
X150650000Y-134676250D01*
X150808750Y-134835000D01*
X150901310Y-134835000D01*
X151134699Y-134738327D01*
X151135901Y-134737125D01*
X151186673Y-134859699D01*
X151195974Y-134869000D01*
X150299237Y-134869000D01*
X150253243Y-134823007D01*
X150400000Y-134676250D01*
X150400000Y-134027000D01*
X150378000Y-134027000D01*
X150378000Y-133773000D01*
X150400000Y-133773000D01*
X150400000Y-133753000D01*
X150650000Y-133753000D01*
X150650000Y-133773000D01*
G36*
X152272000Y-134412500D02*
X152252000Y-134412500D01*
X152252000Y-134472000D01*
X151998000Y-134472000D01*
X151998000Y-134412500D01*
X151978000Y-134412500D01*
X151978000Y-134238464D01*
X152272000Y-134238464D01*
X152272000Y-134412500D01*
X152272000Y-134412500D01*
G37*
X152272000Y-134412500D02*
X152252000Y-134412500D01*
X152252000Y-134472000D01*
X151998000Y-134472000D01*
X151998000Y-134412500D01*
X151978000Y-134412500D01*
X151978000Y-134238464D01*
X152272000Y-134238464D01*
X152272000Y-134412500D01*
M02*
