G04 #@! TF.FileFunction,Copper,L1,Top,Signal*
%FSLAX46Y46*%
G04 Gerber Fmt 4.6, Leading zero omitted, Abs format (unit mm)*
G04 Created by KiCad (PCBNEW 4.0.4+e1-6308~48~ubuntu16.04.1-stable) date Tue Oct 11 09:38:20 2016*
%MOMM*%
%LPD*%
G01*
G04 APERTURE LIST*
%ADD10C,0.100000*%
%ADD11O,0.850000X0.200000*%
%ADD12O,0.200000X0.850000*%
%ADD13R,1.800000X1.800000*%
%ADD14R,0.500000X0.600000*%
%ADD15R,0.800000X0.750000*%
%ADD16R,0.600000X0.500000*%
%ADD17R,1.800860X1.597660*%
%ADD18R,2.032000X2.032000*%
%ADD19O,2.032000X2.032000*%
%ADD20R,2.235200X2.235200*%
%ADD21R,1.727200X2.032000*%
%ADD22O,1.727200X2.032000*%
%ADD23R,1.727200X1.727200*%
%ADD24O,1.727200X1.727200*%
%ADD25R,0.400000X0.600000*%
%ADD26R,0.900000X0.500000*%
%ADD27C,1.524000*%
%ADD28R,0.800100X0.800100*%
%ADD29C,7.000000*%
%ADD30C,1.200000*%
%ADD31C,0.460000*%
%ADD32C,0.200000*%
%ADD33C,0.254000*%
G04 APERTURE END LIST*
D10*
D11*
X151982000Y-141456000D03*
X151982000Y-141856000D03*
X151982000Y-142256000D03*
X151982000Y-142656000D03*
X151982000Y-143056000D03*
X151982000Y-143456000D03*
X151982000Y-143856000D03*
X151982000Y-144256000D03*
X151982000Y-144656000D03*
X151982000Y-145056000D03*
D12*
X152632000Y-145706000D03*
X153032000Y-145706000D03*
X153432000Y-145706000D03*
X153832000Y-145706000D03*
X154232000Y-145706000D03*
X154632000Y-145706000D03*
X155032000Y-145706000D03*
X155432000Y-145706000D03*
X155832000Y-145706000D03*
X156232000Y-145706000D03*
D11*
X156882000Y-145056000D03*
X156882000Y-144656000D03*
X156882000Y-144256000D03*
X156882000Y-143856000D03*
X156882000Y-143456000D03*
X156882000Y-143056000D03*
X156882000Y-142656000D03*
X156882000Y-142256000D03*
X156882000Y-141856000D03*
X156882000Y-141456000D03*
D12*
X156232000Y-140806000D03*
X155832000Y-140806000D03*
X155432000Y-140806000D03*
X155032000Y-140806000D03*
X154632000Y-140806000D03*
X154232000Y-140806000D03*
X153832000Y-140806000D03*
X153432000Y-140806000D03*
X153032000Y-140806000D03*
X152632000Y-140806000D03*
D13*
X155332000Y-144156000D03*
X155332000Y-142356000D03*
X153532000Y-144156000D03*
X153532000Y-142356000D03*
D14*
X148640000Y-140190000D03*
X148640000Y-141290000D03*
D15*
X149570000Y-142830000D03*
X148070000Y-142830000D03*
D14*
X149990000Y-140200000D03*
X149990000Y-141300000D03*
D15*
X149560000Y-144380000D03*
X148060000Y-144380000D03*
D16*
X150425000Y-137400000D03*
X151525000Y-137400000D03*
X155744000Y-147574000D03*
X154644000Y-147574000D03*
D14*
X157226000Y-138980000D03*
X157226000Y-137880000D03*
D16*
X158284000Y-147574000D03*
X157184000Y-147574000D03*
X158962000Y-146050000D03*
X160062000Y-146050000D03*
X158962000Y-144780000D03*
X160062000Y-144780000D03*
X158962000Y-143510000D03*
X160062000Y-143510000D03*
X158962000Y-142240000D03*
X160062000Y-142240000D03*
X158962000Y-140970000D03*
X160062000Y-140970000D03*
X168698000Y-121348500D03*
X167598000Y-121348500D03*
D14*
X165354000Y-124946500D03*
X165354000Y-123846500D03*
D17*
X138938000Y-123339860D03*
X138938000Y-120500140D03*
D18*
X140462000Y-136969500D03*
D19*
X140462000Y-139509500D03*
D18*
X148875000Y-147900000D03*
D19*
X146335000Y-147900000D03*
D20*
X145380000Y-136910000D03*
X141097000Y-144145000D03*
X148925000Y-151750000D03*
X141000000Y-150000000D03*
X170180000Y-147320000D03*
X145150000Y-131200000D03*
X160930000Y-121100000D03*
X170180000Y-137160000D03*
X170180000Y-134620000D03*
D21*
X155500000Y-159000000D03*
D22*
X152960000Y-159000000D03*
X150420000Y-159000000D03*
X147880000Y-159000000D03*
D23*
X152985000Y-127140000D03*
D24*
X152985000Y-124600000D03*
X155525000Y-127140000D03*
X155525000Y-124600000D03*
D20*
X170180000Y-139700000D03*
X170180000Y-142240000D03*
X170180000Y-144780000D03*
D18*
X167894000Y-118554500D03*
D19*
X165354000Y-118554500D03*
D18*
X138938000Y-129032000D03*
D19*
X138938000Y-126492000D03*
D18*
X168402000Y-128460500D03*
D19*
X165862000Y-128460500D03*
D21*
X148000000Y-111500000D03*
D22*
X150540000Y-111500000D03*
X153080000Y-111500000D03*
X155620000Y-111500000D03*
X158160000Y-111500000D03*
X160700000Y-111500000D03*
D25*
X153100000Y-138750000D03*
X154000000Y-138750000D03*
X154025000Y-137350000D03*
X153125000Y-137350000D03*
X150700000Y-138875000D03*
X151600000Y-138875000D03*
X152400000Y-121700000D03*
X153300000Y-121700000D03*
X154900000Y-121700000D03*
X155800000Y-121700000D03*
X160216000Y-138938000D03*
X159316000Y-138938000D03*
X159316000Y-137668000D03*
X160216000Y-137668000D03*
D26*
X141478000Y-120662000D03*
X141478000Y-122162000D03*
D27*
X160782000Y-129286000D03*
X160782000Y-126746000D03*
X160782000Y-131826000D03*
D28*
X167272240Y-123384976D03*
X167272240Y-125284976D03*
X169271220Y-124334976D03*
D29*
X169000000Y-112000000D03*
X140500000Y-112000000D03*
X169000000Y-158000000D03*
X140500000Y-158000000D03*
D30*
X154420340Y-143275661D03*
D31*
X152370000Y-146590000D03*
X157042703Y-145644733D03*
X153532000Y-142356000D03*
X155332000Y-142356000D03*
X155330000Y-144200000D03*
X153530000Y-144200000D03*
X157230000Y-137000000D03*
X152430000Y-136700000D03*
X160930000Y-137600000D03*
X147130000Y-144400000D03*
X149544291Y-137376234D03*
X150530000Y-134800000D03*
X161200000Y-146050000D03*
X161210000Y-144760000D03*
X161250000Y-142250000D03*
X157790428Y-145193811D03*
X151403142Y-145483729D03*
X161030000Y-139000000D03*
X151530000Y-121700000D03*
X150530000Y-131900000D03*
X154213118Y-138610246D03*
X155553140Y-138467493D03*
X156279734Y-138591798D03*
X157292831Y-132371118D03*
X152916212Y-140004738D03*
X159870000Y-135930000D03*
X156676404Y-140029576D03*
X150460000Y-122060000D03*
X153874317Y-139624656D03*
X151675000Y-139575000D03*
X150458732Y-144651032D03*
X147580000Y-133900000D03*
X150280000Y-130600000D03*
X150837674Y-143169481D03*
X150570000Y-143903893D03*
X150643372Y-145437921D03*
X148170493Y-128857794D03*
X152160000Y-129830000D03*
X158118562Y-144515107D03*
X161109989Y-143870000D03*
X157769979Y-143812402D03*
X158000000Y-141500000D03*
D32*
X165930000Y-120400000D02*
X165930000Y-119830501D01*
X140462000Y-136969500D02*
X145320500Y-136969500D01*
X145320500Y-136969500D02*
X145380000Y-136910000D01*
X148640000Y-140190000D02*
X147342400Y-140190000D01*
X147342400Y-140190000D02*
X145380000Y-138227600D01*
X145380000Y-138227600D02*
X145380000Y-136910000D01*
X148640000Y-140190000D02*
X149980000Y-140190000D01*
X149980000Y-140190000D02*
X149990000Y-140200000D01*
X150960000Y-140560000D02*
X150600000Y-140200000D01*
X150600000Y-140200000D02*
X149990000Y-140200000D01*
X150960000Y-141220000D02*
X150960000Y-140560000D01*
X151982000Y-141456000D02*
X151196000Y-141456000D01*
X151196000Y-141456000D02*
X150960000Y-141220000D01*
X148640000Y-141290000D02*
X147070000Y-141290000D01*
X147070000Y-141290000D02*
X145289500Y-139509500D01*
X145289500Y-139509500D02*
X140462000Y-139509500D01*
X149990000Y-141300000D02*
X148650000Y-141300000D01*
X148650000Y-141300000D02*
X148640000Y-141290000D01*
X151982000Y-141856000D02*
X150496000Y-141856000D01*
X150496000Y-141856000D02*
X149990000Y-141350000D01*
X149990000Y-141350000D02*
X149990000Y-141300000D01*
X141097000Y-144145000D02*
X142414600Y-144145000D01*
X142414600Y-144145000D02*
X144364601Y-142194999D01*
X144364601Y-142194999D02*
X148909999Y-142194999D01*
X148909999Y-142194999D02*
X149545000Y-142830000D01*
X149545000Y-142830000D02*
X149570000Y-142830000D01*
X151982000Y-142256000D02*
X150144000Y-142256000D01*
X150144000Y-142256000D02*
X149570000Y-142830000D01*
X151982000Y-142256000D02*
X151566261Y-142256000D01*
X152632000Y-145706000D02*
X152632000Y-146328000D01*
X152632000Y-146328000D02*
X152370000Y-146590000D01*
X156882000Y-145484030D02*
X157042703Y-145644733D01*
X156882000Y-145056000D02*
X156882000Y-145484030D01*
X160062000Y-144780000D02*
X160062000Y-143510000D01*
X156196990Y-145020990D02*
X155330000Y-144200000D01*
X152871750Y-144816250D02*
X154101236Y-144816250D01*
X152632000Y-145056000D02*
X152871750Y-144816250D01*
X154101236Y-144816250D02*
X153530000Y-144200000D01*
X157226000Y-137880000D02*
X157226000Y-137004000D01*
X157226000Y-137004000D02*
X157230000Y-137000000D01*
X153125000Y-137350000D02*
X153080000Y-137350000D01*
X153080000Y-137350000D02*
X152430000Y-136700000D01*
X160216000Y-137668000D02*
X160862000Y-137668000D01*
X160862000Y-137668000D02*
X160930000Y-137600000D01*
X148060000Y-144380000D02*
X147150000Y-144380000D01*
X147150000Y-144380000D02*
X147130000Y-144400000D01*
X148070000Y-142830000D02*
X148070000Y-144370000D01*
X148070000Y-144370000D02*
X148060000Y-144380000D01*
X149568057Y-137400000D02*
X149544291Y-137376234D01*
X150425000Y-137400000D02*
X149568057Y-137400000D01*
X150700000Y-138875000D02*
X150700000Y-137675000D01*
X150700000Y-137675000D02*
X150425000Y-137400000D01*
X167598000Y-121348500D02*
X167598000Y-120798500D01*
X167598000Y-120798500D02*
X165354000Y-118554500D01*
X160062000Y-146050000D02*
X161200000Y-146050000D01*
X160562000Y-144780000D02*
X161190000Y-144780000D01*
X161190000Y-144780000D02*
X161210000Y-144760000D01*
X160062000Y-144780000D02*
X160562000Y-144780000D01*
X160062000Y-142240000D02*
X161240000Y-142240000D01*
X161240000Y-142240000D02*
X161250000Y-142250000D01*
X160062000Y-140970000D02*
X160062000Y-143510000D01*
X167598000Y-121348500D02*
X167598000Y-123059216D01*
X167598000Y-123059216D02*
X167272240Y-123384976D01*
X167272240Y-123384976D02*
X165815524Y-123384976D01*
X165815524Y-123384976D02*
X165354000Y-123846500D01*
X156882000Y-145056000D02*
X156846990Y-145020990D01*
X156846990Y-145020990D02*
X156196990Y-145020990D01*
X151982000Y-145056000D02*
X152632000Y-145056000D01*
X152632000Y-145706000D02*
X152632000Y-145056000D01*
X150230001Y-143061537D02*
X150230001Y-143537420D01*
X150635538Y-142656000D02*
X150230001Y-143061537D01*
X151982000Y-142656000D02*
X150635538Y-142656000D01*
X149560000Y-144207421D02*
X149560000Y-144380000D01*
X150230001Y-143537420D02*
X149560000Y-144207421D01*
X148875000Y-147900000D02*
X148875000Y-146684000D01*
X148875000Y-146684000D02*
X149560000Y-145999000D01*
X149560000Y-145999000D02*
X149560000Y-144380000D01*
X148925000Y-151750000D02*
X148925000Y-147950000D01*
X148925000Y-147950000D02*
X148875000Y-147900000D01*
X153100000Y-139250000D02*
X153100000Y-138750000D01*
X153432000Y-139907543D02*
X153384315Y-139859858D01*
X153432000Y-140806000D02*
X153432000Y-139907543D01*
X153384315Y-139534315D02*
X153100000Y-139250000D01*
X153384315Y-139859858D02*
X153384315Y-139534315D01*
X151525000Y-137400000D02*
X151850000Y-137400000D01*
X151850000Y-137400000D02*
X153100000Y-138650000D01*
X153100000Y-138650000D02*
X153100000Y-138750000D01*
X155032000Y-145706000D02*
X155032000Y-146912000D01*
X155694000Y-147574000D02*
X155744000Y-147574000D01*
X155032000Y-146912000D02*
X155694000Y-147574000D01*
X154632000Y-145706000D02*
X154632000Y-147562000D01*
X154632000Y-147562000D02*
X154644000Y-147574000D01*
X156776000Y-138980000D02*
X157226000Y-138980000D01*
X156625999Y-139130001D02*
X156776000Y-138980000D01*
X155432000Y-140806000D02*
X155471989Y-140766011D01*
X156210867Y-139130001D02*
X156625999Y-139130001D01*
X155471989Y-139868879D02*
X156210867Y-139130001D01*
X155471989Y-140766011D02*
X155471989Y-139868879D01*
X155832000Y-145706000D02*
X155832000Y-146140131D01*
X155832000Y-146140131D02*
X156196275Y-146504406D01*
X156196275Y-146504406D02*
X157164406Y-146504406D01*
X157164406Y-146504406D02*
X158234000Y-147574000D01*
X158234000Y-147574000D02*
X158284000Y-147574000D01*
X155432000Y-145706000D02*
X155432000Y-146331000D01*
X155432000Y-146331000D02*
X156675000Y-147574000D01*
X156675000Y-147574000D02*
X156684000Y-147574000D01*
X156684000Y-147574000D02*
X157184000Y-147574000D01*
X156882000Y-144656000D02*
X157319382Y-144656000D01*
X158462000Y-146050000D02*
X157790428Y-145378428D01*
X157560429Y-144897047D02*
X157560429Y-144963812D01*
X158962000Y-146050000D02*
X158462000Y-146050000D01*
X157560429Y-144963812D02*
X157790428Y-145193811D01*
X157790428Y-145378428D02*
X157790428Y-145193811D01*
X157319382Y-144656000D02*
X157560429Y-144897047D01*
X151982000Y-144656000D02*
X151942010Y-144695990D01*
X151507879Y-144695990D02*
X151296990Y-144906879D01*
X151296990Y-144906879D02*
X151296990Y-145377577D01*
X151296990Y-145377577D02*
X151403142Y-145483729D01*
X151942010Y-144695990D02*
X151507879Y-144695990D01*
X160216000Y-138938000D02*
X160968000Y-138938000D01*
X160968000Y-138938000D02*
X161030000Y-139000000D01*
X152400000Y-121700000D02*
X151530000Y-121700000D01*
X158378803Y-143850039D02*
X158378803Y-143577200D01*
X158378803Y-143577200D02*
X158124004Y-143322401D01*
X158124004Y-143322401D02*
X157667993Y-143322401D01*
X157521146Y-143336031D02*
X157401177Y-143456000D01*
X158962000Y-144433236D02*
X158378803Y-143850039D01*
X157654363Y-143336031D02*
X157521146Y-143336031D01*
X158962000Y-144780000D02*
X158962000Y-144433236D01*
X157667993Y-143322401D02*
X157654363Y-143336031D01*
X157401177Y-143456000D02*
X156882000Y-143456000D01*
X157372025Y-142976020D02*
X157292045Y-143056000D01*
X157505242Y-142976020D02*
X157372025Y-142976020D01*
X158962000Y-143510000D02*
X158912000Y-143510000D01*
X158912000Y-143510000D02*
X158364390Y-142962390D01*
X158364390Y-142962390D02*
X157518872Y-142962390D01*
X157292045Y-143056000D02*
X156882000Y-143056000D01*
X157518872Y-142962390D02*
X157505242Y-142976020D01*
X156921990Y-142616010D02*
X156882000Y-142656000D01*
X157369752Y-142602379D02*
X157356121Y-142616010D01*
X158599621Y-142602379D02*
X157369752Y-142602379D01*
X157356121Y-142616010D02*
X156921990Y-142616010D01*
X158962000Y-142240000D02*
X158599621Y-142602379D01*
X158962000Y-141238204D02*
X157957834Y-142242370D01*
X158962000Y-140970000D02*
X158962000Y-141238204D01*
X156895630Y-142242370D02*
X156882000Y-142256000D01*
X157957834Y-142242370D02*
X156895630Y-142242370D01*
X168198000Y-120898500D02*
X168648000Y-121348500D01*
X168198000Y-120848500D02*
X168198000Y-120898500D01*
X167894000Y-120544500D02*
X168198000Y-120848500D01*
X167894000Y-118554500D02*
X167894000Y-120544500D01*
X168648000Y-121348500D02*
X168698000Y-121348500D01*
X169271220Y-124334976D02*
X169271220Y-121871720D01*
X169271220Y-121871720D02*
X168748000Y-121348500D01*
X168748000Y-121348500D02*
X168698000Y-121348500D01*
X165862000Y-128460500D02*
X165862000Y-125454500D01*
X165862000Y-125454500D02*
X165692476Y-125284976D01*
X167272240Y-125284976D02*
X165692476Y-125284976D01*
X165692476Y-125284976D02*
X165354000Y-124946500D01*
X138938000Y-123339860D02*
X138938000Y-124338690D01*
X138938000Y-124338690D02*
X138938000Y-126492000D01*
X141478000Y-120662000D02*
X139099860Y-120662000D01*
X139099860Y-120662000D02*
X138938000Y-120500140D01*
X155032000Y-140806000D02*
X155032000Y-140143269D01*
X154139754Y-138610246D02*
X154213118Y-138610246D01*
X154000000Y-138750000D02*
X154139754Y-138610246D01*
X155032000Y-140143269D02*
X155111979Y-140063290D01*
X155111979Y-140063290D02*
X155111980Y-139569756D01*
X155553140Y-139128596D02*
X155553140Y-138792762D01*
X155111980Y-139569756D02*
X155553140Y-139128596D01*
X155553140Y-138792762D02*
X155553140Y-138467493D01*
X154025000Y-137350000D02*
X154025000Y-136850000D01*
X154025000Y-136850000D02*
X153035000Y-135860000D01*
X153035000Y-135860000D02*
X148492400Y-135860000D01*
X148492400Y-135860000D02*
X145150000Y-132517600D01*
X145150000Y-132517600D02*
X145150000Y-131200000D01*
X154025000Y-137350000D02*
X154025000Y-138725000D01*
X154025000Y-138725000D02*
X154000000Y-138750000D01*
X158308082Y-131759918D02*
X160020001Y-130047999D01*
X158308082Y-138915920D02*
X158308082Y-131759918D01*
X157684001Y-139540001D02*
X158308082Y-138915920D01*
X156767999Y-139540001D02*
X157684001Y-139540001D01*
X156718010Y-139490012D02*
X156767999Y-139540001D01*
X156522988Y-139490012D02*
X156718010Y-139490012D01*
X155832000Y-140181000D02*
X156522988Y-139490012D01*
X155832000Y-140806000D02*
X155832000Y-140181000D01*
X160020001Y-130047999D02*
X160782000Y-129286000D01*
X156279734Y-133384215D02*
X156279734Y-138266529D01*
X157292831Y-132371118D02*
X156279734Y-133384215D01*
X156279734Y-138266529D02*
X156279734Y-138591798D01*
X170180000Y-137160000D02*
X168862400Y-137160000D01*
X168862400Y-137160000D02*
X162250000Y-130547600D01*
X162250000Y-130547600D02*
X162250000Y-128947672D01*
X157292831Y-130962416D02*
X157292831Y-132045849D01*
X162250000Y-128947672D02*
X161342918Y-128040590D01*
X161342918Y-128040590D02*
X160214657Y-128040590D01*
X160214657Y-128040590D02*
X157292831Y-130962416D01*
X157292831Y-132045849D02*
X157292831Y-132371118D01*
X153032000Y-140120526D02*
X152916212Y-140004738D01*
X153032000Y-140806000D02*
X153032000Y-140120526D01*
X156232000Y-140806000D02*
X156232000Y-140481000D01*
X156232000Y-140481000D02*
X156676404Y-140036596D01*
X156676404Y-140036596D02*
X156676404Y-140029576D01*
X155500000Y-159000000D02*
X154755214Y-158255214D01*
X154232000Y-146967998D02*
X154232000Y-146331000D01*
X154232000Y-146331000D02*
X154232000Y-145706000D01*
X154755214Y-158255214D02*
X154755214Y-148703216D01*
X154755214Y-148703216D02*
X154083999Y-148032001D01*
X154083999Y-148032001D02*
X154083999Y-147115999D01*
X154083999Y-147115999D02*
X154232000Y-146967998D01*
X153832000Y-146858866D02*
X153832000Y-146331000D01*
X153832000Y-146331000D02*
X153832000Y-145706000D01*
X153723988Y-148181122D02*
X153723989Y-146966877D01*
X153723989Y-146966877D02*
X153832000Y-146858866D01*
X154023600Y-148480734D02*
X153723988Y-148181122D01*
X152960000Y-159000000D02*
X152960000Y-158847600D01*
X152960000Y-158847600D02*
X154023600Y-157784000D01*
X154023600Y-157784000D02*
X154023600Y-148480734D01*
X153392011Y-148358277D02*
X153392011Y-155875589D01*
X153363978Y-148330244D02*
X153392011Y-148358277D01*
X150420000Y-158847600D02*
X150420000Y-159000000D01*
X153432000Y-145706000D02*
X153432000Y-146749734D01*
X153392011Y-155875589D02*
X150420000Y-158847600D01*
X153363979Y-146817757D02*
X153363978Y-148330244D01*
X153432000Y-146749734D02*
X153363979Y-146817757D01*
X153032000Y-146640606D02*
X153032000Y-146331000D01*
X153032000Y-146331000D02*
X153032000Y-145706000D01*
X147880000Y-158847600D02*
X153003966Y-153723634D01*
X153003966Y-153723634D02*
X153003969Y-146668637D01*
X147880000Y-159000000D02*
X147880000Y-158847600D01*
X153003969Y-146668637D02*
X153032000Y-146640606D01*
X154311980Y-139845025D02*
X154311978Y-140101022D01*
X152985000Y-128203600D02*
X154703128Y-129921728D01*
X154703128Y-138960344D02*
X154391960Y-139271512D01*
X152985000Y-127140000D02*
X152985000Y-128203600D01*
X154232000Y-140181000D02*
X154232000Y-140806000D01*
X154311978Y-140101022D02*
X154232000Y-140181000D01*
X154391959Y-139765046D02*
X154311980Y-139845025D01*
X154391960Y-139271512D02*
X154391959Y-139765046D01*
X154703128Y-129921728D02*
X154703128Y-138960344D01*
X154751970Y-139420634D02*
X155063139Y-139109465D01*
X155525000Y-128361314D02*
X155525000Y-127140000D01*
X154671990Y-139994147D02*
X154751969Y-139914168D01*
X155063139Y-128823175D02*
X155525000Y-128361314D01*
X154671989Y-140766011D02*
X154671990Y-139994147D01*
X154632000Y-140806000D02*
X154671989Y-140766011D01*
X155063139Y-139109465D02*
X155063139Y-128823175D01*
X154751969Y-139914168D02*
X154751970Y-139420634D01*
X155525000Y-124600000D02*
X155525000Y-121975000D01*
X155525000Y-121975000D02*
X155800000Y-121700000D01*
X159316000Y-137668000D02*
X159316000Y-138938000D01*
X168592400Y-139970000D02*
X159939000Y-139970000D01*
X159939000Y-139970000D02*
X159316000Y-139347000D01*
X170180000Y-139700000D02*
X168862400Y-139700000D01*
X168862400Y-139700000D02*
X168592400Y-139970000D01*
X156882000Y-141456000D02*
X157207000Y-141456000D01*
X157207000Y-141456000D02*
X159316000Y-139347000D01*
X159316000Y-139347000D02*
X159316000Y-138938000D01*
X150460000Y-122060000D02*
X150460000Y-113960000D01*
X150460000Y-113960000D02*
X148000000Y-111500000D01*
X153832000Y-140806000D02*
X153832000Y-139666973D01*
X153832000Y-139666973D02*
X153874317Y-139624656D01*
X151675000Y-139575000D02*
X151675000Y-138950000D01*
X151675000Y-138950000D02*
X151600000Y-138875000D01*
X151575000Y-138900000D02*
X151600000Y-138875000D01*
X154900000Y-121700000D02*
X153300000Y-121700000D01*
X150688731Y-144421033D02*
X150458732Y-144651032D01*
X151209635Y-143975970D02*
X150764572Y-144421033D01*
X151982000Y-143856000D02*
X151437823Y-143856000D01*
X150764572Y-144421033D02*
X150688731Y-144421033D01*
X151437823Y-143856000D02*
X151317854Y-143975969D01*
X151317854Y-143975969D02*
X151209635Y-143975970D01*
X141478000Y-122870259D02*
X141478000Y-122612000D01*
X150280000Y-130600000D02*
X149207741Y-130600000D01*
X149207741Y-130600000D02*
X141478000Y-122870259D01*
X141478000Y-122612000D02*
X141478000Y-122162000D01*
X150280000Y-130600000D02*
X150280000Y-131200000D01*
X150280000Y-131200000D02*
X147580000Y-133900000D01*
X150951155Y-143056000D02*
X150837674Y-143169481D01*
X151982000Y-143056000D02*
X150951155Y-143056000D01*
X150799999Y-143673894D02*
X150570000Y-143903893D01*
X151168733Y-143615958D02*
X151060516Y-143615958D01*
X151328691Y-143456000D02*
X151168733Y-143615958D01*
X151982000Y-143456000D02*
X151328691Y-143456000D01*
X151002580Y-143673894D02*
X150799999Y-143673894D01*
X151060516Y-143615958D02*
X151002580Y-143673894D01*
X150873371Y-145207922D02*
X150643372Y-145437921D01*
X150936979Y-145144314D02*
X150873371Y-145207922D01*
X151467890Y-144335979D02*
X151358757Y-144335980D01*
X150936979Y-144757758D02*
X150936979Y-145144314D01*
X151982000Y-144256000D02*
X151547869Y-144256000D01*
X151358757Y-144335980D02*
X150936979Y-144757758D01*
X151547869Y-144256000D02*
X151467890Y-144335979D01*
X148495762Y-128857794D02*
X148170493Y-128857794D01*
X151187794Y-128857794D02*
X148495762Y-128857794D01*
X152160000Y-129830000D02*
X151187794Y-128857794D01*
X158348561Y-144745106D02*
X158118562Y-144515107D01*
X158453999Y-145290001D02*
X158401999Y-145238001D01*
X168352399Y-145290001D02*
X158453999Y-145290001D01*
X168862400Y-144780000D02*
X168352399Y-145290001D01*
X170180000Y-144780000D02*
X168862400Y-144780000D01*
X156882000Y-144256000D02*
X157508373Y-144256000D01*
X157793293Y-144515107D02*
X158118562Y-144515107D01*
X157767480Y-144515107D02*
X157793293Y-144515107D01*
X157508373Y-144256000D02*
X157767480Y-144515107D01*
X158401999Y-144798544D02*
X158348561Y-144745106D01*
X158401999Y-145238001D02*
X158401999Y-144798544D01*
X161339988Y-143640001D02*
X161109989Y-143870000D01*
X162739989Y-142240000D02*
X161339988Y-143640001D01*
X170180000Y-142240000D02*
X162739989Y-142240000D01*
X157726381Y-143856000D02*
X157769979Y-143812402D01*
X156882000Y-143856000D02*
X157726381Y-143856000D01*
X156882000Y-141856000D02*
X157644000Y-141856000D01*
X157644000Y-141856000D02*
X158000000Y-141500000D01*
D33*
G36*
X165711767Y-109798720D02*
X165119675Y-111224635D01*
X165118328Y-112768592D01*
X165707930Y-114195538D01*
X166798720Y-115288233D01*
X168224635Y-115880325D01*
X169768592Y-115881672D01*
X171195538Y-115292070D01*
X172003000Y-114486016D01*
X172003000Y-155514887D01*
X171201280Y-154711767D01*
X169775365Y-154119675D01*
X168231408Y-154118328D01*
X166804462Y-154707930D01*
X165711767Y-155798720D01*
X165119675Y-157224635D01*
X165118328Y-158768592D01*
X165707930Y-160195538D01*
X166284385Y-160773000D01*
X143215515Y-160773000D01*
X143788233Y-160201280D01*
X144380325Y-158775365D01*
X144381672Y-157231408D01*
X143792070Y-155804462D01*
X142701280Y-154711767D01*
X141275365Y-154119675D01*
X139731408Y-154118328D01*
X138304462Y-154707930D01*
X137757000Y-155254438D01*
X137757000Y-150285750D01*
X139247400Y-150285750D01*
X139247400Y-151243910D01*
X139344073Y-151477299D01*
X139522702Y-151655927D01*
X139756091Y-151752600D01*
X140714250Y-151752600D01*
X140873000Y-151593850D01*
X140873000Y-150127000D01*
X141127000Y-150127000D01*
X141127000Y-151593850D01*
X141285750Y-151752600D01*
X142243909Y-151752600D01*
X142477298Y-151655927D01*
X142655927Y-151477299D01*
X142752600Y-151243910D01*
X142752600Y-150285750D01*
X142593850Y-150127000D01*
X141127000Y-150127000D01*
X140873000Y-150127000D01*
X139406150Y-150127000D01*
X139247400Y-150285750D01*
X137757000Y-150285750D01*
X137757000Y-148756090D01*
X139247400Y-148756090D01*
X139247400Y-149714250D01*
X139406150Y-149873000D01*
X140873000Y-149873000D01*
X140873000Y-148406150D01*
X141127000Y-148406150D01*
X141127000Y-149873000D01*
X142593850Y-149873000D01*
X142752600Y-149714250D01*
X142752600Y-148756090D01*
X142655927Y-148522701D01*
X142477298Y-148344073D01*
X142243909Y-148247400D01*
X141285750Y-148247400D01*
X141127000Y-148406150D01*
X140873000Y-148406150D01*
X140714250Y-148247400D01*
X139756091Y-148247400D01*
X139522702Y-148344073D01*
X139344073Y-148522701D01*
X139247400Y-148756090D01*
X137757000Y-148756090D01*
X137757000Y-135953500D01*
X139057536Y-135953500D01*
X139057536Y-137985500D01*
X139084103Y-138126690D01*
X139167546Y-138256365D01*
X139294866Y-138343359D01*
X139446000Y-138373964D01*
X139654272Y-138373964D01*
X139474172Y-138494303D01*
X139171340Y-138947522D01*
X139065000Y-139482131D01*
X139065000Y-139536869D01*
X139171340Y-140071478D01*
X139474172Y-140524697D01*
X139927391Y-140827529D01*
X140462000Y-140933869D01*
X140996609Y-140827529D01*
X141449828Y-140524697D01*
X141752660Y-140071478D01*
X141768767Y-139990500D01*
X145090264Y-139990500D01*
X146729881Y-141630118D01*
X146851747Y-141711546D01*
X146855418Y-141713999D01*
X144364601Y-141713999D01*
X144180530Y-141750613D01*
X144076686Y-141820000D01*
X144024483Y-141854881D01*
X142603064Y-143276300D01*
X142603064Y-143027400D01*
X142576497Y-142886210D01*
X142493054Y-142756535D01*
X142365734Y-142669541D01*
X142214600Y-142638936D01*
X139979400Y-142638936D01*
X139838210Y-142665503D01*
X139708535Y-142748946D01*
X139621541Y-142876266D01*
X139590936Y-143027400D01*
X139590936Y-145262600D01*
X139617503Y-145403790D01*
X139700946Y-145533465D01*
X139828266Y-145620459D01*
X139979400Y-145651064D01*
X142214600Y-145651064D01*
X142355790Y-145624497D01*
X142485465Y-145541054D01*
X142572459Y-145413734D01*
X142603064Y-145262600D01*
X142603064Y-144665750D01*
X147025000Y-144665750D01*
X147025000Y-144881310D01*
X147121673Y-145114699D01*
X147300302Y-145293327D01*
X147533691Y-145390000D01*
X147774250Y-145390000D01*
X147933000Y-145231250D01*
X147933000Y-144507000D01*
X147183750Y-144507000D01*
X147025000Y-144665750D01*
X142603064Y-144665750D01*
X142603064Y-144586451D01*
X142754718Y-144485118D01*
X143361146Y-143878690D01*
X147025000Y-143878690D01*
X147025000Y-144094250D01*
X147183750Y-144253000D01*
X147933000Y-144253000D01*
X147933000Y-143691250D01*
X147943000Y-143681250D01*
X147943000Y-142957000D01*
X147193750Y-142957000D01*
X147035000Y-143115750D01*
X147035000Y-143331310D01*
X147131673Y-143564699D01*
X147166974Y-143600000D01*
X147121673Y-143645301D01*
X147025000Y-143878690D01*
X143361146Y-143878690D01*
X144563837Y-142675999D01*
X147166749Y-142675999D01*
X147193750Y-142703000D01*
X147943000Y-142703000D01*
X147943000Y-142683000D01*
X148197000Y-142683000D01*
X148197000Y-142703000D01*
X148217000Y-142703000D01*
X148217000Y-142957000D01*
X148197000Y-142957000D01*
X148197000Y-143518750D01*
X148187000Y-143528750D01*
X148187000Y-144253000D01*
X148207000Y-144253000D01*
X148207000Y-144507000D01*
X148187000Y-144507000D01*
X148187000Y-145231250D01*
X148345750Y-145390000D01*
X148586309Y-145390000D01*
X148819698Y-145293327D01*
X148998327Y-145114699D01*
X149001246Y-145107652D01*
X149008866Y-145112859D01*
X149079000Y-145127061D01*
X149079000Y-145799763D01*
X148534882Y-146343882D01*
X148433549Y-146495536D01*
X147859000Y-146495536D01*
X147717810Y-146522103D01*
X147588135Y-146605546D01*
X147501141Y-146732866D01*
X147470536Y-146884000D01*
X147470536Y-147105863D01*
X147322828Y-146884803D01*
X146869609Y-146581971D01*
X146335000Y-146475631D01*
X145800391Y-146581971D01*
X145347172Y-146884803D01*
X145044340Y-147338022D01*
X144938000Y-147872631D01*
X144938000Y-147927369D01*
X145044340Y-148461978D01*
X145347172Y-148915197D01*
X145800391Y-149218029D01*
X146335000Y-149324369D01*
X146869609Y-149218029D01*
X147322828Y-148915197D01*
X147470536Y-148694137D01*
X147470536Y-148916000D01*
X147497103Y-149057190D01*
X147580546Y-149186865D01*
X147707866Y-149273859D01*
X147859000Y-149304464D01*
X148444000Y-149304464D01*
X148444000Y-150243936D01*
X147807400Y-150243936D01*
X147666210Y-150270503D01*
X147536535Y-150353946D01*
X147449541Y-150481266D01*
X147418936Y-150632400D01*
X147418936Y-152867600D01*
X147445503Y-153008790D01*
X147528946Y-153138465D01*
X147656266Y-153225459D01*
X147807400Y-153256064D01*
X150042600Y-153256064D01*
X150183790Y-153229497D01*
X150313465Y-153146054D01*
X150400459Y-153018734D01*
X150431064Y-152867600D01*
X150431064Y-150632400D01*
X150404497Y-150491210D01*
X150321054Y-150361535D01*
X150193734Y-150274541D01*
X150042600Y-150243936D01*
X149406000Y-150243936D01*
X149406000Y-149304464D01*
X149891000Y-149304464D01*
X150032190Y-149277897D01*
X150161865Y-149194454D01*
X150248859Y-149067134D01*
X150279464Y-148916000D01*
X150279464Y-146884000D01*
X150252897Y-146742810D01*
X150169454Y-146613135D01*
X150042134Y-146526141D01*
X149891000Y-146495536D01*
X149743701Y-146495536D01*
X149900118Y-146339119D01*
X150004386Y-146183071D01*
X150021979Y-146094623D01*
X150041000Y-145999000D01*
X150041000Y-145580061D01*
X150125090Y-145783572D01*
X150296817Y-145955599D01*
X150521303Y-146048815D01*
X150764374Y-146049027D01*
X150989023Y-145956203D01*
X151000262Y-145944984D01*
X151056587Y-146001407D01*
X151281073Y-146094623D01*
X151524144Y-146094835D01*
X151748793Y-146002011D01*
X151897000Y-145854062D01*
X151897000Y-146158000D01*
X152001549Y-146429605D01*
X152202079Y-146640526D01*
X152467903Y-146747447D01*
X152504998Y-146701160D01*
X152504998Y-146766000D01*
X152522969Y-146766000D01*
X152522966Y-153524397D01*
X148368700Y-157678664D01*
X148356288Y-157670371D01*
X147880000Y-157575631D01*
X147403712Y-157670371D01*
X146999935Y-157940166D01*
X146730140Y-158343943D01*
X146635400Y-158820231D01*
X146635400Y-159179769D01*
X146730140Y-159656057D01*
X146999935Y-160059834D01*
X147403712Y-160329629D01*
X147880000Y-160424369D01*
X148356288Y-160329629D01*
X148760065Y-160059834D01*
X149029860Y-159656057D01*
X149124600Y-159179769D01*
X149124600Y-158820231D01*
X149035506Y-158372330D01*
X152911011Y-154496826D01*
X152911011Y-155676352D01*
X150908700Y-157678664D01*
X150896288Y-157670371D01*
X150420000Y-157575631D01*
X149943712Y-157670371D01*
X149539935Y-157940166D01*
X149270140Y-158343943D01*
X149175400Y-158820231D01*
X149175400Y-159179769D01*
X149270140Y-159656057D01*
X149539935Y-160059834D01*
X149943712Y-160329629D01*
X150420000Y-160424369D01*
X150896288Y-160329629D01*
X151300065Y-160059834D01*
X151569860Y-159656057D01*
X151664600Y-159179769D01*
X151664600Y-158820231D01*
X151575507Y-158372330D01*
X153542600Y-156405237D01*
X153542600Y-157584763D01*
X153448699Y-157678664D01*
X153436288Y-157670371D01*
X152960000Y-157575631D01*
X152483712Y-157670371D01*
X152079935Y-157940166D01*
X151810140Y-158343943D01*
X151715400Y-158820231D01*
X151715400Y-159179769D01*
X151810140Y-159656057D01*
X152079935Y-160059834D01*
X152483712Y-160329629D01*
X152960000Y-160424369D01*
X153436288Y-160329629D01*
X153840065Y-160059834D01*
X154109860Y-159656057D01*
X154204600Y-159179769D01*
X154204600Y-158820231D01*
X154115507Y-158372330D01*
X154247936Y-158239901D01*
X154247936Y-160016000D01*
X154274503Y-160157190D01*
X154357946Y-160286865D01*
X154485266Y-160373859D01*
X154636400Y-160404464D01*
X156363600Y-160404464D01*
X156504790Y-160377897D01*
X156634465Y-160294454D01*
X156721459Y-160167134D01*
X156752064Y-160016000D01*
X156752064Y-157984000D01*
X156725497Y-157842810D01*
X156642054Y-157713135D01*
X156514734Y-157626141D01*
X156363600Y-157595536D01*
X155236214Y-157595536D01*
X155236214Y-148703216D01*
X155199600Y-148519145D01*
X155195495Y-148513001D01*
X155095332Y-148363097D01*
X154944588Y-148212353D01*
X155085190Y-148185897D01*
X155195186Y-148115117D01*
X155292866Y-148181859D01*
X155444000Y-148212464D01*
X156044000Y-148212464D01*
X156185190Y-148185897D01*
X156314865Y-148102454D01*
X156401859Y-147975134D01*
X156404760Y-147960810D01*
X156472970Y-148006386D01*
X156490929Y-148018386D01*
X156565934Y-148033305D01*
X156605546Y-148094865D01*
X156732866Y-148181859D01*
X156884000Y-148212464D01*
X157484000Y-148212464D01*
X157625190Y-148185897D01*
X157735186Y-148115117D01*
X157832866Y-148181859D01*
X157984000Y-148212464D01*
X158584000Y-148212464D01*
X158725190Y-148185897D01*
X158854865Y-148102454D01*
X158941859Y-147975134D01*
X158972464Y-147824000D01*
X158972464Y-147605750D01*
X168427400Y-147605750D01*
X168427400Y-148563909D01*
X168524073Y-148797298D01*
X168702701Y-148975927D01*
X168936090Y-149072600D01*
X169894250Y-149072600D01*
X170053000Y-148913850D01*
X170053000Y-147447000D01*
X170307000Y-147447000D01*
X170307000Y-148913850D01*
X170465750Y-149072600D01*
X171423910Y-149072600D01*
X171657299Y-148975927D01*
X171835927Y-148797298D01*
X171932600Y-148563909D01*
X171932600Y-147605750D01*
X171773850Y-147447000D01*
X170307000Y-147447000D01*
X170053000Y-147447000D01*
X168586150Y-147447000D01*
X168427400Y-147605750D01*
X158972464Y-147605750D01*
X158972464Y-147324000D01*
X158945897Y-147182810D01*
X158862454Y-147053135D01*
X158735134Y-146966141D01*
X158584000Y-146935536D01*
X158275773Y-146935536D01*
X157504524Y-146164288D01*
X157348477Y-146060020D01*
X157164406Y-146023406D01*
X156713000Y-146023406D01*
X156713000Y-145791000D01*
X156755000Y-145791000D01*
X156755000Y-145431026D01*
X156770327Y-145415699D01*
X156867000Y-145182310D01*
X156867000Y-145137000D01*
X157009000Y-145137000D01*
X157009000Y-145791000D01*
X157334000Y-145791000D01*
X157470299Y-145738535D01*
X158121881Y-146390118D01*
X158263232Y-146484566D01*
X158277929Y-146494386D01*
X158342613Y-146507252D01*
X158383546Y-146570865D01*
X158510866Y-146657859D01*
X158662000Y-146688464D01*
X159252438Y-146688464D01*
X159402302Y-146838327D01*
X159635691Y-146935000D01*
X159776250Y-146935000D01*
X159935000Y-146776250D01*
X159935000Y-146175000D01*
X160189000Y-146175000D01*
X160189000Y-146776250D01*
X160347750Y-146935000D01*
X160488309Y-146935000D01*
X160721698Y-146838327D01*
X160900327Y-146659699D01*
X160997000Y-146426310D01*
X160997000Y-146333750D01*
X160838250Y-146175000D01*
X160189000Y-146175000D01*
X159935000Y-146175000D01*
X159915000Y-146175000D01*
X159915000Y-145925000D01*
X159935000Y-145925000D01*
X159935000Y-145903000D01*
X160189000Y-145903000D01*
X160189000Y-145925000D01*
X160838250Y-145925000D01*
X160992249Y-145771001D01*
X168352399Y-145771001D01*
X168536470Y-145734387D01*
X168673936Y-145642535D01*
X168673936Y-145692838D01*
X168524073Y-145842702D01*
X168427400Y-146076091D01*
X168427400Y-147034250D01*
X168586150Y-147193000D01*
X170053000Y-147193000D01*
X170053000Y-147173000D01*
X170307000Y-147173000D01*
X170307000Y-147193000D01*
X171773850Y-147193000D01*
X171932600Y-147034250D01*
X171932600Y-146076091D01*
X171835927Y-145842702D01*
X171686064Y-145692838D01*
X171686064Y-143662400D01*
X171659497Y-143521210D01*
X171653404Y-143511741D01*
X171655459Y-143508734D01*
X171686064Y-143357600D01*
X171686064Y-141122400D01*
X171659497Y-140981210D01*
X171653404Y-140971741D01*
X171655459Y-140968734D01*
X171686064Y-140817600D01*
X171686064Y-138582400D01*
X171659497Y-138441210D01*
X171653404Y-138431741D01*
X171655459Y-138428734D01*
X171686064Y-138277600D01*
X171686064Y-136042400D01*
X171659497Y-135901210D01*
X171653404Y-135891741D01*
X171655459Y-135888734D01*
X171686064Y-135737600D01*
X171686064Y-133502400D01*
X171659497Y-133361210D01*
X171576054Y-133231535D01*
X171448734Y-133144541D01*
X171297600Y-133113936D01*
X169062400Y-133113936D01*
X168921210Y-133140503D01*
X168791535Y-133223946D01*
X168704541Y-133351266D01*
X168673936Y-133502400D01*
X168673936Y-135737600D01*
X168700503Y-135878790D01*
X168706596Y-135888259D01*
X168704541Y-135891266D01*
X168673936Y-136042400D01*
X168673936Y-136291299D01*
X162731000Y-130348364D01*
X162731000Y-128947672D01*
X162694386Y-128763601D01*
X162634331Y-128673723D01*
X162590119Y-128607554D01*
X162415696Y-128433131D01*
X164465000Y-128433131D01*
X164465000Y-128487869D01*
X164571340Y-129022478D01*
X164874172Y-129475697D01*
X165327391Y-129778529D01*
X165862000Y-129884869D01*
X166396609Y-129778529D01*
X166849828Y-129475697D01*
X166997536Y-129254637D01*
X166997536Y-129476500D01*
X167024103Y-129617690D01*
X167107546Y-129747365D01*
X167234866Y-129834359D01*
X167386000Y-129864964D01*
X169418000Y-129864964D01*
X169559190Y-129838397D01*
X169688865Y-129754954D01*
X169775859Y-129627634D01*
X169806464Y-129476500D01*
X169806464Y-127444500D01*
X169779897Y-127303310D01*
X169696454Y-127173635D01*
X169569134Y-127086641D01*
X169418000Y-127056036D01*
X167386000Y-127056036D01*
X167244810Y-127082603D01*
X167115135Y-127166046D01*
X167028141Y-127293366D01*
X166997536Y-127444500D01*
X166997536Y-127666363D01*
X166849828Y-127445303D01*
X166396609Y-127142471D01*
X166343000Y-127131808D01*
X166343000Y-125765976D01*
X166498958Y-125765976D01*
X166510293Y-125826216D01*
X166593736Y-125955891D01*
X166721056Y-126042885D01*
X166872190Y-126073490D01*
X167672290Y-126073490D01*
X167813480Y-126046923D01*
X167943155Y-125963480D01*
X168030149Y-125836160D01*
X168060754Y-125685026D01*
X168060754Y-124884926D01*
X168034187Y-124743736D01*
X167950744Y-124614061D01*
X167823424Y-124527067D01*
X167672290Y-124496462D01*
X166872190Y-124496462D01*
X166731000Y-124523029D01*
X166601325Y-124606472D01*
X166514331Y-124733792D01*
X166500119Y-124803976D01*
X165992464Y-124803976D01*
X165992464Y-124656062D01*
X166142327Y-124506198D01*
X166239000Y-124272809D01*
X166239000Y-124132250D01*
X166080252Y-123973502D01*
X166239000Y-123973502D01*
X166239000Y-123915705D01*
X166333863Y-124144724D01*
X166512491Y-124323353D01*
X166745880Y-124420026D01*
X166986490Y-124420026D01*
X167145240Y-124261276D01*
X167145240Y-123511976D01*
X167399240Y-123511976D01*
X167399240Y-124261276D01*
X167557990Y-124420026D01*
X167798600Y-124420026D01*
X168031989Y-124323353D01*
X168210617Y-124144724D01*
X168307290Y-123911335D01*
X168307290Y-123670726D01*
X168148540Y-123511976D01*
X167399240Y-123511976D01*
X167145240Y-123511976D01*
X166395940Y-123511976D01*
X166237190Y-123670726D01*
X166237190Y-123719498D01*
X166080252Y-123719498D01*
X166239000Y-123560750D01*
X166239000Y-123420191D01*
X166142327Y-123186802D01*
X165963699Y-123008173D01*
X165730310Y-122911500D01*
X165637750Y-122911500D01*
X165479000Y-123070250D01*
X165479000Y-123719500D01*
X165501000Y-123719500D01*
X165501000Y-123973500D01*
X165479000Y-123973500D01*
X165479000Y-123993500D01*
X165229000Y-123993500D01*
X165229000Y-123973500D01*
X164627750Y-123973500D01*
X164469000Y-124132250D01*
X164469000Y-124272809D01*
X164565673Y-124506198D01*
X164715536Y-124656062D01*
X164715536Y-125246500D01*
X164742103Y-125387690D01*
X164825546Y-125517365D01*
X164952866Y-125604359D01*
X165104000Y-125634964D01*
X165362228Y-125634964D01*
X165381000Y-125653736D01*
X165381000Y-127131808D01*
X165327391Y-127142471D01*
X164874172Y-127445303D01*
X164571340Y-127898522D01*
X164465000Y-128433131D01*
X162415696Y-128433131D01*
X161683036Y-127700472D01*
X161539677Y-127604682D01*
X161750423Y-127394303D01*
X161924801Y-126974354D01*
X161925198Y-126519641D01*
X161751554Y-126099388D01*
X161430303Y-125777577D01*
X161010354Y-125603199D01*
X160555641Y-125602802D01*
X160135388Y-125776446D01*
X159813577Y-126097697D01*
X159639199Y-126517646D01*
X159638802Y-126972359D01*
X159812446Y-127392612D01*
X160021647Y-127602177D01*
X159874539Y-127700472D01*
X156952713Y-130622298D01*
X156848445Y-130778345D01*
X156811831Y-130962416D01*
X156811831Y-131987949D01*
X156775153Y-132024563D01*
X156681937Y-132249049D01*
X156681891Y-132301821D01*
X155939616Y-133044097D01*
X155835348Y-133200144D01*
X155798734Y-133384215D01*
X155798734Y-137907892D01*
X155675209Y-137856599D01*
X155544139Y-137856485D01*
X155544139Y-129022411D01*
X155865118Y-128701432D01*
X155969386Y-128545385D01*
X155977760Y-128503286D01*
X156006000Y-128361314D01*
X156006000Y-128311095D01*
X156405065Y-128044448D01*
X156674860Y-127640671D01*
X156769600Y-127164383D01*
X156769600Y-127115617D01*
X156674860Y-126639329D01*
X156405065Y-126235552D01*
X156001288Y-125965757D01*
X155525000Y-125871017D01*
X155048712Y-125965757D01*
X154644935Y-126235552D01*
X154375140Y-126639329D01*
X154280400Y-127115617D01*
X154280400Y-127164383D01*
X154375140Y-127640671D01*
X154644935Y-128044448D01*
X154954671Y-128251407D01*
X154723021Y-128483057D01*
X154618753Y-128639104D01*
X154582139Y-128823175D01*
X154582139Y-129120503D01*
X153852892Y-128391256D01*
X153989790Y-128365497D01*
X154119465Y-128282054D01*
X154206459Y-128154734D01*
X154237064Y-128003600D01*
X154237064Y-126276400D01*
X154210497Y-126135210D01*
X154127054Y-126005535D01*
X153999734Y-125918541D01*
X153848600Y-125887936D01*
X153747276Y-125887936D01*
X153759947Y-125882688D01*
X154191821Y-125488490D01*
X154374676Y-125098338D01*
X154375140Y-125100671D01*
X154644935Y-125504448D01*
X155048712Y-125774243D01*
X155525000Y-125868983D01*
X156001288Y-125774243D01*
X156405065Y-125504448D01*
X156674860Y-125100671D01*
X156769600Y-124624383D01*
X156769600Y-124575617D01*
X156674860Y-124099329D01*
X156405065Y-123695552D01*
X156006000Y-123428905D01*
X156006000Y-123420191D01*
X164469000Y-123420191D01*
X164469000Y-123560750D01*
X164627750Y-123719500D01*
X165229000Y-123719500D01*
X165229000Y-123070250D01*
X165070250Y-122911500D01*
X164977690Y-122911500D01*
X164744301Y-123008173D01*
X164565673Y-123186802D01*
X164469000Y-123420191D01*
X156006000Y-123420191D01*
X156006000Y-122858617D01*
X166237190Y-122858617D01*
X166237190Y-123099226D01*
X166395940Y-123257976D01*
X167145240Y-123257976D01*
X167145240Y-122508676D01*
X167399240Y-122508676D01*
X167399240Y-123257976D01*
X168148540Y-123257976D01*
X168307290Y-123099226D01*
X168307290Y-122858617D01*
X168210617Y-122625228D01*
X168031989Y-122446599D01*
X167798600Y-122349926D01*
X167557990Y-122349926D01*
X167399240Y-122508676D01*
X167145240Y-122508676D01*
X166986490Y-122349926D01*
X166745880Y-122349926D01*
X166512491Y-122446599D01*
X166333863Y-122625228D01*
X166237190Y-122858617D01*
X156006000Y-122858617D01*
X156006000Y-122387335D01*
X156141190Y-122361897D01*
X156270865Y-122278454D01*
X156357859Y-122151134D01*
X156388464Y-122000000D01*
X156388464Y-121400000D01*
X156361897Y-121258810D01*
X156278454Y-121129135D01*
X156151134Y-121042141D01*
X156000000Y-121011536D01*
X155600000Y-121011536D01*
X155458810Y-121038103D01*
X155348814Y-121108883D01*
X155251134Y-121042141D01*
X155100000Y-121011536D01*
X154700000Y-121011536D01*
X154558810Y-121038103D01*
X154429135Y-121121546D01*
X154362548Y-121219000D01*
X153836280Y-121219000D01*
X153778454Y-121129135D01*
X153651134Y-121042141D01*
X153500000Y-121011536D01*
X153100000Y-121011536D01*
X152958810Y-121038103D01*
X152848814Y-121108883D01*
X152751134Y-121042141D01*
X152600000Y-121011536D01*
X152200000Y-121011536D01*
X152058810Y-121038103D01*
X151929135Y-121121546D01*
X151883117Y-121188896D01*
X151876555Y-121182322D01*
X151652069Y-121089106D01*
X151408998Y-121088894D01*
X151184349Y-121181718D01*
X151012322Y-121353445D01*
X150941000Y-121525205D01*
X150941000Y-119982400D01*
X159423936Y-119982400D01*
X159423936Y-122217600D01*
X159450503Y-122358790D01*
X159533946Y-122488465D01*
X159661266Y-122575459D01*
X159812400Y-122606064D01*
X162047600Y-122606064D01*
X162188790Y-122579497D01*
X162318465Y-122496054D01*
X162405459Y-122368734D01*
X162436064Y-122217600D01*
X162436064Y-121632250D01*
X166663000Y-121632250D01*
X166663000Y-121724810D01*
X166759673Y-121958199D01*
X166938302Y-122136827D01*
X167171691Y-122233500D01*
X167312250Y-122233500D01*
X167471000Y-122074750D01*
X167471000Y-121473500D01*
X166821750Y-121473500D01*
X166663000Y-121632250D01*
X162436064Y-121632250D01*
X162436064Y-119982400D01*
X162409497Y-119841210D01*
X162326054Y-119711535D01*
X162198734Y-119624541D01*
X162047600Y-119593936D01*
X159812400Y-119593936D01*
X159671210Y-119620503D01*
X159541535Y-119703946D01*
X159454541Y-119831266D01*
X159423936Y-119982400D01*
X150941000Y-119982400D01*
X150941000Y-118937446D01*
X163748017Y-118937446D01*
X164016812Y-119522879D01*
X164489182Y-119960885D01*
X164971056Y-120160475D01*
X165227000Y-120041336D01*
X165227000Y-119830501D01*
X165449000Y-119830501D01*
X165449000Y-120400000D01*
X165485614Y-120584071D01*
X165589882Y-120740118D01*
X165745929Y-120844386D01*
X165930000Y-120881000D01*
X166114071Y-120844386D01*
X166270118Y-120740118D01*
X166374386Y-120584071D01*
X166411000Y-120400000D01*
X166411000Y-119830501D01*
X166402970Y-119790130D01*
X166511863Y-119689158D01*
X166516103Y-119711690D01*
X166599546Y-119841365D01*
X166726866Y-119928359D01*
X166878000Y-119958964D01*
X167413000Y-119958964D01*
X167413000Y-120544500D01*
X167417904Y-120569154D01*
X167312250Y-120463500D01*
X167171691Y-120463500D01*
X166938302Y-120560173D01*
X166759673Y-120738801D01*
X166663000Y-120972190D01*
X166663000Y-121064750D01*
X166821750Y-121223500D01*
X167471000Y-121223500D01*
X167471000Y-121201500D01*
X167725000Y-121201500D01*
X167725000Y-121223500D01*
X167745000Y-121223500D01*
X167745000Y-121473500D01*
X167725000Y-121473500D01*
X167725000Y-122074750D01*
X167883750Y-122233500D01*
X168024309Y-122233500D01*
X168257698Y-122136827D01*
X168407562Y-121986964D01*
X168706228Y-121986964D01*
X168790220Y-122070956D01*
X168790220Y-123561694D01*
X168729980Y-123573029D01*
X168600305Y-123656472D01*
X168513311Y-123783792D01*
X168482706Y-123934926D01*
X168482706Y-124735026D01*
X168509273Y-124876216D01*
X168592716Y-125005891D01*
X168720036Y-125092885D01*
X168871170Y-125123490D01*
X169671270Y-125123490D01*
X169812460Y-125096923D01*
X169942135Y-125013480D01*
X170029129Y-124886160D01*
X170059734Y-124735026D01*
X170059734Y-123934926D01*
X170033167Y-123793736D01*
X169949724Y-123664061D01*
X169822404Y-123577067D01*
X169752220Y-123562855D01*
X169752220Y-121871720D01*
X169715606Y-121687649D01*
X169611338Y-121531602D01*
X169386464Y-121306728D01*
X169386464Y-121098500D01*
X169359897Y-120957310D01*
X169276454Y-120827635D01*
X169149134Y-120740641D01*
X168998000Y-120710036D01*
X168689772Y-120710036D01*
X168638804Y-120659068D01*
X168538118Y-120508382D01*
X168375000Y-120345264D01*
X168375000Y-119958964D01*
X168910000Y-119958964D01*
X169051190Y-119932397D01*
X169180865Y-119848954D01*
X169267859Y-119721634D01*
X169298464Y-119570500D01*
X169298464Y-117538500D01*
X169271897Y-117397310D01*
X169188454Y-117267635D01*
X169061134Y-117180641D01*
X168910000Y-117150036D01*
X166878000Y-117150036D01*
X166736810Y-117176603D01*
X166607135Y-117260046D01*
X166520141Y-117387366D01*
X166513296Y-117421170D01*
X166218818Y-117148115D01*
X165736944Y-116948525D01*
X165481000Y-117067664D01*
X165481000Y-118427500D01*
X165501000Y-118427500D01*
X165501000Y-118681500D01*
X165481000Y-118681500D01*
X165481000Y-119669626D01*
X165449000Y-119830501D01*
X165227000Y-119830501D01*
X165227000Y-118681500D01*
X163866633Y-118681500D01*
X163748017Y-118937446D01*
X150941000Y-118937446D01*
X150941000Y-118171554D01*
X163748017Y-118171554D01*
X163866633Y-118427500D01*
X165227000Y-118427500D01*
X165227000Y-117067664D01*
X164971056Y-116948525D01*
X164489182Y-117148115D01*
X164016812Y-117586121D01*
X163748017Y-118171554D01*
X150941000Y-118171554D01*
X150941000Y-113960000D01*
X150904386Y-113775929D01*
X150800118Y-113619881D01*
X149901437Y-112721200D01*
X150063712Y-112829629D01*
X150540000Y-112924369D01*
X151016288Y-112829629D01*
X151420065Y-112559834D01*
X151689860Y-112156057D01*
X151692704Y-112141757D01*
X151788046Y-112414320D01*
X152177964Y-112850732D01*
X152705209Y-113104709D01*
X152720974Y-113107358D01*
X152953000Y-112986217D01*
X152953000Y-111627000D01*
X152933000Y-111627000D01*
X152933000Y-111373000D01*
X152953000Y-111373000D01*
X152953000Y-110013783D01*
X153207000Y-110013783D01*
X153207000Y-111373000D01*
X153227000Y-111373000D01*
X153227000Y-111627000D01*
X153207000Y-111627000D01*
X153207000Y-112986217D01*
X153439026Y-113107358D01*
X153454791Y-113104709D01*
X153982036Y-112850732D01*
X154371954Y-112414320D01*
X154467296Y-112141757D01*
X154470140Y-112156057D01*
X154739935Y-112559834D01*
X155143712Y-112829629D01*
X155620000Y-112924369D01*
X156096288Y-112829629D01*
X156500065Y-112559834D01*
X156769860Y-112156057D01*
X156864600Y-111679769D01*
X156864600Y-111320231D01*
X156915400Y-111320231D01*
X156915400Y-111679769D01*
X157010140Y-112156057D01*
X157279935Y-112559834D01*
X157683712Y-112829629D01*
X158160000Y-112924369D01*
X158636288Y-112829629D01*
X159040065Y-112559834D01*
X159309860Y-112156057D01*
X159404600Y-111679769D01*
X159404600Y-111320231D01*
X159455400Y-111320231D01*
X159455400Y-111679769D01*
X159550140Y-112156057D01*
X159819935Y-112559834D01*
X160223712Y-112829629D01*
X160700000Y-112924369D01*
X161176288Y-112829629D01*
X161580065Y-112559834D01*
X161849860Y-112156057D01*
X161944600Y-111679769D01*
X161944600Y-111320231D01*
X161849860Y-110843943D01*
X161580065Y-110440166D01*
X161176288Y-110170371D01*
X160700000Y-110075631D01*
X160223712Y-110170371D01*
X159819935Y-110440166D01*
X159550140Y-110843943D01*
X159455400Y-111320231D01*
X159404600Y-111320231D01*
X159309860Y-110843943D01*
X159040065Y-110440166D01*
X158636288Y-110170371D01*
X158160000Y-110075631D01*
X157683712Y-110170371D01*
X157279935Y-110440166D01*
X157010140Y-110843943D01*
X156915400Y-111320231D01*
X156864600Y-111320231D01*
X156769860Y-110843943D01*
X156500065Y-110440166D01*
X156096288Y-110170371D01*
X155620000Y-110075631D01*
X155143712Y-110170371D01*
X154739935Y-110440166D01*
X154470140Y-110843943D01*
X154467296Y-110858243D01*
X154371954Y-110585680D01*
X153982036Y-110149268D01*
X153454791Y-109895291D01*
X153439026Y-109892642D01*
X153207000Y-110013783D01*
X152953000Y-110013783D01*
X152720974Y-109892642D01*
X152705209Y-109895291D01*
X152177964Y-110149268D01*
X151788046Y-110585680D01*
X151692704Y-110858243D01*
X151689860Y-110843943D01*
X151420065Y-110440166D01*
X151016288Y-110170371D01*
X150540000Y-110075631D01*
X150063712Y-110170371D01*
X149659935Y-110440166D01*
X149390140Y-110843943D01*
X149295400Y-111320231D01*
X149295400Y-111679769D01*
X149390140Y-112156057D01*
X149498569Y-112318332D01*
X149252064Y-112071828D01*
X149252064Y-110484000D01*
X149225497Y-110342810D01*
X149142054Y-110213135D01*
X149014734Y-110126141D01*
X148863600Y-110095536D01*
X147136400Y-110095536D01*
X146995210Y-110122103D01*
X146865535Y-110205546D01*
X146778541Y-110332866D01*
X146747936Y-110484000D01*
X146747936Y-112516000D01*
X146774503Y-112657190D01*
X146857946Y-112786865D01*
X146985266Y-112873859D01*
X147136400Y-112904464D01*
X148724228Y-112904464D01*
X149979000Y-114159237D01*
X149979000Y-121676831D01*
X149942322Y-121713445D01*
X149849106Y-121937931D01*
X149848894Y-122181002D01*
X149941718Y-122405651D01*
X150113445Y-122577678D01*
X150337931Y-122670894D01*
X150581002Y-122671106D01*
X150805651Y-122578282D01*
X150977678Y-122406555D01*
X151070894Y-122182069D01*
X151070961Y-122104998D01*
X151183445Y-122217678D01*
X151407931Y-122310894D01*
X151651002Y-122311106D01*
X151875651Y-122218282D01*
X151882994Y-122210952D01*
X151921546Y-122270865D01*
X152048866Y-122357859D01*
X152200000Y-122388464D01*
X152600000Y-122388464D01*
X152741190Y-122361897D01*
X152851186Y-122291117D01*
X152948866Y-122357859D01*
X153100000Y-122388464D01*
X153500000Y-122388464D01*
X153641190Y-122361897D01*
X153770865Y-122278454D01*
X153837452Y-122181000D01*
X154363720Y-122181000D01*
X154421546Y-122270865D01*
X154548866Y-122357859D01*
X154700000Y-122388464D01*
X155044000Y-122388464D01*
X155044000Y-123428905D01*
X154644935Y-123695552D01*
X154375140Y-124099329D01*
X154374676Y-124101662D01*
X154191821Y-123711510D01*
X153759947Y-123317312D01*
X153344026Y-123145042D01*
X153112000Y-123266183D01*
X153112000Y-124473000D01*
X153132000Y-124473000D01*
X153132000Y-124727000D01*
X153112000Y-124727000D01*
X153112000Y-124747000D01*
X152858000Y-124747000D01*
X152858000Y-124727000D01*
X151650531Y-124727000D01*
X151530032Y-124959027D01*
X151778179Y-125488490D01*
X152210053Y-125882688D01*
X152222724Y-125887936D01*
X152121400Y-125887936D01*
X151980210Y-125914503D01*
X151850535Y-125997946D01*
X151763541Y-126125266D01*
X151732936Y-126276400D01*
X151732936Y-128003600D01*
X151759503Y-128144790D01*
X151842946Y-128274465D01*
X151970266Y-128361459D01*
X152121400Y-128392064D01*
X152543549Y-128392064D01*
X152644882Y-128543718D01*
X154222128Y-130120964D01*
X154222128Y-136366891D01*
X153375118Y-135519882D01*
X153219071Y-135415614D01*
X153199484Y-135411718D01*
X153035000Y-135379000D01*
X148691637Y-135379000D01*
X147787855Y-134475219D01*
X147925651Y-134418282D01*
X148097678Y-134246555D01*
X148190894Y-134022069D01*
X148190940Y-133969296D01*
X149983318Y-132176919D01*
X150011718Y-132245651D01*
X150183445Y-132417678D01*
X150407931Y-132510894D01*
X150651002Y-132511106D01*
X150875651Y-132418282D01*
X151047678Y-132246555D01*
X151140894Y-132022069D01*
X151141106Y-131778998D01*
X151048282Y-131554349D01*
X150876555Y-131382322D01*
X150736317Y-131324089D01*
X150761000Y-131200000D01*
X150761000Y-130983169D01*
X150797678Y-130946555D01*
X150890894Y-130722069D01*
X150891106Y-130478998D01*
X150798282Y-130254349D01*
X150626555Y-130082322D01*
X150402069Y-129989106D01*
X150158998Y-129988894D01*
X149934349Y-130081718D01*
X149897002Y-130119000D01*
X149406978Y-130119000D01*
X148626772Y-129338794D01*
X150988558Y-129338794D01*
X151548939Y-129899175D01*
X151548894Y-129951002D01*
X151641718Y-130175651D01*
X151813445Y-130347678D01*
X152037931Y-130440894D01*
X152281002Y-130441106D01*
X152505651Y-130348282D01*
X152677678Y-130176555D01*
X152770894Y-129952069D01*
X152771106Y-129708998D01*
X152678282Y-129484349D01*
X152506555Y-129312322D01*
X152282069Y-129219106D01*
X152229296Y-129219060D01*
X151527912Y-128517676D01*
X151371865Y-128413408D01*
X151187794Y-128376794D01*
X148553662Y-128376794D01*
X148517048Y-128340116D01*
X148292562Y-128246900D01*
X148049491Y-128246688D01*
X147824842Y-128339512D01*
X147726080Y-128438102D01*
X143528951Y-124240973D01*
X151530032Y-124240973D01*
X151650531Y-124473000D01*
X152858000Y-124473000D01*
X152858000Y-123266183D01*
X152625974Y-123145042D01*
X152210053Y-123317312D01*
X151778179Y-123711510D01*
X151530032Y-124240973D01*
X143528951Y-124240973D01*
X142063033Y-122775056D01*
X142069190Y-122773897D01*
X142198865Y-122690454D01*
X142285859Y-122563134D01*
X142316464Y-122412000D01*
X142316464Y-121912000D01*
X142289897Y-121770810D01*
X142206454Y-121641135D01*
X142079134Y-121554141D01*
X141928000Y-121523536D01*
X141028000Y-121523536D01*
X140886810Y-121550103D01*
X140757135Y-121633546D01*
X140670141Y-121760866D01*
X140639536Y-121912000D01*
X140639536Y-122412000D01*
X140666103Y-122553190D01*
X140749546Y-122682865D01*
X140876866Y-122769859D01*
X140997000Y-122794186D01*
X140997000Y-122870259D01*
X141013283Y-122952118D01*
X141033614Y-123054330D01*
X141137882Y-123210377D01*
X148867623Y-130940119D01*
X149023671Y-131044387D01*
X149207741Y-131081000D01*
X149718763Y-131081000D01*
X147510825Y-133288939D01*
X147458998Y-133288894D01*
X147234349Y-133381718D01*
X147062322Y-133553445D01*
X147004744Y-133692107D01*
X146018700Y-132706064D01*
X146267600Y-132706064D01*
X146408790Y-132679497D01*
X146538465Y-132596054D01*
X146625459Y-132468734D01*
X146656064Y-132317600D01*
X146656064Y-130082400D01*
X146629497Y-129941210D01*
X146546054Y-129811535D01*
X146418734Y-129724541D01*
X146267600Y-129693936D01*
X144032400Y-129693936D01*
X143891210Y-129720503D01*
X143761535Y-129803946D01*
X143674541Y-129931266D01*
X143643936Y-130082400D01*
X143643936Y-132317600D01*
X143670503Y-132458790D01*
X143753946Y-132588465D01*
X143881266Y-132675459D01*
X144032400Y-132706064D01*
X144708549Y-132706064D01*
X144809882Y-132857718D01*
X148152281Y-136200118D01*
X148265324Y-136275651D01*
X148308329Y-136304386D01*
X148492400Y-136341000D01*
X152835764Y-136341000D01*
X152997998Y-136503234D01*
X152997998Y-136546748D01*
X152866250Y-136415000D01*
X152798691Y-136415000D01*
X152565302Y-136511673D01*
X152386673Y-136690301D01*
X152290000Y-136923690D01*
X152290000Y-137064250D01*
X152448748Y-137222998D01*
X152353234Y-137222998D01*
X152197988Y-137067752D01*
X152186897Y-137008810D01*
X152103454Y-136879135D01*
X151976134Y-136792141D01*
X151825000Y-136761536D01*
X151234562Y-136761536D01*
X151084698Y-136611673D01*
X150851309Y-136515000D01*
X150710750Y-136515000D01*
X150552000Y-136673750D01*
X150552000Y-137275000D01*
X150572000Y-137275000D01*
X150572000Y-137525000D01*
X150552000Y-137525000D01*
X150552000Y-137547000D01*
X150298000Y-137547000D01*
X150298000Y-137525000D01*
X149648750Y-137525000D01*
X149490000Y-137683750D01*
X149490000Y-137776310D01*
X149586673Y-138009699D01*
X149765302Y-138188327D01*
X149942452Y-138261705D01*
X149865000Y-138448690D01*
X149865000Y-138589250D01*
X150023750Y-138748000D01*
X150600000Y-138748000D01*
X150600000Y-138728000D01*
X150800000Y-138728000D01*
X150800000Y-138748000D01*
X150847000Y-138748000D01*
X150847000Y-139002000D01*
X150800000Y-139002000D01*
X150800000Y-139022000D01*
X150600000Y-139022000D01*
X150600000Y-139002000D01*
X150023750Y-139002000D01*
X149865000Y-139160750D01*
X149865000Y-139301310D01*
X149952079Y-139511536D01*
X149740000Y-139511536D01*
X149598810Y-139538103D01*
X149469135Y-139621546D01*
X149409380Y-139709000D01*
X149226280Y-139709000D01*
X149168454Y-139619135D01*
X149041134Y-139532141D01*
X148890000Y-139501536D01*
X148390000Y-139501536D01*
X148248810Y-139528103D01*
X148119135Y-139611546D01*
X148052548Y-139709000D01*
X147541637Y-139709000D01*
X146248700Y-138416064D01*
X146497600Y-138416064D01*
X146638790Y-138389497D01*
X146768465Y-138306054D01*
X146855459Y-138178734D01*
X146886064Y-138027600D01*
X146886064Y-137023690D01*
X149490000Y-137023690D01*
X149490000Y-137116250D01*
X149648750Y-137275000D01*
X150298000Y-137275000D01*
X150298000Y-136673750D01*
X150139250Y-136515000D01*
X149998691Y-136515000D01*
X149765302Y-136611673D01*
X149586673Y-136790301D01*
X149490000Y-137023690D01*
X146886064Y-137023690D01*
X146886064Y-135792400D01*
X146859497Y-135651210D01*
X146776054Y-135521535D01*
X146648734Y-135434541D01*
X146497600Y-135403936D01*
X144262400Y-135403936D01*
X144121210Y-135430503D01*
X143991535Y-135513946D01*
X143904541Y-135641266D01*
X143873936Y-135792400D01*
X143873936Y-136488500D01*
X141866464Y-136488500D01*
X141866464Y-135953500D01*
X141839897Y-135812310D01*
X141756454Y-135682635D01*
X141629134Y-135595641D01*
X141478000Y-135565036D01*
X139446000Y-135565036D01*
X139304810Y-135591603D01*
X139175135Y-135675046D01*
X139088141Y-135802366D01*
X139057536Y-135953500D01*
X137757000Y-135953500D01*
X137757000Y-130396385D01*
X137770866Y-130405859D01*
X137922000Y-130436464D01*
X139954000Y-130436464D01*
X140095190Y-130409897D01*
X140224865Y-130326454D01*
X140311859Y-130199134D01*
X140342464Y-130048000D01*
X140342464Y-128016000D01*
X140315897Y-127874810D01*
X140232454Y-127745135D01*
X140105134Y-127658141D01*
X139954000Y-127627536D01*
X139732137Y-127627536D01*
X139953197Y-127479828D01*
X140256029Y-127026609D01*
X140362369Y-126492000D01*
X140256029Y-125957391D01*
X139953197Y-125504172D01*
X139499978Y-125201340D01*
X139419000Y-125185233D01*
X139419000Y-124527154D01*
X139838430Y-124527154D01*
X139979620Y-124500587D01*
X140109295Y-124417144D01*
X140196289Y-124289824D01*
X140226894Y-124138690D01*
X140226894Y-122541030D01*
X140200327Y-122399840D01*
X140116884Y-122270165D01*
X139989564Y-122183171D01*
X139838430Y-122152566D01*
X138037570Y-122152566D01*
X137896380Y-122179133D01*
X137766705Y-122262576D01*
X137757000Y-122276780D01*
X137757000Y-121566547D01*
X137759116Y-121569835D01*
X137886436Y-121656829D01*
X138037570Y-121687434D01*
X139838430Y-121687434D01*
X139979620Y-121660867D01*
X140109295Y-121577424D01*
X140196289Y-121450104D01*
X140226894Y-121298970D01*
X140226894Y-121143000D01*
X140723894Y-121143000D01*
X140749546Y-121182865D01*
X140876866Y-121269859D01*
X141028000Y-121300464D01*
X141928000Y-121300464D01*
X142069190Y-121273897D01*
X142198865Y-121190454D01*
X142285859Y-121063134D01*
X142316464Y-120912000D01*
X142316464Y-120412000D01*
X142289897Y-120270810D01*
X142206454Y-120141135D01*
X142079134Y-120054141D01*
X141928000Y-120023536D01*
X141028000Y-120023536D01*
X140886810Y-120050103D01*
X140757135Y-120133546D01*
X140724711Y-120181000D01*
X140226894Y-120181000D01*
X140226894Y-119701310D01*
X140200327Y-119560120D01*
X140116884Y-119430445D01*
X139989564Y-119343451D01*
X139838430Y-119312846D01*
X138037570Y-119312846D01*
X137896380Y-119339413D01*
X137766705Y-119422856D01*
X137757000Y-119437060D01*
X137757000Y-114745567D01*
X138298720Y-115288233D01*
X139724635Y-115880325D01*
X141268592Y-115881672D01*
X142695538Y-115292070D01*
X143788233Y-114201280D01*
X144380325Y-112775365D01*
X144381672Y-111231408D01*
X143792070Y-109804462D01*
X143015963Y-109027000D01*
X166484835Y-109027000D01*
X165711767Y-109798720D01*
X165711767Y-109798720D01*
G37*
X165711767Y-109798720D02*
X165119675Y-111224635D01*
X165118328Y-112768592D01*
X165707930Y-114195538D01*
X166798720Y-115288233D01*
X168224635Y-115880325D01*
X169768592Y-115881672D01*
X171195538Y-115292070D01*
X172003000Y-114486016D01*
X172003000Y-155514887D01*
X171201280Y-154711767D01*
X169775365Y-154119675D01*
X168231408Y-154118328D01*
X166804462Y-154707930D01*
X165711767Y-155798720D01*
X165119675Y-157224635D01*
X165118328Y-158768592D01*
X165707930Y-160195538D01*
X166284385Y-160773000D01*
X143215515Y-160773000D01*
X143788233Y-160201280D01*
X144380325Y-158775365D01*
X144381672Y-157231408D01*
X143792070Y-155804462D01*
X142701280Y-154711767D01*
X141275365Y-154119675D01*
X139731408Y-154118328D01*
X138304462Y-154707930D01*
X137757000Y-155254438D01*
X137757000Y-150285750D01*
X139247400Y-150285750D01*
X139247400Y-151243910D01*
X139344073Y-151477299D01*
X139522702Y-151655927D01*
X139756091Y-151752600D01*
X140714250Y-151752600D01*
X140873000Y-151593850D01*
X140873000Y-150127000D01*
X141127000Y-150127000D01*
X141127000Y-151593850D01*
X141285750Y-151752600D01*
X142243909Y-151752600D01*
X142477298Y-151655927D01*
X142655927Y-151477299D01*
X142752600Y-151243910D01*
X142752600Y-150285750D01*
X142593850Y-150127000D01*
X141127000Y-150127000D01*
X140873000Y-150127000D01*
X139406150Y-150127000D01*
X139247400Y-150285750D01*
X137757000Y-150285750D01*
X137757000Y-148756090D01*
X139247400Y-148756090D01*
X139247400Y-149714250D01*
X139406150Y-149873000D01*
X140873000Y-149873000D01*
X140873000Y-148406150D01*
X141127000Y-148406150D01*
X141127000Y-149873000D01*
X142593850Y-149873000D01*
X142752600Y-149714250D01*
X142752600Y-148756090D01*
X142655927Y-148522701D01*
X142477298Y-148344073D01*
X142243909Y-148247400D01*
X141285750Y-148247400D01*
X141127000Y-148406150D01*
X140873000Y-148406150D01*
X140714250Y-148247400D01*
X139756091Y-148247400D01*
X139522702Y-148344073D01*
X139344073Y-148522701D01*
X139247400Y-148756090D01*
X137757000Y-148756090D01*
X137757000Y-135953500D01*
X139057536Y-135953500D01*
X139057536Y-137985500D01*
X139084103Y-138126690D01*
X139167546Y-138256365D01*
X139294866Y-138343359D01*
X139446000Y-138373964D01*
X139654272Y-138373964D01*
X139474172Y-138494303D01*
X139171340Y-138947522D01*
X139065000Y-139482131D01*
X139065000Y-139536869D01*
X139171340Y-140071478D01*
X139474172Y-140524697D01*
X139927391Y-140827529D01*
X140462000Y-140933869D01*
X140996609Y-140827529D01*
X141449828Y-140524697D01*
X141752660Y-140071478D01*
X141768767Y-139990500D01*
X145090264Y-139990500D01*
X146729881Y-141630118D01*
X146851747Y-141711546D01*
X146855418Y-141713999D01*
X144364601Y-141713999D01*
X144180530Y-141750613D01*
X144076686Y-141820000D01*
X144024483Y-141854881D01*
X142603064Y-143276300D01*
X142603064Y-143027400D01*
X142576497Y-142886210D01*
X142493054Y-142756535D01*
X142365734Y-142669541D01*
X142214600Y-142638936D01*
X139979400Y-142638936D01*
X139838210Y-142665503D01*
X139708535Y-142748946D01*
X139621541Y-142876266D01*
X139590936Y-143027400D01*
X139590936Y-145262600D01*
X139617503Y-145403790D01*
X139700946Y-145533465D01*
X139828266Y-145620459D01*
X139979400Y-145651064D01*
X142214600Y-145651064D01*
X142355790Y-145624497D01*
X142485465Y-145541054D01*
X142572459Y-145413734D01*
X142603064Y-145262600D01*
X142603064Y-144665750D01*
X147025000Y-144665750D01*
X147025000Y-144881310D01*
X147121673Y-145114699D01*
X147300302Y-145293327D01*
X147533691Y-145390000D01*
X147774250Y-145390000D01*
X147933000Y-145231250D01*
X147933000Y-144507000D01*
X147183750Y-144507000D01*
X147025000Y-144665750D01*
X142603064Y-144665750D01*
X142603064Y-144586451D01*
X142754718Y-144485118D01*
X143361146Y-143878690D01*
X147025000Y-143878690D01*
X147025000Y-144094250D01*
X147183750Y-144253000D01*
X147933000Y-144253000D01*
X147933000Y-143691250D01*
X147943000Y-143681250D01*
X147943000Y-142957000D01*
X147193750Y-142957000D01*
X147035000Y-143115750D01*
X147035000Y-143331310D01*
X147131673Y-143564699D01*
X147166974Y-143600000D01*
X147121673Y-143645301D01*
X147025000Y-143878690D01*
X143361146Y-143878690D01*
X144563837Y-142675999D01*
X147166749Y-142675999D01*
X147193750Y-142703000D01*
X147943000Y-142703000D01*
X147943000Y-142683000D01*
X148197000Y-142683000D01*
X148197000Y-142703000D01*
X148217000Y-142703000D01*
X148217000Y-142957000D01*
X148197000Y-142957000D01*
X148197000Y-143518750D01*
X148187000Y-143528750D01*
X148187000Y-144253000D01*
X148207000Y-144253000D01*
X148207000Y-144507000D01*
X148187000Y-144507000D01*
X148187000Y-145231250D01*
X148345750Y-145390000D01*
X148586309Y-145390000D01*
X148819698Y-145293327D01*
X148998327Y-145114699D01*
X149001246Y-145107652D01*
X149008866Y-145112859D01*
X149079000Y-145127061D01*
X149079000Y-145799763D01*
X148534882Y-146343882D01*
X148433549Y-146495536D01*
X147859000Y-146495536D01*
X147717810Y-146522103D01*
X147588135Y-146605546D01*
X147501141Y-146732866D01*
X147470536Y-146884000D01*
X147470536Y-147105863D01*
X147322828Y-146884803D01*
X146869609Y-146581971D01*
X146335000Y-146475631D01*
X145800391Y-146581971D01*
X145347172Y-146884803D01*
X145044340Y-147338022D01*
X144938000Y-147872631D01*
X144938000Y-147927369D01*
X145044340Y-148461978D01*
X145347172Y-148915197D01*
X145800391Y-149218029D01*
X146335000Y-149324369D01*
X146869609Y-149218029D01*
X147322828Y-148915197D01*
X147470536Y-148694137D01*
X147470536Y-148916000D01*
X147497103Y-149057190D01*
X147580546Y-149186865D01*
X147707866Y-149273859D01*
X147859000Y-149304464D01*
X148444000Y-149304464D01*
X148444000Y-150243936D01*
X147807400Y-150243936D01*
X147666210Y-150270503D01*
X147536535Y-150353946D01*
X147449541Y-150481266D01*
X147418936Y-150632400D01*
X147418936Y-152867600D01*
X147445503Y-153008790D01*
X147528946Y-153138465D01*
X147656266Y-153225459D01*
X147807400Y-153256064D01*
X150042600Y-153256064D01*
X150183790Y-153229497D01*
X150313465Y-153146054D01*
X150400459Y-153018734D01*
X150431064Y-152867600D01*
X150431064Y-150632400D01*
X150404497Y-150491210D01*
X150321054Y-150361535D01*
X150193734Y-150274541D01*
X150042600Y-150243936D01*
X149406000Y-150243936D01*
X149406000Y-149304464D01*
X149891000Y-149304464D01*
X150032190Y-149277897D01*
X150161865Y-149194454D01*
X150248859Y-149067134D01*
X150279464Y-148916000D01*
X150279464Y-146884000D01*
X150252897Y-146742810D01*
X150169454Y-146613135D01*
X150042134Y-146526141D01*
X149891000Y-146495536D01*
X149743701Y-146495536D01*
X149900118Y-146339119D01*
X150004386Y-146183071D01*
X150021979Y-146094623D01*
X150041000Y-145999000D01*
X150041000Y-145580061D01*
X150125090Y-145783572D01*
X150296817Y-145955599D01*
X150521303Y-146048815D01*
X150764374Y-146049027D01*
X150989023Y-145956203D01*
X151000262Y-145944984D01*
X151056587Y-146001407D01*
X151281073Y-146094623D01*
X151524144Y-146094835D01*
X151748793Y-146002011D01*
X151897000Y-145854062D01*
X151897000Y-146158000D01*
X152001549Y-146429605D01*
X152202079Y-146640526D01*
X152467903Y-146747447D01*
X152504998Y-146701160D01*
X152504998Y-146766000D01*
X152522969Y-146766000D01*
X152522966Y-153524397D01*
X148368700Y-157678664D01*
X148356288Y-157670371D01*
X147880000Y-157575631D01*
X147403712Y-157670371D01*
X146999935Y-157940166D01*
X146730140Y-158343943D01*
X146635400Y-158820231D01*
X146635400Y-159179769D01*
X146730140Y-159656057D01*
X146999935Y-160059834D01*
X147403712Y-160329629D01*
X147880000Y-160424369D01*
X148356288Y-160329629D01*
X148760065Y-160059834D01*
X149029860Y-159656057D01*
X149124600Y-159179769D01*
X149124600Y-158820231D01*
X149035506Y-158372330D01*
X152911011Y-154496826D01*
X152911011Y-155676352D01*
X150908700Y-157678664D01*
X150896288Y-157670371D01*
X150420000Y-157575631D01*
X149943712Y-157670371D01*
X149539935Y-157940166D01*
X149270140Y-158343943D01*
X149175400Y-158820231D01*
X149175400Y-159179769D01*
X149270140Y-159656057D01*
X149539935Y-160059834D01*
X149943712Y-160329629D01*
X150420000Y-160424369D01*
X150896288Y-160329629D01*
X151300065Y-160059834D01*
X151569860Y-159656057D01*
X151664600Y-159179769D01*
X151664600Y-158820231D01*
X151575507Y-158372330D01*
X153542600Y-156405237D01*
X153542600Y-157584763D01*
X153448699Y-157678664D01*
X153436288Y-157670371D01*
X152960000Y-157575631D01*
X152483712Y-157670371D01*
X152079935Y-157940166D01*
X151810140Y-158343943D01*
X151715400Y-158820231D01*
X151715400Y-159179769D01*
X151810140Y-159656057D01*
X152079935Y-160059834D01*
X152483712Y-160329629D01*
X152960000Y-160424369D01*
X153436288Y-160329629D01*
X153840065Y-160059834D01*
X154109860Y-159656057D01*
X154204600Y-159179769D01*
X154204600Y-158820231D01*
X154115507Y-158372330D01*
X154247936Y-158239901D01*
X154247936Y-160016000D01*
X154274503Y-160157190D01*
X154357946Y-160286865D01*
X154485266Y-160373859D01*
X154636400Y-160404464D01*
X156363600Y-160404464D01*
X156504790Y-160377897D01*
X156634465Y-160294454D01*
X156721459Y-160167134D01*
X156752064Y-160016000D01*
X156752064Y-157984000D01*
X156725497Y-157842810D01*
X156642054Y-157713135D01*
X156514734Y-157626141D01*
X156363600Y-157595536D01*
X155236214Y-157595536D01*
X155236214Y-148703216D01*
X155199600Y-148519145D01*
X155195495Y-148513001D01*
X155095332Y-148363097D01*
X154944588Y-148212353D01*
X155085190Y-148185897D01*
X155195186Y-148115117D01*
X155292866Y-148181859D01*
X155444000Y-148212464D01*
X156044000Y-148212464D01*
X156185190Y-148185897D01*
X156314865Y-148102454D01*
X156401859Y-147975134D01*
X156404760Y-147960810D01*
X156472970Y-148006386D01*
X156490929Y-148018386D01*
X156565934Y-148033305D01*
X156605546Y-148094865D01*
X156732866Y-148181859D01*
X156884000Y-148212464D01*
X157484000Y-148212464D01*
X157625190Y-148185897D01*
X157735186Y-148115117D01*
X157832866Y-148181859D01*
X157984000Y-148212464D01*
X158584000Y-148212464D01*
X158725190Y-148185897D01*
X158854865Y-148102454D01*
X158941859Y-147975134D01*
X158972464Y-147824000D01*
X158972464Y-147605750D01*
X168427400Y-147605750D01*
X168427400Y-148563909D01*
X168524073Y-148797298D01*
X168702701Y-148975927D01*
X168936090Y-149072600D01*
X169894250Y-149072600D01*
X170053000Y-148913850D01*
X170053000Y-147447000D01*
X170307000Y-147447000D01*
X170307000Y-148913850D01*
X170465750Y-149072600D01*
X171423910Y-149072600D01*
X171657299Y-148975927D01*
X171835927Y-148797298D01*
X171932600Y-148563909D01*
X171932600Y-147605750D01*
X171773850Y-147447000D01*
X170307000Y-147447000D01*
X170053000Y-147447000D01*
X168586150Y-147447000D01*
X168427400Y-147605750D01*
X158972464Y-147605750D01*
X158972464Y-147324000D01*
X158945897Y-147182810D01*
X158862454Y-147053135D01*
X158735134Y-146966141D01*
X158584000Y-146935536D01*
X158275773Y-146935536D01*
X157504524Y-146164288D01*
X157348477Y-146060020D01*
X157164406Y-146023406D01*
X156713000Y-146023406D01*
X156713000Y-145791000D01*
X156755000Y-145791000D01*
X156755000Y-145431026D01*
X156770327Y-145415699D01*
X156867000Y-145182310D01*
X156867000Y-145137000D01*
X157009000Y-145137000D01*
X157009000Y-145791000D01*
X157334000Y-145791000D01*
X157470299Y-145738535D01*
X158121881Y-146390118D01*
X158263232Y-146484566D01*
X158277929Y-146494386D01*
X158342613Y-146507252D01*
X158383546Y-146570865D01*
X158510866Y-146657859D01*
X158662000Y-146688464D01*
X159252438Y-146688464D01*
X159402302Y-146838327D01*
X159635691Y-146935000D01*
X159776250Y-146935000D01*
X159935000Y-146776250D01*
X159935000Y-146175000D01*
X160189000Y-146175000D01*
X160189000Y-146776250D01*
X160347750Y-146935000D01*
X160488309Y-146935000D01*
X160721698Y-146838327D01*
X160900327Y-146659699D01*
X160997000Y-146426310D01*
X160997000Y-146333750D01*
X160838250Y-146175000D01*
X160189000Y-146175000D01*
X159935000Y-146175000D01*
X159915000Y-146175000D01*
X159915000Y-145925000D01*
X159935000Y-145925000D01*
X159935000Y-145903000D01*
X160189000Y-145903000D01*
X160189000Y-145925000D01*
X160838250Y-145925000D01*
X160992249Y-145771001D01*
X168352399Y-145771001D01*
X168536470Y-145734387D01*
X168673936Y-145642535D01*
X168673936Y-145692838D01*
X168524073Y-145842702D01*
X168427400Y-146076091D01*
X168427400Y-147034250D01*
X168586150Y-147193000D01*
X170053000Y-147193000D01*
X170053000Y-147173000D01*
X170307000Y-147173000D01*
X170307000Y-147193000D01*
X171773850Y-147193000D01*
X171932600Y-147034250D01*
X171932600Y-146076091D01*
X171835927Y-145842702D01*
X171686064Y-145692838D01*
X171686064Y-143662400D01*
X171659497Y-143521210D01*
X171653404Y-143511741D01*
X171655459Y-143508734D01*
X171686064Y-143357600D01*
X171686064Y-141122400D01*
X171659497Y-140981210D01*
X171653404Y-140971741D01*
X171655459Y-140968734D01*
X171686064Y-140817600D01*
X171686064Y-138582400D01*
X171659497Y-138441210D01*
X171653404Y-138431741D01*
X171655459Y-138428734D01*
X171686064Y-138277600D01*
X171686064Y-136042400D01*
X171659497Y-135901210D01*
X171653404Y-135891741D01*
X171655459Y-135888734D01*
X171686064Y-135737600D01*
X171686064Y-133502400D01*
X171659497Y-133361210D01*
X171576054Y-133231535D01*
X171448734Y-133144541D01*
X171297600Y-133113936D01*
X169062400Y-133113936D01*
X168921210Y-133140503D01*
X168791535Y-133223946D01*
X168704541Y-133351266D01*
X168673936Y-133502400D01*
X168673936Y-135737600D01*
X168700503Y-135878790D01*
X168706596Y-135888259D01*
X168704541Y-135891266D01*
X168673936Y-136042400D01*
X168673936Y-136291299D01*
X162731000Y-130348364D01*
X162731000Y-128947672D01*
X162694386Y-128763601D01*
X162634331Y-128673723D01*
X162590119Y-128607554D01*
X162415696Y-128433131D01*
X164465000Y-128433131D01*
X164465000Y-128487869D01*
X164571340Y-129022478D01*
X164874172Y-129475697D01*
X165327391Y-129778529D01*
X165862000Y-129884869D01*
X166396609Y-129778529D01*
X166849828Y-129475697D01*
X166997536Y-129254637D01*
X166997536Y-129476500D01*
X167024103Y-129617690D01*
X167107546Y-129747365D01*
X167234866Y-129834359D01*
X167386000Y-129864964D01*
X169418000Y-129864964D01*
X169559190Y-129838397D01*
X169688865Y-129754954D01*
X169775859Y-129627634D01*
X169806464Y-129476500D01*
X169806464Y-127444500D01*
X169779897Y-127303310D01*
X169696454Y-127173635D01*
X169569134Y-127086641D01*
X169418000Y-127056036D01*
X167386000Y-127056036D01*
X167244810Y-127082603D01*
X167115135Y-127166046D01*
X167028141Y-127293366D01*
X166997536Y-127444500D01*
X166997536Y-127666363D01*
X166849828Y-127445303D01*
X166396609Y-127142471D01*
X166343000Y-127131808D01*
X166343000Y-125765976D01*
X166498958Y-125765976D01*
X166510293Y-125826216D01*
X166593736Y-125955891D01*
X166721056Y-126042885D01*
X166872190Y-126073490D01*
X167672290Y-126073490D01*
X167813480Y-126046923D01*
X167943155Y-125963480D01*
X168030149Y-125836160D01*
X168060754Y-125685026D01*
X168060754Y-124884926D01*
X168034187Y-124743736D01*
X167950744Y-124614061D01*
X167823424Y-124527067D01*
X167672290Y-124496462D01*
X166872190Y-124496462D01*
X166731000Y-124523029D01*
X166601325Y-124606472D01*
X166514331Y-124733792D01*
X166500119Y-124803976D01*
X165992464Y-124803976D01*
X165992464Y-124656062D01*
X166142327Y-124506198D01*
X166239000Y-124272809D01*
X166239000Y-124132250D01*
X166080252Y-123973502D01*
X166239000Y-123973502D01*
X166239000Y-123915705D01*
X166333863Y-124144724D01*
X166512491Y-124323353D01*
X166745880Y-124420026D01*
X166986490Y-124420026D01*
X167145240Y-124261276D01*
X167145240Y-123511976D01*
X167399240Y-123511976D01*
X167399240Y-124261276D01*
X167557990Y-124420026D01*
X167798600Y-124420026D01*
X168031989Y-124323353D01*
X168210617Y-124144724D01*
X168307290Y-123911335D01*
X168307290Y-123670726D01*
X168148540Y-123511976D01*
X167399240Y-123511976D01*
X167145240Y-123511976D01*
X166395940Y-123511976D01*
X166237190Y-123670726D01*
X166237190Y-123719498D01*
X166080252Y-123719498D01*
X166239000Y-123560750D01*
X166239000Y-123420191D01*
X166142327Y-123186802D01*
X165963699Y-123008173D01*
X165730310Y-122911500D01*
X165637750Y-122911500D01*
X165479000Y-123070250D01*
X165479000Y-123719500D01*
X165501000Y-123719500D01*
X165501000Y-123973500D01*
X165479000Y-123973500D01*
X165479000Y-123993500D01*
X165229000Y-123993500D01*
X165229000Y-123973500D01*
X164627750Y-123973500D01*
X164469000Y-124132250D01*
X164469000Y-124272809D01*
X164565673Y-124506198D01*
X164715536Y-124656062D01*
X164715536Y-125246500D01*
X164742103Y-125387690D01*
X164825546Y-125517365D01*
X164952866Y-125604359D01*
X165104000Y-125634964D01*
X165362228Y-125634964D01*
X165381000Y-125653736D01*
X165381000Y-127131808D01*
X165327391Y-127142471D01*
X164874172Y-127445303D01*
X164571340Y-127898522D01*
X164465000Y-128433131D01*
X162415696Y-128433131D01*
X161683036Y-127700472D01*
X161539677Y-127604682D01*
X161750423Y-127394303D01*
X161924801Y-126974354D01*
X161925198Y-126519641D01*
X161751554Y-126099388D01*
X161430303Y-125777577D01*
X161010354Y-125603199D01*
X160555641Y-125602802D01*
X160135388Y-125776446D01*
X159813577Y-126097697D01*
X159639199Y-126517646D01*
X159638802Y-126972359D01*
X159812446Y-127392612D01*
X160021647Y-127602177D01*
X159874539Y-127700472D01*
X156952713Y-130622298D01*
X156848445Y-130778345D01*
X156811831Y-130962416D01*
X156811831Y-131987949D01*
X156775153Y-132024563D01*
X156681937Y-132249049D01*
X156681891Y-132301821D01*
X155939616Y-133044097D01*
X155835348Y-133200144D01*
X155798734Y-133384215D01*
X155798734Y-137907892D01*
X155675209Y-137856599D01*
X155544139Y-137856485D01*
X155544139Y-129022411D01*
X155865118Y-128701432D01*
X155969386Y-128545385D01*
X155977760Y-128503286D01*
X156006000Y-128361314D01*
X156006000Y-128311095D01*
X156405065Y-128044448D01*
X156674860Y-127640671D01*
X156769600Y-127164383D01*
X156769600Y-127115617D01*
X156674860Y-126639329D01*
X156405065Y-126235552D01*
X156001288Y-125965757D01*
X155525000Y-125871017D01*
X155048712Y-125965757D01*
X154644935Y-126235552D01*
X154375140Y-126639329D01*
X154280400Y-127115617D01*
X154280400Y-127164383D01*
X154375140Y-127640671D01*
X154644935Y-128044448D01*
X154954671Y-128251407D01*
X154723021Y-128483057D01*
X154618753Y-128639104D01*
X154582139Y-128823175D01*
X154582139Y-129120503D01*
X153852892Y-128391256D01*
X153989790Y-128365497D01*
X154119465Y-128282054D01*
X154206459Y-128154734D01*
X154237064Y-128003600D01*
X154237064Y-126276400D01*
X154210497Y-126135210D01*
X154127054Y-126005535D01*
X153999734Y-125918541D01*
X153848600Y-125887936D01*
X153747276Y-125887936D01*
X153759947Y-125882688D01*
X154191821Y-125488490D01*
X154374676Y-125098338D01*
X154375140Y-125100671D01*
X154644935Y-125504448D01*
X155048712Y-125774243D01*
X155525000Y-125868983D01*
X156001288Y-125774243D01*
X156405065Y-125504448D01*
X156674860Y-125100671D01*
X156769600Y-124624383D01*
X156769600Y-124575617D01*
X156674860Y-124099329D01*
X156405065Y-123695552D01*
X156006000Y-123428905D01*
X156006000Y-123420191D01*
X164469000Y-123420191D01*
X164469000Y-123560750D01*
X164627750Y-123719500D01*
X165229000Y-123719500D01*
X165229000Y-123070250D01*
X165070250Y-122911500D01*
X164977690Y-122911500D01*
X164744301Y-123008173D01*
X164565673Y-123186802D01*
X164469000Y-123420191D01*
X156006000Y-123420191D01*
X156006000Y-122858617D01*
X166237190Y-122858617D01*
X166237190Y-123099226D01*
X166395940Y-123257976D01*
X167145240Y-123257976D01*
X167145240Y-122508676D01*
X167399240Y-122508676D01*
X167399240Y-123257976D01*
X168148540Y-123257976D01*
X168307290Y-123099226D01*
X168307290Y-122858617D01*
X168210617Y-122625228D01*
X168031989Y-122446599D01*
X167798600Y-122349926D01*
X167557990Y-122349926D01*
X167399240Y-122508676D01*
X167145240Y-122508676D01*
X166986490Y-122349926D01*
X166745880Y-122349926D01*
X166512491Y-122446599D01*
X166333863Y-122625228D01*
X166237190Y-122858617D01*
X156006000Y-122858617D01*
X156006000Y-122387335D01*
X156141190Y-122361897D01*
X156270865Y-122278454D01*
X156357859Y-122151134D01*
X156388464Y-122000000D01*
X156388464Y-121400000D01*
X156361897Y-121258810D01*
X156278454Y-121129135D01*
X156151134Y-121042141D01*
X156000000Y-121011536D01*
X155600000Y-121011536D01*
X155458810Y-121038103D01*
X155348814Y-121108883D01*
X155251134Y-121042141D01*
X155100000Y-121011536D01*
X154700000Y-121011536D01*
X154558810Y-121038103D01*
X154429135Y-121121546D01*
X154362548Y-121219000D01*
X153836280Y-121219000D01*
X153778454Y-121129135D01*
X153651134Y-121042141D01*
X153500000Y-121011536D01*
X153100000Y-121011536D01*
X152958810Y-121038103D01*
X152848814Y-121108883D01*
X152751134Y-121042141D01*
X152600000Y-121011536D01*
X152200000Y-121011536D01*
X152058810Y-121038103D01*
X151929135Y-121121546D01*
X151883117Y-121188896D01*
X151876555Y-121182322D01*
X151652069Y-121089106D01*
X151408998Y-121088894D01*
X151184349Y-121181718D01*
X151012322Y-121353445D01*
X150941000Y-121525205D01*
X150941000Y-119982400D01*
X159423936Y-119982400D01*
X159423936Y-122217600D01*
X159450503Y-122358790D01*
X159533946Y-122488465D01*
X159661266Y-122575459D01*
X159812400Y-122606064D01*
X162047600Y-122606064D01*
X162188790Y-122579497D01*
X162318465Y-122496054D01*
X162405459Y-122368734D01*
X162436064Y-122217600D01*
X162436064Y-121632250D01*
X166663000Y-121632250D01*
X166663000Y-121724810D01*
X166759673Y-121958199D01*
X166938302Y-122136827D01*
X167171691Y-122233500D01*
X167312250Y-122233500D01*
X167471000Y-122074750D01*
X167471000Y-121473500D01*
X166821750Y-121473500D01*
X166663000Y-121632250D01*
X162436064Y-121632250D01*
X162436064Y-119982400D01*
X162409497Y-119841210D01*
X162326054Y-119711535D01*
X162198734Y-119624541D01*
X162047600Y-119593936D01*
X159812400Y-119593936D01*
X159671210Y-119620503D01*
X159541535Y-119703946D01*
X159454541Y-119831266D01*
X159423936Y-119982400D01*
X150941000Y-119982400D01*
X150941000Y-118937446D01*
X163748017Y-118937446D01*
X164016812Y-119522879D01*
X164489182Y-119960885D01*
X164971056Y-120160475D01*
X165227000Y-120041336D01*
X165227000Y-119830501D01*
X165449000Y-119830501D01*
X165449000Y-120400000D01*
X165485614Y-120584071D01*
X165589882Y-120740118D01*
X165745929Y-120844386D01*
X165930000Y-120881000D01*
X166114071Y-120844386D01*
X166270118Y-120740118D01*
X166374386Y-120584071D01*
X166411000Y-120400000D01*
X166411000Y-119830501D01*
X166402970Y-119790130D01*
X166511863Y-119689158D01*
X166516103Y-119711690D01*
X166599546Y-119841365D01*
X166726866Y-119928359D01*
X166878000Y-119958964D01*
X167413000Y-119958964D01*
X167413000Y-120544500D01*
X167417904Y-120569154D01*
X167312250Y-120463500D01*
X167171691Y-120463500D01*
X166938302Y-120560173D01*
X166759673Y-120738801D01*
X166663000Y-120972190D01*
X166663000Y-121064750D01*
X166821750Y-121223500D01*
X167471000Y-121223500D01*
X167471000Y-121201500D01*
X167725000Y-121201500D01*
X167725000Y-121223500D01*
X167745000Y-121223500D01*
X167745000Y-121473500D01*
X167725000Y-121473500D01*
X167725000Y-122074750D01*
X167883750Y-122233500D01*
X168024309Y-122233500D01*
X168257698Y-122136827D01*
X168407562Y-121986964D01*
X168706228Y-121986964D01*
X168790220Y-122070956D01*
X168790220Y-123561694D01*
X168729980Y-123573029D01*
X168600305Y-123656472D01*
X168513311Y-123783792D01*
X168482706Y-123934926D01*
X168482706Y-124735026D01*
X168509273Y-124876216D01*
X168592716Y-125005891D01*
X168720036Y-125092885D01*
X168871170Y-125123490D01*
X169671270Y-125123490D01*
X169812460Y-125096923D01*
X169942135Y-125013480D01*
X170029129Y-124886160D01*
X170059734Y-124735026D01*
X170059734Y-123934926D01*
X170033167Y-123793736D01*
X169949724Y-123664061D01*
X169822404Y-123577067D01*
X169752220Y-123562855D01*
X169752220Y-121871720D01*
X169715606Y-121687649D01*
X169611338Y-121531602D01*
X169386464Y-121306728D01*
X169386464Y-121098500D01*
X169359897Y-120957310D01*
X169276454Y-120827635D01*
X169149134Y-120740641D01*
X168998000Y-120710036D01*
X168689772Y-120710036D01*
X168638804Y-120659068D01*
X168538118Y-120508382D01*
X168375000Y-120345264D01*
X168375000Y-119958964D01*
X168910000Y-119958964D01*
X169051190Y-119932397D01*
X169180865Y-119848954D01*
X169267859Y-119721634D01*
X169298464Y-119570500D01*
X169298464Y-117538500D01*
X169271897Y-117397310D01*
X169188454Y-117267635D01*
X169061134Y-117180641D01*
X168910000Y-117150036D01*
X166878000Y-117150036D01*
X166736810Y-117176603D01*
X166607135Y-117260046D01*
X166520141Y-117387366D01*
X166513296Y-117421170D01*
X166218818Y-117148115D01*
X165736944Y-116948525D01*
X165481000Y-117067664D01*
X165481000Y-118427500D01*
X165501000Y-118427500D01*
X165501000Y-118681500D01*
X165481000Y-118681500D01*
X165481000Y-119669626D01*
X165449000Y-119830501D01*
X165227000Y-119830501D01*
X165227000Y-118681500D01*
X163866633Y-118681500D01*
X163748017Y-118937446D01*
X150941000Y-118937446D01*
X150941000Y-118171554D01*
X163748017Y-118171554D01*
X163866633Y-118427500D01*
X165227000Y-118427500D01*
X165227000Y-117067664D01*
X164971056Y-116948525D01*
X164489182Y-117148115D01*
X164016812Y-117586121D01*
X163748017Y-118171554D01*
X150941000Y-118171554D01*
X150941000Y-113960000D01*
X150904386Y-113775929D01*
X150800118Y-113619881D01*
X149901437Y-112721200D01*
X150063712Y-112829629D01*
X150540000Y-112924369D01*
X151016288Y-112829629D01*
X151420065Y-112559834D01*
X151689860Y-112156057D01*
X151692704Y-112141757D01*
X151788046Y-112414320D01*
X152177964Y-112850732D01*
X152705209Y-113104709D01*
X152720974Y-113107358D01*
X152953000Y-112986217D01*
X152953000Y-111627000D01*
X152933000Y-111627000D01*
X152933000Y-111373000D01*
X152953000Y-111373000D01*
X152953000Y-110013783D01*
X153207000Y-110013783D01*
X153207000Y-111373000D01*
X153227000Y-111373000D01*
X153227000Y-111627000D01*
X153207000Y-111627000D01*
X153207000Y-112986217D01*
X153439026Y-113107358D01*
X153454791Y-113104709D01*
X153982036Y-112850732D01*
X154371954Y-112414320D01*
X154467296Y-112141757D01*
X154470140Y-112156057D01*
X154739935Y-112559834D01*
X155143712Y-112829629D01*
X155620000Y-112924369D01*
X156096288Y-112829629D01*
X156500065Y-112559834D01*
X156769860Y-112156057D01*
X156864600Y-111679769D01*
X156864600Y-111320231D01*
X156915400Y-111320231D01*
X156915400Y-111679769D01*
X157010140Y-112156057D01*
X157279935Y-112559834D01*
X157683712Y-112829629D01*
X158160000Y-112924369D01*
X158636288Y-112829629D01*
X159040065Y-112559834D01*
X159309860Y-112156057D01*
X159404600Y-111679769D01*
X159404600Y-111320231D01*
X159455400Y-111320231D01*
X159455400Y-111679769D01*
X159550140Y-112156057D01*
X159819935Y-112559834D01*
X160223712Y-112829629D01*
X160700000Y-112924369D01*
X161176288Y-112829629D01*
X161580065Y-112559834D01*
X161849860Y-112156057D01*
X161944600Y-111679769D01*
X161944600Y-111320231D01*
X161849860Y-110843943D01*
X161580065Y-110440166D01*
X161176288Y-110170371D01*
X160700000Y-110075631D01*
X160223712Y-110170371D01*
X159819935Y-110440166D01*
X159550140Y-110843943D01*
X159455400Y-111320231D01*
X159404600Y-111320231D01*
X159309860Y-110843943D01*
X159040065Y-110440166D01*
X158636288Y-110170371D01*
X158160000Y-110075631D01*
X157683712Y-110170371D01*
X157279935Y-110440166D01*
X157010140Y-110843943D01*
X156915400Y-111320231D01*
X156864600Y-111320231D01*
X156769860Y-110843943D01*
X156500065Y-110440166D01*
X156096288Y-110170371D01*
X155620000Y-110075631D01*
X155143712Y-110170371D01*
X154739935Y-110440166D01*
X154470140Y-110843943D01*
X154467296Y-110858243D01*
X154371954Y-110585680D01*
X153982036Y-110149268D01*
X153454791Y-109895291D01*
X153439026Y-109892642D01*
X153207000Y-110013783D01*
X152953000Y-110013783D01*
X152720974Y-109892642D01*
X152705209Y-109895291D01*
X152177964Y-110149268D01*
X151788046Y-110585680D01*
X151692704Y-110858243D01*
X151689860Y-110843943D01*
X151420065Y-110440166D01*
X151016288Y-110170371D01*
X150540000Y-110075631D01*
X150063712Y-110170371D01*
X149659935Y-110440166D01*
X149390140Y-110843943D01*
X149295400Y-111320231D01*
X149295400Y-111679769D01*
X149390140Y-112156057D01*
X149498569Y-112318332D01*
X149252064Y-112071828D01*
X149252064Y-110484000D01*
X149225497Y-110342810D01*
X149142054Y-110213135D01*
X149014734Y-110126141D01*
X148863600Y-110095536D01*
X147136400Y-110095536D01*
X146995210Y-110122103D01*
X146865535Y-110205546D01*
X146778541Y-110332866D01*
X146747936Y-110484000D01*
X146747936Y-112516000D01*
X146774503Y-112657190D01*
X146857946Y-112786865D01*
X146985266Y-112873859D01*
X147136400Y-112904464D01*
X148724228Y-112904464D01*
X149979000Y-114159237D01*
X149979000Y-121676831D01*
X149942322Y-121713445D01*
X149849106Y-121937931D01*
X149848894Y-122181002D01*
X149941718Y-122405651D01*
X150113445Y-122577678D01*
X150337931Y-122670894D01*
X150581002Y-122671106D01*
X150805651Y-122578282D01*
X150977678Y-122406555D01*
X151070894Y-122182069D01*
X151070961Y-122104998D01*
X151183445Y-122217678D01*
X151407931Y-122310894D01*
X151651002Y-122311106D01*
X151875651Y-122218282D01*
X151882994Y-122210952D01*
X151921546Y-122270865D01*
X152048866Y-122357859D01*
X152200000Y-122388464D01*
X152600000Y-122388464D01*
X152741190Y-122361897D01*
X152851186Y-122291117D01*
X152948866Y-122357859D01*
X153100000Y-122388464D01*
X153500000Y-122388464D01*
X153641190Y-122361897D01*
X153770865Y-122278454D01*
X153837452Y-122181000D01*
X154363720Y-122181000D01*
X154421546Y-122270865D01*
X154548866Y-122357859D01*
X154700000Y-122388464D01*
X155044000Y-122388464D01*
X155044000Y-123428905D01*
X154644935Y-123695552D01*
X154375140Y-124099329D01*
X154374676Y-124101662D01*
X154191821Y-123711510D01*
X153759947Y-123317312D01*
X153344026Y-123145042D01*
X153112000Y-123266183D01*
X153112000Y-124473000D01*
X153132000Y-124473000D01*
X153132000Y-124727000D01*
X153112000Y-124727000D01*
X153112000Y-124747000D01*
X152858000Y-124747000D01*
X152858000Y-124727000D01*
X151650531Y-124727000D01*
X151530032Y-124959027D01*
X151778179Y-125488490D01*
X152210053Y-125882688D01*
X152222724Y-125887936D01*
X152121400Y-125887936D01*
X151980210Y-125914503D01*
X151850535Y-125997946D01*
X151763541Y-126125266D01*
X151732936Y-126276400D01*
X151732936Y-128003600D01*
X151759503Y-128144790D01*
X151842946Y-128274465D01*
X151970266Y-128361459D01*
X152121400Y-128392064D01*
X152543549Y-128392064D01*
X152644882Y-128543718D01*
X154222128Y-130120964D01*
X154222128Y-136366891D01*
X153375118Y-135519882D01*
X153219071Y-135415614D01*
X153199484Y-135411718D01*
X153035000Y-135379000D01*
X148691637Y-135379000D01*
X147787855Y-134475219D01*
X147925651Y-134418282D01*
X148097678Y-134246555D01*
X148190894Y-134022069D01*
X148190940Y-133969296D01*
X149983318Y-132176919D01*
X150011718Y-132245651D01*
X150183445Y-132417678D01*
X150407931Y-132510894D01*
X150651002Y-132511106D01*
X150875651Y-132418282D01*
X151047678Y-132246555D01*
X151140894Y-132022069D01*
X151141106Y-131778998D01*
X151048282Y-131554349D01*
X150876555Y-131382322D01*
X150736317Y-131324089D01*
X150761000Y-131200000D01*
X150761000Y-130983169D01*
X150797678Y-130946555D01*
X150890894Y-130722069D01*
X150891106Y-130478998D01*
X150798282Y-130254349D01*
X150626555Y-130082322D01*
X150402069Y-129989106D01*
X150158998Y-129988894D01*
X149934349Y-130081718D01*
X149897002Y-130119000D01*
X149406978Y-130119000D01*
X148626772Y-129338794D01*
X150988558Y-129338794D01*
X151548939Y-129899175D01*
X151548894Y-129951002D01*
X151641718Y-130175651D01*
X151813445Y-130347678D01*
X152037931Y-130440894D01*
X152281002Y-130441106D01*
X152505651Y-130348282D01*
X152677678Y-130176555D01*
X152770894Y-129952069D01*
X152771106Y-129708998D01*
X152678282Y-129484349D01*
X152506555Y-129312322D01*
X152282069Y-129219106D01*
X152229296Y-129219060D01*
X151527912Y-128517676D01*
X151371865Y-128413408D01*
X151187794Y-128376794D01*
X148553662Y-128376794D01*
X148517048Y-128340116D01*
X148292562Y-128246900D01*
X148049491Y-128246688D01*
X147824842Y-128339512D01*
X147726080Y-128438102D01*
X143528951Y-124240973D01*
X151530032Y-124240973D01*
X151650531Y-124473000D01*
X152858000Y-124473000D01*
X152858000Y-123266183D01*
X152625974Y-123145042D01*
X152210053Y-123317312D01*
X151778179Y-123711510D01*
X151530032Y-124240973D01*
X143528951Y-124240973D01*
X142063033Y-122775056D01*
X142069190Y-122773897D01*
X142198865Y-122690454D01*
X142285859Y-122563134D01*
X142316464Y-122412000D01*
X142316464Y-121912000D01*
X142289897Y-121770810D01*
X142206454Y-121641135D01*
X142079134Y-121554141D01*
X141928000Y-121523536D01*
X141028000Y-121523536D01*
X140886810Y-121550103D01*
X140757135Y-121633546D01*
X140670141Y-121760866D01*
X140639536Y-121912000D01*
X140639536Y-122412000D01*
X140666103Y-122553190D01*
X140749546Y-122682865D01*
X140876866Y-122769859D01*
X140997000Y-122794186D01*
X140997000Y-122870259D01*
X141013283Y-122952118D01*
X141033614Y-123054330D01*
X141137882Y-123210377D01*
X148867623Y-130940119D01*
X149023671Y-131044387D01*
X149207741Y-131081000D01*
X149718763Y-131081000D01*
X147510825Y-133288939D01*
X147458998Y-133288894D01*
X147234349Y-133381718D01*
X147062322Y-133553445D01*
X147004744Y-133692107D01*
X146018700Y-132706064D01*
X146267600Y-132706064D01*
X146408790Y-132679497D01*
X146538465Y-132596054D01*
X146625459Y-132468734D01*
X146656064Y-132317600D01*
X146656064Y-130082400D01*
X146629497Y-129941210D01*
X146546054Y-129811535D01*
X146418734Y-129724541D01*
X146267600Y-129693936D01*
X144032400Y-129693936D01*
X143891210Y-129720503D01*
X143761535Y-129803946D01*
X143674541Y-129931266D01*
X143643936Y-130082400D01*
X143643936Y-132317600D01*
X143670503Y-132458790D01*
X143753946Y-132588465D01*
X143881266Y-132675459D01*
X144032400Y-132706064D01*
X144708549Y-132706064D01*
X144809882Y-132857718D01*
X148152281Y-136200118D01*
X148265324Y-136275651D01*
X148308329Y-136304386D01*
X148492400Y-136341000D01*
X152835764Y-136341000D01*
X152997998Y-136503234D01*
X152997998Y-136546748D01*
X152866250Y-136415000D01*
X152798691Y-136415000D01*
X152565302Y-136511673D01*
X152386673Y-136690301D01*
X152290000Y-136923690D01*
X152290000Y-137064250D01*
X152448748Y-137222998D01*
X152353234Y-137222998D01*
X152197988Y-137067752D01*
X152186897Y-137008810D01*
X152103454Y-136879135D01*
X151976134Y-136792141D01*
X151825000Y-136761536D01*
X151234562Y-136761536D01*
X151084698Y-136611673D01*
X150851309Y-136515000D01*
X150710750Y-136515000D01*
X150552000Y-136673750D01*
X150552000Y-137275000D01*
X150572000Y-137275000D01*
X150572000Y-137525000D01*
X150552000Y-137525000D01*
X150552000Y-137547000D01*
X150298000Y-137547000D01*
X150298000Y-137525000D01*
X149648750Y-137525000D01*
X149490000Y-137683750D01*
X149490000Y-137776310D01*
X149586673Y-138009699D01*
X149765302Y-138188327D01*
X149942452Y-138261705D01*
X149865000Y-138448690D01*
X149865000Y-138589250D01*
X150023750Y-138748000D01*
X150600000Y-138748000D01*
X150600000Y-138728000D01*
X150800000Y-138728000D01*
X150800000Y-138748000D01*
X150847000Y-138748000D01*
X150847000Y-139002000D01*
X150800000Y-139002000D01*
X150800000Y-139022000D01*
X150600000Y-139022000D01*
X150600000Y-139002000D01*
X150023750Y-139002000D01*
X149865000Y-139160750D01*
X149865000Y-139301310D01*
X149952079Y-139511536D01*
X149740000Y-139511536D01*
X149598810Y-139538103D01*
X149469135Y-139621546D01*
X149409380Y-139709000D01*
X149226280Y-139709000D01*
X149168454Y-139619135D01*
X149041134Y-139532141D01*
X148890000Y-139501536D01*
X148390000Y-139501536D01*
X148248810Y-139528103D01*
X148119135Y-139611546D01*
X148052548Y-139709000D01*
X147541637Y-139709000D01*
X146248700Y-138416064D01*
X146497600Y-138416064D01*
X146638790Y-138389497D01*
X146768465Y-138306054D01*
X146855459Y-138178734D01*
X146886064Y-138027600D01*
X146886064Y-137023690D01*
X149490000Y-137023690D01*
X149490000Y-137116250D01*
X149648750Y-137275000D01*
X150298000Y-137275000D01*
X150298000Y-136673750D01*
X150139250Y-136515000D01*
X149998691Y-136515000D01*
X149765302Y-136611673D01*
X149586673Y-136790301D01*
X149490000Y-137023690D01*
X146886064Y-137023690D01*
X146886064Y-135792400D01*
X146859497Y-135651210D01*
X146776054Y-135521535D01*
X146648734Y-135434541D01*
X146497600Y-135403936D01*
X144262400Y-135403936D01*
X144121210Y-135430503D01*
X143991535Y-135513946D01*
X143904541Y-135641266D01*
X143873936Y-135792400D01*
X143873936Y-136488500D01*
X141866464Y-136488500D01*
X141866464Y-135953500D01*
X141839897Y-135812310D01*
X141756454Y-135682635D01*
X141629134Y-135595641D01*
X141478000Y-135565036D01*
X139446000Y-135565036D01*
X139304810Y-135591603D01*
X139175135Y-135675046D01*
X139088141Y-135802366D01*
X139057536Y-135953500D01*
X137757000Y-135953500D01*
X137757000Y-130396385D01*
X137770866Y-130405859D01*
X137922000Y-130436464D01*
X139954000Y-130436464D01*
X140095190Y-130409897D01*
X140224865Y-130326454D01*
X140311859Y-130199134D01*
X140342464Y-130048000D01*
X140342464Y-128016000D01*
X140315897Y-127874810D01*
X140232454Y-127745135D01*
X140105134Y-127658141D01*
X139954000Y-127627536D01*
X139732137Y-127627536D01*
X139953197Y-127479828D01*
X140256029Y-127026609D01*
X140362369Y-126492000D01*
X140256029Y-125957391D01*
X139953197Y-125504172D01*
X139499978Y-125201340D01*
X139419000Y-125185233D01*
X139419000Y-124527154D01*
X139838430Y-124527154D01*
X139979620Y-124500587D01*
X140109295Y-124417144D01*
X140196289Y-124289824D01*
X140226894Y-124138690D01*
X140226894Y-122541030D01*
X140200327Y-122399840D01*
X140116884Y-122270165D01*
X139989564Y-122183171D01*
X139838430Y-122152566D01*
X138037570Y-122152566D01*
X137896380Y-122179133D01*
X137766705Y-122262576D01*
X137757000Y-122276780D01*
X137757000Y-121566547D01*
X137759116Y-121569835D01*
X137886436Y-121656829D01*
X138037570Y-121687434D01*
X139838430Y-121687434D01*
X139979620Y-121660867D01*
X140109295Y-121577424D01*
X140196289Y-121450104D01*
X140226894Y-121298970D01*
X140226894Y-121143000D01*
X140723894Y-121143000D01*
X140749546Y-121182865D01*
X140876866Y-121269859D01*
X141028000Y-121300464D01*
X141928000Y-121300464D01*
X142069190Y-121273897D01*
X142198865Y-121190454D01*
X142285859Y-121063134D01*
X142316464Y-120912000D01*
X142316464Y-120412000D01*
X142289897Y-120270810D01*
X142206454Y-120141135D01*
X142079134Y-120054141D01*
X141928000Y-120023536D01*
X141028000Y-120023536D01*
X140886810Y-120050103D01*
X140757135Y-120133546D01*
X140724711Y-120181000D01*
X140226894Y-120181000D01*
X140226894Y-119701310D01*
X140200327Y-119560120D01*
X140116884Y-119430445D01*
X139989564Y-119343451D01*
X139838430Y-119312846D01*
X138037570Y-119312846D01*
X137896380Y-119339413D01*
X137766705Y-119422856D01*
X137757000Y-119437060D01*
X137757000Y-114745567D01*
X138298720Y-115288233D01*
X139724635Y-115880325D01*
X141268592Y-115881672D01*
X142695538Y-115292070D01*
X143788233Y-114201280D01*
X144380325Y-112775365D01*
X144381672Y-111231408D01*
X143792070Y-109804462D01*
X143015963Y-109027000D01*
X166484835Y-109027000D01*
X165711767Y-109798720D01*
G36*
X168673936Y-140817600D02*
X168700503Y-140958790D01*
X168706596Y-140968259D01*
X168704541Y-140971266D01*
X168673936Y-141122400D01*
X168673936Y-141759000D01*
X162739989Y-141759000D01*
X162562092Y-141794386D01*
X162555918Y-141795614D01*
X162399870Y-141899882D01*
X161040814Y-143258939D01*
X160988987Y-143258894D01*
X160947012Y-143276238D01*
X160997000Y-143226250D01*
X160997000Y-143133690D01*
X160900327Y-142900301D01*
X160875026Y-142875000D01*
X160900327Y-142849699D01*
X160997000Y-142616310D01*
X160997000Y-142523750D01*
X160838250Y-142365000D01*
X160189000Y-142365000D01*
X160189000Y-143385000D01*
X160209000Y-143385000D01*
X160209000Y-143635000D01*
X160189000Y-143635000D01*
X160189000Y-144655000D01*
X160838250Y-144655000D01*
X160997000Y-144496250D01*
X160997000Y-144480902D01*
X161230991Y-144481106D01*
X161455640Y-144388282D01*
X161627667Y-144216555D01*
X161720883Y-143992069D01*
X161720929Y-143939296D01*
X162939226Y-142721000D01*
X168673936Y-142721000D01*
X168673936Y-143357600D01*
X168700503Y-143498790D01*
X168706596Y-143508259D01*
X168704541Y-143511266D01*
X168673936Y-143662400D01*
X168673936Y-144338549D01*
X168522281Y-144439882D01*
X168153163Y-144809001D01*
X159915000Y-144809001D01*
X159915000Y-144655000D01*
X159935000Y-144655000D01*
X159935000Y-143635000D01*
X159915000Y-143635000D01*
X159915000Y-143385000D01*
X159935000Y-143385000D01*
X159935000Y-142365000D01*
X159915000Y-142365000D01*
X159915000Y-142115000D01*
X159935000Y-142115000D01*
X159935000Y-141095000D01*
X160189000Y-141095000D01*
X160189000Y-142115000D01*
X160838250Y-142115000D01*
X160997000Y-141956250D01*
X160997000Y-141863690D01*
X160900327Y-141630301D01*
X160875026Y-141605000D01*
X160900327Y-141579699D01*
X160997000Y-141346310D01*
X160997000Y-141253750D01*
X160838250Y-141095000D01*
X160189000Y-141095000D01*
X159935000Y-141095000D01*
X159915000Y-141095000D01*
X159915000Y-140845000D01*
X159935000Y-140845000D01*
X159935000Y-140823000D01*
X160189000Y-140823000D01*
X160189000Y-140845000D01*
X160838250Y-140845000D01*
X160997000Y-140686250D01*
X160997000Y-140593690D01*
X160937896Y-140451000D01*
X168592400Y-140451000D01*
X168673936Y-140434781D01*
X168673936Y-140817600D01*
X168673936Y-140817600D01*
G37*
X168673936Y-140817600D02*
X168700503Y-140958790D01*
X168706596Y-140968259D01*
X168704541Y-140971266D01*
X168673936Y-141122400D01*
X168673936Y-141759000D01*
X162739989Y-141759000D01*
X162562092Y-141794386D01*
X162555918Y-141795614D01*
X162399870Y-141899882D01*
X161040814Y-143258939D01*
X160988987Y-143258894D01*
X160947012Y-143276238D01*
X160997000Y-143226250D01*
X160997000Y-143133690D01*
X160900327Y-142900301D01*
X160875026Y-142875000D01*
X160900327Y-142849699D01*
X160997000Y-142616310D01*
X160997000Y-142523750D01*
X160838250Y-142365000D01*
X160189000Y-142365000D01*
X160189000Y-143385000D01*
X160209000Y-143385000D01*
X160209000Y-143635000D01*
X160189000Y-143635000D01*
X160189000Y-144655000D01*
X160838250Y-144655000D01*
X160997000Y-144496250D01*
X160997000Y-144480902D01*
X161230991Y-144481106D01*
X161455640Y-144388282D01*
X161627667Y-144216555D01*
X161720883Y-143992069D01*
X161720929Y-143939296D01*
X162939226Y-142721000D01*
X168673936Y-142721000D01*
X168673936Y-143357600D01*
X168700503Y-143498790D01*
X168706596Y-143508259D01*
X168704541Y-143511266D01*
X168673936Y-143662400D01*
X168673936Y-144338549D01*
X168522281Y-144439882D01*
X168153163Y-144809001D01*
X159915000Y-144809001D01*
X159915000Y-144655000D01*
X159935000Y-144655000D01*
X159935000Y-143635000D01*
X159915000Y-143635000D01*
X159915000Y-143385000D01*
X159935000Y-143385000D01*
X159935000Y-142365000D01*
X159915000Y-142365000D01*
X159915000Y-142115000D01*
X159935000Y-142115000D01*
X159935000Y-141095000D01*
X160189000Y-141095000D01*
X160189000Y-142115000D01*
X160838250Y-142115000D01*
X160997000Y-141956250D01*
X160997000Y-141863690D01*
X160900327Y-141630301D01*
X160875026Y-141605000D01*
X160900327Y-141579699D01*
X160997000Y-141346310D01*
X160997000Y-141253750D01*
X160838250Y-141095000D01*
X160189000Y-141095000D01*
X159935000Y-141095000D01*
X159915000Y-141095000D01*
X159915000Y-140845000D01*
X159935000Y-140845000D01*
X159935000Y-140823000D01*
X160189000Y-140823000D01*
X160189000Y-140845000D01*
X160838250Y-140845000D01*
X160997000Y-140686250D01*
X160997000Y-140593690D01*
X160937896Y-140451000D01*
X168592400Y-140451000D01*
X168673936Y-140434781D01*
X168673936Y-140817600D01*
G36*
X153659000Y-142229000D02*
X155205000Y-142229000D01*
X155205000Y-142209000D01*
X155459000Y-142209000D01*
X155459000Y-142229000D01*
X155479000Y-142229000D01*
X155479000Y-142483000D01*
X155459000Y-142483000D01*
X155459000Y-144029000D01*
X155479000Y-144029000D01*
X155479000Y-144283000D01*
X155459000Y-144283000D01*
X155459000Y-144303000D01*
X155205000Y-144303000D01*
X155205000Y-144283000D01*
X153659000Y-144283000D01*
X153659000Y-144303000D01*
X153405000Y-144303000D01*
X153405000Y-144283000D01*
X153385000Y-144283000D01*
X153385000Y-144029000D01*
X153405000Y-144029000D01*
X153405000Y-142483000D01*
X153659000Y-142483000D01*
X153659000Y-144029000D01*
X155205000Y-144029000D01*
X155205000Y-142483000D01*
X153659000Y-142483000D01*
X153405000Y-142483000D01*
X153385000Y-142483000D01*
X153385000Y-142229000D01*
X153405000Y-142229000D01*
X153405000Y-142209000D01*
X153659000Y-142209000D01*
X153659000Y-142229000D01*
X153659000Y-142229000D01*
G37*
X153659000Y-142229000D02*
X155205000Y-142229000D01*
X155205000Y-142209000D01*
X155459000Y-142209000D01*
X155459000Y-142229000D01*
X155479000Y-142229000D01*
X155479000Y-142483000D01*
X155459000Y-142483000D01*
X155459000Y-144029000D01*
X155479000Y-144029000D01*
X155479000Y-144283000D01*
X155459000Y-144283000D01*
X155459000Y-144303000D01*
X155205000Y-144303000D01*
X155205000Y-144283000D01*
X153659000Y-144283000D01*
X153659000Y-144303000D01*
X153405000Y-144303000D01*
X153405000Y-144283000D01*
X153385000Y-144283000D01*
X153385000Y-144029000D01*
X153405000Y-144029000D01*
X153405000Y-142483000D01*
X153659000Y-142483000D01*
X153659000Y-144029000D01*
X155205000Y-144029000D01*
X155205000Y-142483000D01*
X153659000Y-142483000D01*
X153405000Y-142483000D01*
X153385000Y-142483000D01*
X153385000Y-142229000D01*
X153405000Y-142229000D01*
X153405000Y-142209000D01*
X153659000Y-142209000D01*
X153659000Y-142229000D01*
G36*
X161769000Y-130547600D02*
X161803094Y-130719000D01*
X161805614Y-130731671D01*
X161909882Y-130887718D01*
X168522282Y-137500119D01*
X168615826Y-137562622D01*
X168673936Y-137601451D01*
X168673936Y-138277600D01*
X168700503Y-138418790D01*
X168706596Y-138428259D01*
X168704541Y-138431266D01*
X168673936Y-138582400D01*
X168673936Y-139258549D01*
X168621575Y-139293536D01*
X168522282Y-139359881D01*
X168393163Y-139489000D01*
X161404984Y-139489000D01*
X161547678Y-139346555D01*
X161640894Y-139122069D01*
X161641106Y-138878998D01*
X161548282Y-138654349D01*
X161376555Y-138482322D01*
X161152069Y-138389106D01*
X160908998Y-138388894D01*
X160881959Y-138400066D01*
X160954327Y-138327699D01*
X161051000Y-138094310D01*
X161051000Y-137953750D01*
X160892250Y-137795000D01*
X160316000Y-137795000D01*
X160316000Y-137815000D01*
X160116000Y-137815000D01*
X160116000Y-137795000D01*
X160069000Y-137795000D01*
X160069000Y-137541000D01*
X160116000Y-137541000D01*
X160116000Y-136891750D01*
X160316000Y-136891750D01*
X160316000Y-137541000D01*
X160892250Y-137541000D01*
X161051000Y-137382250D01*
X161051000Y-137241690D01*
X160954327Y-137008301D01*
X160775698Y-136829673D01*
X160542309Y-136733000D01*
X160474750Y-136733000D01*
X160316000Y-136891750D01*
X160116000Y-136891750D01*
X159957250Y-136733000D01*
X159889691Y-136733000D01*
X159656302Y-136829673D01*
X159506438Y-136979536D01*
X159116000Y-136979536D01*
X158974810Y-137006103D01*
X158845135Y-137089546D01*
X158789082Y-137171582D01*
X158789082Y-136051002D01*
X159258894Y-136051002D01*
X159351718Y-136275651D01*
X159523445Y-136447678D01*
X159747931Y-136540894D01*
X159991002Y-136541106D01*
X160215651Y-136448282D01*
X160387678Y-136276555D01*
X160480894Y-136052069D01*
X160481106Y-135808998D01*
X160388282Y-135584349D01*
X160216555Y-135412322D01*
X159992069Y-135319106D01*
X159748998Y-135318894D01*
X159524349Y-135411718D01*
X159352322Y-135583445D01*
X159259106Y-135807931D01*
X159258894Y-136051002D01*
X158789082Y-136051002D01*
X158789082Y-132806213D01*
X159981392Y-132806213D01*
X160050857Y-133048397D01*
X160574302Y-133235144D01*
X161129368Y-133207362D01*
X161513143Y-133048397D01*
X161582608Y-132806213D01*
X160782000Y-132005605D01*
X159981392Y-132806213D01*
X158789082Y-132806213D01*
X158789082Y-131959154D01*
X159507591Y-131240645D01*
X159372856Y-131618302D01*
X159400638Y-132173368D01*
X159559603Y-132557143D01*
X159801787Y-132626608D01*
X160602395Y-131826000D01*
X160961605Y-131826000D01*
X161762213Y-132626608D01*
X162004397Y-132557143D01*
X162191144Y-132033698D01*
X162163362Y-131478632D01*
X162004397Y-131094857D01*
X161762213Y-131025392D01*
X160961605Y-131826000D01*
X160602395Y-131826000D01*
X160588253Y-131811858D01*
X160767858Y-131632253D01*
X160782000Y-131646395D01*
X161582608Y-130845787D01*
X161513143Y-130603603D01*
X161015742Y-130426148D01*
X161428612Y-130255554D01*
X161750423Y-129934303D01*
X161769000Y-129889565D01*
X161769000Y-130547600D01*
X161769000Y-130547600D01*
G37*
X161769000Y-130547600D02*
X161803094Y-130719000D01*
X161805614Y-130731671D01*
X161909882Y-130887718D01*
X168522282Y-137500119D01*
X168615826Y-137562622D01*
X168673936Y-137601451D01*
X168673936Y-138277600D01*
X168700503Y-138418790D01*
X168706596Y-138428259D01*
X168704541Y-138431266D01*
X168673936Y-138582400D01*
X168673936Y-139258549D01*
X168621575Y-139293536D01*
X168522282Y-139359881D01*
X168393163Y-139489000D01*
X161404984Y-139489000D01*
X161547678Y-139346555D01*
X161640894Y-139122069D01*
X161641106Y-138878998D01*
X161548282Y-138654349D01*
X161376555Y-138482322D01*
X161152069Y-138389106D01*
X160908998Y-138388894D01*
X160881959Y-138400066D01*
X160954327Y-138327699D01*
X161051000Y-138094310D01*
X161051000Y-137953750D01*
X160892250Y-137795000D01*
X160316000Y-137795000D01*
X160316000Y-137815000D01*
X160116000Y-137815000D01*
X160116000Y-137795000D01*
X160069000Y-137795000D01*
X160069000Y-137541000D01*
X160116000Y-137541000D01*
X160116000Y-136891750D01*
X160316000Y-136891750D01*
X160316000Y-137541000D01*
X160892250Y-137541000D01*
X161051000Y-137382250D01*
X161051000Y-137241690D01*
X160954327Y-137008301D01*
X160775698Y-136829673D01*
X160542309Y-136733000D01*
X160474750Y-136733000D01*
X160316000Y-136891750D01*
X160116000Y-136891750D01*
X159957250Y-136733000D01*
X159889691Y-136733000D01*
X159656302Y-136829673D01*
X159506438Y-136979536D01*
X159116000Y-136979536D01*
X158974810Y-137006103D01*
X158845135Y-137089546D01*
X158789082Y-137171582D01*
X158789082Y-136051002D01*
X159258894Y-136051002D01*
X159351718Y-136275651D01*
X159523445Y-136447678D01*
X159747931Y-136540894D01*
X159991002Y-136541106D01*
X160215651Y-136448282D01*
X160387678Y-136276555D01*
X160480894Y-136052069D01*
X160481106Y-135808998D01*
X160388282Y-135584349D01*
X160216555Y-135412322D01*
X159992069Y-135319106D01*
X159748998Y-135318894D01*
X159524349Y-135411718D01*
X159352322Y-135583445D01*
X159259106Y-135807931D01*
X159258894Y-136051002D01*
X158789082Y-136051002D01*
X158789082Y-132806213D01*
X159981392Y-132806213D01*
X160050857Y-133048397D01*
X160574302Y-133235144D01*
X161129368Y-133207362D01*
X161513143Y-133048397D01*
X161582608Y-132806213D01*
X160782000Y-132005605D01*
X159981392Y-132806213D01*
X158789082Y-132806213D01*
X158789082Y-131959154D01*
X159507591Y-131240645D01*
X159372856Y-131618302D01*
X159400638Y-132173368D01*
X159559603Y-132557143D01*
X159801787Y-132626608D01*
X160602395Y-131826000D01*
X160961605Y-131826000D01*
X161762213Y-132626608D01*
X162004397Y-132557143D01*
X162191144Y-132033698D01*
X162163362Y-131478632D01*
X162004397Y-131094857D01*
X161762213Y-131025392D01*
X160961605Y-131826000D01*
X160602395Y-131826000D01*
X160588253Y-131811858D01*
X160767858Y-131632253D01*
X160782000Y-131646395D01*
X161582608Y-130845787D01*
X161513143Y-130603603D01*
X161015742Y-130426148D01*
X161428612Y-130255554D01*
X161750423Y-129934303D01*
X161769000Y-129889565D01*
X161769000Y-130547600D01*
G36*
X157827082Y-137038104D02*
X157602310Y-136945000D01*
X157509750Y-136945000D01*
X157351000Y-137103750D01*
X157351000Y-137753000D01*
X157373000Y-137753000D01*
X157373000Y-138007000D01*
X157351000Y-138007000D01*
X157351000Y-138027000D01*
X157101000Y-138027000D01*
X157101000Y-138007000D01*
X157079000Y-138007000D01*
X157079000Y-137753000D01*
X157101000Y-137753000D01*
X157101000Y-137103750D01*
X156942250Y-136945000D01*
X156849690Y-136945000D01*
X156760734Y-136981847D01*
X156760734Y-133583451D01*
X157362007Y-132982179D01*
X157413833Y-132982224D01*
X157638482Y-132889400D01*
X157810509Y-132717673D01*
X157827082Y-132677761D01*
X157827082Y-137038104D01*
X157827082Y-137038104D01*
G37*
X157827082Y-137038104D02*
X157602310Y-136945000D01*
X157509750Y-136945000D01*
X157351000Y-137103750D01*
X157351000Y-137753000D01*
X157373000Y-137753000D01*
X157373000Y-138007000D01*
X157351000Y-138007000D01*
X157351000Y-138027000D01*
X157101000Y-138027000D01*
X157101000Y-138007000D01*
X157079000Y-138007000D01*
X157079000Y-137753000D01*
X157101000Y-137753000D01*
X157101000Y-137103750D01*
X156942250Y-136945000D01*
X156849690Y-136945000D01*
X156760734Y-136981847D01*
X156760734Y-133583451D01*
X157362007Y-132982179D01*
X157413833Y-132982224D01*
X157638482Y-132889400D01*
X157810509Y-132717673D01*
X157827082Y-132677761D01*
X157827082Y-137038104D01*
G36*
X153225000Y-137223000D02*
X153272000Y-137223000D01*
X153272000Y-137477000D01*
X153225000Y-137477000D01*
X153225000Y-137497000D01*
X153025000Y-137497000D01*
X153025000Y-137477000D01*
X152978000Y-137477000D01*
X152978000Y-137223000D01*
X153025000Y-137223000D01*
X153025000Y-137203000D01*
X153225000Y-137203000D01*
X153225000Y-137223000D01*
X153225000Y-137223000D01*
G37*
X153225000Y-137223000D02*
X153272000Y-137223000D01*
X153272000Y-137477000D01*
X153225000Y-137477000D01*
X153225000Y-137497000D01*
X153025000Y-137497000D01*
X153025000Y-137477000D01*
X152978000Y-137477000D01*
X152978000Y-137223000D01*
X153025000Y-137223000D01*
X153025000Y-137203000D01*
X153225000Y-137203000D01*
X153225000Y-137223000D01*
M02*
